<svg width="42" height="42" viewBox="0 0 42 42" fill="none" xmlns="http://www.w3.org/2000/svg">
<g filter="url(#filter0_f)">
<path d="M15.1815 26.785L15.7502 26.9293L15.9887 27.1661L16.9045 27.3197L17.5164 27.6245L18.1189 27.5311L18.1955 27.862L19.1033 28.1933L19.5786 27.9896L19.8769 27.5871L20.3936 26.6658L21.0007 26.2959L21.24 25.8194L22.1647 25.4036L22.9642 24.4368L25.1079 23.1896L25.609 22.8788L26.054 22.2049L27.248 21.7314L27.867 21.7497L28.6958 21.2305L28.9142 20.0653L28.2588 19.1911L27.8582 18.2989L26.9295 17.9894L26.4743 15.9682L24.8082 14.7209L23.698 14.2572L22.8668 13.5898L21.7847 13.5958L21.0993 13.9628L18.6613 16.108L18.4371 16.5181L18.0732 16.9889L17.1617 17.1424L16.0862 18.2179L15.3937 19.1889L14.2564 19.155L13.3992 19.6218L13.2464 20.3686L13.4672 21.8921L13.779 23.3246L13.6727 23.7213L13.8537 24.8024L14.4475 25.25L14.856 26.559L15.1815 26.785Z" fill="#CBCAD2"/>
</g>
<path d="M13.5497 28.4651L14.2799 28.6503L14.5861 28.9544L15.762 29.1517L16.5478 29.5431L17.3215 29.4232L17.4198 29.848L18.5856 30.2735L19.1959 30.0119L19.5789 29.495L20.2424 28.312L21.022 27.837L21.3293 27.2251L22.5166 26.6912L23.5433 25.4498L26.296 23.8482L26.9394 23.4492L27.5108 22.5838L29.0441 21.9758L29.8389 21.9993L30.9031 21.3326L31.1836 19.8363L30.3419 18.7139L29.8276 17.5682L28.6351 17.1707L28.0506 14.5754L25.9112 12.9737L24.4856 12.3783L23.4182 11.5213L22.0286 11.529L21.1486 12.0003L18.018 14.7549L17.7301 15.2815L17.2629 15.886L16.0924 16.0832L14.7114 17.4642L13.8221 18.711L12.3617 18.6674L11.261 19.2668L11.0648 20.2259L11.3483 22.1822L11.7486 24.0216L11.6121 24.531L11.8446 25.9192L12.6071 26.494L13.1316 28.1749L13.5497 28.4651Z" fill="#CBCAD2" fill-opacity="0.2"/>
<path d="M13.5493 28.4633L14.2796 28.6485L14.5858 28.9526L15.7617 29.1499L16.5474 29.5412L17.3212 29.4214L17.4195 29.8462L18.5852 30.2716L19.1955 30.0101L19.5786 29.4932L20.242 28.3102L21.0216 27.8352L21.3289 27.2233L22.5162 26.6894L23.5539 25.4413L26.2956 23.8464L26.939 23.4474L27.5105 22.582L29.0437 21.974L29.8385 21.9975L30.9027 21.3308L31.1832 19.8345L30.3416 18.7121L29.8272 17.5664L28.6347 17.1689L28.0502 14.5736L25.9108 12.9719L24.4852 12.3764L23.4178 11.5195L22.0283 11.5271L21.1482 11.9985L18.0176 14.7531L17.7298 15.2797L17.2625 15.8842L16.092 16.0814L14.711 17.4624L13.8218 18.7092L12.3614 18.6656L11.2606 19.265L11.0645 20.2241L11.3479 22.1803L11.7482 24.0198L11.6118 24.5292L11.8442 25.9174L12.6067 26.4922L13.1312 28.1731L13.5493 28.4633Z" fill="url(#paint0_linear)" fill-opacity="0.48"/>
<path d="M13.9583 23.4481L14.8517 22.0886L12.4882 20.0039L15.2712 18.8567L17.4375 17.1009L20.1709 16.2709L19.8001 14.952L22.0283 11.5271L22.9458 13.3637L24.4352 13.1996L25.9108 12.9719L25.7656 15.4439L27.0764 17.4944L28.6347 17.1689L27.9854 19.7818L26.534 20.9661L27.3783 21.3339L26.939 23.4474L24.2974 22.1261L24.0272 24.4806L21.508 25.2981L19.9788 24.8075L19.4325 28.0677L16.8714 27.9149L14.6678 27.2818L14.8128 25.8563L12.8056 25.4196C13.2071 24.811 13.9583 23.4481 13.9583 23.4481Z" fill="url(#paint1_linear)" fill-opacity="0.48"/>
<path d="M14.2796 28.6485L13.5493 28.4633L13.1312 28.1731L12.6067 26.4922L11.8442 25.9174L11.6118 24.5292M14.2796 28.6485L14.5858 28.9526L15.7617 29.1499L16.5474 29.5412L17.3212 29.4214M14.2796 28.6485L14.6678 27.2818M11.6118 24.5292L11.7482 24.0198M11.6118 24.5292L12.8056 25.4196M11.7482 24.0198L11.3479 22.1803L11.0645 20.2241M11.7482 24.0198L13.9583 23.4481M11.0645 20.2241L11.2606 19.265M11.0645 20.2241L12.4882 20.0039M13.8218 18.7092L12.3614 18.6656L11.2606 19.265M13.8218 18.7092L14.711 17.4624L16.092 16.0814M13.8218 18.7092L15.2712 18.8567M16.092 16.0814L17.2625 15.8842L17.7298 15.2797L18.0176 14.7531M16.092 16.0814L17.4375 17.1009M18.0176 14.7531L21.1482 11.9985L22.0283 11.5271M18.0176 14.7531L19.8001 14.952M22.0283 11.5271L23.4178 11.5195L24.4852 12.3764L25.9108 12.9719M22.0283 11.5271L19.8001 14.952M22.0283 11.5271L22.9458 13.3637M25.9108 12.9719L28.0502 14.5736M25.9108 12.9719L24.857 15.275M25.9108 12.9719L25.7656 15.4439M25.9108 12.9719L24.4352 13.1996M28.0502 14.5736L28.6347 17.1689M28.0502 14.5736L25.7656 15.4439M23.5539 25.4413L26.2956 23.8464L26.939 23.4474M23.5539 25.4413L22.5162 26.6894L21.3289 27.2233M23.5539 25.4413L24.0272 24.4806M26.939 23.4474L27.5105 22.582L29.0437 21.974L29.8385 21.9975L30.9027 21.3308M26.939 23.4474L24.2974 22.1261M26.939 23.4474L27.3783 21.3339M30.9027 21.3308L31.1832 19.8345L30.3416 18.7121M30.9027 21.3308L30.3416 18.7121M30.3416 18.7121L29.8272 17.5664L28.6347 17.1689M30.3416 18.7121L27.9854 19.7818M28.6347 17.1689L27.0764 17.4944M28.6347 17.1689L27.9854 19.7818M11.2606 19.265L12.4882 20.0039M17.3212 29.4214L17.4195 29.8462L18.5852 30.2716L19.1955 30.0101L19.5786 29.4932M17.3212 29.4214L16.8714 27.9149M19.5786 29.4932L20.242 28.3102L21.0216 27.8352L21.3289 27.2233M19.5786 29.4932L19.4325 28.0677M21.3289 27.2233L21.508 25.2981M17.1822 25.8174L14.8128 25.8563M17.1822 25.8174L19.9788 24.8075M17.1822 25.8174L16.8714 27.9149M14.8128 25.8563L13.9583 23.4481M14.8128 25.8563L12.8056 25.4196M14.8128 25.8563L14.6678 27.2818M13.9583 23.4481L14.8517 22.0886M13.9583 23.4481C13.9583 23.4481 13.2071 24.811 12.8056 25.4196M14.8517 22.0886L16.1712 20.7691L15.2712 18.8567M14.8517 22.0886L12.4882 20.0039M15.2712 18.8567L17.4375 17.1009M15.2712 18.8567L12.4882 20.0039M17.4375 17.1009L20.1709 16.2709L19.8001 14.952M24.857 15.275L27.0764 17.4944M24.857 15.275L22.9329 14.7294M27.0764 17.4944L26.534 20.9661M27.0764 17.4944L25.7656 15.4439M26.534 20.9661L24.2974 22.1261M26.534 20.9661L27.3783 21.3339M26.534 20.9661L27.9854 19.7818M24.2974 22.1261L24.0272 24.4806M24.0272 24.4806L21.0401 23.7462L19.9788 24.8075M24.0272 24.4806L21.508 25.2981M19.9788 24.8075L21.508 25.2981M19.9788 24.8075L19.4325 28.0677M14.6678 27.2818L16.8714 27.9149M16.8714 27.9149L19.4325 28.0677M19.8001 14.952L21.2432 15.1987M27.3783 21.3339L29.818 22.0099M22.9329 14.7294L21.2432 15.1987M22.9329 14.7294L24.4352 13.1996M21.2432 15.1987L22.9458 13.3637M22.9458 13.3637L24.4352 13.1996" stroke="url(#paint2_linear)" stroke-width="0.140756"/>
<path d="M14.2796 28.6485L13.5493 28.4633L13.1312 28.1731L12.6067 26.4922L11.8442 25.9174L11.6118 24.5292M14.2796 28.6485L14.5858 28.9526L15.7617 29.1499L16.5474 29.5412L17.3212 29.4214M14.2796 28.6485L14.6678 27.2818M11.6118 24.5292L11.7482 24.0198M11.6118 24.5292L12.8056 25.4196M11.7482 24.0198L11.3479 22.1803L11.0645 20.2241M11.7482 24.0198L13.9583 23.4481M11.0645 20.2241L11.2606 19.265M11.0645 20.2241L12.4882 20.0039M13.8218 18.7092L12.3614 18.6656L11.2606 19.265M13.8218 18.7092L14.711 17.4624L16.092 16.0814M13.8218 18.7092L15.2712 18.8567M16.092 16.0814L17.2625 15.8842L17.7298 15.2797L18.0176 14.7531M16.092 16.0814L17.4375 17.1009M18.0176 14.7531L21.1482 11.9985L22.0283 11.5271M18.0176 14.7531L19.8001 14.952M22.0283 11.5271L23.4178 11.5195L24.4852 12.3764L25.9108 12.9719M22.0283 11.5271L19.8001 14.952M22.0283 11.5271L22.9458 13.3637M25.9108 12.9719L28.0502 14.5736M25.9108 12.9719L24.857 15.275M25.9108 12.9719L25.7656 15.4439M25.9108 12.9719L24.4352 13.1996M28.0502 14.5736L28.6347 17.1689M28.0502 14.5736L25.7656 15.4439M23.5539 25.4413L26.2956 23.8464L26.939 23.4474M23.5539 25.4413L22.5162 26.6894L21.3289 27.2233M23.5539 25.4413L24.0272 24.4806M26.939 23.4474L27.5105 22.582L29.0437 21.974L29.8385 21.9975L30.9027 21.3308M26.939 23.4474L24.2974 22.1261M26.939 23.4474L27.3783 21.3339M30.9027 21.3308L31.1832 19.8345L30.3416 18.7121M30.9027 21.3308L30.3416 18.7121M30.3416 18.7121L29.8272 17.5664L28.6347 17.1689M30.3416 18.7121L27.9854 19.7818M28.6347 17.1689L27.0764 17.4944M28.6347 17.1689L27.9854 19.7818M11.2606 19.265L12.4882 20.0039M17.3212 29.4214L17.4195 29.8462L18.5852 30.2716L19.1955 30.0101L19.5786 29.4932M17.3212 29.4214L16.8714 27.9149M19.5786 29.4932L20.242 28.3102L21.0216 27.8352L21.3289 27.2233M19.5786 29.4932L19.4325 28.0677M21.3289 27.2233L21.508 25.2981M17.1822 25.8174L14.8128 25.8563M17.1822 25.8174L19.9788 24.8075M17.1822 25.8174L16.8714 27.9149M14.8128 25.8563L13.9583 23.4481M14.8128 25.8563L12.8056 25.4196M14.8128 25.8563L14.6678 27.2818M13.9583 23.4481L14.8517 22.0886M13.9583 23.4481C13.9583 23.4481 13.2071 24.811 12.8056 25.4196M14.8517 22.0886L16.1712 20.7691L15.2712 18.8567M14.8517 22.0886L12.4882 20.0039M15.2712 18.8567L17.4375 17.1009M15.2712 18.8567L12.4882 20.0039M17.4375 17.1009L20.1709 16.2709L19.8001 14.952M24.857 15.275L27.0764 17.4944M24.857 15.275L22.9329 14.7294M27.0764 17.4944L26.534 20.9661M27.0764 17.4944L25.7656 15.4439M26.534 20.9661L24.2974 22.1261M26.534 20.9661L27.3783 21.3339M26.534 20.9661L27.9854 19.7818M24.2974 22.1261L24.0272 24.4806M24.0272 24.4806L21.0401 23.7462L19.9788 24.8075M24.0272 24.4806L21.508 25.2981M19.9788 24.8075L21.508 25.2981M19.9788 24.8075L19.4325 28.0677M14.6678 27.2818L16.8714 27.9149M16.8714 27.9149L19.4325 28.0677M19.8001 14.952L21.2432 15.1987M27.3783 21.3339L29.818 22.0099M22.9329 14.7294L21.2432 15.1987M22.9329 14.7294L24.4352 13.1996M21.2432 15.1987L22.9458 13.3637M22.9458 13.3637L24.4352 13.1996" stroke="url(#paint3_linear)" stroke-opacity="0.72" stroke-width="0.140756"/>
<path d="M14.8135 25.8573L17.1829 25.8185L19.9794 24.8086L21.0408 23.7473L24.0279 24.4817L24.2981 22.1272L26.5347 20.9672L27.0771 17.4955L24.8577 15.2761L22.9336 14.7305L21.2438 15.1998L20.928 15.8424L20.1716 16.272L17.4381 17.1019L15.2719 18.8577L16.1719 20.7702L14.8523 22.0897L13.959 23.4492L14.8135 25.8573Z" fill="url(#paint4_linear)" fill-opacity="0.5"/>
<path d="M14.8781 25.7781L14.0334 23.4557L14.8109 22.1529L14.5235 23.364C14.4819 23.5393 14.4782 23.7214 14.5126 23.8983L14.8781 25.7781Z" fill="url(#paint5_linear)"/>
<path d="M26.6705 19.7436L27.0758 17.4964L26.064 16.5844L26.5204 17.3297C26.6471 17.5365 26.7118 17.7754 26.7067 18.0179L26.6705 19.7436Z" fill="url(#paint6_linear)"/>
<path d="M19.708 16.3945L17.452 17.0783L16.7889 17.6217L17.5992 17.2053L19.708 16.3945Z" fill="url(#paint7_linear)"/>
<path d="M22.9395 14.7305L21.2436 15.1989L20.9308 15.8329L21.2674 15.5037C21.3867 15.3871 21.5278 15.2952 21.6826 15.2332L22.9395 14.7305Z" fill="url(#paint8_linear)"/>
<path d="M19.9719 24.7496L17.2227 25.7777L14.639 23.8097L16.8118 25.2244C17.1233 25.4272 17.5081 25.483 17.8644 25.3769L19.9719 24.7496Z" fill="url(#paint9_linear)"/>
<path d="M17.4235 17.1329L15.2802 18.8608L16.1766 20.7873L15.9066 19.7052C15.8067 19.3047 15.9082 18.8805 16.1786 18.5686L17.4235 17.1329Z" fill="url(#paint10_linear)"/>
<path d="M26.5216 20.9638L24.8652 15.2689L22.9326 14.7285L24.1353 15.3426C24.4221 15.489 24.6423 15.7391 24.7513 16.0421L26.5216 20.9638Z" fill="url(#paint11_linear)"/>
<path d="M21.0068 23.6617L16.1817 20.7529L14.7901 22.2016L15.5423 21.6313C15.9327 21.3353 16.4588 21.2909 16.8933 21.5174L21.0068 23.6617Z" fill="url(#paint12_linear)"/>
<path d="M26.5466 20.9616L20.9314 15.8306L20.181 16.2668L19.6915 16.4038L22.0749 18.3086L20.181 16.4881L20.2481 16.4645C20.6715 16.3157 21.1421 16.402 21.4851 16.6914L26.5466 20.9616Z" fill="url(#paint13_linear)"/>
<path d="M24.2335 22.084L26.542 20.9609L24.4511 21.555C24.2982 21.5984 24.1385 21.6127 23.9803 21.5971L23.6349 21.563C23.6349 21.563 23.5477 21.6017 23.4799 21.6019C23.4121 21.6022 16.1907 20.8274 16.1907 20.8274C16.1907 20.8274 23.1817 21.9921 23.2631 21.9921C23.3445 21.9921 23.4056 21.9546 23.4056 21.9546L24.2335 22.084Z" fill="url(#paint14_linear)"/>
<path opacity="0.5" d="M21.0359 23.6791L23.963 24.3909L24.2354 22.0801L23.7204 22.9816C23.5031 23.3621 23.1047 23.6033 22.6668 23.6193L21.0359 23.6791Z" fill="url(#paint15_linear)"/>
<path opacity="0.5" d="M19.9969 24.7236L21.001 23.668L17.976 24.7732C17.5686 24.9221 17.1195 24.9085 16.7218 24.7353L14.7373 23.8708L17.2006 25.7089L19.9969 24.7236Z" fill="url(#paint16_linear)"/>
<path opacity="0.5" d="M24.8526 15.2451L22.9598 14.6964L21.2421 15.1973L20.9268 15.8105L22.507 15.2828C22.6764 15.2262 22.8544 15.1994 23.0329 15.2035L24.8526 15.2451Z" fill="url(#paint17_linear)"/>
<path opacity="0.4" d="M19.9088 24.8531L17.2224 25.7811L19.1322 25.6949C19.2241 25.6907 19.3123 25.7317 19.3683 25.8047L19.753 26.3062L19.9088 24.8531Z" fill="url(#paint18_linear)"/>
<path opacity="0.4" d="M13.9492 23.5475L12.8708 25.4003L13.515 24.9435C13.7777 24.7573 14.1427 24.8288 14.3156 25.1005L14.7811 25.8319L13.9492 23.5475Z" fill="url(#paint19_linear)"/>
<path opacity="0.4" d="M14.8687 22.0591L12.7106 20.6284L13.2278 21.61C13.476 22.0813 13.3601 22.6621 12.9499 23.002L11.7915 23.9617L13.9777 23.5375L14.8687 22.0591Z" fill="url(#paint20_linear)"/>
<path opacity="0.4" d="M21.0409 23.7428L19.9214 24.7751L21.0008 24.3601C21.1769 24.2923 21.366 24.2648 21.5541 24.2795L24.001 24.4707L21.0409 23.7428Z" fill="url(#paint21_linear)"/>
<path opacity="0.4" d="M19.4656 28.0712L19.6406 29.3558L20.9131 26.7684L21.2844 27.161L21.4365 25.3535L19.4656 28.0712Z" fill="url(#paint22_linear)"/>
<path opacity="0.4" d="M26.6173 20.9706L29.0589 21.9277L29.4733 21.9778C29.726 22.0083 29.9816 21.9523 30.1983 21.819L30.9734 21.3422L30.5711 19.6388L28.8508 21.1648L26.6173 20.9706Z" fill="url(#paint23_linear)"/>
<path opacity="0.2" d="M24.0229 24.4746L23.4906 25.4104L24.2782 24.7987C24.3392 24.7512 24.4045 24.7095 24.4732 24.674L26.8351 23.4521L25.4217 23.9681L24.0229 24.4746Z" fill="url(#paint24_linear)"/>
<path opacity="0.2" d="M30.3373 18.7605L30.8975 21.2346L31.1963 19.8155L30.3373 18.7605Z" fill="url(#paint25_linear)"/>
<path opacity="0.4" d="M14.7071 27.3616L14.3527 28.6349L14.6091 28.8848L15.825 29.0859C16.1864 29.2803 16.6324 29.0648 16.7046 28.6608L16.8274 27.9743L14.7071 27.3616Z" fill="url(#paint26_linear)"/>
<path opacity="0.2" d="M16.1721 20.7628L15.2715 18.8731L15.5249 20.3694C15.5756 20.6688 15.517 20.9765 15.3599 21.2364L14.808 22.149L16.1721 20.7628Z" fill="url(#paint27_linear)"/>
<path opacity="0.2" d="M17.2227 25.778L15.6298 24.5568C15.9823 24.9712 15.7689 25.6118 15.2383 25.732L14.8329 25.8238L17.2227 25.778Z" fill="url(#paint28_linear)"/>
<path opacity="0.2" d="M12.5301 20.0633L11.1276 20.2845L12.4075 20.5415C12.5745 20.5751 12.7329 20.6419 12.8735 20.7381L14.8414 22.0847L12.5301 20.0633Z" fill="url(#paint29_linear)"/>
<path opacity="0.4" d="M24.0232 24.4737L22.168 25.0341L22.6652 24.9996C23.0258 24.9746 23.332 25.2604 23.332 25.6218L23.4981 25.4049L24.0232 24.4737Z" fill="url(#paint30_linear)"/>
<path opacity="0.4" d="M26.5356 20.9605L24.4229 22.1373L26.2955 21.4197C26.4796 21.3491 26.6776 21.3225 26.8738 21.3419L27.3125 21.3854L26.5356 20.9605Z" fill="url(#paint31_linear)"/>
<path opacity="0.2" d="M18.4145 30.1487L17.4467 29.8301L18.4793 29.6049C18.559 29.5875 18.6273 29.5364 18.6664 29.4648L19.4152 28.0941L19.5189 29.4738L19.1766 29.9924L18.7918 30.1397C18.6708 30.186 18.5376 30.1892 18.4145 30.1487Z" fill="url(#paint32_linear)"/>
<path opacity="0.2" d="M27.465 21.4088L29.2633 21.9126L27.5269 22.5934L26.9646 23.4616L27.3 21.8436L27.465 21.4088Z" fill="url(#paint33_linear)"/>
<path opacity="0.2" d="M14.7921 25.9101L14.6531 27.3212L14.1447 26.2601L13.0958 26.0834C13.0334 26.0729 12.9764 26.0416 12.9339 25.9946L11.6387 24.5631L12.9 25.4611L14.7921 25.9101Z" fill="url(#paint34_linear)"/>
<circle cx="20.7198" cy="20.1495" r="3.23739" fill="url(#paint35_radial)"/>
<circle opacity="0.6" cx="20.7199" cy="20.1486" r="2.2521" fill="white"/>
<defs>
<filter id="filter0_f" x="0.6597" y="0.647982" width="40.535" height="40.4559" filterUnits="userSpaceOnUse" color-interpolation-filters="sRGB">
<feFlood flood-opacity="0" result="BackgroundImageFix"/>
<feBlend mode="normal" in="SourceGraphic" in2="BackgroundImageFix" result="shape"/>
<feGaussianBlur stdDeviation="5.48949" result="effect1_foregroundBlur"/>
</filter>
<linearGradient id="paint0_linear" x1="27.3173" y1="12.2904" x2="24.9047" y2="30.9653" gradientUnits="userSpaceOnUse">
<stop offset="0.0575941" stop-color="#AEAFB3" stop-opacity="0.24"/>
<stop offset="0.351471" stop-color="#E7E9F1"/>
<stop offset="0.798239" stop-color="#404044"/>
<stop offset="0.949658" stop-color="#4E5055" stop-opacity="0.23"/>
</linearGradient>
<linearGradient id="paint1_linear" x1="27.3173" y1="12.2904" x2="24.9047" y2="30.9653" gradientUnits="userSpaceOnUse">
<stop offset="0.0575941" stop-color="#AEAFB3" stop-opacity="0.24"/>
<stop offset="0.351471" stop-color="#E7E9F1"/>
<stop offset="0.798239" stop-color="#404044"/>
<stop offset="0.949658" stop-color="#4E5055" stop-opacity="0.23"/>
</linearGradient>
<linearGradient id="paint2_linear" x1="25.4773" y1="12.6147" x2="18.2507" y2="27.5554" gradientUnits="userSpaceOnUse">
<stop offset="0.233784" stop-color="#403F44" stop-opacity="0.87"/>
<stop offset="0.402671" stop-color="#E6E6E6" stop-opacity="0.49"/>
<stop offset="0.629603" stop-color="#D9DCED" stop-opacity="0.813997"/>
<stop offset="0.944933" stop-color="#403F44" stop-opacity="0.83"/>
</linearGradient>
<linearGradient id="paint3_linear" x1="15.4842" y1="26.0214" x2="25.682" y2="14.0212" gradientUnits="userSpaceOnUse">
<stop offset="0.0755883" stop-color="#313133"/>
<stop offset="0.150011" stop-color="#595854" stop-opacity="0.23"/>
<stop offset="0.602331" stop-color="#9EA1A9" stop-opacity="0"/>
<stop offset="0.852274" stop-color="#373739"/>
</linearGradient>
<linearGradient id="paint4_linear" x1="16.7519" y1="25.8573" x2="26.1175" y2="15.5826" gradientUnits="userSpaceOnUse">
<stop offset="0.165192" stop-color="#F3F1EE" stop-opacity="0.28"/>
<stop offset="0.577385" stop-color="#DFE3F2"/>
<stop offset="0.843261" stop-color="#DCDAE8" stop-opacity="0.58"/>
</linearGradient>
<linearGradient id="paint5_linear" x1="16.2152" y1="23.9482" x2="13.3297" y2="23.737" gradientUnits="userSpaceOnUse">
<stop offset="0.448962" stop-color="#D1DCE1" stop-opacity="0"/>
<stop offset="0.788892" stop-color="#E8F1F2"/>
</linearGradient>
<linearGradient id="paint6_linear" x1="24.8789" y1="18.0005" x2="27.6371" y2="17.3332" gradientUnits="userSpaceOnUse">
<stop offset="0.388335" stop-color="#D1DCE1" stop-opacity="0"/>
<stop offset="0.706836" stop-color="#E8F1F2"/>
<stop offset="1" stop-color="#E8F1F2"/>
</linearGradient>
<linearGradient id="paint7_linear" x1="20.1287" y1="18.3353" x2="17.2141" y2="16.5443" gradientUnits="userSpaceOnUse">
<stop offset="0.388335" stop-color="#D1DCE1" stop-opacity="0"/>
<stop offset="0.93021" stop-color="#E8F1F2"/>
</linearGradient>
<linearGradient id="paint8_linear" x1="22.0682" y1="17.3318" x2="21.0687" y2="14.6759" gradientUnits="userSpaceOnUse">
<stop offset="0.388335" stop-color="#D1DCE1" stop-opacity="0"/>
<stop offset="0.706836" stop-color="#E8F1F2"/>
<stop offset="1" stop-color="#E8F1F2"/>
</linearGradient>
<linearGradient id="paint9_linear" x1="18.1078" y1="23.2001" x2="17.0614" y2="26.572" gradientUnits="userSpaceOnUse">
<stop offset="0.0487878" stop-color="#D1DCE1" stop-opacity="0"/>
<stop offset="0.829059" stop-color="#E8F1F2"/>
</linearGradient>
<linearGradient id="paint10_linear" x1="16.1188" y1="16.9531" x2="15.2367" y2="19.1423" gradientUnits="userSpaceOnUse">
<stop offset="0.0312748" stop-color="#D1DCE1" stop-opacity="0"/>
<stop offset="0.805452" stop-color="#E8F1F2"/>
</linearGradient>
<linearGradient id="paint11_linear" x1="24.1608" y1="21.336" x2="25.4612" y2="14.7285" gradientUnits="userSpaceOnUse">
<stop offset="0.0312748" stop-color="#D1DCE1" stop-opacity="0"/>
<stop offset="0.805452" stop-color="#E8F1F2"/>
</linearGradient>
<linearGradient id="paint12_linear" x1="17.1059" y1="18.9311" x2="16.2239" y2="21.1203" gradientUnits="userSpaceOnUse">
<stop offset="0.0312748" stop-color="#D1DCE1" stop-opacity="0"/>
<stop offset="0.805452" stop-color="#E8F1F2"/>
</linearGradient>
<linearGradient id="paint13_linear" x1="21.8556" y1="14.0089" x2="20.9736" y2="16.1981" gradientUnits="userSpaceOnUse">
<stop offset="0.0312748" stop-color="#D1DCE1" stop-opacity="0"/>
<stop offset="0.805452" stop-color="#E8F1F2"/>
</linearGradient>
<linearGradient id="paint14_linear" x1="14.3641" y1="15.7522" x2="25.4253" y2="21.7662" gradientUnits="userSpaceOnUse">
<stop offset="0.179631" stop-color="#C8E2EF" stop-opacity="0"/>
<stop offset="0.40279" stop-color="#F5FAFD"/>
<stop offset="0.425697" stop-color="#C8E2EF" stop-opacity="0"/>
<stop offset="0.456175" stop-color="#F5FAFD"/>
<stop offset="0.733306" stop-color="#C8E2EF" stop-opacity="0"/>
<stop offset="0.847437" stop-color="#F5FAFD"/>
<stop offset="0.865647" stop-color="#C8E2EF" stop-opacity="0"/>
<stop offset="1" stop-color="#F5FAFD"/>
</linearGradient>
<linearGradient id="paint15_linear" x1="14.1472" y1="18.1288" x2="24.227" y2="24.7143" gradientUnits="userSpaceOnUse">
<stop offset="0.0312748" stop-color="#D1DCE1" stop-opacity="0"/>
<stop offset="0.708333" stop-color="#E6E6E6" stop-opacity="0.49"/>
</linearGradient>
<linearGradient id="paint16_linear" x1="9.90873" y1="18.4062" x2="19.9885" y2="24.9916" gradientUnits="userSpaceOnUse">
<stop offset="0.0312748" stop-color="#D1DCE1" stop-opacity="0"/>
<stop offset="0.708333" stop-color="#E6E6E6" stop-opacity="0.49"/>
</linearGradient>
<linearGradient id="paint17_linear" x1="32.8768" y1="20.6842" x2="22.5988" y2="14.4126" gradientUnits="userSpaceOnUse">
<stop offset="0.0312748" stop-color="#D1DCE1" stop-opacity="0"/>
<stop offset="0.708333" stop-color="#E6E6E6" stop-opacity="0.49"/>
</linearGradient>
<linearGradient id="paint18_linear" x1="17.9043" y1="24.7602" x2="15.5769" y2="26.2627" gradientUnits="userSpaceOnUse">
<stop offset="0.0496138" stop-color="#232964" stop-opacity="0.68"/>
<stop offset="0.741345" stop-color="#5D6EC6" stop-opacity="0"/>
</linearGradient>
<linearGradient id="paint19_linear" x1="11.9447" y1="23.4546" x2="9.61735" y2="24.9571" gradientUnits="userSpaceOnUse">
<stop offset="0.0496138" stop-color="#232964" stop-opacity="0.68"/>
<stop offset="0.741345" stop-color="#5D6EC6" stop-opacity="0"/>
</linearGradient>
<linearGradient id="paint20_linear" x1="15.2759" y1="22.3779" x2="14.4891" y2="19.8541" gradientUnits="userSpaceOnUse">
<stop offset="0.104186" stop-color="#232964" stop-opacity="0.68"/>
<stop offset="0.741345" stop-color="#5D6EC6" stop-opacity="0"/>
</linearGradient>
<linearGradient id="paint21_linear" x1="19.3047" y1="24.8098" x2="19.5256" y2="26.0533" gradientUnits="userSpaceOnUse">
<stop offset="0.0496138" stop-color="#232964" stop-opacity="0.68"/>
<stop offset="0.741345" stop-color="#5D6EC6" stop-opacity="0"/>
</linearGradient>
<linearGradient id="paint22_linear" x1="18.7678" y1="28.2139" x2="18.9887" y2="29.4573" gradientUnits="userSpaceOnUse">
<stop offset="0.0496138" stop-color="#232964" stop-opacity="0.68"/>
<stop offset="0.741345" stop-color="#5D6EC6" stop-opacity="0"/>
</linearGradient>
<linearGradient id="paint23_linear" x1="25.7066" y1="24.2024" x2="25.9275" y2="25.4458" gradientUnits="userSpaceOnUse">
<stop offset="0.0496138" stop-color="#232964" stop-opacity="0.68"/>
<stop offset="0.741345" stop-color="#5D6EC6" stop-opacity="0"/>
</linearGradient>
<linearGradient id="paint24_linear" x1="27.4164" y1="23.8694" x2="23.5754" y2="25.7282" gradientUnits="userSpaceOnUse">
<stop offset="0.102241" stop-color="#3E74FF" stop-opacity="0"/>
<stop offset="0.532688" stop-color="#7C3EFF"/>
</linearGradient>
<linearGradient id="paint25_linear" x1="33.6825" y1="18.9354" x2="29.8415" y2="20.7942" gradientUnits="userSpaceOnUse">
<stop offset="0.102241" stop-color="#3E74FF" stop-opacity="0"/>
<stop offset="0.532688" stop-color="#7C3EFF"/>
</linearGradient>
<linearGradient id="paint26_linear" x1="13.8964" y1="29.8456" x2="14.8417" y2="30.7382" gradientUnits="userSpaceOnUse">
<stop offset="0.0537596" stop-color="#262629" stop-opacity="0.68"/>
<stop offset="0.156299" stop-color="#28282C" stop-opacity="0.68"/>
<stop offset="1" stop-color="#434447" stop-opacity="0"/>
</linearGradient>
<linearGradient id="paint27_linear" x1="14.7713" y1="19.326" x2="12.0452" y2="18.8339" gradientUnits="userSpaceOnUse">
<stop offset="0.0496138" stop-color="#454757"/>
<stop offset="1" stop-color="#BFC6EA" stop-opacity="0"/>
</linearGradient>
<linearGradient id="paint28_linear" x1="15.324" y1="25.1187" x2="12.6615" y2="25.8836" gradientUnits="userSpaceOnUse">
<stop offset="0.0496138" stop-color="#454757"/>
<stop offset="1" stop-color="#BFC6EA" stop-opacity="0"/>
</linearGradient>
<linearGradient id="paint29_linear" x1="10.6663" y1="20.8069" x2="9.16767" y2="23.1367" gradientUnits="userSpaceOnUse">
<stop offset="0.0496138" stop-color="#454757"/>
<stop offset="1" stop-color="#BFC6EA" stop-opacity="0"/>
</linearGradient>
<linearGradient id="paint30_linear" x1="21.9504" y1="25.4545" x2="22.1231" y2="26.4521" gradientUnits="userSpaceOnUse">
<stop offset="0.0496138" stop-color="#232964" stop-opacity="0.68"/>
<stop offset="0.741345" stop-color="#5D6EC6" stop-opacity="0"/>
</linearGradient>
<linearGradient id="paint31_linear" x1="24.0262" y1="22.6178" x2="24.1989" y2="23.6153" gradientUnits="userSpaceOnUse">
<stop offset="0.0496138" stop-color="#232964" stop-opacity="0.68"/>
<stop offset="0.741345" stop-color="#5D6EC6" stop-opacity="0"/>
</linearGradient>
<linearGradient id="paint32_linear" x1="18.1467" y1="28.2824" x2="17.5607" y2="30.268" gradientUnits="userSpaceOnUse">
<stop offset="0.102241" stop-color="#3E74FF" stop-opacity="0"/>
<stop offset="0.532688" stop-color="#7C3EFF"/>
</linearGradient>
<linearGradient id="paint33_linear" x1="27.923" y1="23.3376" x2="28.509" y2="21.3521" gradientUnits="userSpaceOnUse">
<stop offset="0.102241" stop-color="#516AAA" stop-opacity="0"/>
<stop offset="0.532688" stop-color="#878688"/>
</linearGradient>
<linearGradient id="paint34_linear" x1="11.4997" y1="25.739" x2="12.7654" y2="27.7099" gradientUnits="userSpaceOnUse">
<stop stop-color="#3E74FF" stop-opacity="0"/>
<stop offset="0.841456" stop-color="#7C3EFF"/>
</linearGradient>
<radialGradient id="paint35_radial" cx="0" cy="0" r="1" gradientUnits="userSpaceOnUse" gradientTransform="translate(20.7198 20.1495) rotate(-44.3097) scale(3.95866 3.88769)">
<stop stop-color="#DFE3F2"/>
<stop offset="0.121021" stop-color="#DFE3F2"/>
<stop offset="0.665145" stop-color="#F3F1EE" stop-opacity="0.28"/>
<stop offset="0.843277" stop-color="#9B99AB" stop-opacity="0.58"/>
</radialGradient>
</defs>
</svg>
