<svg width="45" height="37" viewBox="0 0 45 37" fill="none" xmlns="http://www.w3.org/2000/svg">
<g opacity="0.4" filter="url(#filter0_f)">
<path d="M23.7768 23.562L22.384 24.9902L21.5129 24.7726L19.3165 24.8965L17.5331 24.451L15.4569 23.2599L15.2202 22.624L14.6811 21.8647L12.6086 21.4928L11.506 20.6552L11.5558 19.4808L11.781 18.5793L11.569 17.0688L12.0929 15.7214L12.6054 15.2788L14.6694 13.1099L16.133 12.7553L16.9841 12.4277L17.4464 12.7396L18.1397 12.9128L18.4285 12.412L19.634 11.9765L20.9229 12.4231L22.4761 12.5033L24.7295 13.0661L26.4452 12.8791L27.7795 13.5886L28.7047 12.9304L30.6281 12.5901L31.2077 13.282L31.3206 14.473L31.8359 15.8329L31.4337 16.7585L31.7076 18.2633L31.2654 20.0338L31.553 20.7554L31.3643 23.2049L30.773 23.878L30.7943 25.4869L30.2761 25.8675L28.4944 24.9888L27.3093 24.9263L25.9749 23.8592L24.6127 23.7708L23.7768 23.562Z" fill="#2400FF"/>
</g>
<g filter="url(#filter1_f)">
<path d="M26.2501 20.2419L25.6119 21.7342L24.6958 22.0442L22.6989 23.2031L20.8232 23.8378L18.3267 24.1992L17.8093 23.9598L16.9516 23.8011L14.8397 24.6204L13.4185 24.6972L12.9184 24.0135L12.7094 23.3959L11.8081 22.6534L11.671 21.6374L11.9444 21.1348L12.8656 18.8938L14.0696 17.9688L14.7134 17.3628L15.291 17.3086L16.0202 17.0618L16.0572 16.6376L16.9822 15.7952L18.3958 15.4065L19.886 14.6811L22.2559 13.8792L23.7737 12.9232L25.3522 12.6595L25.9113 11.8313L27.5522 10.6862L28.4164 10.787L29.0764 11.3994L30.1914 11.9069L30.246 12.6258L31.2026 13.3344L31.613 14.5473L32.218 14.8096L33.1816 16.2778L32.9418 16.9488L33.7105 17.8412L33.403 18.3118L31.3273 18.7025L30.1896 19.2552L28.4446 19.3183L27.1292 19.9444L26.2501 20.2419Z" fill="#A911F0" fill-opacity="0.9"/>
</g>
<path opacity="0.5" d="M25.0401 22.2837L24.2363 23.8876L23.4304 23.9389L21.582 24.6444L19.932 24.7493L17.8278 24.2951L17.4514 23.8148L16.7822 23.3112L14.9046 23.558L13.7312 23.1411L13.4534 22.1211L13.4004 21.2871L12.8065 20.0505L12.8879 18.7528L13.2062 18.2337L14.3832 15.8118L15.5407 15.1084L16.1807 14.5955L16.6619 14.7366L17.3034 14.6958L17.4142 14.1879L18.3284 13.4857L19.5549 13.5167L20.9077 13.1616L22.9924 13.029L24.4117 12.4005L25.7488 12.6444L26.3621 11.828L27.9175 11.0114L28.603 11.4463L29.0248 12.4361L29.8375 13.4609L29.7454 14.3638L30.3908 15.5786L30.4949 17.2166L30.9383 17.7565L31.445 19.9071L31.122 20.6453L31.5792 22.0183L31.239 22.4858L29.4724 22.2191L28.4397 22.4889L27.005 21.9385L25.8135 22.2345L25.0401 22.2837Z" fill="#4F1FB2"/>
<path d="M25.0401 22.2837L24.2363 23.8876L23.4304 23.9389L21.582 24.6444L19.932 24.7493L17.8278 24.2951L17.4514 23.8148L16.7822 23.3112L14.9046 23.558L13.7312 23.1411L13.4534 22.1211L13.4004 21.2871L12.8065 20.0505L12.8879 18.7528L13.2062 18.2337L14.3832 15.8118L15.5407 15.1084L16.1807 14.5955L16.6619 14.7366L17.3034 14.6958L17.4142 14.1879L18.3284 13.4857L19.5549 13.5167L20.9077 13.1616L22.9924 13.029L24.4117 12.4005L25.7488 12.6444L26.3621 11.828L27.9175 11.0114L28.603 11.4463L29.0248 12.4361L29.8375 13.4609L29.7454 14.3638L30.3908 15.5786L30.4949 17.2166L30.9383 17.7565L31.445 19.9071L31.122 20.6453L31.5792 22.0183L31.239 22.4858L29.4724 22.2191L28.4397 22.4889L27.005 21.9385L25.8135 22.2345L25.0401 22.2837Z" fill="url(#paint0_linear)" fill-opacity="0.48"/>
<path d="M25.0401 22.2837L24.2363 23.8876L23.4304 23.9389L21.582 24.6444L19.932 24.7493L17.8278 24.2951L17.4514 23.8148L16.7822 23.3112L14.9046 23.558L13.7312 23.1411L13.4534 22.1211L13.4004 21.2871L12.8065 20.0505L12.8879 18.7528L13.2062 18.2337L14.3832 15.8118L15.5407 15.1084L16.1807 14.5955L16.6619 14.7366L17.3034 14.6958L17.4142 14.1879L18.3284 13.4857L19.5549 13.5167L20.9077 13.1616L22.9924 13.029L24.4117 12.4005L25.7488 12.6444L26.3621 11.828L27.9175 11.0114L28.603 11.4463L29.0248 12.4361L29.8375 13.4609L29.7454 14.3638L30.3908 15.5786L30.4949 17.2166L30.9383 17.7565L31.445 19.9071L31.122 20.6453L31.5792 22.0183L31.239 22.4858L29.4724 22.2191L28.4397 22.4889L27.005 21.9385L25.8135 22.2345L25.0401 22.2837Z" fill="url(#paint1_linear)" fill-opacity="0.4"/>
<path d="M27.2626 20.2902L26.7746 19.7812L29.5845 20.0158L28.6072 21.1401L27.489 21.2112L27.2626 20.2902Z" fill="url(#paint2_linear)" fill-opacity="0.48"/>
<path d="M27.2626 20.2902L26.7746 19.7812L29.5845 20.0158L28.6072 21.1401L27.489 21.2112L27.2626 20.2902Z" fill="url(#paint3_linear)" fill-opacity="0.4"/>
<path d="M17.3857 22.551L16.8589 21.3053L14.4827 22.3491L16.7822 23.3112L17.3857 22.551Z" fill="url(#paint4_linear)" fill-opacity="0.48"/>
<path d="M17.3857 22.551L16.8589 21.3053L14.4827 22.3491L16.7822 23.3112L17.3857 22.551Z" fill="url(#paint5_linear)" fill-opacity="0.4"/>
<path d="M21.2815 21.9444L19.6158 22.8546L17.8386 20.8875L16.8589 21.3053L15.411 18.6057L16.5579 16.5712L17.5601 16.5075L18.9125 15.8164L20.4254 16.1856L21.5781 15.6469L21.3986 14.6546L24.483 14.1669L25.6788 14.3825L27.0869 15.4302L28.1692 16.484L27.9098 18.3407L26.7746 19.7812L24.8209 19.4808L22.1692 20.074L21.2815 21.9444Z" fill="url(#paint6_linear)" fill-opacity="0.48"/>
<path d="M21.2815 21.9444L19.6158 22.8546L17.8386 20.8875L16.8589 21.3053L15.411 18.6057L16.5579 16.5712L17.5601 16.5075L18.9125 15.8164L20.4254 16.1856L21.5781 15.6469L21.3986 14.6546L24.483 14.1669L25.6788 14.3825L27.0869 15.4302L28.1692 16.484L27.9098 18.3407L26.7746 19.7812L24.8209 19.4808L22.1692 20.074L21.2815 21.9444Z" fill="url(#paint7_linear)" fill-opacity="0.4"/>
<path d="M25.0401 22.2837L24.2363 23.8876L23.4304 23.9389M25.0401 22.2837L25.8135 22.2345L27.005 21.9385M25.0401 22.2837L23.9608 21.7464M27.005 21.9385L28.4397 22.4889L29.4724 22.2191M27.005 21.9385L27.489 21.2112M29.4724 22.2191L31.239 22.4858L31.5792 22.0183L31.122 20.6453L31.445 19.9071M29.4724 22.2191L30.2871 21.7307L30.6867 19.8106M31.445 19.9071L30.9383 17.7565L30.4949 17.2166M31.445 19.9071L30.6867 19.8106M30.4949 17.2166L30.3908 15.5786L29.7454 14.3638M30.4949 17.2166L28.1692 16.484M29.7454 14.3638L29.8375 13.4609L29.0248 12.4361M29.7454 14.3638L28.4006 15.0501M29.0248 12.4361L28.603 11.4463L27.9175 11.0114L26.3621 11.828L25.7488 12.6444M29.0248 12.4361L27.076 14.7162M25.7488 12.6444L24.4117 12.4005L22.9924 13.029M25.7488 12.6444L26.1345 13.6053M22.9924 13.029L20.9077 13.1616L19.5549 13.5167M22.9924 13.029L24.483 14.1669M22.9924 13.029L21.3986 14.6546M19.5549 13.5167L18.3284 13.4857L17.4142 14.1879L17.3034 14.6958M19.5549 13.5167L21.5781 15.6469M19.5549 13.5167L20.4254 16.1856M17.3034 14.6958L16.6619 14.7366L16.1807 14.5955L15.5407 15.1084L14.3832 15.8118M17.3034 14.6958L16.5579 16.5712M17.3034 14.6958L18.9125 15.8164M14.3832 15.8118L13.2062 18.2337L12.8879 18.7528M14.3832 15.8118L16.5579 16.5712M14.3832 15.8118L15.411 18.6057M12.8879 18.7528L12.8065 20.0505M12.8879 18.7528L14.2792 19.1481M12.8065 20.0505L13.4004 21.2871M12.8065 20.0505L14.2792 19.1481M13.4004 21.2871L13.4534 22.1211L13.7312 23.1411L14.9046 23.558L16.7822 23.3112M13.4004 21.2871L14.4827 22.3491M16.7822 23.3112L17.4514 23.8148L17.8278 24.2951M16.7822 23.3112L17.3857 22.551M16.7822 23.3112L14.4827 22.3491M17.8278 24.2951L19.932 24.7493M17.8278 24.2951L19.6158 22.8546M19.932 24.7493L21.582 24.6444L23.4304 23.9389M19.932 24.7493L19.6158 22.8546M23.4304 23.9389L22.6874 22.6171M21.2815 21.9444L22.6874 22.6171M21.2815 21.9444L19.6158 22.8546M21.2815 21.9444L22.1692 20.074L24.8209 19.4808M22.6874 22.6171L23.9608 21.7464M23.9608 21.7464L24.8209 19.4808M19.6158 22.8546L17.3857 22.551M19.6158 22.8546L17.8386 20.8875L16.8589 21.3053M30.6867 19.8106L29.5845 20.0158M26.7746 19.7812L27.2626 20.2902L27.489 21.2112M26.7746 19.7812L29.5845 20.0158M26.7746 19.7812L24.8209 19.4808M26.7746 19.7812L27.9098 18.3407M27.489 21.2112L28.6072 21.1401L29.5845 20.0158M29.5845 20.0158L29.8554 19.1537L27.9098 18.3407M27.9098 18.3407L28.1692 16.484M28.1692 16.484L28.4006 15.0501M28.1692 16.484L27.0869 15.4302L25.6788 14.3825M16.8589 21.3053L17.3857 22.551M16.8589 21.3053L14.4827 22.3491M16.8589 21.3053L15.411 18.6057M14.4827 22.3491L14.2792 19.1481M15.411 18.6057L14.2792 19.1481M15.411 18.6057L16.5579 16.5712M16.5579 16.5712L17.5601 16.5075L18.9125 15.8164M18.9125 15.8164L20.4254 16.1856M21.5781 15.6469L21.3986 14.6546M21.5781 15.6469L20.4254 16.1856M25.6788 14.3825L26.1345 13.6053M25.6788 14.3825L24.483 14.1669M26.1345 13.6053L27.076 14.7162M28.4006 15.0501L27.076 14.7162M24.483 14.1669L21.3986 14.6546" stroke="url(#paint8_linear)" stroke-width="0.135774"/>
<path d="M25.0401 22.2837L24.2363 23.8876L23.4304 23.9389M25.0401 22.2837L25.8135 22.2345L27.005 21.9385M25.0401 22.2837L23.9608 21.7464M27.005 21.9385L28.4397 22.4889L29.4724 22.2191M27.005 21.9385L27.489 21.2112M29.4724 22.2191L31.239 22.4858L31.5792 22.0183L31.122 20.6453L31.445 19.9071M29.4724 22.2191L30.2871 21.7307L30.6867 19.8106M31.445 19.9071L30.9383 17.7565L30.4949 17.2166M31.445 19.9071L30.6867 19.8106M30.4949 17.2166L30.3908 15.5786L29.7454 14.3638M30.4949 17.2166L28.1692 16.484M29.7454 14.3638L29.8375 13.4609L29.0248 12.4361M29.7454 14.3638L28.4006 15.0501M29.0248 12.4361L28.603 11.4463L27.9175 11.0114L26.3621 11.828L25.7488 12.6444M29.0248 12.4361L27.076 14.7162M25.7488 12.6444L24.4117 12.4005L22.9924 13.029M25.7488 12.6444L26.1345 13.6053M22.9924 13.029L20.9077 13.1616L19.5549 13.5167M22.9924 13.029L24.483 14.1669M22.9924 13.029L21.3986 14.6546M19.5549 13.5167L18.3284 13.4857L17.4142 14.1879L17.3034 14.6958M19.5549 13.5167L21.5781 15.6469M19.5549 13.5167L20.4254 16.1856M17.3034 14.6958L16.6619 14.7366L16.1807 14.5955L15.5407 15.1084L14.3832 15.8118M17.3034 14.6958L16.5579 16.5712M17.3034 14.6958L18.9125 15.8164M14.3832 15.8118L13.2062 18.2337L12.8879 18.7528M14.3832 15.8118L16.5579 16.5712M14.3832 15.8118L15.411 18.6057M12.8879 18.7528L12.8065 20.0505M12.8879 18.7528L14.2792 19.1481M12.8065 20.0505L13.4004 21.2871M12.8065 20.0505L14.2792 19.1481M13.4004 21.2871L13.4534 22.1211L13.7312 23.1411L14.9046 23.558L16.7822 23.3112M13.4004 21.2871L14.4827 22.3491M16.7822 23.3112L17.4514 23.8148L17.8278 24.2951M16.7822 23.3112L17.3857 22.551M16.7822 23.3112L14.4827 22.3491M17.8278 24.2951L19.932 24.7493M17.8278 24.2951L19.6158 22.8546M19.932 24.7493L21.582 24.6444L23.4304 23.9389M19.932 24.7493L19.6158 22.8546M23.4304 23.9389L22.6874 22.6171M21.2815 21.9444L22.6874 22.6171M21.2815 21.9444L19.6158 22.8546M21.2815 21.9444L22.1692 20.074L24.8209 19.4808M22.6874 22.6171L23.9608 21.7464M23.9608 21.7464L24.8209 19.4808M19.6158 22.8546L17.3857 22.551M19.6158 22.8546L17.8386 20.8875L16.8589 21.3053M30.6867 19.8106L29.5845 20.0158M26.7746 19.7812L27.2626 20.2902L27.489 21.2112M26.7746 19.7812L29.5845 20.0158M26.7746 19.7812L24.8209 19.4808M26.7746 19.7812L27.9098 18.3407M27.489 21.2112L28.6072 21.1401L29.5845 20.0158M29.5845 20.0158L29.8554 19.1537L27.9098 18.3407M27.9098 18.3407L28.1692 16.484M28.1692 16.484L28.4006 15.0501M28.1692 16.484L27.0869 15.4302L25.6788 14.3825M16.8589 21.3053L17.3857 22.551M16.8589 21.3053L14.4827 22.3491M16.8589 21.3053L15.411 18.6057M14.4827 22.3491L14.2792 19.1481M15.411 18.6057L14.2792 19.1481M15.411 18.6057L16.5579 16.5712M16.5579 16.5712L17.5601 16.5075L18.9125 15.8164M18.9125 15.8164L20.4254 16.1856M21.5781 15.6469L21.3986 14.6546M21.5781 15.6469L20.4254 16.1856M25.6788 14.3825L26.1345 13.6053M25.6788 14.3825L24.483 14.1669M26.1345 13.6053L27.076 14.7162M28.4006 15.0501L27.076 14.7162M24.483 14.1669L21.3986 14.6546" stroke="url(#paint9_linear)" stroke-opacity="0.72" stroke-width="0.135774"/>
<path d="M21.2808 21.9421L19.6151 22.8524L17.8379 20.8853L16.8582 21.303L15.4103 18.6035L16.5572 16.5689L17.5593 16.5052L18.9118 15.8141L20.4247 16.1834L21.5774 15.6446L21.3979 14.6524L24.4823 14.1646L25.6781 14.3802L27.0862 15.428L28.1684 16.4817L27.909 18.3384L26.7739 19.7789L24.8202 19.4785L22.1684 20.0718L21.2808 21.9421Z" fill="url(#paint10_linear)" fill-opacity="0.81"/>
<path opacity="0.8" d="M24.4829 14.1659L25.9108 14.8666C25.9243 14.8732 25.9373 14.881 25.9495 14.8897L28.1685 16.483L27.0978 15.4318L25.6765 14.3794L24.4829 14.1659Z" fill="url(#paint11_linear)"/>
<path opacity="0.8" d="M22.7314 14.5986L24.484 14.1664L21.4787 14.709L21.6539 15.6842C21.7817 15.1492 22.1974 14.7303 22.7314 14.5986Z" fill="url(#paint12_linear)"/>
<path opacity="0.8" d="M27.861 17.5973L27.9081 18.3375L28.0945 16.5033L27.0535 16.6305C27.5047 16.7421 27.8315 17.1334 27.861 17.5973Z" fill="url(#paint13_linear)"/>
<path opacity="0.8" d="M25.7757 18.8405L23.2771 17.1517L26.7702 19.7725L27.5484 18.7947C27.0279 19.1871 26.3157 19.2055 25.7757 18.8405Z" fill="url(#paint14_linear)"/>
<path opacity="0.8" d="M19.6589 22.7843L21.2099 21.8872L21.0127 18.7852L20.9431 20.294C20.9059 21.1002 20.5708 21.864 20.0027 22.4373L19.6589 22.7843Z" fill="url(#paint15_linear)"/>
<path opacity="0.8" d="M20.4357 16.2617L18.9188 15.8847L17.5791 16.5723L18.1152 16.36C18.648 16.149 19.227 16.0822 19.7938 16.1664L20.4357 16.2617Z" fill="url(#paint16_linear)"/>
<path opacity="0.8" d="M17.5877 16.5717L16.6159 16.6009L15.4814 18.5938L16.463 17.1687C16.6312 16.9244 16.8827 16.7496 17.1703 16.677L17.5877 16.5717Z" fill="url(#paint17_linear)"/>
<path opacity="0.8" d="M15.4037 18.5983L16.858 21.3026L17.8369 20.8848L17.5499 20.8708C17.2204 20.8547 16.916 20.6897 16.7227 20.4223L15.4037 18.5983Z" fill="url(#paint18_linear)"/>
<path opacity="0.9" d="M21.0313 18.8256L21.6678 19.5031C21.9637 19.8181 22.4041 19.9533 22.8258 19.8587L24.8428 19.4062L23.0534 19.5789C22.5613 19.6264 22.0677 19.5046 21.6542 19.2337L21.0313 18.8256Z" fill="url(#paint19_linear)"/>
<path opacity="0.8" d="M17.7009 20.9449L18.5016 20.7117C19.0053 20.565 19.4793 20.331 19.9021 20.0203L23.5439 17.3438L19.01 20.1953L17.7009 20.9449Z" fill="url(#paint20_linear)"/>
<path opacity="0.8" d="M21.6542 15.7256L22.9987 16.5091C23.3014 16.6855 23.6497 16.7678 23.9994 16.7456L27.9471 16.4946L23.6746 17.1526C23.3267 17.2062 22.9743 17.0878 22.7293 16.835L21.6542 15.7256Z" fill="url(#paint21_linear)"/>
<path d="M15.3982 18.5976L19.3129 18.178C19.3411 18.175 19.3696 18.1764 19.3973 18.1822L26.7332 19.7122L19.3934 17.9207L15.3982 18.5976Z" fill="url(#paint22_linear)"/>
<path opacity="0.6" d="M28.1671 16.482L27.0208 14.7958L26.1369 13.621L25.6825 14.3815L27.1069 15.4395L28.1671 16.482Z" fill="url(#paint23_linear)"/>
<path opacity="0.5" d="M15.4128 18.6992L15.9703 20.6354C16.03 20.8427 15.9614 21.0657 15.7954 21.2035L14.5565 22.2321L16.3732 21.4491C16.5917 21.3549 16.6833 21.0944 16.5718 20.8842L15.4128 18.6992Z" fill="url(#paint24_linear)" fill-opacity="0.9"/>
<path opacity="0.4" d="M19.9809 24.675L21.541 24.5989C21.6038 24.5959 21.6656 24.5819 21.7236 24.5577L23.3201 23.8918L21.3684 24.1449C21.0631 24.1845 20.7577 24.0739 20.5486 23.848L19.6592 22.887L19.9809 24.675Z" fill="url(#paint25_linear)"/>
<path opacity="0.4" d="M29.714 22.1913L31.2028 22.4726L31.5356 22.0265L31.0163 20.6583L30.7691 19.9083L30.7691 21.8453L29.714 22.1913Z" fill="url(#paint26_linear)"/>
<path opacity="0.4" d="M29.5943 14.4945L28.4537 15.102L29.4932 15.2864C29.6695 15.3178 29.7678 15.5082 29.6911 15.6701L29.4761 16.1238L30.4145 17.12L30.3143 15.5438L29.7776 14.5498C29.7421 14.4841 29.6602 14.4594 29.5943 14.4945Z" fill="url(#paint27_linear)"/>
<path opacity="0.4" d="M17.964 24.2833L18.846 24.4507L19.8713 24.6726L19.2693 24.4468C18.9688 24.3342 18.831 23.9868 18.9726 23.6987L19.1597 23.318L17.964 24.2833Z" fill="url(#paint28_linear)"/>
<path opacity="0.3" d="M16.9289 21.3307L17.4173 22.4854L17.6105 21.7628L18.4001 21.6225L18.0241 21.1863C17.9102 21.0542 17.7248 21.0093 17.5631 21.0746L16.9289 21.3307Z" fill="url(#paint29_linear)"/>
<path opacity="0.6" d="M28.6032 18.0019L28.1685 16.4789L27.9894 18.3155L29.915 19.1168L28.6032 18.0019Z" fill="url(#paint30_linear)"/>
<path opacity="0.9" d="M19.8091 15.6898L18.9079 15.7471L20.3425 16.1226L19.9585 14.9798L19.8091 15.6898Z" fill="url(#paint31_linear)"/>
<path opacity="0.4" d="M21.0761 15.4705L20.4652 16.0873L21.532 15.5997L21.3847 14.6379L21.1753 15.3057C21.1559 15.3678 21.1218 15.4243 21.0761 15.4705Z" fill="url(#paint32_linear)"/>
<path opacity="0.6" d="M23.4952 20.6108L24.1758 20.9262L24.6934 19.5898L22.2172 20.1327L22.1737 20.6632L21.3734 21.9059L22.5943 20.7568C22.8366 20.5287 23.1933 20.4709 23.4952 20.6108Z" fill="url(#paint33_linear)"/>
<path opacity="0.4" d="M17.8179 15.6656L17.0837 15.4586L16.6496 16.4954L17.5437 16.4387L18.7813 15.8064L18.1589 15.3633C18.1892 15.5582 18.0077 15.7191 17.8179 15.6656Z" fill="url(#paint34_linear)"/>
<path opacity="0.3" d="M26.0392 20.1249L26.7606 19.8503L24.8803 19.5397L25.0479 22.1747L25.5551 20.6318C25.6318 20.3985 25.8097 20.2123 26.0392 20.1249Z" fill="url(#paint35_linear)" fill-opacity="0.9"/>
<g opacity="0.7">
<path fill-rule="evenodd" clip-rule="evenodd" d="M20.2768 16.2184C20.3061 16.1902 20.3448 16.1738 20.3847 16.1738H24.1088C24.1769 16.1738 24.2109 16.2559 24.1628 16.304L23.4271 17.0395C23.399 17.0676 23.3602 17.084 23.3192 17.084H19.5951C19.527 17.084 19.493 17.0019 19.5411 16.9538L20.2768 16.2184ZM20.2768 18.9645C20.3049 18.9363 20.3436 18.9199 20.3847 18.9199H24.1088C24.1769 18.9199 24.2109 19.002 24.1628 19.0501L23.4271 19.7856C23.3989 19.8137 23.3602 19.8301 23.3192 19.8301H19.5951C19.527 19.8301 19.493 19.748 19.5411 19.6999L20.2768 18.9645ZM23.3192 17.5381C23.3602 17.5381 23.3989 17.5545 23.4271 17.5827L24.1628 18.3181C24.2109 18.3662 24.1769 18.4483 24.1088 18.4483H20.3847C20.3436 18.4483 20.3049 18.4319 20.2768 18.4037L19.5411 17.6683C19.493 17.6202 19.527 17.5381 19.5951 17.5381H23.3192Z" fill="url(#paint36_linear)" fill-opacity="0.9"/>
<path fill-rule="evenodd" clip-rule="evenodd" d="M20.2768 16.2184C20.3061 16.1902 20.3448 16.1738 20.3847 16.1738H24.1088C24.1769 16.1738 24.2109 16.2559 24.1628 16.304L23.4271 17.0395C23.399 17.0676 23.3602 17.084 23.3192 17.084H19.5951C19.527 17.084 19.493 17.0019 19.5411 16.9538L20.2768 16.2184ZM20.2768 18.9645C20.3049 18.9363 20.3436 18.9199 20.3847 18.9199H24.1088C24.1769 18.9199 24.2109 19.002 24.1628 19.0501L23.4271 19.7856C23.3989 19.8137 23.3602 19.8301 23.3192 19.8301H19.5951C19.527 19.8301 19.493 19.748 19.5411 19.6999L20.2768 18.9645ZM23.3192 17.5381C23.3602 17.5381 23.3989 17.5545 23.4271 17.5827L24.1628 18.3181C24.2109 18.3662 24.1769 18.4483 24.1088 18.4483H20.3847C20.3436 18.4483 20.3049 18.4319 20.2768 18.4037L19.5411 17.6683C19.493 17.6202 19.527 17.5381 19.5951 17.5381H23.3192Z" fill="url(#paint37_linear)"/>
</g>
<defs>
<filter id="filter0_f" x="0.915504" y="1.38621" width="41.5106" height="35.0717" filterUnits="userSpaceOnUse" color-interpolation-filters="sRGB">
<feFlood flood-opacity="0" result="BackgroundImageFix"/>
<feBlend mode="normal" in="SourceGraphic" in2="BackgroundImageFix" result="shape"/>
<feGaussianBlur stdDeviation="5.29518" result="effect1_foregroundBlur"/>
</filter>
<filter id="filter1_f" x="1.08054" y="0.095191" width="43.2202" height="35.1918" filterUnits="userSpaceOnUse" color-interpolation-filters="sRGB">
<feFlood flood-opacity="0" result="BackgroundImageFix"/>
<feBlend mode="normal" in="SourceGraphic" in2="BackgroundImageFix" result="shape"/>
<feGaussianBlur stdDeviation="5.29518" result="effect1_foregroundBlur"/>
</filter>
<linearGradient id="paint0_linear" x1="20.9521" y1="28.895" x2="25.3956" y2="7.61999" gradientUnits="userSpaceOnUse">
<stop offset="0.197904" stop-color="#5416B8" stop-opacity="0.78"/>
<stop offset="0.380916" stop-color="#B21DE7" stop-opacity="0.78"/>
<stop offset="0.496373" stop-color="#E020FF"/>
<stop offset="0.684643" stop-color="#8B18BA"/>
<stop offset="0.970982" stop-color="#AF54F8" stop-opacity="0.67"/>
</linearGradient>
<linearGradient id="paint1_linear" x1="15.768" y1="25.1816" x2="22.862" y2="8.06812" gradientUnits="userSpaceOnUse">
<stop offset="0.216447" stop-color="#410642"/>
<stop offset="0.714211" stop-color="#1A0B1E" stop-opacity="0.5"/>
<stop offset="0.843593" stop-color="#170A28"/>
</linearGradient>
<linearGradient id="paint2_linear" x1="20.9521" y1="28.895" x2="25.3956" y2="7.61999" gradientUnits="userSpaceOnUse">
<stop offset="0.197904" stop-color="#5416B8" stop-opacity="0.78"/>
<stop offset="0.380916" stop-color="#B21DE7" stop-opacity="0.78"/>
<stop offset="0.496373" stop-color="#E020FF"/>
<stop offset="0.684643" stop-color="#8B18BA"/>
<stop offset="0.970982" stop-color="#AF54F8" stop-opacity="0.67"/>
</linearGradient>
<linearGradient id="paint3_linear" x1="15.768" y1="25.1816" x2="22.862" y2="8.06812" gradientUnits="userSpaceOnUse">
<stop offset="0.216447" stop-color="#410642"/>
<stop offset="0.714211" stop-color="#1A0B1E" stop-opacity="0.5"/>
<stop offset="0.843593" stop-color="#170A28"/>
</linearGradient>
<linearGradient id="paint4_linear" x1="20.9521" y1="28.895" x2="25.3956" y2="7.61999" gradientUnits="userSpaceOnUse">
<stop offset="0.197904" stop-color="#5416B8" stop-opacity="0.78"/>
<stop offset="0.380916" stop-color="#B21DE7" stop-opacity="0.78"/>
<stop offset="0.496373" stop-color="#E020FF"/>
<stop offset="0.684643" stop-color="#8B18BA"/>
<stop offset="0.970982" stop-color="#AF54F8" stop-opacity="0.67"/>
</linearGradient>
<linearGradient id="paint5_linear" x1="15.768" y1="25.1816" x2="22.862" y2="8.06812" gradientUnits="userSpaceOnUse">
<stop offset="0.216447" stop-color="#410642"/>
<stop offset="0.714211" stop-color="#1A0B1E" stop-opacity="0.5"/>
<stop offset="0.843593" stop-color="#170A28"/>
</linearGradient>
<linearGradient id="paint6_linear" x1="20.9521" y1="28.895" x2="25.3956" y2="7.61999" gradientUnits="userSpaceOnUse">
<stop offset="0.197904" stop-color="#5416B8" stop-opacity="0.78"/>
<stop offset="0.380916" stop-color="#B21DE7" stop-opacity="0.78"/>
<stop offset="0.496373" stop-color="#E020FF"/>
<stop offset="0.684643" stop-color="#8B18BA"/>
<stop offset="0.970982" stop-color="#AF54F8" stop-opacity="0.67"/>
</linearGradient>
<linearGradient id="paint7_linear" x1="15.768" y1="25.1816" x2="22.862" y2="8.06812" gradientUnits="userSpaceOnUse">
<stop offset="0.216447" stop-color="#410642"/>
<stop offset="0.714211" stop-color="#1A0B1E" stop-opacity="0.5"/>
<stop offset="0.843593" stop-color="#170A28"/>
</linearGradient>
<linearGradient id="paint8_linear" x1="21.0667" y1="25.1816" x2="27.0701" y2="11.3779" gradientUnits="userSpaceOnUse">
<stop offset="0.228801" stop-color="#7C498D" stop-opacity="0.87"/>
<stop offset="0.460873" stop-color="#FF63C1" stop-opacity="0.49"/>
<stop offset="0.655029" stop-color="#F186FB" stop-opacity="0.34"/>
<stop offset="0.901624" stop-color="#451053" stop-opacity="0.62"/>
</linearGradient>
<linearGradient id="paint9_linear" x1="19.6492" y1="23.4823" x2="24.2226" y2="6.79449" gradientUnits="userSpaceOnUse">
<stop offset="0.0932493" stop-color="#210735"/>
<stop offset="0.250473" stop-color="#7C1B67" stop-opacity="0"/>
<stop offset="0.512855" stop-color="#25C9BF" stop-opacity="0.14"/>
<stop offset="0.613964" stop-color="#2F0735"/>
</linearGradient>
<linearGradient id="paint10_linear" x1="21.8515" y1="13.5257" x2="18.1499" y2="26.0224" gradientUnits="userSpaceOnUse">
<stop stop-color="#9D62FF" stop-opacity="0.54"/>
<stop offset="0.280748" stop-color="#D12DFF" stop-opacity="0.54"/>
<stop offset="0.39601" stop-color="#BA1BF2" stop-opacity="0.38"/>
<stop offset="0.568503" stop-color="#C71BF2" stop-opacity="0.36"/>
<stop offset="0.98382" stop-color="#6820DF" stop-opacity="0.63"/>
</linearGradient>
<linearGradient id="paint11_linear" x1="24.7542" y1="18.3115" x2="27.8432" y2="14.8928" gradientUnits="userSpaceOnUse">
<stop offset="0.140775" stop-color="#DD3EFF" stop-opacity="0"/>
<stop offset="0.909006" stop-color="#FCB8FF"/>
</linearGradient>
<linearGradient id="paint12_linear" x1="25.8004" y1="19.7701" x2="21.9712" y2="14.7999" gradientUnits="userSpaceOnUse">
<stop stop-color="#DD3EFF" stop-opacity="0"/>
<stop offset="0.979822" stop-color="#DD3EFF"/>
</linearGradient>
<linearGradient id="paint13_linear" x1="25.6335" y1="20.0189" x2="28.1273" y2="17.4182" gradientUnits="userSpaceOnUse">
<stop stop-color="#DD3EFF" stop-opacity="0"/>
<stop offset="0.979822" stop-color="#DD3EFF"/>
</linearGradient>
<linearGradient id="paint14_linear" x1="22.8693" y1="13.8103" x2="21.2056" y2="16.8346" gradientUnits="userSpaceOnUse">
<stop stop-color="#DD3EFF" stop-opacity="0"/>
<stop offset="0.979822" stop-color="#FA89FF"/>
</linearGradient>
<linearGradient id="paint15_linear" x1="20.7264" y1="15.1892" x2="21.1" y2="22.1086" gradientUnits="userSpaceOnUse">
<stop stop-color="#DD3EFF" stop-opacity="0"/>
<stop offset="0.979822" stop-color="#DD3EFF"/>
</linearGradient>
<linearGradient id="paint16_linear" x1="14.2691" y1="20.7723" x2="19.1207" y2="15.8245" gradientUnits="userSpaceOnUse">
<stop stop-color="#DD3EFF" stop-opacity="0"/>
<stop offset="0.979822" stop-color="#DD3EFF"/>
</linearGradient>
<linearGradient id="paint17_linear" x1="15.8729" y1="23.8905" x2="16.5845" y2="16.9976" gradientUnits="userSpaceOnUse">
<stop stop-color="#DD3EFF" stop-opacity="0"/>
<stop offset="0.979822" stop-color="#DD3EFF"/>
</linearGradient>
<linearGradient id="paint18_linear" x1="23.4503" y1="22.5824" x2="16.673" y2="21.1384" gradientUnits="userSpaceOnUse">
<stop stop-color="#DD3EFF" stop-opacity="0"/>
<stop offset="0.979822" stop-color="#DD3EFF"/>
</linearGradient>
<linearGradient id="paint19_linear" x1="25.8676" y1="17.5224" x2="22.7162" y2="17.0397" gradientUnits="userSpaceOnUse">
<stop stop-color="#DD3EFF" stop-opacity="0"/>
<stop offset="0.979822" stop-color="#FBADFF"/>
</linearGradient>
<linearGradient id="paint20_linear" x1="23.4903" y1="15.1387" x2="19.1292" y2="20.5238" gradientUnits="userSpaceOnUse">
<stop stop-color="#DD3EFF" stop-opacity="0"/>
<stop offset="0.979822" stop-color="#F97EFF"/>
</linearGradient>
<linearGradient id="paint21_linear" x1="27.6691" y1="6.34334" x2="23.7895" y2="16.952" gradientUnits="userSpaceOnUse">
<stop offset="0.679846" stop-color="#D93EFF" stop-opacity="0"/>
<stop offset="0.979822" stop-color="#EA89FF"/>
</linearGradient>
<linearGradient id="paint22_linear" x1="16.2798" y1="18.3817" x2="27.2521" y2="19.5054" gradientUnits="userSpaceOnUse">
<stop offset="0.507454" stop-color="#F644FF"/>
<stop offset="1" stop-color="#F644FF" stop-opacity="0"/>
</linearGradient>
<linearGradient id="paint23_linear" x1="30.2914" y1="15.2919" x2="27.0429" y2="17.8396" gradientUnits="userSpaceOnUse">
<stop offset="0.464505" stop-color="#41B01A" stop-opacity="0.32"/>
<stop offset="1" stop-color="#32BAC5" stop-opacity="0.49"/>
</linearGradient>
<linearGradient id="paint24_linear" x1="13.93" y1="24.0001" x2="14.2201" y2="21.0946" gradientUnits="userSpaceOnUse">
<stop stop-color="#4E1044" stop-opacity="0"/>
<stop offset="1" stop-color="#3E104E"/>
</linearGradient>
<linearGradient id="paint25_linear" x1="21.4559" y1="23.4815" x2="21.6276" y2="24.8205" gradientUnits="userSpaceOnUse">
<stop offset="0.117903" stop-color="#3E74FF" stop-opacity="0"/>
<stop offset="0.813817" stop-color="#7C3EFF"/>
</linearGradient>
<linearGradient id="paint26_linear" x1="31.4048" y1="21.1266" x2="30.2793" y2="22.7761" gradientUnits="userSpaceOnUse">
<stop offset="0.102241" stop-color="#3E74FF" stop-opacity="0"/>
<stop offset="0.532688" stop-color="#7C3EFF"/>
</linearGradient>
<linearGradient id="paint27_linear" x1="28.8805" y1="17.2176" x2="28.6575" y2="14.7937" gradientUnits="userSpaceOnUse">
<stop offset="0.102241" stop-color="#3E74FF" stop-opacity="0"/>
<stop offset="0.532688" stop-color="#7C3EFF"/>
</linearGradient>
<linearGradient id="paint28_linear" x1="19.7609" y1="23.7886" x2="19.6361" y2="25.2491" gradientUnits="userSpaceOnUse">
<stop offset="0.11653" stop-color="#3E74FF" stop-opacity="0"/>
<stop offset="0.504839" stop-color="#7C3EFF"/>
</linearGradient>
<linearGradient id="paint29_linear" x1="15.6091" y1="21.8982" x2="18.5404" y2="20.8879" gradientUnits="userSpaceOnUse">
<stop offset="0.239823" stop-color="#41B01A" stop-opacity="0.32"/>
<stop offset="1" stop-color="#32BAC5" stop-opacity="0.49"/>
</linearGradient>
<linearGradient id="paint30_linear" x1="32.266" y1="17.8136" x2="28.8161" y2="20.2825" gradientUnits="userSpaceOnUse">
<stop offset="0.239823" stop-color="#41B01A" stop-opacity="0.32"/>
<stop offset="1" stop-color="#32BAC5" stop-opacity="0.49"/>
</linearGradient>
<linearGradient id="paint31_linear" x1="20.93" y1="13.4201" x2="21.5626" y2="16.4554" gradientUnits="userSpaceOnUse">
<stop offset="0.239823" stop-color="#500B68" stop-opacity="0.71"/>
<stop offset="1" stop-color="#2B2F87" stop-opacity="0.84"/>
</linearGradient>
<linearGradient id="paint32_linear" x1="22.2445" y1="12.987" x2="22.8771" y2="16.0223" gradientUnits="userSpaceOnUse">
<stop offset="0.239823" stop-color="#500B68" stop-opacity="0.71"/>
<stop offset="1" stop-color="#2B2F87" stop-opacity="0.84"/>
</linearGradient>
<linearGradient id="paint33_linear" x1="17.6891" y1="22.7755" x2="23.7514" y2="18.3486" gradientUnits="userSpaceOnUse">
<stop offset="0.239823" stop-color="#500B68" stop-opacity="0.71"/>
<stop offset="1" stop-color="#2B2F87" stop-opacity="0.84"/>
</linearGradient>
<linearGradient id="paint34_linear" x1="17.525" y1="13.9239" x2="19.5442" y2="15.6199" gradientUnits="userSpaceOnUse">
<stop offset="0.451134" stop-color="#41B01A" stop-opacity="0.32"/>
<stop offset="0.811804" stop-color="#32BAC5" stop-opacity="0.49"/>
</linearGradient>
<linearGradient id="paint35_linear" x1="29.2627" y1="20.5015" x2="26.757" y2="21.7812" gradientUnits="userSpaceOnUse">
<stop stop-color="#4E1044" stop-opacity="0"/>
<stop offset="1" stop-color="#3E104E"/>
</linearGradient>
<linearGradient id="paint36_linear" x1="19.5186" y1="15.0678" x2="22.4994" y2="20.9783" gradientUnits="userSpaceOnUse">
<stop offset="0.192664" stop-color="#FD99FF" stop-opacity="0.21"/>
<stop offset="0.415531" stop-color="#FF99FB" stop-opacity="0.93"/>
<stop offset="0.668153" stop-color="#E7ABF1"/>
<stop offset="0.932383" stop-color="#8F05CF" stop-opacity="0.49"/>
</linearGradient>
<linearGradient id="paint37_linear" x1="23.186" y1="15.4384" x2="20.6097" y2="20.3744" gradientUnits="userSpaceOnUse">
<stop stop-color="#00FFA3"/>
<stop offset="1" stop-color="#DC1FFF" stop-opacity="0"/>
</linearGradient>
</defs>
</svg>
