<svg width="46" height="53" viewBox="0 0 46 53" fill="none" xmlns="http://www.w3.org/2000/svg">
<g filter="url(#filter0_f)">
<path d="M33.4846 23.5918L33.781 24.3258L33.1123 25.6846L33.1297 25.9883L32.6429 26.5493L32.3862 27.1299L31.7429 27.6237L31.2917 28.5418L29.5362 29.5019L29.4407 29.8012L27.9379 30.7469L27.6995 31.3807L26.4567 32.3333L26.2353 32.9988L25.3259 33.9105L24.7934 33.941L23.2498 35.7704L21.5281 36.3587L21.5505 36.7491L20.6352 37.2912L19.9316 37.2662L18.7993 38.0165L18.2467 38.4943L17.0784 38.7239L16.0765 39.1845L14.7879 38.6793L13.9097 38.7296L13.1417 37.232L13.239 36.6858L12.7173 34.9821L11.9535 33.4939L12.2019 31.9075L11.9039 29.6669L12.5625 28.8229L12.7465 28.0867L15.2053 27.0791L16.1597 26.2245L17.8377 24.8772C17.889 24.836 18.6324 24.6374 18.9977 24.5433L20.1805 24.1412L21.3249 24.2381L22.7231 23.8523L24.3119 23.9877L25.8788 23.7425L26.923 23.8381L28.0005 23.621L29.2117 23.8365L31.7154 23.1492L33.4846 23.5918Z" fill="url(#paint0_linear)"/>
</g>
<g filter="url(#filter1_f)">
<path d="M32.5976 39.9219L32.9184 38.5768L32.3421 36.1465L32.3737 35.5952L31.9331 34.602L31.7147 33.5623L31.1204 32.6986L30.7316 31.0566L29.0909 29.402L29.0137 28.8643L27.6153 27.2236L27.4171 26.0863L26.2689 24.4205L26.0887 23.2249L25.259 21.6169L24.7486 21.5876L23.3541 18.3471L21.7278 17.3651L21.7684 16.6563L20.915 15.7185L20.2374 15.7982L19.1855 14.4934L18.6776 13.6544L17.5657 13.2954L16.625 12.5096L15.3615 13.4884L14.5198 13.4401L13.7082 16.1923L13.775 17.1777L13.1901 20.2912L12.383 23.0262L12.5442 25.8897L12.1481 29.9656L12.7399 31.4632L12.8808 32.7887L15.1953 34.4948L16.071 35.9972L17.6183 38.3574C17.6655 38.4294 18.3705 38.753 18.717 38.9058L19.8345 39.5767L20.9394 39.3452L22.2647 39.976L23.7987 39.653L25.2931 40.0207L26.3016 39.7963L27.3268 40.1372L28.5018 39.6873L30.8751 40.8106L32.5976 39.9219Z" fill="url(#paint1_linear)" fill-opacity="0.4"/>
</g>
<path d="M13.7077 18.4973L14.6189 18.2773L16.2209 18.9229H16.5905L17.2373 19.3717L17.9238 19.6226L18.4782 20.2034L19.5607 20.639L20.6035 22.2048L20.96 22.3023L22.0028 23.6488L22.7553 23.8864L23.8245 25.0085L24.6166 25.2329L25.6595 26.0646V26.5266L27.7716 27.9523L28.3656 29.4704H28.8409L29.4349 30.2888L29.3557 30.8961L30.1873 31.9125L30.7286 32.4142L30.926 33.436L31.4151 34.3253L30.7126 35.4147V36.1767L28.8424 36.7667L28.1864 36.6554L26.0833 37.0223L24.2248 37.6092L22.3173 37.3157L19.5784 37.4625L18.6002 36.8511L17.7198 36.6554L16.6683 34.479L15.6978 33.6113L14.1798 32.0933C14.1334 32.0469 13.9442 31.3941 13.8553 31.0735L13.4498 30.0306L13.6468 29.0457L13.2759 27.8174L13.5506 26.45L13.3621 25.0826L13.5506 24.1843L13.3621 23.2417L13.7077 22.2048L13.0479 20.0054L13.7077 18.4973Z" fill="#1E41D7" fill-opacity="0.6"/>
<path d="M13.7077 18.4973L14.6189 18.2773L16.2209 18.9229H16.5905L17.2373 19.3717L17.9238 19.6226L18.4782 20.2034L19.5607 20.639L20.6035 22.2048L20.96 22.3023L22.0028 23.6488L22.7553 23.8864L23.8245 25.0085L24.6166 25.2329L25.6595 26.0646V26.5266L27.7716 27.9523L28.3656 29.4704H28.8409L29.4349 30.2888L29.3557 30.8961L30.1873 31.9125L30.7286 32.4142L30.926 33.436L31.4151 34.3253L30.7126 35.4147V36.1767L28.8424 36.7667L28.1864 36.6554L26.0833 37.0223L24.2248 37.6092L22.4956 37.3687L19.5784 37.4625L18.6002 36.8511L17.7198 36.6554L16.6683 34.479L15.6978 33.6113L14.1798 32.0933C14.1334 32.0469 13.9442 31.3941 13.8553 31.0735L13.4498 30.0306L13.6468 29.0457L13.2759 27.8174L13.5506 26.45L13.3621 25.0826L13.5506 24.1843L13.3621 23.2417L13.7077 22.2048L13.0479 20.0054L13.7077 18.4973Z" fill="url(#paint2_linear)" fill-opacity="0.48"/>
<path d="M13.7077 18.4973L14.6189 18.2773L16.2209 18.9229H16.5905L17.2373 19.3717L17.9238 19.6226L18.4782 20.2034L19.5607 20.639L20.6035 22.2048L20.96 22.3023L22.0028 23.6488L22.7553 23.8864L23.8245 25.0085L24.6166 25.2329L25.6595 26.0646V26.5266L27.7716 27.9523L28.3656 29.4704H28.8409L29.4349 30.2888L29.3557 30.8961L30.1873 31.9125L30.7286 32.4142L30.926 33.436L31.4151 34.3253L30.7126 35.4147V36.1767L28.8424 36.7667L28.1864 36.6554L26.0833 37.0223L24.2248 37.6092L22.4956 37.3687L19.5784 37.4625L18.6002 36.8511L17.7198 36.6554L16.6683 34.479L15.6978 33.6113L14.1798 32.0933C14.1334 32.0469 13.9442 31.3941 13.8553 31.0735L13.4498 30.0306L13.6468 29.0457L13.2759 27.8174L13.5506 26.45L13.3621 25.0826L13.5506 24.1843L13.3621 23.2417L13.7077 22.2048L13.0479 20.0054L13.7077 18.4973Z" fill="url(#paint3_linear)" fill-opacity="0.49"/>
<path d="M16.9571 23.7447L18.5741 23.475L19.1393 24.311L19.952 24.0673L20.724 24.9612H22.268L23.6495 25.7738L24.4062 27.0684L25.9331 28.3419L25.6832 29.7021L26.7659 30.3129L27.1285 31.7572L26.3844 32.8374H27.7965L29.7368 34.4594L30.088 35.4561L28.1864 36.6554L27.7965 32.8374H26.3844L26.5998 34.0375L25.6832 35.0207L23.2879 36.2643L22.4956 37.3687L19.952 36.5606L18.6002 36.8511L19.5166 35.4561L20.5056 33.4017H18.8885L16.6683 34.479L15.0988 31.9811L14.0297 30.6168L14.3445 29.3143L13.7087 27.9804L14.0297 26.7821H14.9007L14.0297 25.6041L15.3033 23.475L14.6106 21.9493L15.5124 21.7529L16.9571 23.7447Z" fill="url(#paint4_linear)" fill-opacity="0.48"/>
<path d="M16.9571 23.7447L18.5741 23.475L19.1393 24.311L19.952 24.0673L20.724 24.9612H22.268L23.6495 25.7738L24.4062 27.0684L25.9331 28.3419L25.6832 29.7021L26.7659 30.3129L27.1285 31.7572L26.3844 32.8374H27.7965L29.7368 34.4594L30.088 35.4561L28.1864 36.6554L27.7965 32.8374H26.3844L26.5998 34.0375L25.6832 35.0207L23.2879 36.2643L22.4956 37.3687L19.952 36.5606L18.6002 36.8511L19.5166 35.4561L20.5056 33.4017H18.8885L16.6683 34.479L15.0988 31.9811L14.0297 30.6168L14.3445 29.3143L13.7087 27.9804L14.0297 26.7821H14.9007L14.0297 25.6041L15.3033 23.475L14.6106 21.9493L15.5124 21.7529L16.9571 23.7447Z" fill="url(#paint5_linear)" fill-opacity="0.49"/>
<path d="M13.7077 18.4973L14.6189 18.2773L16.2209 18.9229M13.7077 18.4973L13.0479 20.0054L13.7077 22.2048M13.7077 18.4973L14.823 20.4935M13.7077 22.2048L13.3621 23.2417L13.5506 24.1843M13.7077 22.2048L14.6106 21.9493M13.5506 24.1843L13.3621 25.0826L13.5506 26.45M13.5506 24.1843L14.0297 25.6041M13.5506 26.45L13.2759 27.8174L13.6468 29.0457L13.4498 30.0306L13.8553 31.0735C13.9442 31.3941 14.1334 32.0469 14.1798 32.0933L15.6978 33.6113L16.6683 34.479M13.5506 26.45L14.0297 26.7821M16.6683 34.479L17.7198 36.6554L18.6002 36.8511M16.6683 34.479L15.0988 31.9811M16.6683 34.479L18.8885 33.4017M18.6002 36.8511L19.5784 37.4625L22.4956 37.3687M18.6002 36.8511L19.5166 35.4561M18.6002 36.8511L19.952 36.5606M22.4956 37.3687L24.2248 37.6092L26.0833 37.0223M22.4956 37.3687L23.2879 36.2643M22.4956 37.3687L19.952 36.5606M26.0833 37.0223L28.1864 36.6554M26.0833 37.0223L25.6832 35.0207M28.1864 36.6554L28.8424 36.7667L30.7126 36.1767V35.4147M28.1864 36.6554L30.088 35.4561M28.1864 36.6554L27.7965 32.8374M30.7126 35.4147L31.4151 34.3253L30.926 33.436M30.7126 35.4147L30.088 35.4561M30.926 33.436L30.7286 32.4142L30.1873 31.9125L29.3557 30.8961M30.926 33.436L29.7368 34.4594M29.3557 30.8961L29.4349 30.2888L28.8409 29.4704H28.3656L27.7716 27.9523M29.3557 30.8961L28.0811 31.2377L27.1285 31.7572M27.7716 27.9523L25.6595 26.5266M27.7716 27.9523L25.9331 28.3419M25.6595 26.5266V26.0646L24.6166 25.2329L23.8245 25.0085M25.6595 26.5266L24.4062 27.0684M23.8245 25.0085L22.7553 23.8864L22.0028 23.6488M23.8245 25.0085L23.6495 25.7738M22.0028 23.6488L20.96 22.3023L20.6035 22.2048L19.5607 20.639M22.0028 23.6488L19.952 24.0673M19.5607 20.639L18.4782 20.2034L17.9238 19.6226L17.2373 19.3717L16.5905 18.9229M19.5607 20.639L18.8885 21.7529M16.5905 18.9229H16.2209M16.5905 18.9229L17.2266 20.9378H18.1883L18.8885 21.7529M16.2209 18.9229L16.1557 19.8894L14.823 20.4935M18.5741 23.475L16.9571 23.7447M18.5741 23.475L19.1393 24.311L19.952 24.0673M18.5741 23.475L18.8885 21.7529M16.9571 23.7447L15.5124 21.7529L14.6106 21.9493M16.9571 23.7447L16.4181 24.7327V27.9892M16.9571 23.7447L15.3033 23.475M16.4181 28.91L17.9453 30.6168L17.2266 32.2788M16.4181 28.91V27.9892M16.4181 28.91L14.3445 29.3143M17.2266 32.2788L15.0988 31.9811M17.2266 32.2788L18.8885 33.4017M18.8885 33.4017H20.5056M20.5056 33.4017L22.4956 35.1899M20.5056 33.4017L19.5166 35.4561M22.4956 35.1899L23.9839 33.8696M22.4956 35.1899L23.2879 36.2643M23.9839 33.8696L26.3844 32.8374M23.9839 33.8696L25.6832 35.0207M26.3844 32.8374L27.1285 31.7572M26.3844 32.8374L26.5998 34.0375L25.6832 35.0207M26.3844 32.8374H27.7965M27.1285 31.7572L26.7659 30.3129L25.6832 29.7021L25.9331 28.3419M25.9331 28.3419L24.4062 27.0684M24.4062 27.0684L23.6495 25.7738M23.6495 25.7738L22.268 24.9612H20.724L19.952 24.0673M18.8885 21.7529L20.2928 21.7382M15.3033 23.475L14.6106 21.9493M15.3033 23.475L14.0297 25.6041M14.6106 21.9493L14.0297 21.4709L14.823 20.4935M14.0297 25.6041L14.9007 26.7821M16.4181 27.9892L14.9007 26.7821M14.9007 26.7821H14.0297M14.0297 26.7821L13.7087 27.9804L14.3445 29.3143M14.3445 29.3143L14.0297 30.6168L15.0988 31.9811M23.2879 36.2643L25.6832 35.0207M19.5166 35.4561L19.952 36.5606M29.7368 34.4594L30.088 35.4561M29.7368 34.4594L27.7965 32.8374" stroke="url(#paint6_linear)" stroke-width="0.149775"/>
<path d="M13.7077 18.4973L14.6189 18.2773L16.2209 18.9229M13.7077 18.4973L13.0479 20.0054L13.7077 22.2048M13.7077 18.4973L14.823 20.4935M13.7077 22.2048L13.3621 23.2417L13.5506 24.1843M13.7077 22.2048L14.6106 21.9493M13.5506 24.1843L13.3621 25.0826L13.5506 26.45M13.5506 24.1843L14.0297 25.6041M13.5506 26.45L13.2759 27.8174L13.6468 29.0457L13.4498 30.0306L13.8553 31.0735C13.9442 31.3941 14.1334 32.0469 14.1798 32.0933L15.6978 33.6113L16.6683 34.479M13.5506 26.45L14.0297 26.7821M16.6683 34.479L17.7198 36.6554L18.6002 36.8511M16.6683 34.479L15.0988 31.9811M16.6683 34.479L18.8885 33.4017M18.6002 36.8511L19.5784 37.4625L22.4956 37.3687M18.6002 36.8511L19.5166 35.4561M18.6002 36.8511L19.952 36.5606M22.4956 37.3687L24.2248 37.6092L26.0833 37.0223M22.4956 37.3687L23.2879 36.2643M22.4956 37.3687L19.952 36.5606M26.0833 37.0223L28.1864 36.6554M26.0833 37.0223L25.6832 35.0207M28.1864 36.6554L28.8424 36.7667L30.7126 36.1767V35.4147M28.1864 36.6554L30.088 35.4561M28.1864 36.6554L27.7965 32.8374M30.7126 35.4147L31.4151 34.3253L30.926 33.436M30.7126 35.4147L30.088 35.4561M30.926 33.436L30.7286 32.4142L30.1873 31.9125L29.3557 30.8961M30.926 33.436L29.7368 34.4594M29.3557 30.8961L29.4349 30.2888L28.8409 29.4704H28.3656L27.7716 27.9523M29.3557 30.8961L28.0811 31.2377L27.1285 31.7572M27.7716 27.9523L25.6595 26.5266M27.7716 27.9523L25.9331 28.3419M25.6595 26.5266V26.0646L24.6166 25.2329L23.8245 25.0085M25.6595 26.5266L24.4062 27.0684M23.8245 25.0085L22.7553 23.8864L22.0028 23.6488M23.8245 25.0085L23.6495 25.7738M22.0028 23.6488L20.96 22.3023L20.6035 22.2048L19.5607 20.639M22.0028 23.6488L19.952 24.0673M19.5607 20.639L18.4782 20.2034L17.9238 19.6226L17.2373 19.3717L16.5905 18.9229M19.5607 20.639L18.8885 21.7529M16.5905 18.9229H16.2209M16.5905 18.9229L17.2266 20.9378H18.1883L18.8885 21.7529M16.2209 18.9229L16.1557 19.8894L14.823 20.4935M18.5741 23.475L16.9571 23.7447M18.5741 23.475L19.1393 24.311L19.952 24.0673M18.5741 23.475L18.8885 21.7529M16.9571 23.7447L15.5124 21.7529L14.6106 21.9493M16.9571 23.7447L16.4181 24.7327V27.9892M16.9571 23.7447L15.3033 23.475M16.4181 28.91L17.9453 30.6168L17.2266 32.2788M16.4181 28.91V27.9892M16.4181 28.91L14.3445 29.3143M17.2266 32.2788L15.0988 31.9811M17.2266 32.2788L18.8885 33.4017M18.8885 33.4017H20.5056M20.5056 33.4017L22.4956 35.1899M20.5056 33.4017L19.5166 35.4561M22.4956 35.1899L23.9839 33.8696M22.4956 35.1899L23.2879 36.2643M23.9839 33.8696L26.3844 32.8374M23.9839 33.8696L25.6832 35.0207M26.3844 32.8374L27.1285 31.7572M26.3844 32.8374L26.5998 34.0375L25.6832 35.0207M26.3844 32.8374H27.7965M27.1285 31.7572L26.7659 30.3129L25.6832 29.7021L25.9331 28.3419M25.9331 28.3419L24.4062 27.0684M24.4062 27.0684L23.6495 25.7738M23.6495 25.7738L22.268 24.9612H20.724L19.952 24.0673M18.8885 21.7529L20.2928 21.7382M15.3033 23.475L14.6106 21.9493M15.3033 23.475L14.0297 25.6041M14.6106 21.9493L14.0297 21.4709L14.823 20.4935M14.0297 25.6041L14.9007 26.7821M16.4181 27.9892L14.9007 26.7821M14.9007 26.7821H14.0297M14.0297 26.7821L13.7087 27.9804L14.3445 29.3143M14.3445 29.3143L14.0297 30.6168L15.0988 31.9811M23.2879 36.2643L25.6832 35.0207M19.5166 35.4561L19.952 36.5606M29.7368 34.4594L30.088 35.4561M29.7368 34.4594L27.7965 32.8374" stroke="url(#paint7_linear)" stroke-opacity="0.72" stroke-width="0.149775"/>
<path d="M16.957 23.7443L18.574 23.4746L19.1392 24.3107L19.9518 24.0669L20.7239 24.9608H22.2679L23.6494 25.7735L24.4061 27.068L25.9329 28.3415L25.6831 29.7018L26.7657 30.3125L27.1284 31.7569L26.3842 32.8371L23.9838 33.8693L22.4955 35.1895L20.5054 33.4013H18.8884L18.7796 33.3278L17.2265 32.2784L17.9451 30.6165L16.418 28.9096V27.9888V27.068V24.7324L16.6875 24.2383L16.957 23.7443Z" fill="url(#paint8_linear)" fill-opacity="0.81"/>
<path d="M16.417 24.7491L16.9553 23.7443L18.5723 23.4746C18.5723 23.4746 17.3528 23.6997 17.0219 24.3062C16.5116 25.2418 16.417 28.9356 16.417 28.9356V24.7491Z" fill="url(#paint9_linear)"/>
<path d="M16.4165 25.9327L16.4165 24.7506L17.5337 23.6561C17.5337 23.6561 16.7387 24.4538 16.839 25.1374C16.9937 26.1919 19.4381 29.7108 19.4381 29.7108L16.4165 25.9327Z" fill="url(#paint10_linear)"/>
<path d="M18.8891 33.4028L17.2266 32.2673L17.7132 31.1507C17.7132 31.1507 17.6524 31.9629 17.9869 32.4976C18.5522 33.401 20.505 33.3998 20.505 33.3998L18.8891 33.4028Z" fill="url(#paint11_linear)"/>
<path d="M20.7201 24.9538L22.2648 24.9539L23.6685 25.7797C23.6685 25.7797 22.7353 25.4024 22.0593 25.2597C21.0165 25.0395 21.6028 28.6494 21.6028 28.6494L20.7201 24.9538Z" fill="url(#paint12_linear)"/>
<path d="M18.0319 30.6035L16.4932 28.8828C16.4932 28.8828 17.7103 30.0446 18.2134 30.0446C18.8328 30.0446 21.2275 28.8398 21.2275 28.8398L18.0319 30.6035Z" fill="url(#paint13_linear)"/>
<path d="M27.0482 31.7422L26.334 32.7773C26.334 32.7773 26.6984 32.1187 26.7845 31.623C26.8192 31.4225 26.7008 30.3628 26.7008 30.3628L27.0482 31.7422Z" fill="url(#paint14_linear)"/>
<path d="M19.951 24.0673L20.7188 24.9565C20.7188 24.9565 20.3649 24.5986 19.8632 24.3338C19.6833 24.2388 19.1382 24.3119 19.1382 24.3119L19.951 24.0673Z" fill="url(#paint15_linear)"/>
<path d="M20.5332 33.3262C20.5332 33.3262 21.6949 33.9937 22.2347 33.9937C22.6937 33.9937 26.3344 32.7764 26.3344 32.7764L23.9421 33.8049L22.4952 35.0896L20.5332 33.3262Z" fill="url(#paint16_linear)"/>
<path d="M20.5137 33.4102C20.5137 33.4102 22.324 32.3259 23.4734 32.3259C24.8425 32.3259 26.3351 32.7771 26.3351 32.7771L23.759 31.6339C23.5225 31.5289 23.2487 31.5535 23.0346 31.6988L20.5137 33.4102Z" fill="url(#paint17_linear)" fill-opacity="0.76"/>
<path opacity="0.6" d="M24.3491 27.1172L25.8885 28.372L25.6 29.7429C25.6 29.7429 25.5588 28.7964 25.3809 28.5594C24.7411 27.7072 18.0322 30.6013 18.0322 30.6013L24.3491 27.1172Z" fill="url(#paint18_linear)"/>
<path opacity="0.9" d="M23.1829 36.2353L25.673 34.923L25.7669 35.0414L26.1553 36.9569L24.377 37.0263L22.3449 37.4453L23.1829 36.2353Z" fill="url(#paint19_linear)"/>
<path opacity="0.4" d="M20.5289 33.5243L22.439 35.2402L23.3291 36.3266L22.6335 37.3145L18.6614 36.7915L19.5982 35.4643L20.5289 33.5243Z" fill="url(#paint20_linear)"/>
<path opacity="0.9" d="M18.7986 36.8867L19.9405 36.6149L21.917 37.2617L20.3192 37.2014L18.7986 36.8867Z" fill="url(#paint21_linear)"/>
<path opacity="0.9" d="M14.132 32.1185L16.5449 34.3281L15.0976 31.992L13.9557 30.5732L13.5219 30.0174L14.132 32.1185Z" fill="url(#paint22_linear)"/>
<path opacity="0.9" d="M17.7224 36.6606L16.7691 34.5122L17.9802 35.8397L19.4404 35.4293L18.5719 36.7656L17.7224 36.6606Z" fill="url(#paint23_linear)"/>
<path opacity="0.9" d="M14.6136 18.3555L16.1401 18.9684H14.3953L13.6756 19.7053L13.764 22.1311L13.1406 20.0172L13.7783 18.5609L14.6136 18.3555Z" fill="url(#paint24_linear)"/>
<path opacity="0.9" d="M14.6136 18.3555L16.1401 18.9684L16.0835 19.8414L14.8652 20.5565L13.6312 22.2093L13.1406 20.0172L13.7783 18.5609L14.6136 18.3555Z" fill="url(#paint25_linear)"/>
<path opacity="0.9" d="M15.3364 23.5552L14.804 24.2309L13.981 25.5593L13.4722 24.1727L13.2851 23.2403L13.6311 22.2137L14.0791 21.6107L14.6183 21.9955L15.3364 23.5552Z" fill="url(#paint26_linear)"/>
<path opacity="0.9" d="M18.4783 20.1025L19.6033 20.5923L17.676 20.3221L17.2399 20.8366L16.8998 19.7551L16.6643 19.0488L17.9439 19.584L18.4783 20.1025Z" fill="url(#paint27_linear)"/>
<path opacity="0.7" d="M25.6533 26.6133L27.544 27.9001L25.8838 27.0876H24.5752L25.6533 26.6133Z" fill="url(#paint28_linear)"/>
<path opacity="0.9" d="M15.246 32.0722L17.2248 32.3707L18.7407 33.3941L17.2672 33.552L16.8309 32.723L15.246 32.0722Z" fill="url(#paint29_linear)"/>
<path opacity="0.5" d="M16.7696 34.5136L18.7779 33.4529L20.3877 33.4773L19.4594 35.4015L17.8032 36.7305L16.7696 34.5136Z" fill="url(#paint30_linear)"/>
<path opacity="0.84" fill-rule="evenodd" clip-rule="evenodd" d="M19.1105 28.3233C18.6571 29.5272 19.2825 30.8873 20.502 31.3251C20.5489 31.3564 20.5958 31.4189 20.5958 31.4658V31.6847C20.5958 31.7159 20.5958 31.7316 20.5801 31.7472C20.5645 31.8097 20.502 31.841 20.4394 31.8097C19.5639 31.5283 18.8916 30.8561 18.6102 29.9806C18.1412 28.4953 18.9542 26.9163 20.4394 26.4472C20.4551 26.4316 20.4863 26.4316 20.502 26.4316C20.5645 26.4472 20.5958 26.4942 20.5958 26.5567V26.7756C20.5958 26.8538 20.5645 26.9007 20.502 26.9319C19.861 27.1664 19.3451 27.6667 19.1105 28.3233ZM22.0185 26.5098C22.0341 26.4472 22.0966 26.416 22.1592 26.4472C23.019 26.7287 23.707 27.4009 23.9884 28.2921C24.4574 29.7773 23.6444 31.3564 22.1592 31.8254C22.1435 31.841 22.1123 31.841 22.0966 31.841C22.0341 31.8254 22.0028 31.7785 22.0028 31.7159V31.4971C22.0028 31.4189 22.0341 31.372 22.0966 31.3407C22.7376 31.1062 23.2535 30.6059 23.4881 29.9493C23.9415 28.7455 23.3161 27.3853 22.0966 26.9476C22.0497 26.9163 22.0028 26.8538 22.0028 26.7912V26.5723C22.0028 26.5411 22.0028 26.5254 22.0185 26.5098ZM21.3461 28.8701C22.0027 28.9483 22.331 29.1359 22.331 29.6831C22.331 30.1052 22.0184 30.4335 21.5493 30.5117V30.8869C21.5337 30.9651 21.4868 31.012 21.4242 31.012H21.1897C21.1116 30.9963 21.0647 30.9494 21.0647 30.8869V30.5117C20.5488 30.4335 20.2986 30.1521 20.2361 29.7613V29.7456C20.2361 29.6831 20.283 29.6362 20.3455 29.6362H20.6113C20.6582 29.6362 20.7051 29.6674 20.7207 29.73C20.7676 29.9645 20.9083 30.1365 21.3148 30.1365C21.6119 30.1365 21.8308 29.9645 21.8308 29.7143C21.8308 29.4642 21.6901 29.3704 21.2523 29.2922C20.5957 29.214 20.283 29.0108 20.283 28.4949C20.283 28.104 20.58 27.7914 21.049 27.7288V27.3692C21.0647 27.291 21.1116 27.2441 21.1741 27.2441H21.4086C21.4868 27.2598 21.5337 27.3067 21.5337 27.3692V27.7445C21.8933 27.7757 22.1747 28.0415 22.2372 28.3854V28.4011C22.2372 28.4636 22.1903 28.5105 22.1278 28.5105H21.8777C21.8308 28.5105 21.7839 28.4792 21.7682 28.4323C21.6901 28.1978 21.5337 28.104 21.2523 28.104C20.9396 28.104 20.7833 28.2447 20.7833 28.4636C20.7833 28.6825 20.8771 28.8076 21.3461 28.8701Z" fill="url(#paint31_linear)" fill-opacity="0.9"/>
<defs>
<filter id="filter0_f" x="0.221883" y="11.466" width="45.2419" height="39.4001" filterUnits="userSpaceOnUse" color-interpolation-filters="sRGB">
<feFlood flood-opacity="0" result="BackgroundImageFix"/>
<feBlend mode="normal" in="SourceGraphic" in2="BackgroundImageFix" result="shape"/>
<feGaussianBlur stdDeviation="5.84121" result="effect1_foregroundBlur"/>
</filter>
<filter id="filter1_f" x="0.466023" y="0.827352" width="44.1351" height="51.6658" filterUnits="userSpaceOnUse" color-interpolation-filters="sRGB">
<feFlood flood-opacity="0" result="BackgroundImageFix"/>
<feBlend mode="normal" in="SourceGraphic" in2="BackgroundImageFix" result="shape"/>
<feGaussianBlur stdDeviation="5.84121" result="effect1_foregroundBlur"/>
</filter>
<linearGradient id="paint0_linear" x1="34.1392" y1="30.5801" x2="11.8596" y2="31.8563" gradientUnits="userSpaceOnUse">
<stop stop-color="#1E7ED7"/>
<stop offset="1" stop-color="#1E41D7"/>
</linearGradient>
<linearGradient id="paint1_linear" x1="33.5688" y1="27.2225" x2="12.2127" y2="25.9992" gradientUnits="userSpaceOnUse">
<stop stop-color="#1E7ED7"/>
<stop offset="1" stop-color="#1E41D7"/>
</linearGradient>
<linearGradient id="paint2_linear" x1="31.4151" y1="20.0573" x2="10.6311" y2="30.4822" gradientUnits="userSpaceOnUse">
<stop offset="0.31071" stop-color="#213C95" stop-opacity="0.78"/>
<stop offset="0.440919" stop-color="#98A4F1"/>
<stop offset="0.6974" stop-color="#393DE7"/>
<stop offset="0.818309" stop-color="#6857E9" stop-opacity="0.08"/>
</linearGradient>
<linearGradient id="paint3_linear" x1="13.6673" y1="17.7527" x2="30.2377" y2="37.6092" gradientUnits="userSpaceOnUse">
<stop offset="0.0438972" stop-color="#0A0F28"/>
<stop offset="0.213034" stop-color="#130B1E" stop-opacity="0.5"/>
<stop offset="1" stop-color="#061042"/>
</linearGradient>
<linearGradient id="paint4_linear" x1="31.4151" y1="20.0573" x2="10.6311" y2="30.4822" gradientUnits="userSpaceOnUse">
<stop offset="0.31071" stop-color="#213C95" stop-opacity="0.78"/>
<stop offset="0.440919" stop-color="#98A4F1"/>
<stop offset="0.6974" stop-color="#393DE7"/>
<stop offset="0.818309" stop-color="#6857E9" stop-opacity="0.08"/>
</linearGradient>
<linearGradient id="paint5_linear" x1="13.6673" y1="17.7527" x2="30.2377" y2="37.6092" gradientUnits="userSpaceOnUse">
<stop offset="0.0438972" stop-color="#0A0F28"/>
<stop offset="0.213034" stop-color="#130B1E" stop-opacity="0.5"/>
<stop offset="1" stop-color="#061042"/>
</linearGradient>
<linearGradient id="paint6_linear" x1="26.8171" y1="19.5138" x2="16.2754" y2="33.0262" gradientUnits="userSpaceOnUse">
<stop offset="0.19917" stop-color="#0E1D68" stop-opacity="0.87"/>
<stop offset="0.434645" stop-color="#63FFFF" stop-opacity="0.49"/>
<stop offset="0.866181" stop-color="#86D1FB" stop-opacity="0.34"/>
<stop offset="1" stop-color="#0F1847" stop-opacity="0.62"/>
</linearGradient>
<linearGradient id="paint7_linear" x1="14.6831" y1="29.7654" x2="32.2304" y2="33.7505" gradientUnits="userSpaceOnUse">
<stop stop-color="#070F35"/>
<stop offset="0.0600316" stop-color="#172A6F" stop-opacity="0.185071"/>
<stop offset="0.167396" stop-color="#1B307C" stop-opacity="0"/>
<stop offset="0.602331" stop-color="#1B307C" stop-opacity="0.14"/>
<stop offset="0.856481" stop-color="#070F35"/>
</linearGradient>
<linearGradient id="paint8_linear" x1="20.7721" y1="37.6583" x2="26.0259" y2="21.957" gradientUnits="userSpaceOnUse">
<stop offset="0.120618" stop-color="#1BCCF2" stop-opacity="0.72"/>
<stop offset="0.245674" stop-color="#1BCCF2" stop-opacity="0.38"/>
<stop offset="0.47782" stop-color="#1BCCF2" stop-opacity="0.36"/>
<stop offset="0.855882" stop-color="#6BFFB8" stop-opacity="0.71"/>
</linearGradient>
<linearGradient id="paint9_linear" x1="16.417" y1="23.266" x2="17.9488" y2="26.6005" gradientUnits="userSpaceOnUse">
<stop offset="0.289954" stop-color="#B3EFFA"/>
<stop offset="0.985103" stop-color="#2BA4D8" stop-opacity="0"/>
</linearGradient>
<linearGradient id="paint10_linear" x1="15.7303" y1="24.6699" x2="20.049" y2="29.9976" gradientUnits="userSpaceOnUse">
<stop offset="0.135403" stop-color="#B3EFFA"/>
<stop offset="0.985103" stop-color="#2BA4D8" stop-opacity="0"/>
</linearGradient>
<linearGradient id="paint11_linear" x1="17.3804" y1="33.177" x2="20.8952" y2="32.1229" gradientUnits="userSpaceOnUse">
<stop offset="0.289954" stop-color="#B3EFFA"/>
<stop offset="0.985103" stop-color="#2BA4D8" stop-opacity="0"/>
</linearGradient>
<linearGradient id="paint12_linear" x1="20.5136" y1="24.6238" x2="18.9748" y2="28.2492" gradientUnits="userSpaceOnUse">
<stop stop-color="#76DEFF"/>
<stop offset="0.76136" stop-color="#2B8FD8" stop-opacity="0"/>
</linearGradient>
<linearGradient id="paint13_linear" x1="16.48" y1="30.1435" x2="21.2726" y2="28.2974" gradientUnits="userSpaceOnUse">
<stop offset="0.143213" stop-color="#B3EFFA"/>
<stop offset="0.942412" stop-color="#2BA4D8" stop-opacity="0"/>
</linearGradient>
<linearGradient id="paint14_linear" x1="27.0292" y1="33.3607" x2="23.946" y2="29.2532" gradientUnits="userSpaceOnUse">
<stop offset="0.143213" stop-color="#B3EFFA"/>
<stop offset="0.942412" stop-color="#2BA4D8" stop-opacity="0"/>
</linearGradient>
<linearGradient id="paint15_linear" x1="21.5438" y1="24.2048" x2="17.3751" y2="27.2048" gradientUnits="userSpaceOnUse">
<stop offset="0.143213" stop-color="#B3EFFA"/>
<stop offset="0.942412" stop-color="#2BA4D8" stop-opacity="0"/>
</linearGradient>
<linearGradient id="paint16_linear" x1="23.2456" y1="36.1005" x2="22.9306" y2="32.1095" gradientUnits="userSpaceOnUse">
<stop offset="0.117431" stop-color="#B7F4FF"/>
<stop offset="1" stop-color="#2BA4D8" stop-opacity="0"/>
</linearGradient>
<linearGradient id="paint17_linear" x1="23.2461" y1="30.0033" x2="22.931" y2="33.9944" gradientUnits="userSpaceOnUse">
<stop offset="0.0315517" stop-color="#B3EFFA"/>
<stop offset="1" stop-color="#2BA4D8" stop-opacity="0"/>
</linearGradient>
<linearGradient id="paint18_linear" x1="23.8764" y1="28.0493" x2="17.8248" y2="32.4105" gradientUnits="userSpaceOnUse">
<stop stop-color="#76DEFF"/>
<stop offset="1" stop-color="#2B8FD8" stop-opacity="0"/>
</linearGradient>
<linearGradient id="paint19_linear" x1="24.5145" y1="34.5871" x2="24.1986" y2="38.5109" gradientUnits="userSpaceOnUse">
<stop stop-color="#12144E"/>
<stop offset="0.586049" stop-color="#410093" stop-opacity="0.51"/>
</linearGradient>
<linearGradient id="paint20_linear" x1="21.3853" y1="34.9138" x2="21.1036" y2="38.4142" gradientUnits="userSpaceOnUse">
<stop stop-color="#12144E"/>
<stop offset="0.586049" stop-color="#410093" stop-opacity="0.51"/>
</linearGradient>
<linearGradient id="paint21_linear" x1="19.1395" y1="36.2541" x2="18.8578" y2="39.7545" gradientUnits="userSpaceOnUse">
<stop stop-color="#12144E"/>
<stop offset="0.586049" stop-color="#410093" stop-opacity="0.51"/>
</linearGradient>
<linearGradient id="paint22_linear" x1="12.476" y1="31.9224" x2="19.3467" y2="26.8448" gradientUnits="userSpaceOnUse">
<stop stop-color="#12144E"/>
<stop offset="0.586049" stop-color="#410093" stop-opacity="0.51"/>
</linearGradient>
<linearGradient id="paint23_linear" x1="18.1047" y1="35.7623" x2="18.3903" y2="38.1225" gradientUnits="userSpaceOnUse">
<stop offset="0.129707" stop-color="#12144E"/>
<stop offset="0.586049" stop-color="#410093" stop-opacity="0.51"/>
</linearGradient>
<linearGradient id="paint24_linear" x1="14.2255" y1="18.7481" x2="16.0191" y2="22.522" gradientUnits="userSpaceOnUse">
<stop stop-color="#12144E"/>
<stop offset="0.483447" stop-color="#410093" stop-opacity="0.51"/>
</linearGradient>
<linearGradient id="paint25_linear" x1="14.2255" y1="18.7481" x2="16.0191" y2="22.522" gradientUnits="userSpaceOnUse">
<stop stop-color="#12144E"/>
<stop offset="0.483447" stop-color="#410093" stop-opacity="0.51"/>
</linearGradient>
<linearGradient id="paint26_linear" x1="16.5992" y1="24.2882" x2="11.1334" y2="21.8096" gradientUnits="userSpaceOnUse">
<stop offset="0.106676" stop-color="#12144E" stop-opacity="0.36"/>
<stop offset="0.879434" stop-color="#230C42" stop-opacity="0.42"/>
</linearGradient>
<linearGradient id="paint27_linear" x1="17.0817" y1="20.8729" x2="18.9477" y2="19.3228" gradientUnits="userSpaceOnUse">
<stop offset="0.0117096" stop-color="#410093" stop-opacity="0.51"/>
<stop offset="0.605749" stop-color="#12144E"/>
</linearGradient>
<linearGradient id="paint28_linear" x1="26.1615" y1="27.5159" x2="26.4433" y2="24.0155" gradientUnits="userSpaceOnUse">
<stop stop-color="#12144E"/>
<stop offset="0.586049" stop-color="#410093" stop-opacity="0.51"/>
</linearGradient>
<linearGradient id="paint29_linear" x1="16.9137" y1="31.5492" x2="14.2393" y2="33.8252" gradientUnits="userSpaceOnUse">
<stop stop-color="#12144E"/>
<stop offset="0.586049" stop-color="#410093" stop-opacity="0.51"/>
</linearGradient>
<linearGradient id="paint30_linear" x1="16.7782" y1="34.2587" x2="16.4964" y2="37.7592" gradientUnits="userSpaceOnUse">
<stop stop-color="#12144E"/>
<stop offset="0.586049" stop-color="#410093" stop-opacity="0.51"/>
</linearGradient>
<linearGradient id="paint31_linear" x1="18.4775" y1="24.7954" x2="23.3791" y2="32.7395" gradientUnits="userSpaceOnUse">
<stop offset="0.192664" stop-color="#99CEFF" stop-opacity="0.21"/>
<stop offset="0.415531" stop-color="#99F9FF" stop-opacity="0.78"/>
<stop offset="0.668153" stop-color="white" stop-opacity="0.6"/>
<stop offset="0.932383" stop-color="#EAEAEA" stop-opacity="0.49"/>
</linearGradient>
</defs>
</svg>
