<svg width="60" height="48" viewBox="0 0 60 48" fill="none" xmlns="http://www.w3.org/2000/svg">
<g filter="url(#filter0_f)">
<path d="M33.6819 16.8645L37.0721 17.8082L38.0637 18.8059L37.8694 19.5041L38.4944 21.0657L40.873 23.4497L40.7607 23.8531L43.0389 27.2123L42.6873 27.616L43.446 28.3287L45.0723 28.9111L45.4682 29.9455L44.296 30.6783L44.2632 32.4074L43.5237 32.7975L42.2973 32.4562L38.5171 32.7751L35.9076 33.1858L32.3979 32.4097L31.7358 31.8409L27.005 31.2767L21.2597 28.7081L19.588 27.2231L19.8964 26.9745L18.666 23.8963L16.7193 22.1782L17.3463 21.7675L16.3657 21.3609L16.8683 19.5551L14.8066 17.0148L15.4995 15.7531L17.9764 15.5731L18.3814 15.1006L24.0483 16.477L26.7245 17.0546L29.1437 16.591L30.603 16.9971L31.3035 16.6905L33.6819 16.8645Z" fill="url(#paint0_linear)"/>
</g>
<path d="M30.9691 14.5117L33.0474 14.512L33.7695 15.3515V16.2266L34.3724 17.8407L36.1031 19.8437V20.3493L37.9311 23.5192L37.795 24.1026L38.3395 24.686L39.357 24.837L39.7461 25.912L39.1952 27.1438L39.4503 29.1658L39.0913 29.8589H38.3395L36.2393 31.4535L34.8196 32.7759L32.6999 33.0093L32.2332 32.562L29.4523 33.4371L25.7768 32.3092L24.5906 31.1229L24.7267 30.734L23.5393 27.5517L22.1597 26.1834L22.4514 25.5028L21.8291 25.3472V23.084L20.2539 20.7966L20.4484 19.1047L21.8291 18.0935L21.9847 17.4128L25.4268 17.1795L27.0409 16.985L28.3438 15.6626H29.2384L29.5884 15.0792L30.9691 14.5117Z" fill="#09340A" fill-opacity="0.17"/>
<path d="M30.9691 14.5117L33.0474 14.512L33.7695 15.3515V16.2266L34.3724 17.8407L36.1031 19.8437V20.3493L37.9311 23.5192L37.795 24.1026L38.3395 24.686L39.357 24.837L39.7461 25.912L39.1952 27.1438L39.4503 29.1658L39.0913 29.8589H38.3395L36.2393 31.4535L34.8196 32.7759L32.6999 33.0093L32.2332 32.562L29.4523 33.4371L25.7768 32.3092L24.5906 31.1229L24.7267 30.734L23.5393 27.5517L22.1597 26.1834L22.4514 25.5028L21.8291 25.3472V23.084L20.2539 20.7966L20.4484 19.1047L21.8291 18.0935L21.9847 17.4128L25.4268 17.1795L27.0409 16.985L28.3438 15.6626H29.2384L29.5884 15.0792L30.9691 14.5117Z" fill="url(#paint1_linear)" fill-opacity="0.48"/>
<path d="M30.9778 18.9682L27.7944 19.4842L26.8218 21.6696L24.4295 22.728L23.7283 25.5056L25.7439 26.3413L26.1432 27.5819L26.0644 29.0661L27.822 30.0781L29.1003 29.3857L31.5899 30.0367L34.746 28.5868L35.4384 27.3618L35.1188 24.752L33.7873 24.0596L32.4557 23.3139L33.4144 22.728L32.7753 21.3965L31.4438 20.9704L30.9778 18.9682Z" fill="url(#paint2_linear)" fill-opacity="0.48"/>
<path d="M34.5047 20.4523H33.319L30.9778 18.9682L29.5643 16.9902L27.0409 16.985L27.7944 19.4842L23.7774 18.9682L27.0409 16.985L29.5643 16.9902L29.2384 15.6626L32.3801 16.6282L34.0246 19.6695L36.1031 20.3493L34.5047 21.984L36.135 23.0214L36.9254 25.6892L37.7159 28.2582L35.1223 24.7748L36.135 23.0214L34.5047 21.984V20.4523Z" fill="url(#paint3_linear)" fill-opacity="0.48"/>
<path d="M29.2384 15.6626L29.5884 15.0792L30.9691 14.5117L33.0474 14.512L33.7695 15.3515M29.2384 15.6626H28.3438L27.0409 16.985M29.2384 15.6626L32.3801 16.6282M29.2384 15.6626L29.5643 16.9902M27.0409 16.985L25.4268 17.1795L21.9847 17.4128M27.0409 16.985L29.5643 16.9902M27.0409 16.985L27.7944 19.4842M27.0409 16.985L23.7774 18.9682M21.9847 17.4128L21.8291 18.0935L20.4484 19.1047M21.9847 17.4128L23.7774 18.9682M20.4484 19.1047L20.2539 20.7966M20.4484 19.1047L23.0111 21.6308M20.2539 20.7966L21.8291 23.084V25.3472M20.2539 20.7966L23.0111 21.6308M21.8291 25.3472L22.4514 25.5028M21.8291 25.3472L23.0111 23.2058V21.6308M22.4514 25.5028L22.1597 26.1834M22.4514 25.5028L23.7283 25.5056M22.1597 26.1834L23.5393 27.5517L24.7267 30.734M22.1597 26.1834L23.7283 25.5056M24.7267 30.734L24.5906 31.1229L25.7768 32.3092L29.4523 33.4371L32.2332 32.562M24.7267 30.734L25.9739 30.7858M32.2332 32.562L32.6999 33.0093L34.8196 32.7759L36.2393 31.4535L38.3395 29.8589H39.0913L39.4503 29.1658M32.2332 32.562L29.9354 31.7577M37.9311 23.5192L37.795 24.1026L38.3395 24.686L39.357 24.837L39.7461 25.912L39.1952 27.1438M37.9311 23.5192L36.1031 20.3493M37.9311 23.5192L36.135 23.0214M36.1031 20.3493V19.8437L34.3724 17.8407M36.1031 20.3493L34.0246 19.6695L32.3801 16.6282M36.1031 20.3493L34.5047 21.984M34.3724 17.8407L33.7695 16.2266V15.3515M34.3724 17.8407L32.3801 16.6282M33.7695 15.3515L32.3801 16.6282M39.4503 29.1658L39.1952 27.1438M39.4503 29.1658L37.7159 28.2582M39.1952 27.1438L36.9254 25.6892M27.7944 19.4842L30.9778 18.9682M27.7944 19.4842L26.8218 21.6696L24.4295 22.728M27.7944 19.4842L23.7774 18.9682M30.9778 18.9682L31.4438 20.9704L32.7753 21.3965L33.4144 22.728M30.9778 18.9682L33.319 20.4523H34.5047V21.984M30.9778 18.9682L29.5643 16.9902M30.9778 18.9682L32.3801 16.6282M33.4144 22.728L32.4557 23.3139L33.7873 24.0596L35.1188 24.752L35.4384 27.3618L34.746 28.5868M33.4144 22.728L34.5047 21.984M34.746 28.5868L31.5899 30.0367M34.746 28.5868L36.5796 29.6415M31.5899 30.0367L29.1003 29.3857M31.5899 30.0367L34.1548 32.8029L36.5796 29.6415M31.5899 30.0367L29.9354 31.7577M29.1003 29.3857L27.822 30.0781L26.0644 29.0661M29.1003 29.3857L29.9354 31.7577M26.0644 29.0661L26.1432 27.5819L25.7439 26.3413L23.7283 25.5056M26.0644 29.0661L25.9739 30.7858M23.7283 25.5056L24.4295 22.728M24.4295 22.728L23.0111 21.6308M34.5047 21.984L36.135 23.0214M36.135 23.0214L36.9254 25.6892M36.135 23.0214L35.1223 24.7748L37.7159 28.2582M36.9254 25.6892L37.7159 28.2582M37.7159 28.2582L36.5796 29.6415M29.9354 31.7577L28.7266 32.3621L25.9739 30.7858M23.7774 18.9682L23.0111 21.6308" stroke="url(#paint4_linear)" stroke-width="0.158291"/>
<path d="M29.2384 15.6626L29.5884 15.0792L30.9691 14.5117L33.0474 14.512L33.7695 15.3515M29.2384 15.6626H28.3438L27.0409 16.985M29.2384 15.6626L32.3801 16.6282M29.2384 15.6626L29.5643 16.9902M27.0409 16.985L25.4268 17.1795L21.9847 17.4128M27.0409 16.985L29.5643 16.9902M27.0409 16.985L27.7944 19.4842M27.0409 16.985L23.7774 18.9682M21.9847 17.4128L21.8291 18.0935L20.4484 19.1047M21.9847 17.4128L23.7774 18.9682M20.4484 19.1047L20.2539 20.7966M20.4484 19.1047L23.0111 21.6308M20.2539 20.7966L21.8291 23.084V25.3472M20.2539 20.7966L23.0111 21.6308M21.8291 25.3472L22.4514 25.5028M21.8291 25.3472L23.0111 23.2058V21.6308M22.4514 25.5028L22.1597 26.1834M22.4514 25.5028L23.7283 25.5056M22.1597 26.1834L23.5393 27.5517L24.7267 30.734M22.1597 26.1834L23.7283 25.5056M24.7267 30.734L24.5906 31.1229L25.7768 32.3092L29.4523 33.4371L32.2332 32.562M24.7267 30.734L25.9739 30.7858M32.2332 32.562L32.6999 33.0093L34.8196 32.7759L36.2393 31.4535L38.3395 29.8589H39.0913L39.4503 29.1658M32.2332 32.562L29.9354 31.7577M37.9311 23.5192L37.795 24.1026L38.3395 24.686L39.357 24.837L39.7461 25.912L39.1952 27.1438M37.9311 23.5192L36.1031 20.3493M37.9311 23.5192L36.135 23.0214M36.1031 20.3493V19.8437L34.3724 17.8407M36.1031 20.3493L34.0246 19.6695L32.3801 16.6282M36.1031 20.3493L34.5047 21.984M34.3724 17.8407L33.7695 16.2266V15.3515M34.3724 17.8407L32.3801 16.6282M33.7695 15.3515L32.3801 16.6282M39.4503 29.1658L39.1952 27.1438M39.4503 29.1658L37.7159 28.2582M39.1952 27.1438L36.9254 25.6892M27.7944 19.4842L30.9778 18.9682M27.7944 19.4842L26.8218 21.6696L24.4295 22.728M27.7944 19.4842L23.7774 18.9682M30.9778 18.9682L31.4438 20.9704L32.7753 21.3965L33.4144 22.728M30.9778 18.9682L33.319 20.4523H34.5047V21.984M30.9778 18.9682L29.5643 16.9902M30.9778 18.9682L32.3801 16.6282M33.4144 22.728L32.4557 23.3139L33.7873 24.0596L35.1188 24.752L35.4384 27.3618L34.746 28.5868M33.4144 22.728L34.5047 21.984M34.746 28.5868L31.5899 30.0367M34.746 28.5868L36.5796 29.6415M31.5899 30.0367L29.1003 29.3857M31.5899 30.0367L34.1548 32.8029L36.5796 29.6415M31.5899 30.0367L29.9354 31.7577M29.1003 29.3857L27.822 30.0781L26.0644 29.0661M29.1003 29.3857L29.9354 31.7577M26.0644 29.0661L26.1432 27.5819L25.7439 26.3413L23.7283 25.5056M26.0644 29.0661L25.9739 30.7858M23.7283 25.5056L24.4295 22.728M24.4295 22.728L23.0111 21.6308M34.5047 21.984L36.135 23.0214M36.135 23.0214L36.9254 25.6892M36.135 23.0214L35.1223 24.7748L37.7159 28.2582M36.9254 25.6892L37.7159 28.2582M37.7159 28.2582L36.5796 29.6415M29.9354 31.7577L28.7266 32.3621L25.9739 30.7858M23.7774 18.9682L23.0111 21.6308" stroke="url(#paint5_linear)" stroke-opacity="0.72" stroke-width="0.158291"/>
<path opacity="0.4" d="M29.9092 31.7422L28.8539 30.2866H26.4431L25.9245 30.741L26.035 29.0657L27.8302 30.0855L29.0772 29.4132L29.9092 31.7422Z" fill="url(#paint6_linear)"/>
<path opacity="0.3" d="M29.9637 31.6463L32.1582 32.5195L30.255 32.1948L28.7167 32.3186L29.9637 31.6463Z" fill="url(#paint7_linear)"/>
<path opacity="0.4" d="M32.5078 16.607L33.6827 15.5789V16.2753L34.2764 17.748L32.5078 16.607Z" fill="url(#paint8_linear)"/>
<path opacity="0.5" d="M29.5223 33.3994L25.8837 32.4069L24.5752 31.123L26.1949 32.1373L28.3931 32.969L31.9779 32.5391L29.5223 33.3994Z" fill="url(#paint9_linear)"/>
<path opacity="0.5" d="M24.7986 30.7973L23.5933 27.5261L22.1602 26.2441L24.0525 26.7224L24.4542 28.8462L25.9082 30.7973L24.7986 30.7973Z" fill="url(#paint10_linear)"/>
<path opacity="0.6" d="M31.6853 30.0777L34.2646 32.8828L31.5182 31.1963L30.1931 31.4854L31.6853 30.0777Z" fill="url(#paint11_linear)"/>
<path opacity="0.6" d="M36.1829 23.1382L37.8848 23.5342L36.8525 23.8575L36.9483 25.6934L36.1829 23.1382Z" fill="url(#paint12_linear)"/>
<path opacity="0.3" d="M34.6821 28.6946L36.4619 29.666L34.5471 29.297L31.7709 30.1244L34.6821 28.6946Z" fill="url(#paint13_linear)"/>
<path d="M31.0179 19.002L27.8222 19.4811L26.822 21.6717L24.4297 22.7301L23.7285 25.5076L25.7441 26.3434L26.1434 27.5839L26.0646 29.0682L27.8222 30.0801L29.1005 29.3877L31.7103 30.0801L34.7462 28.5888L35.4386 27.3638L35.119 24.754L33.7875 24.0616L32.4559 23.316L33.4146 22.7301L32.7755 21.3986L31.444 20.9725L31.0179 19.002Z" fill="url(#paint14_linear)"/>
<path d="M26.8799 21.7471L27.8496 19.5599L30.9253 19.0605C30.9253 19.0605 28.5078 19.6095 28.1086 19.8384C27.7095 20.0674 26.8799 21.7471 26.8799 21.7471Z" fill="url(#paint15_linear)"/>
<path d="M23.912 25.097L24.4966 22.7866L26.8865 21.7285C26.8865 21.7285 25.514 22.3458 24.9028 22.8719C24.4508 23.261 24.0763 24.4856 23.912 25.097L23.8223 25.4516C23.8223 25.4516 23.8541 25.3123 23.912 25.097Z" fill="url(#paint16_linear)"/>
<path d="M26.8809 21.7049L26.8809 21.7047L29.1864 22.8834L32.2999 23.3186C32.2999 23.3186 30.0385 23.2181 29.0343 23.2181C28.0301 23.2181 26.8809 21.7049 26.8809 21.7049Z" fill="url(#paint17_linear)"/>
<path d="M26.2164 27.5997C26.1259 27.2377 25.8092 26.2836 25.8092 26.2836L27.954 27.4726L29.0966 29.3018C29.0966 29.3018 27.3686 26.7963 26.2164 27.5997Z" fill="url(#paint18_linear)"/>
<path d="M34.5953 28.5697L31.5843 29.9551L29.0869 29.3001C29.0869 29.3001 30.4011 29.5465 31.939 29.3307C33.2219 29.1506 34.2799 28.7106 34.5953 28.5697L34.6914 28.5255C34.6914 28.5255 34.658 28.5417 34.5953 28.5697Z" fill="url(#paint19_linear)"/>
<path d="M29.0908 29.3049L27.8206 30.0781L26.0963 29.0647C26.0963 29.0647 27.4287 29.6382 27.8206 29.6833C28.2125 29.7284 29.0908 29.3049 29.0908 29.3049Z" fill="url(#paint20_linear)"/>
<path d="M35.3738 27.3772L31.6236 26.3825C31.6236 26.3825 34.2701 26.9843 34.7681 26.6318C35.169 26.3481 35.1014 25.3554 35.0599 24.9793L35.0413 24.8333C35.0413 24.8333 35.0498 24.8882 35.0599 24.9793L35.2362 26.3635L35.3738 27.3772Z" fill="url(#paint21_linear)"/>
<path opacity="0.3" d="M32.0178 23.1643L26.8795 21.7283C26.8795 21.7283 29.38 21.9694 29.878 21.617C30.3759 21.2645 30.888 19.1087 30.888 19.1087C30.888 19.1087 30.3282 21.4507 30.5534 22.1358C30.736 22.6917 31.5699 23.0233 32.0178 23.1643L32.3044 23.2444C32.3044 23.2444 32.1894 23.2183 32.0178 23.1643Z" fill="url(#paint22_linear)"/>
<path d="M29.0992 29.3081L31.2464 26.2988L35.3587 27.3479C35.3587 27.3479 32.6017 26.8686 31.96 26.9331C31.3183 26.9977 29.0992 29.3081 29.0992 29.3081Z" fill="url(#paint23_linear)"/>
<path d="M31.3807 21.0312L30.9209 19.0586C30.9209 19.0586 31.2619 20.4215 31.7882 21.1624L32.7169 21.4614L33.2414 22.5514C33.2905 22.6427 33.3132 22.7006 33.3132 22.7006L33.2414 22.5514C33.1119 22.3101 32.7988 21.8358 32.2377 21.5812C32.077 21.5083 31.9262 21.3568 31.7882 21.1624L31.3807 21.0312Z" fill="url(#paint24_linear)"/>
<g opacity="0.7">
<path fill-rule="evenodd" clip-rule="evenodd" d="M26.6452 21.6501L25.2333 24.6047C25.228 24.6157 25.2263 24.6281 25.2285 24.6401C25.2307 24.6521 25.2367 24.6631 25.2457 24.6715L29.0587 28.3117C29.0695 28.322 29.0839 28.3278 29.0989 28.3278C29.1139 28.3278 29.1284 28.322 29.1392 28.3117L32.9522 24.6717C32.9612 24.6634 32.9672 24.6524 32.9694 24.6403C32.9716 24.6283 32.9699 24.6159 32.9645 24.6049L31.5527 21.6504C31.5481 21.6405 31.5408 21.632 31.5316 21.6262C31.5224 21.6203 31.5116 21.6172 31.5007 21.6172H26.6976C26.6866 21.6171 26.6758 21.6201 26.6665 21.6259C26.6572 21.6318 26.6498 21.6402 26.6452 21.6501Z" fill="url(#paint25_linear)"/>
<path fill-rule="evenodd" clip-rule="evenodd" d="M29.5884 24.9078C29.561 24.9099 29.4196 24.9183 29.1041 24.9183C28.8532 24.9183 28.675 24.9108 28.6125 24.9078C27.6428 24.8653 26.9189 24.6971 26.9189 24.4958C26.9189 24.2944 27.6428 24.1265 28.6125 24.0833V24.7403C28.6759 24.7449 28.8575 24.7556 29.1084 24.7556C29.4095 24.7556 29.5603 24.7431 29.5875 24.7406V24.0837C30.5552 24.1267 31.2774 24.2949 31.2774 24.4958C31.2774 24.6967 30.5554 24.8649 29.5875 24.9076L29.5884 24.9078ZM29.5884 24.0158V23.4278H30.9389V22.5312H27.262V23.4278H28.6123V24.0156C27.5148 24.0658 26.6895 24.2824 26.6895 24.5419C26.6895 24.8015 27.5148 25.0178 28.6123 25.0683V26.9524H29.5882V25.0676C30.6831 25.0174 31.5071 24.801 31.5071 24.5417C31.5071 24.2824 30.6838 24.066 29.5882 24.0156L29.5884 24.0158Z" fill="url(#paint26_linear)"/>
</g>
<defs>
<filter id="filter0_f" x="0.603082" y="0.603082" width="58.7938" height="46.7437" filterUnits="userSpaceOnUse" color-interpolation-filters="sRGB">
<feFlood flood-opacity="0" result="BackgroundImageFix"/>
<feBlend mode="normal" in="SourceGraphic" in2="BackgroundImageFix" result="shape"/>
<feGaussianBlur stdDeviation="5.69846" result="effect1_foregroundBlur"/>
</filter>
<linearGradient id="paint0_linear" x1="47.6128" y1="22.2394" x2="21.2488" y2="38.9669" gradientUnits="userSpaceOnUse">
<stop offset="0.0575941" stop-color="#0B8F30" stop-opacity="0.24"/>
<stop offset="0.386773" stop-color="#0B8F30"/>
<stop offset="0.798239" stop-color="#09521D"/>
<stop offset="0.939952" stop-color="#0D4F1F" stop-opacity="0.23"/>
</linearGradient>
<linearGradient id="paint1_linear" x1="39.7461" y1="16.2542" x2="18.4393" y2="27.8396" gradientUnits="userSpaceOnUse">
<stop offset="0.0575941" stop-color="#0B8F30" stop-opacity="0.24"/>
<stop offset="0.386773" stop-color="#0B8F30"/>
<stop offset="0.798239" stop-color="#09521D"/>
<stop offset="0.939952" stop-color="#0D4F1F" stop-opacity="0.23"/>
</linearGradient>
<linearGradient id="paint2_linear" x1="39.7461" y1="16.2542" x2="18.4393" y2="27.8396" gradientUnits="userSpaceOnUse">
<stop offset="0.0575941" stop-color="#0B8F30" stop-opacity="0.24"/>
<stop offset="0.386773" stop-color="#0B8F30"/>
<stop offset="0.798239" stop-color="#09521D"/>
<stop offset="0.939952" stop-color="#0D4F1F" stop-opacity="0.23"/>
</linearGradient>
<linearGradient id="paint3_linear" x1="39.7461" y1="16.2542" x2="18.4393" y2="27.8396" gradientUnits="userSpaceOnUse">
<stop offset="0.0575941" stop-color="#0B8F30" stop-opacity="0.24"/>
<stop offset="0.386773" stop-color="#0B8F30"/>
<stop offset="0.798239" stop-color="#09521D"/>
<stop offset="0.939952" stop-color="#0D4F1F" stop-opacity="0.23"/>
</linearGradient>
<linearGradient id="paint4_linear" x1="34.8665" y1="15.7222" x2="27.0483" y2="30.5419" gradientUnits="userSpaceOnUse">
<stop offset="0.203125" stop-color="#0E3C31" stop-opacity="0.87"/>
<stop offset="0.427083" stop-color="#44FFB0" stop-opacity="0.49"/>
<stop offset="0.671875" stop-color="#35FFAA" stop-opacity="0.813997"/>
<stop offset="1" stop-color="#0E3C31" stop-opacity="0.62"/>
</linearGradient>
<linearGradient id="paint5_linear" x1="24.011" y1="28.925" x2="39.371" y2="24.8847" gradientUnits="userSpaceOnUse">
<stop stop-color="#072C0D"/>
<stop offset="0.167396" stop-color="#09640D" stop-opacity="0"/>
<stop offset="0.602331" stop-color="#09640D" stop-opacity="0"/>
<stop offset="0.852274" stop-color="#072C0D"/>
</linearGradient>
<linearGradient id="paint6_linear" x1="28.086" y1="29.0658" x2="27.2289" y2="31.9587" gradientUnits="userSpaceOnUse">
<stop stop-color="#3C0E86"/>
<stop offset="0.68449" stop-color="#2B3DE2" stop-opacity="0"/>
</linearGradient>
<linearGradient id="paint7_linear" x1="28.9725" y1="31.299" x2="28.1154" y2="34.1919" gradientUnits="userSpaceOnUse">
<stop stop-color="#0E3486" stop-opacity="0.7"/>
<stop offset="1" stop-color="#2B3DE2" stop-opacity="0.51"/>
</linearGradient>
<linearGradient id="paint8_linear" x1="31.5166" y1="16.2597" x2="30.6596" y2="19.1527" gradientUnits="userSpaceOnUse">
<stop stop-color="#0E3486" stop-opacity="0.7"/>
<stop offset="1" stop-color="#2B3DE2" stop-opacity="0.51"/>
</linearGradient>
<linearGradient id="paint9_linear" x1="28.518" y1="34.1384" x2="29.8391" y2="30.1382" gradientUnits="userSpaceOnUse">
<stop stop-color="#67860E" stop-opacity="0.7"/>
<stop offset="0.537332" stop-color="#B2E22B" stop-opacity="0.03"/>
</linearGradient>
<linearGradient id="paint10_linear" x1="22.7986" y1="30.4385" x2="27.6706" y2="27.6124" gradientUnits="userSpaceOnUse">
<stop stop-color="#67860E" stop-opacity="0.7"/>
<stop offset="0.584272" stop-color="#B2E22B" stop-opacity="0.03"/>
</linearGradient>
<linearGradient id="paint11_linear" x1="31.4754" y1="29.8109" x2="30.1931" y2="33.1233" gradientUnits="userSpaceOnUse">
<stop stop-color="#204F1F"/>
<stop offset="1" stop-color="#0C3804" stop-opacity="0.51"/>
</linearGradient>
<linearGradient id="paint12_linear" x1="35.973" y1="22.8716" x2="34.6907" y2="26.184" gradientUnits="userSpaceOnUse">
<stop stop-color="#204F1F"/>
<stop offset="1" stop-color="#0C3804" stop-opacity="0.51"/>
</linearGradient>
<linearGradient id="paint13_linear" x1="33.6581" y1="29.1017" x2="34.3624" y2="32.0356" gradientUnits="userSpaceOnUse">
<stop stop-color="#0E3486" stop-opacity="0.7"/>
<stop offset="1" stop-color="#2B3DE2" stop-opacity="0.51"/>
</linearGradient>
<linearGradient id="paint14_linear" x1="28.4891" y1="32.4147" x2="32.4904" y2="16.4223" gradientUnits="userSpaceOnUse">
<stop stop-color="#4FFB6B" stop-opacity="0.63"/>
<stop offset="0.60414" stop-color="#1BF231" stop-opacity="0"/>
</linearGradient>
<linearGradient id="paint15_linear" x1="28.0458" y1="18.7138" x2="28.2732" y2="21.0384" gradientUnits="userSpaceOnUse">
<stop offset="0.289954" stop-color="#3DFF21"/>
<stop offset="1" stop-color="#41D82B" stop-opacity="0"/>
</linearGradient>
<linearGradient id="paint16_linear" x1="24.6927" y1="21.9404" x2="24.9202" y2="24.265" gradientUnits="userSpaceOnUse">
<stop offset="0.289954" stop-color="#3DFF21"/>
<stop offset="1" stop-color="#41D82B" stop-opacity="0"/>
</linearGradient>
<linearGradient id="paint17_linear" x1="29.3072" y1="21.8254" x2="27.4762" y2="26.0971" gradientUnits="userSpaceOnUse">
<stop offset="0.0856313" stop-color="#3DFF21"/>
<stop offset="0.708273" stop-color="#41D82B" stop-opacity="0"/>
</linearGradient>
<linearGradient id="paint18_linear" x1="27.9935" y1="26.4496" x2="27.7605" y2="29.3226" gradientUnits="userSpaceOnUse">
<stop offset="0.0856313" stop-color="#3DFF21"/>
<stop offset="0.708273" stop-color="#41D82B" stop-opacity="0"/>
</linearGradient>
<linearGradient id="paint19_linear" x1="31.4307" y1="30.8342" x2="31.2032" y2="28.5096" gradientUnits="userSpaceOnUse">
<stop offset="0.289954" stop-color="#3DFF21"/>
<stop offset="1" stop-color="#41D82B" stop-opacity="0"/>
</linearGradient>
<linearGradient id="paint20_linear" x1="27.6651" y1="30.8367" x2="27.4376" y2="28.5121" gradientUnits="userSpaceOnUse">
<stop offset="0.289954" stop-color="#3DFF21"/>
<stop offset="1" stop-color="#41D82B" stop-opacity="0"/>
</linearGradient>
<linearGradient id="paint21_linear" x1="35.5779" y1="27.5938" x2="33.4656" y2="26.1535" gradientUnits="userSpaceOnUse">
<stop offset="0.289954" stop-color="#3DFF21"/>
<stop offset="1" stop-color="#41D82B" stop-opacity="0"/>
</linearGradient>
<linearGradient id="paint22_linear" x1="29.5366" y1="22.5785" x2="27.4243" y2="21.1383" gradientUnits="userSpaceOnUse">
<stop offset="0.289954" stop-color="#21F2FF"/>
<stop offset="1" stop-color="#2BCED8" stop-opacity="0"/>
</linearGradient>
<linearGradient id="paint23_linear" x1="31.8459" y1="25.2947" x2="32.7005" y2="28.6955" gradientUnits="userSpaceOnUse">
<stop offset="0.275602" stop-color="#41D82B" stop-opacity="0"/>
<stop offset="0.902134" stop-color="#3DFF21"/>
</linearGradient>
<linearGradient id="paint24_linear" x1="32.1177" y1="20.5718" x2="30.6348" y2="22.3763" gradientUnits="userSpaceOnUse">
<stop offset="0.289954" stop-color="#3DFF21"/>
<stop offset="1" stop-color="#41D82B" stop-opacity="0"/>
</linearGradient>
<linearGradient id="paint25_linear" x1="28.0842" y1="21.6172" x2="31.0852" y2="27.949" gradientUnits="userSpaceOnUse">
<stop stop-color="#50AF95" stop-opacity="0.31"/>
<stop offset="0.222119" stop-color="#50AF95"/>
<stop offset="0.475616" stop-color="#50AF95" stop-opacity="0.758691"/>
<stop offset="0.755771" stop-color="#50AF95" stop-opacity="0.388314"/>
<stop offset="1" stop-color="#50AF95"/>
</linearGradient>
<linearGradient id="paint26_linear" x1="27.4835" y1="22.5313" x2="29.7222" y2="27.4624" gradientUnits="userSpaceOnUse">
<stop stop-color="white"/>
<stop offset="0.372968" stop-color="white" stop-opacity="0.453474"/>
<stop offset="0.710632" stop-color="white" stop-opacity="0.65827"/>
<stop offset="1" stop-color="white"/>
</linearGradient>
</defs>
</svg>
