<svg width="420" height="726" viewBox="0 0 420 726" fill="none" xmlns="http://www.w3.org/2000/svg">
<g clip-path="url(#clip0)">
<path opacity="0.37" d="M71.1899 580.801V721.691L157.4 644.031L71.1899 580.801Z" fill="url(#paint0_linear)" fill-opacity="0.4"/>
<path d="M84.1399 692.691C85.3825 692.691 86.3899 691.684 86.3899 690.441C86.3899 689.199 85.3825 688.191 84.1399 688.191C82.8973 688.191 81.8899 689.199 81.8899 690.441C81.8899 691.684 82.8973 692.691 84.1399 692.691Z" fill="url(#paint1_linear)"/>
<path opacity="0.6" d="M156.06 642.551L81.0199 710.141V697.091L73.1899 705.121V580.801H69.1899V726.191L158.74 645.521L156.06 642.551Z" fill="url(#paint2_linear)"/>
<path opacity="0.37" d="M348.42 580.801V721.691L262.21 644.031L348.42 580.801Z" fill="url(#paint3_linear)" fill-opacity="0.4"/>
<path d="M335.46 692.691C336.703 692.691 337.71 691.684 337.71 690.441C337.71 689.199 336.703 688.191 335.46 688.191C334.218 688.191 333.21 689.199 333.21 690.441C333.21 691.684 334.218 692.691 335.46 692.691Z" fill="url(#paint4_linear)"/>
<path opacity="0.6" d="M263.55 642.551L338.58 710.141V697.091L346.42 705.121V580.801H350.42V726.191L260.87 645.521L263.55 642.551Z" fill="url(#paint5_linear)"/>
<path opacity="0.37" d="M45.61 2H2V418.74L43.76 480.51L45.61 2Z" fill="url(#paint6_linear)" fill-opacity="0.4"/>
<path opacity="0.37" d="M374 2H417.61V418.74L375.84 480.51L374 2Z" fill="url(#paint7_linear)" fill-opacity="0.4"/>
<path d="M399.02 22C400.263 22 401.27 20.9926 401.27 19.75C401.27 18.5074 400.263 17.5 399.02 17.5C397.777 17.5 396.77 18.5074 396.77 19.75C396.77 20.9926 397.777 22 399.02 22Z" fill="url(#paint8_linear)"/>
<path d="M20.5901 22C21.8327 22 22.8401 20.9926 22.8401 19.75C22.8401 18.5074 21.8327 17.5 20.5901 17.5C19.3474 17.5 18.3401 18.5074 18.3401 19.75C18.3401 20.9926 19.3474 22 20.5901 22Z" fill="url(#paint9_linear)"/>
<path opacity="0.4" d="M0 0V419.47L42.23 481.8L45.3 479.23L4 418.02V14.5H14.11V4H405.5V14.5H415.61V418.02L374.31 479.23L377.37 481.8L419.61 419.47V0H0Z" fill="url(#paint10_linear)"/>
<g opacity="0.2">
<g opacity="0.2">
<path opacity="0.2" d="M103.1 602.96C131.93 625.2 167.75 643.88 192.24 649.43C199.61 651.1 205.9 657.93 209.81 663.22C213.7 658.31 219.74 651.97 226.45 649.59C275.84 632.07 369.26 584.33 369.26 529.06V9.98047H50.5801V530.27C50.5801 550.71 69.7201 577.2 103.1 602.96Z" fill="url(#paint11_linear)"/>
</g>
</g>
<path opacity="0.2" d="M102.52 594.98C131.35 617.22 167.17 635.9 191.66 641.45C199.03 643.12 205.32 649.95 209.23 655.24C213.12 650.33 219.16 643.99 225.87 641.61C275.26 624.09 368.68 576.35 368.68 521.08V2H50V522.29C50 542.73 69.14 569.22 102.52 594.98Z" fill="url(#paint12_linear)"/>
<path d="M45.6201 5H374.22V529.05C374.22 586.39 282.15 635.1 228.11 654.27C218.54 657.66 209.63 672.03 209.63 672.03C209.63 672.03 201.05 656.52 191.15 654.27C142.33 643.2 45.6201 580.32 45.6201 530.26V5Z" fill="#4A0300" fill-opacity="0.4" stroke="url(#paint13_linear)" stroke-width="9.942"/>
<path opacity="0.6" d="M359.25 529.058C359.25 555.178 332.78 579.518 310.57 595.338C274.76 620.848 234.57 636.098 223.11 640.168C218.69 641.738 214.3 644.478 209.98 648.378C205.02 643.818 199.82 640.898 194.45 639.678C171.25 634.418 137 616.478 109.21 595.038C93.5801 582.978 80.8701 570.438 72.4301 558.768C64.6801 548.038 60.5801 538.188 60.5801 530.268V30.6482H80.1401V39.5482H71.2401V19.9883H348.58V39.5482H339.68V30.6482H359.24V529.058H359.25Z" stroke="url(#paint14_linear)" stroke-miterlimit="10"/>
<path d="M87.4399 31.6797H331.31" stroke="url(#paint15_linear)" stroke-width="0.4605" stroke-miterlimit="10"/>
</g>
<defs>
<linearGradient id="paint0_linear" x1="114" y1="581" x2="76" y2="720" gradientUnits="userSpaceOnUse">
<stop offset="0.128361" stop-color="#E85246"/>
<stop offset="0.411818" stop-color="#9B1618"/>
<stop offset="0.618171" stop-color="#E81C39"/>
<stop offset="0.835835" stop-color="#560713"/>
</linearGradient>
<linearGradient id="paint1_linear" x1="68.9871" y1="690.445" x2="156.915" y2="690.445" gradientUnits="userSpaceOnUse">
<stop stop-color="#825900" stop-opacity="0.44"/>
<stop offset="0.2429" stop-color="#C19639"/>
<stop offset="0.5093" stop-color="#FFDE96"/>
<stop offset="0.7457" stop-color="#C19639"/>
<stop offset="1" stop-color="#825900" stop-opacity="0.44"/>
</linearGradient>
<linearGradient id="paint2_linear" x1="68.9849" y1="653.497" x2="156.923" y2="653.497" gradientUnits="userSpaceOnUse">
<stop stop-color="#825900" stop-opacity="0.44"/>
<stop offset="0.2429" stop-color="#C19639"/>
<stop offset="0.5093" stop-color="#FFDE96"/>
<stop offset="0.7457" stop-color="#C19639"/>
<stop offset="1" stop-color="#825900" stop-opacity="0.44"/>
</linearGradient>
<linearGradient id="paint3_linear" x1="297.5" y1="581" x2="339.5" y2="714.5" gradientUnits="userSpaceOnUse">
<stop offset="0.128361" stop-color="#E85246"/>
<stop offset="0.411818" stop-color="#9B1618"/>
<stop offset="0.618171" stop-color="#E81C39"/>
<stop offset="0.835835" stop-color="#560713"/>
</linearGradient>
<linearGradient id="paint4_linear" x1="350.62" y1="690.445" x2="262.692" y2="690.445" gradientUnits="userSpaceOnUse">
<stop stop-color="#825900" stop-opacity="0.44"/>
<stop offset="0.2429" stop-color="#C19639"/>
<stop offset="0.5093" stop-color="#FFDE96"/>
<stop offset="0.7457" stop-color="#C19639"/>
<stop offset="1" stop-color="#825900" stop-opacity="0.44"/>
</linearGradient>
<linearGradient id="paint5_linear" x1="350.618" y1="653.497" x2="262.69" y2="653.497" gradientUnits="userSpaceOnUse">
<stop stop-color="#825900" stop-opacity="0.44"/>
<stop offset="0.2429" stop-color="#C19639"/>
<stop offset="0.5093" stop-color="#FFDE96"/>
<stop offset="0.7457" stop-color="#C19639"/>
<stop offset="1" stop-color="#825900" stop-opacity="0.44"/>
</linearGradient>
<linearGradient id="paint6_linear" x1="23.8046" y1="7.9299" x2="24" y2="453" gradientUnits="userSpaceOnUse">
<stop offset="0.0505" stop-color="#E85246"/>
<stop offset="0.1535" stop-color="#9B1618"/>
<stop offset="0.5484" stop-color="#E81C39"/>
<stop offset="0.849411" stop-color="#580713"/>
</linearGradient>
<linearGradient id="paint7_linear" x1="395.805" y1="7.9299" x2="396" y2="453" gradientUnits="userSpaceOnUse">
<stop offset="0.0505" stop-color="#E85246"/>
<stop offset="0.1535" stop-color="#9B1618"/>
<stop offset="0.5484" stop-color="#E81C39"/>
<stop offset="0.849411" stop-color="#580713"/>
</linearGradient>
<linearGradient id="paint8_linear" x1="-20.6541" y1="19.7538" x2="416.902" y2="19.7538" gradientUnits="userSpaceOnUse">
<stop stop-color="#825900" stop-opacity="0.44"/>
<stop offset="0.2429" stop-color="#C19639"/>
<stop offset="0.5093" stop-color="#FFDE96"/>
<stop offset="0.7457" stop-color="#C19639"/>
<stop offset="1" stop-color="#825900" stop-opacity="0.44"/>
</linearGradient>
<linearGradient id="paint9_linear" x1="-0.652012" y1="19.7538" x2="436.904" y2="19.7538" gradientUnits="userSpaceOnUse">
<stop stop-color="#825900" stop-opacity="0.44"/>
<stop offset="0.2429" stop-color="#C19639"/>
<stop offset="0.5093" stop-color="#FFDE96"/>
<stop offset="0.7457" stop-color="#C19639"/>
<stop offset="1" stop-color="#825900" stop-opacity="0.44"/>
</linearGradient>
<linearGradient id="paint10_linear" x1="162.51" y1="-14.3628" x2="115.23" y2="560.837" gradientUnits="userSpaceOnUse">
<stop stop-color="#825900" stop-opacity="0.44"/>
<stop offset="0.2429" stop-color="#C19639"/>
<stop offset="0.5093" stop-color="#FFDE96"/>
<stop offset="0.651599" stop-color="#C19639"/>
<stop offset="0.811734" stop-color="#825900" stop-opacity="0.44"/>
</linearGradient>
<linearGradient id="paint11_linear" x1="10.0431" y1="81.8072" x2="387.537" y2="459.302" gradientUnits="userSpaceOnUse">
<stop stop-color="#C21B1B" stop-opacity="0"/>
<stop offset="0.175" stop-color="#C21B1B"/>
<stop offset="0.2263" stop-color="#F95D69"/>
<stop offset="0.2831" stop-color="#C21B1B"/>
<stop offset="0.486" stop-color="#C21B1B" stop-opacity="0"/>
<stop offset="0.7188" stop-color="#C21B1B"/>
<stop offset="0.7663" stop-color="#F95D69"/>
<stop offset="0.8045" stop-color="#C21B1B"/>
<stop offset="1" stop-color="#C21B1B" stop-opacity="0"/>
</linearGradient>
<linearGradient id="paint12_linear" x1="9.46299" y1="73.8267" x2="386.957" y2="451.321" gradientUnits="userSpaceOnUse">
<stop stop-color="#C21B1B" stop-opacity="0"/>
<stop offset="0.175" stop-color="#C21B1B"/>
<stop offset="0.2263" stop-color="#F95D69"/>
<stop offset="0.2831" stop-color="#C21B1B"/>
<stop offset="0.486" stop-color="#C21B1B" stop-opacity="0"/>
<stop offset="0.7188" stop-color="#C21B1B"/>
<stop offset="0.7663" stop-color="#F95D69"/>
<stop offset="0.8045" stop-color="#C21B1B"/>
<stop offset="1" stop-color="#C21B1B" stop-opacity="0"/>
</linearGradient>
<linearGradient id="paint13_linear" x1="100" y1="599.5" x2="353" y2="14.5" gradientUnits="userSpaceOnUse">
<stop offset="0.0228972" stop-color="#F33B2D" stop-opacity="0.69"/>
<stop offset="0.20318" stop-color="#9B1618"/>
<stop offset="0.570461" stop-color="#E81C39"/>
<stop offset="0.92995" stop-color="#560511" stop-opacity="0.77"/>
</linearGradient>
<linearGradient id="paint14_linear" x1="39.501" y1="41.2217" x2="388.09" y2="541.999" gradientUnits="userSpaceOnUse">
<stop stop-color="#825900" stop-opacity="0.44"/>
<stop offset="0.2429" stop-color="#C19639"/>
<stop offset="0.5093" stop-color="#FFDE96"/>
<stop offset="0.7457" stop-color="#C19639"/>
<stop offset="1" stop-color="#825900" stop-opacity="0.44"/>
</linearGradient>
<linearGradient id="paint15_linear" x1="nan" y1="nan" x2="nan" y2="nan" gradientUnits="userSpaceOnUse">
<stop stop-color="#825900" stop-opacity="0.44"/>
<stop offset="0.2429" stop-color="#C19639"/>
<stop offset="0.5093" stop-color="#FFDE96"/>
<stop offset="0.7457" stop-color="#C19639"/>
<stop offset="1" stop-color="#825900" stop-opacity="0.44"/>
</linearGradient>
<clipPath id="clip0">
<rect width="420" height="726" fill="white"/>
</clipPath>
</defs>
</svg>
