<svg width="420" height="726" viewBox="0 0 420 726" fill="none" xmlns="http://www.w3.org/2000/svg">
<g clip-path="url(#clip0)">
<path opacity="0.33" d="M71.1902 580.801V721.691L157.4 644.031L71.1902 580.801Z" fill="url(#paint0_linear)" fill-opacity="0.4"/>
<path d="M84.1501 692.691C85.3928 692.691 86.4001 691.684 86.4001 690.441C86.4001 689.199 85.3928 688.191 84.1501 688.191C82.9075 688.191 81.9001 689.199 81.9001 690.441C81.9001 691.684 82.9075 692.691 84.1501 692.691Z" fill="url(#paint1_linear)"/>
<path opacity="0.6" d="M156.06 642.551L81.03 710.141V697.091L73.1902 705.121V580.801H69.1902V726.191L158.74 645.521L156.06 642.551Z" fill="url(#paint2_linear)"/>
<path opacity="0.33" d="M348.42 580.801V721.691L262.21 644.031L348.42 580.801Z" fill="url(#paint3_linear)" fill-opacity="0.4"/>
<path d="M335.47 692.691C336.713 692.691 337.72 691.684 337.72 690.441C337.72 689.199 336.713 688.191 335.47 688.191C334.227 688.191 333.22 689.199 333.22 690.441C333.22 691.684 334.227 692.691 335.47 692.691Z" fill="url(#paint4_linear)"/>
<path opacity="0.6" d="M263.55 642.551L338.59 710.141V697.091L346.42 705.121V580.801H350.42V726.191L260.88 645.521L263.55 642.551Z" fill="url(#paint5_linear)"/>
<path opacity="0.33" d="M45.6101 2H2V418.74L43.77 480.51L45.6101 2Z" fill="url(#paint6_linear)" fill-opacity="0.4"/>
<path opacity="0.33" d="M374 2H417.61V418.74L375.85 480.51L374 2Z" fill="url(#paint7_linear)" fill-opacity="0.4"/>
<path d="M399.03 22C400.273 22 401.28 20.9926 401.28 19.75C401.28 18.5074 400.273 17.5 399.03 17.5C397.787 17.5 396.78 18.5074 396.78 19.75C396.78 20.9926 397.787 22 399.03 22Z" fill="url(#paint8_linear)"/>
<path d="M20.5901 22C21.8327 22 22.8401 20.9926 22.8401 19.75C22.8401 18.5074 21.8327 17.5 20.5901 17.5C19.3474 17.5 18.3401 18.5074 18.3401 19.75C18.3401 20.9926 19.3474 22 20.5901 22Z" fill="url(#paint9_linear)"/>
<path opacity="0.4" d="M0 0V419.47L42.24 481.8L45.3 479.23L4 418.02V14.5H14.1101V4H405.5V14.5H415.61V418.02L374.31 479.23L377.38 481.8L419.61 419.47V0H0Z" fill="url(#paint10_linear)"/>
<g opacity="0.2">
<g opacity="0.2">
<path opacity="0.2" d="M103.1 602.96C131.93 625.2 167.75 643.88 192.24 649.43C199.61 651.1 205.9 657.93 209.81 663.22C213.7 658.31 219.74 651.97 226.45 649.59C275.84 632.07 369.26 584.33 369.26 529.06V9.98047H50.5901V530.27C50.5801 550.71 69.7301 577.2 103.1 602.96Z" fill="url(#paint11_linear)"/>
</g>
</g>
<path opacity="0.2" d="M103.51 604.878C132.34 627.118 168.16 645.798 192.65 651.348C200.02 653.018 206.31 659.848 210.22 665.138C214.11 660.228 220.15 653.888 226.86 651.508C276.25 633.988 369.67 586.248 369.67 530.978V11.8984H51V532.188C50.99 552.628 70.14 579.118 103.51 604.878Z" fill="url(#paint12_linear)"/>
<path d="M45.6201 5H374.22V529.05C374.22 586.39 282.15 635.1 228.11 654.27C218.54 657.66 209.63 672.03 209.63 672.03C209.63 672.03 201.05 656.52 191.15 654.27C142.33 643.2 45.6201 580.32 45.6201 530.26V5Z" fill="#502F00" fill-opacity="0.4" stroke="url(#paint13_linear)" stroke-width="9.942"/>
<path opacity="0.6" d="M359.25 529.058C359.25 555.178 332.78 579.518 310.57 595.338C274.76 620.848 234.57 636.098 223.11 640.168C218.69 641.738 214.3 644.478 209.98 648.378C205.02 643.818 199.82 640.898 194.45 639.678C171.25 634.418 137 616.478 109.21 595.038C93.5802 582.978 80.8702 570.438 72.4302 558.768C64.6802 548.038 60.5801 538.188 60.5801 530.268V30.6482H80.1401V39.5482H71.24V19.9883H348.59V39.5482H339.69V30.6482H359.25V529.058Z" stroke="url(#paint14_linear)" stroke-miterlimit="10"/>
<path d="M87.4402 31.6797H331.31" stroke="url(#paint15_linear)" stroke-width="0.4605" stroke-miterlimit="10"/>
</g>
<defs>
<linearGradient id="paint0_linear" x1="124.5" y1="587.5" x2="66" y2="749.5" gradientUnits="userSpaceOnUse">
<stop offset="0.0505" stop-color="#F7E320"/>
<stop offset="0.1535" stop-color="#EF9B25"/>
<stop offset="0.380336" stop-color="#FFFF8A"/>
<stop offset="0.565693" stop-color="#AA6E0C"/>
</linearGradient>
<linearGradient id="paint1_linear" x1="68.9912" y1="690.445" x2="156.919" y2="690.445" gradientUnits="userSpaceOnUse">
<stop stop-color="#825900" stop-opacity="0.44"/>
<stop offset="0.2429" stop-color="#C19639"/>
<stop offset="0.5093" stop-color="#FFDE96"/>
<stop offset="0.7457" stop-color="#C19639"/>
<stop offset="1" stop-color="#825900" stop-opacity="0.44"/>
</linearGradient>
<linearGradient id="paint2_linear" x1="68.9852" y1="653.497" x2="156.923" y2="653.497" gradientUnits="userSpaceOnUse">
<stop stop-color="#825900" stop-opacity="0.44"/>
<stop offset="0.2429" stop-color="#C19639"/>
<stop offset="0.5093" stop-color="#FFDE96"/>
<stop offset="0.7457" stop-color="#C19639"/>
<stop offset="1" stop-color="#825900" stop-opacity="0.44"/>
</linearGradient>
<linearGradient id="paint3_linear" x1="297" y1="581" x2="348" y2="722" gradientUnits="userSpaceOnUse">
<stop offset="0.0505" stop-color="#F7E320"/>
<stop offset="0.346078" stop-color="#EF9B25"/>
<stop offset="0.56909" stop-color="#FFFF8A"/>
<stop offset="0.787869" stop-color="#A66907"/>
</linearGradient>
<linearGradient id="paint4_linear" x1="350.624" y1="690.445" x2="262.696" y2="690.445" gradientUnits="userSpaceOnUse">
<stop stop-color="#825900" stop-opacity="0.44"/>
<stop offset="0.2429" stop-color="#C19639"/>
<stop offset="0.5093" stop-color="#FFDE96"/>
<stop offset="0.7457" stop-color="#C19639"/>
<stop offset="1" stop-color="#825900" stop-opacity="0.44"/>
</linearGradient>
<linearGradient id="paint5_linear" x1="350.618" y1="653.497" x2="262.7" y2="653.497" gradientUnits="userSpaceOnUse">
<stop stop-color="#825900" stop-opacity="0.44"/>
<stop offset="0.2429" stop-color="#C19639"/>
<stop offset="0.5093" stop-color="#FFDE96"/>
<stop offset="0.7457" stop-color="#C19639"/>
<stop offset="1" stop-color="#825900" stop-opacity="0.44"/>
</linearGradient>
<linearGradient id="paint6_linear" x1="23.8086" y1="7.9299" x2="23.8086" y2="611.045" gradientUnits="userSpaceOnUse">
<stop offset="0.0505" stop-color="#F7E320"/>
<stop offset="0.1535" stop-color="#EF9B25"/>
<stop offset="0.427078" stop-color="#FFFF8A"/>
<stop offset="0.624213" stop-color="#AA6E0C"/>
</linearGradient>
<linearGradient id="paint7_linear" x1="395.809" y1="7.9299" x2="395.809" y2="611.045" gradientUnits="userSpaceOnUse">
<stop offset="0.0505" stop-color="#F7E320"/>
<stop offset="0.1535" stop-color="#EF9B25"/>
<stop offset="0.427078" stop-color="#FFFF8A"/>
<stop offset="0.624213" stop-color="#AA6E0C"/>
</linearGradient>
<linearGradient id="paint8_linear" x1="-20.6502" y1="19.7538" x2="416.906" y2="19.7538" gradientUnits="userSpaceOnUse">
<stop stop-color="#825900" stop-opacity="0.44"/>
<stop offset="0.2429" stop-color="#C19639"/>
<stop offset="0.5093" stop-color="#FFDE96"/>
<stop offset="0.7457" stop-color="#C19639"/>
<stop offset="1" stop-color="#825900" stop-opacity="0.44"/>
</linearGradient>
<linearGradient id="paint9_linear" x1="-0.648211" y1="19.7538" x2="436.908" y2="19.7538" gradientUnits="userSpaceOnUse">
<stop stop-color="#825900" stop-opacity="0.44"/>
<stop offset="0.2429" stop-color="#C19639"/>
<stop offset="0.5093" stop-color="#FFDE96"/>
<stop offset="0.7457" stop-color="#C19639"/>
<stop offset="1" stop-color="#825900" stop-opacity="0.44"/>
</linearGradient>
<linearGradient id="paint10_linear" x1="162.51" y1="-14.3628" x2="115.23" y2="560.837" gradientUnits="userSpaceOnUse">
<stop stop-color="#825900" stop-opacity="0.44"/>
<stop offset="0.2429" stop-color="#C19639"/>
<stop offset="0.5093" stop-color="#FFDE96"/>
<stop offset="0.651599" stop-color="#C19639"/>
<stop offset="0.811734" stop-color="#825900" stop-opacity="0.44"/>
</linearGradient>
<linearGradient id="paint11_linear" x1="10.0471" y1="81.8072" x2="387.541" y2="459.301" gradientUnits="userSpaceOnUse">
<stop stop-color="#F5CF16" stop-opacity="0"/>
<stop offset="0.175" stop-color="#F5CF16"/>
<stop offset="0.2263" stop-color="#FCFF7E"/>
<stop offset="0.2831" stop-color="#F5CF16"/>
<stop offset="0.486" stop-color="#F5CF16" stop-opacity="0"/>
<stop offset="0.7188" stop-color="#F5CF16"/>
<stop offset="0.7663" stop-color="#FCFF7E"/>
<stop offset="0.8045" stop-color="#F5CF16"/>
<stop offset="1" stop-color="#F5CF16" stop-opacity="0"/>
</linearGradient>
<linearGradient id="paint12_linear" x1="10.457" y1="83.7251" x2="387.951" y2="461.219" gradientUnits="userSpaceOnUse">
<stop stop-color="#F5CF16" stop-opacity="0"/>
<stop offset="0.175" stop-color="#F5CF16"/>
<stop offset="0.2263" stop-color="#FCFF7E"/>
<stop offset="0.2831" stop-color="#F5CF16"/>
<stop offset="0.486" stop-color="#F5CF16" stop-opacity="0"/>
<stop offset="0.7188" stop-color="#F5CF16"/>
<stop offset="0.7663" stop-color="#FCFF7E"/>
<stop offset="0.8045" stop-color="#F5CF16"/>
<stop offset="1" stop-color="#F5CF16" stop-opacity="0"/>
</linearGradient>
<linearGradient id="paint13_linear" x1="104" y1="589" x2="329" y2="58.5001" gradientUnits="userSpaceOnUse">
<stop offset="0.0364172" stop-color="#EDF12B"/>
<stop offset="0.1535" stop-color="#EF9B25"/>
<stop offset="0.5484" stop-color="#FFFF8A"/>
<stop offset="1" stop-color="#523202"/>
</linearGradient>
<linearGradient id="paint14_linear" x1="39.5049" y1="41.2217" x2="388.094" y2="541.999" gradientUnits="userSpaceOnUse">
<stop stop-color="#825900" stop-opacity="0.44"/>
<stop offset="0.2429" stop-color="#C19639"/>
<stop offset="0.5093" stop-color="#FFDE96"/>
<stop offset="0.7457" stop-color="#C19639"/>
<stop offset="1" stop-color="#825900" stop-opacity="0.44"/>
</linearGradient>
<linearGradient id="paint15_linear" x1="nan" y1="nan" x2="nan" y2="nan" gradientUnits="userSpaceOnUse">
<stop stop-color="#825900" stop-opacity="0.44"/>
<stop offset="0.2429" stop-color="#C19639"/>
<stop offset="0.5093" stop-color="#FFDE96"/>
<stop offset="0.7457" stop-color="#C19639"/>
<stop offset="1" stop-color="#825900" stop-opacity="0.44"/>
</linearGradient>
<clipPath id="clip0">
<rect width="420" height="726" fill="white"/>
</clipPath>
</defs>
</svg>
