<svg width="420" height="726" viewBox="0 0 420 726" fill="none" xmlns="http://www.w3.org/2000/svg">
<g clip-path="url(#clip0)">
<path d="M71.2 580.801V721.701L157.4 644.041L71.2 580.801Z" fill="url(#paint0_linear)" fill-opacity="0.4"/>
<path d="M84.1501 692.691C85.3928 692.691 86.4001 691.684 86.4001 690.441C86.4001 689.199 85.3928 688.191 84.1501 688.191C82.9075 688.191 81.9001 689.199 81.9001 690.441C81.9001 691.684 82.9075 692.691 84.1501 692.691Z" fill="url(#paint1_linear)"/>
<path opacity="0.6" d="M156.06 642.551L81.03 710.151V697.091L73.2 705.121V580.801H69.2V726.191L158.74 645.521L156.06 642.551Z" fill="url(#paint2_linear)"/>
<path d="M348.42 580.801V721.701L262.22 644.041L348.42 580.801Z" fill="url(#paint3_linear)" fill-opacity="0.4"/>
<path d="M335.47 692.691C336.713 692.691 337.72 691.684 337.72 690.441C337.72 689.199 336.713 688.191 335.47 688.191C334.227 688.191 333.22 689.199 333.22 690.441C333.22 691.684 334.227 692.691 335.47 692.691Z" fill="url(#paint4_linear)"/>
<path opacity="0.6" d="M263.55 642.551L338.59 710.151V697.091L346.42 705.121V580.801H350.42V726.191L260.88 645.521L263.55 642.551Z" fill="url(#paint5_linear)"/>
<path d="M45.6101 2H2V418.75L43.77 480.52L45.6101 2Z" fill="url(#paint6_linear)" fill-opacity="0.4"/>
<path d="M374.01 2H417.62V418.75L375.85 480.52L374.01 2Z" fill="url(#paint7_linear)" fill-opacity="0.4"/>
<path d="M399.03 22C400.273 22 401.28 20.9926 401.28 19.75C401.28 18.5074 400.273 17.5 399.03 17.5C397.787 17.5 396.78 18.5074 396.78 19.75C396.78 20.9926 397.787 22 399.03 22Z" fill="url(#paint8_linear)"/>
<path d="M20.5901 22C21.8327 22 22.8401 20.9926 22.8401 19.75C22.8401 18.5074 21.8327 17.5 20.5901 17.5C19.3474 17.5 18.3401 18.5074 18.3401 19.75C18.3401 20.9926 19.3474 22 20.5901 22Z" fill="url(#paint9_linear)"/>
<path opacity="0.4" d="M0 0V419.47L42.24 481.8L45.3 479.23L4 418.02V14.5H14.1201V4H405.5V14.5H415.62V418.02L374.32 479.23L377.38 481.8L419.62 419.47V0H0Z" fill="url(#paint10_linear)"/>
<g opacity="0.2">
<g opacity="0.2">
<path opacity="0.2" d="M103.1 602.96C131.93 625.2 167.75 643.88 192.24 649.43C199.61 651.1 205.9 657.93 209.81 663.22C213.7 658.31 219.74 651.97 226.45 649.59C275.84 632.07 369.25 584.33 369.25 529.06V9.98047H50.5801V530.27C50.5801 550.71 69.7301 577.2 103.1 602.96Z" fill="url(#paint11_linear)"/>
</g>
</g>
<path opacity="0.2" d="M102.78 604.441C131.61 626.681 167.43 645.361 191.92 650.911C199.29 652.581 205.58 659.411 209.49 664.701C213.38 659.791 219.42 653.451 226.13 651.071C275.52 633.551 368.93 585.811 368.93 530.541V11.4609H50.26V531.751C50.26 552.191 69.41 578.681 102.78 604.441Z" fill="url(#paint12_linear)"/>
<path d="M45.6101 5H374.22V529.05C374.22 586.39 282.15 635.1 228.11 654.27C218.54 657.66 209.63 672.03 209.63 672.03C209.63 672.03 201.05 656.52 191.15 654.27C142.33 643.2 45.6201 580.32 45.6201 530.26L45.6101 5Z" fill="#140D3C" fill-opacity="0.4" stroke="url(#paint13_linear)" stroke-width="9.942"/>
<path opacity="0.6" d="M359.67 529.08C359.67 555.2 333.2 579.54 310.99 595.36C275.18 620.87 234.99 636.12 223.53 640.19C219.11 641.76 214.72 644.5 210.4 648.4C205.44 643.84 200.24 640.92 194.87 639.7C171.67 634.44 137.42 616.5 109.63 595.06C93.9999 583 81.2901 570.46 72.8501 558.79C65.1001 548.06 61 538.21 61 530.29V30.66H80.5601V39.56H71.6599V20H349V39.56H340.1V30.66H359.66V529.08H359.67Z" stroke="url(#paint14_linear)" stroke-miterlimit="10"/>
<path d="M87.4402 31.6797H331.32" stroke="url(#paint15_linear)" stroke-width="0.4605" stroke-miterlimit="10"/>
</g>
<defs>
<linearGradient id="paint0_linear" x1="126.194" y1="567.8" x2="71.1774" y2="730.804" gradientUnits="userSpaceOnUse">
<stop offset="0.126578" stop-color="#4B29AB"/>
<stop offset="0.337804" stop-color="#38265A"/>
<stop offset="0.592076" stop-color="#5F44A5"/>
<stop offset="0.86657" stop-color="#1D1730"/>
</linearGradient>
<linearGradient id="paint1_linear" x1="68.9932" y1="690.446" x2="156.921" y2="690.446" gradientUnits="userSpaceOnUse">
<stop stop-color="#825900" stop-opacity="0.44"/>
<stop offset="0.2429" stop-color="#C19639"/>
<stop offset="0.5093" stop-color="#FFDE96"/>
<stop offset="0.7457" stop-color="#C19639"/>
<stop offset="1" stop-color="#825900" stop-opacity="0.44"/>
</linearGradient>
<linearGradient id="paint2_linear" x1="68.995" y1="653.497" x2="156.923" y2="653.497" gradientUnits="userSpaceOnUse">
<stop stop-color="#825900" stop-opacity="0.44"/>
<stop offset="0.2429" stop-color="#C19639"/>
<stop offset="0.5093" stop-color="#FFDE96"/>
<stop offset="0.7457" stop-color="#C19639"/>
<stop offset="1" stop-color="#825900" stop-opacity="0.44"/>
</linearGradient>
<linearGradient id="paint3_linear" x1="305.317" y1="561.64" x2="339.519" y2="739.627" gradientUnits="userSpaceOnUse">
<stop offset="0.126578" stop-color="#4B29AB"/>
<stop offset="0.337804" stop-color="#38265A"/>
<stop offset="0.592076" stop-color="#5F44A5"/>
<stop offset="0.86657" stop-color="#1D1730"/>
</linearGradient>
<linearGradient id="paint4_linear" x1="350.626" y1="690.446" x2="262.698" y2="690.446" gradientUnits="userSpaceOnUse">
<stop stop-color="#825900" stop-opacity="0.44"/>
<stop offset="0.2429" stop-color="#C19639"/>
<stop offset="0.5093" stop-color="#FFDE96"/>
<stop offset="0.7457" stop-color="#C19639"/>
<stop offset="1" stop-color="#825900" stop-opacity="0.44"/>
</linearGradient>
<linearGradient id="paint5_linear" x1="350.618" y1="653.497" x2="262.7" y2="653.497" gradientUnits="userSpaceOnUse">
<stop stop-color="#825900" stop-opacity="0.44"/>
<stop offset="0.2429" stop-color="#C19639"/>
<stop offset="0.5093" stop-color="#FFDE96"/>
<stop offset="0.7457" stop-color="#C19639"/>
<stop offset="1" stop-color="#825900" stop-opacity="0.44"/>
</linearGradient>
<linearGradient id="paint6_linear" x1="23.8026" y1="7.92666" x2="24.2216" y2="457.941" gradientUnits="userSpaceOnUse">
<stop offset="0.0505" stop-color="#4B29AB"/>
<stop offset="0.1535" stop-color="#38265A"/>
<stop offset="0.5484" stop-color="#5F44A5"/>
<stop offset="1" stop-color="#1D1730"/>
</linearGradient>
<linearGradient id="paint7_linear" x1="395.812" y1="7.92666" x2="396.232" y2="457.941" gradientUnits="userSpaceOnUse">
<stop offset="0.0505" stop-color="#4B29AB"/>
<stop offset="0.1535" stop-color="#38265A"/>
<stop offset="0.5484" stop-color="#5F44A5"/>
<stop offset="1" stop-color="#1D1730"/>
</linearGradient>
<linearGradient id="paint8_linear" x1="-20.6483" y1="19.755" x2="416.908" y2="19.755" gradientUnits="userSpaceOnUse">
<stop stop-color="#825900" stop-opacity="0.44"/>
<stop offset="0.2429" stop-color="#C19639"/>
<stop offset="0.5093" stop-color="#FFDE96"/>
<stop offset="0.7457" stop-color="#C19639"/>
<stop offset="1" stop-color="#825900" stop-opacity="0.44"/>
</linearGradient>
<linearGradient id="paint9_linear" x1="-0.646212" y1="19.755" x2="436.91" y2="19.755" gradientUnits="userSpaceOnUse">
<stop stop-color="#825900" stop-opacity="0.44"/>
<stop offset="0.2429" stop-color="#C19639"/>
<stop offset="0.5093" stop-color="#FFDE96"/>
<stop offset="0.7457" stop-color="#C19639"/>
<stop offset="1" stop-color="#825900" stop-opacity="0.44"/>
</linearGradient>
<linearGradient id="paint10_linear" x1="162.514" y1="-14.3628" x2="115.235" y2="560.837" gradientUnits="userSpaceOnUse">
<stop stop-color="#825900" stop-opacity="0.44"/>
<stop offset="0.2429" stop-color="#C19639"/>
<stop offset="0.5093" stop-color="#FFDE96"/>
<stop offset="0.651599" stop-color="#C19639"/>
<stop offset="0.811734" stop-color="#825900" stop-opacity="0.44"/>
</linearGradient>
<linearGradient id="paint11_linear" x1="10.0491" y1="81.8084" x2="387.543" y2="459.303" gradientUnits="userSpaceOnUse">
<stop offset="4.52862e-07" stop-color="#313A96" stop-opacity="0"/>
<stop offset="0.175" stop-color="#313A96"/>
<stop offset="0.2263" stop-color="#4666B2"/>
<stop offset="0.2831" stop-color="#313A96"/>
<stop offset="0.486" stop-color="#313A96" stop-opacity="0"/>
<stop offset="0.7188" stop-color="#313A96"/>
<stop offset="0.7663" stop-color="#4666B2"/>
<stop offset="0.8045" stop-color="#313A96"/>
<stop offset="1" stop-color="#313A96" stop-opacity="0"/>
</linearGradient>
<linearGradient id="paint12_linear" x1="9.72899" y1="83.2888" x2="387.223" y2="460.783" gradientUnits="userSpaceOnUse">
<stop offset="4.52862e-07" stop-color="#313A96" stop-opacity="0"/>
<stop offset="0.175" stop-color="#313A96"/>
<stop offset="0.2263" stop-color="#4666B2"/>
<stop offset="0.2831" stop-color="#313A96"/>
<stop offset="0.486" stop-color="#313A96" stop-opacity="0"/>
<stop offset="0.7188" stop-color="#313A96"/>
<stop offset="0.7663" stop-color="#4666B2"/>
<stop offset="0.8045" stop-color="#313A96"/>
<stop offset="1" stop-color="#313A96" stop-opacity="0"/>
</linearGradient>
<linearGradient id="paint13_linear" x1="82" y1="581" x2="359.5" y2="5.00015" gradientUnits="userSpaceOnUse">
<stop offset="0.0513256" stop-color="#3D90DD"/>
<stop offset="0.224026" stop-color="#2C328A"/>
<stop offset="0.620276" stop-color="#367AB1"/>
<stop offset="0.950877" stop-color="#121733"/>
</linearGradient>
<linearGradient id="paint14_linear" x1="39.9268" y1="41.2445" x2="388.515" y2="542.022" gradientUnits="userSpaceOnUse">
<stop stop-color="#825900" stop-opacity="0.44"/>
<stop offset="0.2429" stop-color="#C19639"/>
<stop offset="0.5093" stop-color="#FFDE96"/>
<stop offset="0.7457" stop-color="#C19639"/>
<stop offset="1" stop-color="#825900" stop-opacity="0.44"/>
</linearGradient>
<linearGradient id="paint15_linear" x1="nan" y1="nan" x2="nan" y2="nan" gradientUnits="userSpaceOnUse">
<stop stop-color="#825900" stop-opacity="0.44"/>
<stop offset="0.2429" stop-color="#C19639"/>
<stop offset="0.5093" stop-color="#FFDE96"/>
<stop offset="0.7457" stop-color="#C19639"/>
<stop offset="1" stop-color="#825900" stop-opacity="0.44"/>
</linearGradient>
<clipPath id="clip0">
<rect width="420" height="726" fill="white"/>
</clipPath>
</defs>
</svg>
