<svg width="420" height="726" viewBox="0 0 420 726" fill="none" xmlns="http://www.w3.org/2000/svg">
<g clip-path="url(#clip0)">
<path opacity="0.37" d="M71.1899 580.801V721.691L157.4 644.031L71.1899 580.801Z" fill="url(#paint0_linear)" fill-opacity="0.4"/>
<path d="M84.15 692.691C85.3927 692.691 86.4 691.684 86.4 690.441C86.4 689.199 85.3927 688.191 84.15 688.191C82.9074 688.191 81.9 689.199 81.9 690.441C81.9 691.684 82.9074 692.691 84.15 692.691Z" fill="url(#paint1_linear)"/>
<path opacity="0.6" d="M156.06 642.551L81.02 710.141V697.091L73.1899 705.121V580.801H69.1899V726.191L158.74 645.521L156.06 642.551Z" fill="url(#paint2_linear)"/>
<path opacity="0.37" d="M348.42 580.801V721.691L262.21 644.031L348.42 580.801Z" fill="url(#paint3_linear)" fill-opacity="0.4"/>
<path d="M335.47 692.691C336.713 692.691 337.72 691.684 337.72 690.441C337.72 689.199 336.713 688.191 335.47 688.191C334.227 688.191 333.22 689.199 333.22 690.441C333.22 691.684 334.227 692.691 335.47 692.691Z" fill="url(#paint4_linear)"/>
<path opacity="0.6" d="M263.55 642.551L338.59 710.141V697.091L346.42 705.121V580.801H350.42V726.191L260.87 645.521L263.55 642.551Z" fill="url(#paint5_linear)"/>
<path opacity="0.37" d="M45.61 2H2V418.74L43.77 480.51L45.61 2Z" fill="url(#paint6_linear)" fill-opacity="0.4"/>
<path opacity="0.37" d="M374 2H417.61V418.74L375.84 480.51L374 2Z" fill="url(#paint7_linear)" fill-opacity="0.4"/>
<path d="M399.02 22C400.263 22 401.27 20.9926 401.27 19.75C401.27 18.5074 400.263 17.5 399.02 17.5C397.777 17.5 396.77 18.5074 396.77 19.75C396.77 20.9926 397.777 22 399.02 22Z" fill="url(#paint8_linear)"/>
<path d="M20.59 22C21.8326 22 22.84 20.9926 22.84 19.75C22.84 18.5074 21.8326 17.5 20.59 17.5C19.3473 17.5 18.34 18.5074 18.34 19.75C18.34 20.9926 19.3473 22 20.59 22Z" fill="url(#paint9_linear)"/>
<path opacity="0.4" d="M0 0V419.47L42.23 481.8L45.2999 479.23L4 418.02V14.5H14.11V4H405.5V14.5H415.61V418.02L374.31 479.23L377.38 481.8L419.61 419.47V0H0Z" fill="url(#paint10_linear)"/>
<g opacity="0.2">
<g opacity="0.2">
<path opacity="0.2" d="M103.1 602.96C131.93 625.2 167.75 643.88 192.24 649.43C199.61 651.1 205.9 657.93 209.81 663.22C213.7 658.31 219.74 651.97 226.45 649.59C275.84 632.07 369.26 584.33 369.26 529.06V9.98047H50.59V530.27C50.58 550.71 69.72 577.2 103.1 602.96Z" fill="url(#paint11_linear)"/>
</g>
</g>
<path opacity="0.2" d="M103.24 604.878C132.07 627.118 167.89 645.798 192.38 651.348C199.75 653.018 206.04 659.848 209.95 665.138C213.84 660.228 219.88 653.888 226.59 651.508C275.98 633.988 369.4 586.248 369.4 530.978V11.8984H50.73V532.188C50.72 552.628 69.86 579.118 103.24 604.878Z" fill="url(#paint12_linear)"/>
<path d="M45.62 5H374.22V529.05C374.22 586.39 282.15 635.1 228.11 654.27C218.54 657.66 209.63 672.03 209.63 672.03C209.63 672.03 201.05 656.52 191.15 654.27C142.33 643.2 45.62 580.32 45.62 530.26V5Z" fill="#00180B" fill-opacity="0.4" stroke="url(#paint13_linear)" stroke-width="9.942"/>
<path opacity="0.6" d="M359.25 529.058C359.25 555.178 332.78 579.518 310.57 595.338C274.76 620.848 234.57 636.098 223.11 640.168C218.69 641.738 214.3 644.478 209.98 648.378C205.02 643.818 199.82 640.898 194.45 639.678C171.25 634.418 137 616.478 109.21 595.038C93.58 582.978 80.8699 570.438 72.4299 558.768C64.6799 548.038 60.58 538.188 60.58 530.268V30.6482H80.14V39.5482H71.24V19.9883H348.58V39.5482H339.68V30.6482H359.24V529.058H359.25Z" stroke="url(#paint14_linear)" stroke-miterlimit="10"/>
<path d="M87.4399 31.6797H331.31" stroke="url(#paint15_linear)" stroke-width="0.4605" stroke-miterlimit="10"/>
</g>
<defs>
<linearGradient id="paint0_linear" x1="114.295" y1="561.638" x2="71" y2="722" gradientUnits="userSpaceOnUse">
<stop offset="0.0505" stop-color="#159933"/>
<stop offset="0.29079" stop-color="#155731"/>
<stop offset="0.48835" stop-color="#0F9030"/>
<stop offset="0.785462" stop-color="#0C3F13"/>
</linearGradient>
<linearGradient id="paint1_linear" x1="68.9892" y1="690.445" x2="156.917" y2="690.445" gradientUnits="userSpaceOnUse">
<stop stop-color="#825900" stop-opacity="0.44"/>
<stop offset="0.2429" stop-color="#C19639"/>
<stop offset="0.5093" stop-color="#FFDE96"/>
<stop offset="0.7457" stop-color="#C19639"/>
<stop offset="1" stop-color="#825900" stop-opacity="0.44"/>
</linearGradient>
<linearGradient id="paint2_linear" x1="68.9849" y1="653.497" x2="156.923" y2="653.497" gradientUnits="userSpaceOnUse">
<stop stop-color="#825900" stop-opacity="0.44"/>
<stop offset="0.2429" stop-color="#C19639"/>
<stop offset="0.5093" stop-color="#FFDE96"/>
<stop offset="0.7457" stop-color="#C19639"/>
<stop offset="1" stop-color="#825900" stop-opacity="0.44"/>
</linearGradient>
<linearGradient id="paint3_linear" x1="297.5" y1="581" x2="352" y2="721" gradientUnits="userSpaceOnUse">
<stop offset="0.0505" stop-color="#159933"/>
<stop offset="0.329735" stop-color="#155731"/>
<stop offset="0.50614" stop-color="#0F9030"/>
<stop offset="0.799075" stop-color="#09340F"/>
</linearGradient>
<linearGradient id="paint4_linear" x1="350.622" y1="690.445" x2="262.694" y2="690.445" gradientUnits="userSpaceOnUse">
<stop stop-color="#825900" stop-opacity="0.44"/>
<stop offset="0.2429" stop-color="#C19639"/>
<stop offset="0.5093" stop-color="#FFDE96"/>
<stop offset="0.7457" stop-color="#C19639"/>
<stop offset="1" stop-color="#825900" stop-opacity="0.44"/>
</linearGradient>
<linearGradient id="paint5_linear" x1="350.618" y1="653.497" x2="262.69" y2="653.497" gradientUnits="userSpaceOnUse">
<stop stop-color="#825900" stop-opacity="0.44"/>
<stop offset="0.2429" stop-color="#C19639"/>
<stop offset="0.5093" stop-color="#FFDE96"/>
<stop offset="0.7457" stop-color="#C19639"/>
<stop offset="1" stop-color="#825900" stop-opacity="0.44"/>
</linearGradient>
<linearGradient id="paint6_linear" x1="23.8067" y1="7.9299" x2="23.8067" y2="611.045" gradientUnits="userSpaceOnUse">
<stop offset="0.0505" stop-color="#159933"/>
<stop offset="0.1535" stop-color="#155731"/>
<stop offset="0.417648" stop-color="#0F9030"/>
<stop offset="0.692354" stop-color="#0C2D11"/>
</linearGradient>
<linearGradient id="paint7_linear" x1="395.807" y1="7.9299" x2="395.807" y2="611.045" gradientUnits="userSpaceOnUse">
<stop offset="0.0505" stop-color="#159933"/>
<stop offset="0.1535" stop-color="#155731"/>
<stop offset="0.417648" stop-color="#0F9030"/>
<stop offset="0.692354" stop-color="#0C2D11"/>
</linearGradient>
<linearGradient id="paint8_linear" x1="-20.6522" y1="19.7538" x2="416.904" y2="19.7538" gradientUnits="userSpaceOnUse">
<stop stop-color="#825900" stop-opacity="0.44"/>
<stop offset="0.2429" stop-color="#C19639"/>
<stop offset="0.5093" stop-color="#FFDE96"/>
<stop offset="0.7457" stop-color="#C19639"/>
<stop offset="1" stop-color="#825900" stop-opacity="0.44"/>
</linearGradient>
<linearGradient id="paint9_linear" x1="-0.650134" y1="19.7538" x2="436.906" y2="19.7538" gradientUnits="userSpaceOnUse">
<stop stop-color="#825900" stop-opacity="0.44"/>
<stop offset="0.2429" stop-color="#C19639"/>
<stop offset="0.5093" stop-color="#FFDE96"/>
<stop offset="0.7457" stop-color="#C19639"/>
<stop offset="1" stop-color="#825900" stop-opacity="0.44"/>
</linearGradient>
<linearGradient id="paint10_linear" x1="162.51" y1="-14.3628" x2="115.23" y2="560.837" gradientUnits="userSpaceOnUse">
<stop stop-color="#825900" stop-opacity="0.44"/>
<stop offset="0.2429" stop-color="#C19639"/>
<stop offset="0.5093" stop-color="#FFDE96"/>
<stop offset="0.651599" stop-color="#C19639"/>
<stop offset="0.811734" stop-color="#825900" stop-opacity="0.44"/>
</linearGradient>
<linearGradient id="paint11_linear" x1="10.0449" y1="81.8072" x2="387.539" y2="459.302" gradientUnits="userSpaceOnUse">
<stop stop-color="#0C792B" stop-opacity="0"/>
<stop offset="0.175" stop-color="#0C792B"/>
<stop offset="0.2263" stop-color="#2DA92A"/>
<stop offset="0.2831" stop-color="#0C792B"/>
<stop offset="0.486" stop-color="#0C792B" stop-opacity="0"/>
<stop offset="0.7188" stop-color="#0C792B"/>
<stop offset="0.7663" stop-color="#2DA92A"/>
<stop offset="0.8045" stop-color="#0C792B"/>
<stop offset="1" stop-color="#0C792B" stop-opacity="0"/>
</linearGradient>
<linearGradient id="paint12_linear" x1="10.1849" y1="83.7251" x2="387.679" y2="461.22" gradientUnits="userSpaceOnUse">
<stop stop-color="#0C792B" stop-opacity="0"/>
<stop offset="0.175" stop-color="#0C792B"/>
<stop offset="0.2263" stop-color="#2DA92A"/>
<stop offset="0.2831" stop-color="#0C792B"/>
<stop offset="0.486" stop-color="#0C792B" stop-opacity="0"/>
<stop offset="0.7188" stop-color="#0C792B"/>
<stop offset="0.7663" stop-color="#2DA92A"/>
<stop offset="0.8045" stop-color="#0C792B"/>
<stop offset="1" stop-color="#0C792B" stop-opacity="0"/>
</linearGradient>
<linearGradient id="paint13_linear" x1="99.5" y1="596.5" x2="357" y2="21" gradientUnits="userSpaceOnUse">
<stop offset="0.0505" stop-color="#048321"/>
<stop offset="0.190277" stop-color="#155731"/>
<stop offset="0.630367" stop-color="#0F9030"/>
<stop offset="0.964962" stop-color="#08230C"/>
</linearGradient>
<linearGradient id="paint14_linear" x1="39.5028" y1="41.2217" x2="388.092" y2="541.999" gradientUnits="userSpaceOnUse">
<stop stop-color="#825900" stop-opacity="0.44"/>
<stop offset="0.2429" stop-color="#C19639"/>
<stop offset="0.5093" stop-color="#FFDE96"/>
<stop offset="0.7457" stop-color="#C19639"/>
<stop offset="1" stop-color="#825900" stop-opacity="0.44"/>
</linearGradient>
<linearGradient id="paint15_linear" x1="nan" y1="nan" x2="nan" y2="nan" gradientUnits="userSpaceOnUse">
<stop stop-color="#825900" stop-opacity="0.44"/>
<stop offset="0.2429" stop-color="#C19639"/>
<stop offset="0.5093" stop-color="#FFDE96"/>
<stop offset="0.7457" stop-color="#C19639"/>
<stop offset="1" stop-color="#825900" stop-opacity="0.44"/>
</linearGradient>
<clipPath id="clip0">
<rect width="420" height="726" fill="white"/>
</clipPath>
</defs>
</svg>
