<svg width="48" height="51" viewBox="0 0 48 51" fill="none" xmlns="http://www.w3.org/2000/svg">
<g filter="url(#filter0_f)">
<path d="M18.9866 25.8686L17.6836 22.0638L17.9442 20.9693L18.1527 20.8129L18.5175 18.8324L19.8205 18.3633L21.5405 18.6239L22.3744 19.5099L24.355 20.7087L25.0325 20.5523L26.1271 20.8129L27.0131 22.0638L27.5864 22.4808L30.0882 26.1813L30.4009 28.3182L29.8276 29.2043L30.0882 30.2467L29.4106 32.4878L29.0979 32.9048L28.3682 33.426L27.6907 33.3218H25.7622L24.4592 32.4878L20.7587 27.7449L18.9866 25.8686Z" fill="url(#paint0_linear)"/>
</g>
<g filter="url(#filter1_f)">
<path d="M16.0577 25.8526L14 19.844L14.4115 18.1155L14.7408 17.8686L15.317 14.7408L17.3747 14L20.0909 14.4115L21.4079 15.8108L24.5357 17.7039L25.6057 17.457L27.3342 17.8686L28.7335 19.844L29.6389 20.5025L33.5898 26.3465L34.0836 29.7212L33.1782 31.1205L33.5898 32.7667L32.5197 36.306L32.0259 36.9645L30.8735 37.7876L29.8035 37.623H26.758L24.7003 36.306L18.8563 28.8158L16.0577 25.8526Z" fill="url(#paint1_linear)"/>
</g>
<path d="M16.0578 25.8527L14 19.844L14.4116 18.1155L14.7408 17.8686L15.317 14.7408L17.3747 14L20.091 14.4116L21.408 15.8108L24.5358 17.704L25.6058 17.457L27.3343 17.8686L28.7336 19.844L29.639 20.5025L33.5899 26.3466L34.0838 29.7213L33.1784 31.1206L33.5899 32.7668L32.5199 36.3062L32.026 36.9646L30.8737 37.7878L29.8036 37.6231H26.7581L24.7004 36.3062L18.8563 28.8159L16.0578 25.8527Z" fill="#D16A31" fill-opacity="0.4"/>
<path d="M16.0578 25.8527L14 19.844L14.4116 18.1155L14.7408 17.8686L15.317 14.7408L17.3747 14L20.091 14.4116L21.408 15.8108L24.5358 17.704L25.6058 17.457L27.3343 17.8686L28.7336 19.844L29.639 20.5025L33.5899 26.3466L34.0838 29.7213L33.1784 31.1206L33.5899 32.7668L32.5199 36.3062L32.026 36.9646L30.8737 37.7878L29.8036 37.6231H26.7581L24.7004 36.3062L18.8563 28.8159L16.0578 25.8527Z" fill="url(#paint2_linear)" fill-opacity="0.48"/>
<path d="M16.0578 25.8527L14 19.844L14.4116 18.1155L14.7408 17.8686L15.317 14.7408L17.3747 14M16.0578 25.8527L18.8563 28.8159L24.7004 36.3062M16.0578 25.8527L18.1155 22.4981M24.7004 36.3062L26.7581 37.6231M24.7004 36.3062L22.8072 32.4376M26.7581 37.6231H29.8036L30.8737 37.7878L32.026 36.9646M26.7581 37.6231L25.4412 32.4376M33.1784 31.1206L33.5899 32.7668L32.5199 36.3062L32.026 36.9646M33.1784 31.1206L34.0838 29.7213M33.1784 31.1206L29.9682 31.6968M34.0838 29.7213L33.5899 26.3466M34.0838 29.7213L30.7239 29.9779M33.5899 26.3466L29.639 20.5025L28.7336 19.844M33.5899 26.3466L30.7239 29.9779M28.7336 19.844L27.3343 17.8686M28.7336 19.844L28.9694 23.616M27.3343 17.8686L25.6058 17.457L24.5358 17.704M27.3343 17.8686L26.4289 19.6794M24.5358 17.704L21.408 15.8108L20.091 14.4116M24.5358 17.704L23.1365 20.2556M20.091 14.4116L17.3747 14M20.091 14.4116L17.6217 16.1401M17.3747 14L17.6217 16.1401M32.026 36.9646L29.2275 35.1538L28.0751 33.4253M32.026 36.9646L30.5444 34.5776L30.8737 33.4253L29.9682 31.6968M26.4289 19.6794L23.1365 20.2556M26.4289 19.6794L28.9694 23.616M28.9694 23.616L30.7239 29.9779M30.7239 29.9779L29.9682 31.6968M29.9682 31.6968L28.0751 33.4253M28.0751 33.4253L25.4412 32.4376M25.4412 32.4376H22.8072M22.8072 32.4376L20.7579 28.9709M20.7579 28.9709L18.3899 28.322M20.7579 28.9709V25.2426L18.1155 22.4981M14.5864 21.5563L18.1155 22.4981M18.1155 22.4981V20.2556M18.1155 20.2556L16.1617 18.4582L17.6217 16.1401M18.1155 20.2556L20.1733 19.1856M23.1365 20.2556L20.1733 19.1856M17.6217 16.1401L20.1733 19.1856" stroke="url(#paint3_linear)" stroke-width="0.182725"/>
<path d="M16.0578 25.8527L14 19.844L14.4116 18.1155L14.7408 17.8686L15.317 14.7408L17.3747 14M16.0578 25.8527L18.8563 28.8159L24.7004 36.3062M16.0578 25.8527L18.1155 22.4981M24.7004 36.3062L26.7581 37.6231M24.7004 36.3062L22.8072 32.4376M26.7581 37.6231H29.8036L30.8737 37.7878L32.026 36.9646M26.7581 37.6231L25.4412 32.4376M33.1784 31.1206L33.5899 32.7668L32.5199 36.3062L32.026 36.9646M33.1784 31.1206L34.0838 29.7213M33.1784 31.1206L29.9682 31.6968M34.0838 29.7213L33.5899 26.3466M34.0838 29.7213L30.7239 29.9779M33.5899 26.3466L29.639 20.5025L28.7336 19.844M33.5899 26.3466L30.7239 29.9779M28.7336 19.844L27.3343 17.8686M28.7336 19.844L28.9694 23.616M27.3343 17.8686L25.6058 17.457L24.5358 17.704M27.3343 17.8686L26.4289 19.6794M24.5358 17.704L21.408 15.8108L20.091 14.4116M24.5358 17.704L23.1365 20.2556M20.091 14.4116L17.3747 14M20.091 14.4116L17.6217 16.1401M17.3747 14L17.6217 16.1401M32.026 36.9646L29.2275 35.1538L28.0751 33.4253M32.026 36.9646L30.5444 34.5776L30.8737 33.4253L29.9682 31.6968M26.4289 19.6794L23.1365 20.2556M26.4289 19.6794L28.9694 23.616M28.9694 23.616L30.7239 29.9779M30.7239 29.9779L29.9682 31.6968M29.9682 31.6968L28.0751 33.4253M28.0751 33.4253L25.4412 32.4376M25.4412 32.4376H22.8072M22.8072 32.4376L20.7579 28.9709M20.7579 28.9709L18.3899 28.322M20.7579 28.9709V25.2426L18.1155 22.4981M14.5864 21.5563L18.1155 22.4981M18.1155 22.4981V20.2556M18.1155 20.2556L16.1617 18.4582L17.6217 16.1401M18.1155 20.2556L20.1733 19.1856M23.1365 20.2556L20.1733 19.1856M17.6217 16.1401L20.1733 19.1856" stroke="url(#paint4_linear)" stroke-opacity="0.72" stroke-width="0.182725"/>
<path d="M20.2012 19.1224L21.4209 15.8203L24.477 17.6704L20.2012 19.1224Z" fill="url(#paint5_linear)" stroke="#412B1B" stroke-opacity="0.47" stroke-width="0.182725"/>
<path d="M29.9414 31.7006L30.718 29.9752L34.0888 29.7207L33.1732 31.1284L29.9414 31.7006Z" fill="url(#paint6_linear)" stroke="#412B1B" stroke-opacity="0.47" stroke-width="0.182725"/>
<path d="M26.7747 37.563L26.3379 35.9844L28.2214 36.3832L31.9467 36.8847L26.7747 37.563Z" fill="url(#paint7_linear)" fill-opacity="0.72" stroke="#412B1B" stroke-opacity="0.25" stroke-width="0.182725"/>
<path d="M32.5115 36.4051L31.9514 36.9444L30.5799 34.6128L33.5693 32.7545L32.5115 36.4051Z" fill="url(#paint8_linear)" stroke="#412B1B" stroke-opacity="0.25" stroke-width="0.182725"/>
<path d="M15.317 14.7427L15.8108 16.4712L16.1401 18.4467L16.1401 19.5167L14.5762 21.4922L14 19.846L14.4116 18.1175L14.7408 17.8705L15.317 14.7427Z" fill="url(#paint9_linear)" stroke="#412B1B" stroke-opacity="0.47" stroke-width="0.182725"/>
<path d="M28.9753 23.6355L26.4286 19.6798L23.1362 20.256L20.1747 19.1836L18.1133 20.256V22.4994L20.7492 25.2289L20.7575 28.9723L22.804 32.4399H25.4422L28.0736 33.4258L29.9732 31.6945L30.7204 29.9666L28.9753 23.6355Z" fill="url(#paint10_linear)" fill-opacity="0.74"/>
<path d="M18.1055 20.2622L20.1801 19.1621L23.1357 20.2553L20.4155 19.7027L18.1055 20.2622Z" fill="url(#paint11_linear)"/>
<path opacity="0.4" d="M18.1113 22.4991L19.3593 23.3258C20.1249 23.8331 21.1576 23.6149 21.6527 22.8413L22.4323 21.623L20.7521 25.2342L18.1113 22.4991Z" fill="url(#paint12_linear)"/>
<path opacity="0.2" d="M26.2227 32.2683L27.3073 32.6164C27.7804 32.7682 28.2968 32.698 28.7121 32.4254L29.899 31.6465L28.0554 33.3306L26.2227 32.2683Z" fill="url(#paint13_linear)"/>
<path opacity="0.8" d="M20.75 25.234L29.0084 28.6496C29.2675 28.7568 29.5458 28.5442 29.5106 28.266L28.9214 23.6152L30.6563 29.9L20.75 25.234Z" fill="url(#paint14_linear)"/>
<path d="M23.1328 20.2557L26.4251 19.6797L28.2503 22.512L26.6424 20.5237C26.3758 20.194 25.9632 20.0178 25.5407 20.0534L23.1328 20.2557Z" fill="url(#paint15_linear)"/>
<path d="M22.8516 32.3571H25.4577L28.0563 33.3321L26.2573 32.2898C26.1767 32.2431 26.088 32.2122 25.9958 32.1989L25.5834 32.139C25.4834 32.1245 25.382 32.1219 25.2814 32.1313L22.8516 32.3571Z" fill="url(#paint16_linear)" fill-opacity="0.79"/>
<path opacity="0.7" d="M22.8518 32.3583L26.1842 30.492C26.3821 30.3811 26.6009 30.3124 26.8267 30.2902L30.6676 29.9124L27.6094 30.6087C27.1158 30.7211 26.7014 31.0546 26.4861 31.5128L26.1586 32.2098L26.2392 31.5291C26.2721 31.2512 25.9931 31.0409 25.735 31.1491L22.8518 32.3583Z" fill="url(#paint17_linear)" fill-opacity="0.79"/>
<path d="M24.5488 17.6177L25.6065 17.3711L27.3821 17.7987L26.7658 17.787C26.6761 17.7853 26.5869 17.7742 26.4996 17.7538L25.6065 17.5455L24.6704 17.6917L24.5488 17.6177Z" fill="url(#paint18_linear)" fill-opacity="0.67"/>
<path opacity="0.4" d="M15.3867 14.8029L17.3808 14.0859L19.8746 14.4628L19.8148 14.5046C19.6323 14.6323 19.4197 14.7101 19.1979 14.7303L18.0698 14.8334L17.3561 14.2697L15.3867 14.8029Z" fill="url(#paint19_linear)" fill-opacity="0.5"/>
<path opacity="0.4" d="M18.702 15.2843L17.6266 16.1012L15.8903 16.4713L15.416 14.793L16.191 15.5521L18.702 15.2843Z" fill="url(#paint20_linear)" fill-opacity="0.5"/>
<path d="M22.784 21.7713L28.9536 23.6077L24.9074 22.5843L18.0998 20.2624L20.011 20.3305L21.0899 20.9686C21.5934 21.2663 22.2368 21.1695 22.6303 20.7366L23.1343 20.2566L22.7085 21.1573C22.455 21.3073 22.5017 21.6873 22.784 21.7713Z" fill="url(#paint21_linear)"/>
<path d="M23.7215 19.0195L23.1367 20.253L21.4994 19.6478L20.1816 19.1617L22.4376 19.5482L23.7215 19.0195Z" fill="url(#paint22_linear)" fill-opacity="0.5"/>
<path opacity="0.2" d="M22.8499 32.3546L20.7578 28.9746L23.2489 30.718L26.3841 30.3967L22.8499 32.3546Z" fill="url(#paint23_linear)"/>
<path d="M18.8924 24.7805L18.1172 22.5562L19.8616 24.3202L20.7802 25.2495L20.7566 28.9746L20.007 25.8466L18.8924 24.7805Z" fill="url(#paint24_linear)"/>
<path d="M17.4889 27.5054L16.166 25.8417L18.8198 28.07L20.7553 28.9735L21.5804 32.4336L18.9916 29.1181L17.4889 27.5054Z" fill="url(#paint25_linear)"/>
<path d="M32.6784 24.9191L33.4922 26.4238L30.8052 23.184L28.9166 21.6793L28.6723 19.6797L29.669 20.4048L32.6784 24.9191Z" fill="url(#paint26_linear)"/>
<path opacity="0.6" d="M32.0645 36.9162L30.8447 37.7891L26.7263 37.6231L26.3923 36.2873L26.2882 35.9478L30.2925 37.0525L32.0645 36.9162Z" fill="url(#paint27_linear)"/>
<path opacity="0.3" d="M27.2304 25.0159C27.3432 24.3139 26.7692 23.9365 25.9843 23.6848L26.2389 22.7338L25.6173 22.5896L25.3694 23.5155C25.206 23.4775 25.0381 23.4418 24.8713 23.4063L25.121 22.4743L24.4997 22.3301L24.2449 23.2807C24.1097 23.252 23.9768 23.2237 23.848 23.1938L23.8487 23.1908L22.9914 22.9915L22.826 23.6098C22.826 23.6098 23.2872 23.7082 23.2775 23.7143C23.5293 23.7728 23.5748 23.9279 23.5672 24.0509L23.2772 25.1343C23.2524 25.125 23.2945 25.1384 23.2772 25.1343C23.2565 25.1295 23.299 25.1436 23.2761 25.1385L22.8696 26.6561C22.8388 26.7273 22.7607 26.8341 22.5847 26.7936C22.5909 26.802 22.1329 26.6886 22.1329 26.6886L21.8242 27.3512L22.6332 27.539C22.7837 27.5741 22.9312 27.6109 23.0765 27.6455L22.8192 28.6073L23.4402 28.7515L23.6949 27.7999C23.8646 27.8428 24.0292 27.8823 24.1903 27.9196L23.9364 28.8668L24.5581 29.011L24.8154 28.051C25.8755 28.2378 26.6726 28.1625 27.0081 27.2696C27.2784 26.5508 26.9946 26.1362 26.4369 25.8658C26.8431 25.7786 27.1489 25.5298 27.2304 25.0159ZM25.8101 26.8705C25.6179 27.5893 24.3181 27.2007 23.8967 27.1033L24.2381 25.829C24.6595 25.9269 26.0108 26.1208 25.8101 26.8705ZM26.0023 25.0055C25.8271 25.6593 24.7452 25.3271 24.3943 25.2457L24.7038 24.09C25.0547 24.1714 26.1848 24.3235 26.0023 25.0055Z" fill="url(#paint28_linear)" fill-opacity="0.71"/>
<path d="M27.4199 24.8245C27.5326 24.1225 26.9587 23.7451 26.1738 23.4934L26.4284 22.5424L25.8067 22.3982L25.5589 23.3241C25.3954 23.2861 25.2276 23.2504 25.0608 23.2149L25.3104 22.2829L24.6891 22.1387L24.4344 23.0893C24.2991 23.0606 24.1663 23.0323 24.0374 23.0024L24.0381 22.9994L23.1808 22.8001L23.0155 23.4184C23.0155 23.4184 23.4767 23.5168 23.467 23.5229C23.7187 23.5814 23.7642 23.7365 23.7567 23.8595L23.4666 24.9429C23.4418 24.9336 23.484 24.947 23.4666 24.9429C23.4459 24.9381 23.4885 24.9522 23.4656 24.947L23.059 26.4646C23.0283 26.5359 22.9502 26.6427 22.7742 26.6022C22.7804 26.6106 22.3223 26.4972 22.3223 26.4972L22.0137 27.1598L22.8227 27.3476C22.9732 27.3827 23.1207 27.4195 23.2659 27.4541L23.0087 28.4159L23.6296 28.5601L23.8844 27.6085C24.054 27.6514 24.2186 27.6909 24.3798 27.7282L24.1259 28.6754L24.7476 28.8196L25.0048 27.8596C26.0649 28.0464 26.862 27.9711 27.1975 27.0782C27.4679 26.3594 27.1841 25.9448 26.6264 25.6744C27.0326 25.5872 27.3383 25.3384 27.4199 24.8245ZM25.9995 26.679C25.8074 27.3979 24.5076 27.0093 24.0862 26.9119L24.4276 25.6376C24.849 25.7355 26.2003 25.9294 25.9995 26.679ZM26.1918 24.8141C26.0165 25.4679 24.9347 25.1357 24.5838 25.0543L24.8933 23.8986C25.2442 23.98 26.3743 24.132 26.1918 24.8141Z" fill="url(#paint29_linear)"/>
<defs>
<filter id="filter0_f" x="14.0291" y="14.7088" width="20.0263" height="22.3717" filterUnits="userSpaceOnUse" color-interpolation-filters="sRGB">
<feFlood flood-opacity="0" result="BackgroundImageFix"/>
<feBlend mode="normal" in="SourceGraphic" in2="BackgroundImageFix" result="shape"/>
<feGaussianBlur stdDeviation="1.82725" result="effect1_foregroundBlur"/>
</filter>
<filter id="filter1_f" x="0.843803" y="0.843803" width="46.396" height="50.1" filterUnits="userSpaceOnUse" color-interpolation-filters="sRGB">
<feFlood flood-opacity="0" result="BackgroundImageFix"/>
<feBlend mode="normal" in="SourceGraphic" in2="BackgroundImageFix" result="shape"/>
<feGaussianBlur stdDeviation="6.5781" result="effect1_foregroundBlur"/>
</filter>
<linearGradient id="paint0_linear" x1="29.5862" y1="19.5013" x2="22.7927" y2="28.6572" gradientUnits="userSpaceOnUse">
<stop stop-color="#FFE7D5"/>
<stop offset="0.348958" stop-color="#DD9B1A"/>
<stop offset="0.619792" stop-color="#B44B00"/>
<stop offset="0.965426" stop-color="#FC8027"/>
</linearGradient>
<linearGradient id="paint1_linear" x1="32.797" y1="15.7972" x2="20.9199" y2="35.5479" gradientUnits="userSpaceOnUse">
<stop stop-color="#EB7B28"/>
<stop offset="0.805704" stop-color="#822F00"/>
<stop offset="0.873347" stop-color="#823600"/>
<stop offset="0.965426" stop-color="#EB7B28"/>
</linearGradient>
<linearGradient id="paint2_linear" x1="19.649" y1="14.7981" x2="31.3575" y2="38.5094" gradientUnits="userSpaceOnUse">
<stop stop-color="#FF5413" stop-opacity="0.24"/>
<stop offset="0.442506" stop-color="#FEAA2C"/>
<stop offset="0.61908" stop-color="#BF6119"/>
<stop offset="0.767683" stop-color="#98340E"/>
<stop offset="0.966367" stop-color="#833802" stop-opacity="0.23"/>
</linearGradient>
<linearGradient id="paint3_linear" x1="17.1718" y1="14.7732" x2="27.3362" y2="37.7878" gradientUnits="userSpaceOnUse">
<stop stop-color="#3F210B" stop-opacity="0.87"/>
<stop offset="0.257471" stop-color="#FF9141" stop-opacity="0.813997"/>
<stop offset="0.768547" stop-color="#EFA977" stop-opacity="0.49"/>
<stop offset="1" stop-color="#321B0B" stop-opacity="0.62"/>
</linearGradient>
<linearGradient id="paint4_linear" x1="19.6563" y1="31.1227" x2="35.0247" y2="27.399" gradientUnits="userSpaceOnUse">
<stop stop-color="#581818"/>
<stop offset="0.161638" stop-color="#5A0505" stop-opacity="0"/>
<stop offset="0.675569" stop-color="#5A0505" stop-opacity="0"/>
<stop offset="0.895718" stop-color="#240C0C"/>
</linearGradient>
<linearGradient id="paint5_linear" x1="21.6806" y1="16.3425" x2="23.7509" y2="17.7878" gradientUnits="userSpaceOnUse">
<stop stop-color="#C74413"/>
<stop offset="1" stop-color="#C74413" stop-opacity="0"/>
</linearGradient>
<linearGradient id="paint6_linear" x1="30.8681" y1="30.2461" x2="32.9384" y2="31.6914" gradientUnits="userSpaceOnUse">
<stop stop-color="#C74413" stop-opacity="0"/>
<stop offset="1" stop-color="#C74413"/>
</linearGradient>
<linearGradient id="paint7_linear" x1="27.2184" y1="36.5731" x2="29.7717" y2="37.5538" gradientUnits="userSpaceOnUse">
<stop stop-color="#58270B"/>
<stop offset="1" stop-color="#58270B" stop-opacity="0"/>
</linearGradient>
<linearGradient id="paint8_linear" x1="33.8386" y1="35.5226" x2="31.7997" y2="33.81" gradientUnits="userSpaceOnUse">
<stop stop-color="#58270B"/>
<stop offset="1" stop-color="#58270B" stop-opacity="0"/>
</linearGradient>
<linearGradient id="paint9_linear" x1="14.3496" y1="19.1546" x2="16.4682" y2="17.9175" gradientUnits="userSpaceOnUse">
<stop stop-color="#C74413"/>
<stop offset="1" stop-color="#C74413" stop-opacity="0"/>
</linearGradient>
<linearGradient id="paint10_linear" x1="29.0276" y1="35.5904" x2="19.3027" y2="15.3728" gradientUnits="userSpaceOnUse">
<stop offset="0.165192" stop-color="#F7F676" stop-opacity="0"/>
<stop offset="1" stop-color="#F7F676"/>
</linearGradient>
<linearGradient id="paint11_linear" x1="20.3302" y1="19.4328" x2="22.4005" y2="20.8782" gradientUnits="userSpaceOnUse">
<stop stop-color="#F6F0B7"/>
<stop offset="1" stop-color="#F5B95D"/>
</linearGradient>
<linearGradient id="paint12_linear" x1="20.3377" y1="21.7613" x2="22.408" y2="23.2066" gradientUnits="userSpaceOnUse">
<stop stop-color="#F6F0B7"/>
<stop offset="1" stop-color="#F5B95D"/>
</linearGradient>
<linearGradient id="paint13_linear" x1="27.6797" y1="29.8559" x2="29.75" y2="31.3012" gradientUnits="userSpaceOnUse">
<stop stop-color="#F6F0B7"/>
<stop offset="1" stop-color="#F5B95D"/>
</linearGradient>
<linearGradient id="paint14_linear" x1="28.0519" y1="27.6006" x2="30.1222" y2="29.0459" gradientUnits="userSpaceOnUse">
<stop stop-color="#F6F0B7"/>
<stop offset="1" stop-color="#F5B95D"/>
</linearGradient>
<linearGradient id="paint15_linear" x1="26.6405" y1="19.9829" x2="28.7108" y2="21.4282" gradientUnits="userSpaceOnUse">
<stop stop-color="#F6F0B7"/>
<stop offset="1" stop-color="#F5B95D"/>
</linearGradient>
<linearGradient id="paint16_linear" x1="25.8017" y1="32.4011" x2="27.872" y2="33.8464" gradientUnits="userSpaceOnUse">
<stop stop-color="#F6F0B7"/>
<stop offset="1" stop-color="#F5B95D"/>
</linearGradient>
<linearGradient id="paint17_linear" x1="27.0387" y1="30.295" x2="29.9921" y2="30.0556" gradientUnits="userSpaceOnUse">
<stop stop-color="#F6F0B7"/>
<stop offset="1" stop-color="#F5B95D"/>
</linearGradient>
<linearGradient id="paint18_linear" x1="25.8695" y1="17.7196" x2="27.9398" y2="19.1649" gradientUnits="userSpaceOnUse">
<stop stop-color="#F6F0B7"/>
<stop offset="1" stop-color="#F5B95D"/>
</linearGradient>
<linearGradient id="paint19_linear" x1="15.6569" y1="14.5991" x2="16.3275" y2="16.1657" gradientUnits="userSpaceOnUse">
<stop stop-color="#F6C2B7"/>
<stop offset="1" stop-color="#F5665D"/>
</linearGradient>
<linearGradient id="paint20_linear" x1="15.5913" y1="16.0273" x2="17.6616" y2="17.4726" gradientUnits="userSpaceOnUse">
<stop stop-color="#F6C2B7"/>
<stop offset="1" stop-color="#F5665D"/>
</linearGradient>
<linearGradient id="paint21_linear" x1="21.6861" y1="22.8606" x2="21.992" y2="20.3544" gradientUnits="userSpaceOnUse">
<stop stop-color="#F6F0B7"/>
<stop offset="1" stop-color="#F5B95D"/>
</linearGradient>
<linearGradient id="paint22_linear" x1="21.2162" y1="19.1736" x2="23.2865" y2="20.6189" gradientUnits="userSpaceOnUse">
<stop stop-color="#F6D1B7"/>
<stop offset="1" stop-color="#F58B5D"/>
</linearGradient>
<linearGradient id="paint23_linear" x1="23.713" y1="29.2163" x2="25.7009" y2="31.1915" gradientUnits="userSpaceOnUse">
<stop stop-color="#F6F0B7"/>
<stop offset="1" stop-color="#F5B95D"/>
</linearGradient>
<linearGradient id="paint24_linear" x1="17.8368" y1="26.3929" x2="19.274" y2="24.2374" gradientUnits="userSpaceOnUse">
<stop stop-color="#C74413"/>
<stop offset="1" stop-color="#C74413" stop-opacity="0"/>
</linearGradient>
<linearGradient id="paint25_linear" x1="16.8066" y1="31.0405" x2="21.4895" y2="28.9354" gradientUnits="userSpaceOnUse">
<stop stop-color="#5C1212"/>
<stop offset="1" stop-color="#5F1635" stop-opacity="0"/>
</linearGradient>
<linearGradient id="paint26_linear" x1="33.446" y1="21.0727" x2="28.7632" y2="23.1779" gradientUnits="userSpaceOnUse">
<stop stop-color="#5C1212"/>
<stop offset="1" stop-color="#5F1635" stop-opacity="0"/>
</linearGradient>
<linearGradient id="paint27_linear" x1="30.6946" y1="37.5183" x2="28.6243" y2="36.073" gradientUnits="userSpaceOnUse">
<stop stop-color="#C14321"/>
<stop offset="1" stop-color="#E2612B" stop-opacity="0.51"/>
</linearGradient>
<linearGradient id="paint28_linear" x1="23.5274" y1="28.7204" x2="26.993" y2="23.2141" gradientUnits="userSpaceOnUse">
<stop stop-color="#FF2727"/>
<stop offset="0.394471" stop-color="#FFADAD" stop-opacity="0"/>
<stop offset="1" stop-color="#FF0505"/>
</linearGradient>
<linearGradient id="paint29_linear" x1="23.9675" y1="28.8196" x2="27.2674" y2="22.9804" gradientUnits="userSpaceOnUse">
<stop stop-color="#F7F676" stop-opacity="0.33"/>
<stop offset="0.505208" stop-color="#F7F676" stop-opacity="0.701874"/>
<stop offset="0.666667" stop-color="#F7F676"/>
<stop offset="1" stop-color="#F7F676" stop-opacity="0"/>
</linearGradient>
</defs>
</svg>
