<svg width="103" height="96" viewBox="0 0 103 96" fill="none" xmlns="http://www.w3.org/2000/svg">
<g opacity="0.6">
<g filter="url(#filter0_f)">
<path d="M38.7962 28.7436H40.7883L43.065 30.9252L46.5748 32.5378L47.2388 31.4944L53.2151 28.7436L59.8554 25.3284L62.0372 25.9923L67.7288 24L71.4284 25.9923L71.9976 27.7947H75.3177L77.2149 30.2611L75.3177 38.8935L73.7051 42.7828V45.0595L72.4719 47.8104L71.4284 51.6997L72.4719 55.589L71.4284 56.8222V59.3835L69.6261 60.3321L62.7012 65.7392H60.3297L56.4404 62.0396V64.6008L54.7329 66.4032L48.2823 68.6799L46.5748 71.0514L42.2112 72L40.7883 70.5771L38.7962 71.0514L32.3457 68.0158L28.7409 67.5415L26.1797 64.0317L26.8437 62.9882L26.1797 58.8143L30.6382 52.9329V50.6563L31.5868 49.6128L30.6382 48.3796V42.7828L35.0966 33.2018L36.9939 32.5378L38.7962 28.7436Z" fill="url(#paint0_linear)"/>
</g>
<g filter="url(#filter1_f)">
<path d="M33.6498 44.4086H36.4366L39.6215 44.8157L44.5315 45.1167L45.4605 44.9219L53.8209 44.4086L63.1102 43.7713L66.1624 43.8952L74.1247 43.5234L79.3002 43.8952L80.0964 44.2316H84.7411L87.3952 44.6918L84.7411 46.3027L82.4851 47.0285V47.4533L80.7599 47.9667L79.3002 48.6924L80.7599 49.4182L79.3002 49.6483V50.1263L76.7788 50.3033L67.0914 51.3123H63.7737L58.3328 50.6219V51.0999L55.9441 51.4362L46.9202 51.8611L44.5315 52.3036L38.4271 52.4806L36.4366 52.2151L33.6498 52.3036L24.6258 51.7372L19.583 51.6486L16 50.9937L16.9289 50.799L16 50.0201L22.2371 48.9226V48.4977L23.5642 48.303L22.2371 48.0729V47.0285L28.4742 45.2406L31.1284 45.1167L33.6498 44.4086Z" fill="url(#paint1_linear)"/>
</g>
</g>
<path d="M41.1815 32.3041H42.8053L44.661 34.0824L47.522 35.3968L48.0632 34.5463L52.9346 32.3041L58.3472 29.5203L60.1257 30.0615L64.7651 28.4375L67.7807 30.0615L68.2446 31.5307H70.951L72.4974 33.5411L70.951 40.5775L69.6365 43.7478V45.6035L68.6313 47.8459L67.7807 51.0162L68.6313 54.1864L67.7807 55.1916V57.2793L66.3116 58.0526L60.6669 62.46H58.7339L55.5636 59.4444V61.5321L54.1718 63.0013L48.9138 64.857L47.522 66.7901L43.9651 67.5634L42.8053 66.4035L41.1815 66.7901L35.9235 64.3158L32.9852 63.9292L30.8975 61.0682L31.4387 60.2176L30.8975 56.8154L34.5317 52.0214V50.1656L35.3049 49.315L34.5317 48.3098V43.7478L38.1659 35.9381L39.7123 35.3968L41.1815 32.3041Z" fill="#500A0A" fill-opacity="0.4"/>
<path d="M41.1815 32.3041H42.8053L44.661 34.0824L47.522 35.3968L48.0632 34.5463L52.9346 32.3041L58.3472 29.5203L60.1257 30.0615L64.7651 28.4375L67.7807 30.0615L68.2446 31.5307H70.951L72.4974 33.5411L70.951 40.5775L69.6365 43.7478V45.6035L68.6313 47.8459L67.7807 51.0162L68.6313 54.1864L67.7807 55.1916V57.2793L66.3116 58.0526L60.6669 62.46H58.7339L55.5636 59.4444V61.5321L54.1718 63.0013L48.9138 64.857L47.522 66.7901L43.9651 67.5634L42.8053 66.4035L41.1815 66.7901L35.9235 64.3158L32.9852 63.9292L30.8975 61.0682L31.4387 60.2176L30.8975 56.8154L34.5317 52.0214V50.1656L35.3049 49.315L34.5317 48.3098V43.7478L38.1659 35.9381L39.7123 35.3968L41.1815 32.3041Z" fill="url(#paint2_linear)"/>
<path d="M41.1819 32.3041H42.8057L44.6615 34.0824L47.5224 35.3968L48.0637 34.5463L52.9351 32.3041L58.3477 29.5203L60.1261 30.0615L64.7655 28.4375L67.7811 30.0615L68.2451 31.5307H70.9514L72.4979 33.5411L70.9514 40.5775L69.6369 43.7478V45.6035L68.6317 47.8459L67.7811 51.0162L68.6317 54.1864L67.7811 55.1916V57.2793L66.312 58.0526L60.6674 62.46H58.7343L55.564 59.4444V61.5321L54.1722 63.0013L48.9142 64.857L47.5224 66.7901L43.9655 67.5634L42.8057 66.4035L41.1819 66.7901L35.9239 64.3158L32.9856 63.9292L30.8979 61.0682L31.4392 60.2176L30.8979 56.8154L34.5321 52.0214V50.1656L35.3053 49.315L34.5321 48.3098V43.7478L38.1663 35.9381L39.7128 35.3968L41.1819 32.3041Z" fill="url(#paint3_linear)" fill-opacity="0.48"/>
<path d="M60.2666 31.5824L63.6104 32.1577L65.7431 34.5189L67.038 37.4895L67.7997 39.6223L65.7431 42.8285L63.1943 48.9511L67.6974 50.9004L64.6072 52.8758L65.2352 54.9167H61.232L60.2666 57.7425L57.9352 59.2339H55.5018L49.4429 61.6631L46.3008 65.4804L43.5438 63.7838H39.9386L38.7108 60.6027L35.1669 59.2339L37.3937 54.9167V52.8758L39.9386 50.8349L39.4085 48.3025V42.8285L38.7108 41.2218L43.5438 38.0608L48.2165 38.9822L49.4429 36.7278L50.9663 36.0423L52.8705 38.0608L54.0912 33.9908L56.9083 34.5189L60.2666 31.5824Z" fill="url(#paint4_linear)" fill-opacity="0.48"/>
<path d="M60.2666 31.5824L58.3627 29.5371M60.2666 31.5824L63.6104 32.1577L65.7431 34.5189M60.2666 31.5824L56.9083 34.5189L54.0912 33.9908M60.2666 31.5824L62.1632 33.9908L65.7431 34.5189M65.7431 34.5189L68.2567 31.5824M65.7431 34.5189L67.038 37.4895L67.7997 39.6223M65.7431 34.5189V37.1087L62.1632 43.7354M67.7997 39.6223L65.7431 42.8285M67.7997 39.6223L69.003 40.4736L71.1223 38.9822M47.3863 35.2806L49.4429 36.7278M49.4429 36.7278L50.9663 36.0423L52.8705 38.0608M49.4429 36.7278L48.2165 38.9822M62.1632 43.7354L59.3449 41.2218L54.7747 40.0793L52.8705 38.0608M62.1632 43.7354L63.1943 48.9511M69.5524 45.6543H68.2567L65.7431 42.8285M65.7431 42.8285L63.1943 48.9511M63.1943 48.9511L62.1632 50.8349M63.1943 48.9511L67.6974 50.9004M62.1632 50.8349L64.6072 52.8758M62.1632 50.8349L56.9083 54.9167M64.6072 52.8758L65.2352 54.9167H61.232M64.6072 52.8758L67.6974 50.9004M61.232 54.9167L60.2666 57.7425M61.232 54.9167H56.9083M60.2666 57.7425L57.9352 59.2339H55.5018M60.2666 57.7425L61.232 62.1042M55.5018 59.2339L49.4429 61.6631M55.5018 59.2339L56.9083 54.9167M39.4085 42.8285L47.3863 41.2218L48.2165 38.9822M39.4085 42.8285L38.7108 41.2218M39.4085 42.8285V48.3025M48.2165 38.9822L43.5438 38.0608M35.833 41.2218H38.7108M38.7108 41.2218L43.5438 38.0608M39.4085 48.3025L39.9386 50.8349L37.3937 52.8758V54.9167M39.4085 48.3025L35.1669 49.6809M37.3937 54.9167L40.9196 58.5883M37.3937 54.9167L35.1669 59.2339M40.9196 58.5883L38.7108 60.6027M40.9196 58.5883L39.9386 63.7838M40.9196 58.5883L43.5438 63.7838M35.1669 59.2339L38.7108 60.6027M35.1669 59.2339L30.7627 56.866M38.7108 60.6027L39.9386 63.7838M38.7108 60.6027L33.0992 63.7838M39.9386 63.7838H43.5438M39.9386 63.7838L38.5753 65.4804M43.5438 63.7838L46.3008 65.4804M43.5438 63.7838L42.8617 66.5034M46.3008 65.4804L49.4429 61.6631M46.3008 65.4804L47.4965 66.8868M49.4429 61.6631L48.8898 64.9021M54.0912 33.9908L52.8705 38.0608M54.0912 33.9908V31.5824M43.5438 38.0608L39.9386 35.2806M43.5438 38.0608L42.7425 32.1577M67.6974 50.9004L67.7997 50.8349M42.8057 32.3041H41.1819L39.7128 35.3968L38.1663 35.9381L34.5321 43.7478V48.3098L35.3053 49.315L34.5321 50.1656V52.0214L30.8979 56.8154L31.4392 60.2176L30.8979 61.0682L32.9856 63.9292L35.9239 64.3158L41.1819 66.7901L42.8057 66.4035L43.9655 67.5634L47.5224 66.7901L48.9142 64.857L54.1722 63.0013L55.564 61.5321V59.4444L58.7343 62.46H60.6674L66.312 58.0526L67.7811 57.2793V55.1916L68.6317 54.1864L67.7811 51.0162L68.6317 47.8459L69.6369 45.6035V43.7478L70.9514 40.5775L72.4979 33.5411L70.9514 31.5307H68.2451L67.7811 30.0615L64.7655 28.4375L60.1261 30.0615L58.3477 29.5203L52.9351 32.3041L48.0637 34.5463L47.5224 35.3968L44.6615 34.0824L42.8057 32.3041Z" stroke="url(#paint5_linear)" stroke-width="0.32034"/>
<path d="M60.2666 31.5824L58.3627 29.5371M60.2666 31.5824L63.6104 32.1577L65.7431 34.5189M60.2666 31.5824L56.9083 34.5189L54.0912 33.9908M60.2666 31.5824L62.1632 33.9908L65.7431 34.5189M65.7431 34.5189L68.2567 31.5824M65.7431 34.5189L67.038 37.4895L67.7997 39.6223M65.7431 34.5189V37.1087L62.1632 43.7354M67.7997 39.6223L65.7431 42.8285M67.7997 39.6223L69.003 40.4736L71.1223 38.9822M47.3863 35.2806L49.4429 36.7278M49.4429 36.7278L50.9663 36.0423L52.8705 38.0608M49.4429 36.7278L48.2165 38.9822M62.1632 43.7354L59.3449 41.2218L54.7747 40.0793L52.8705 38.0608M62.1632 43.7354L63.1943 48.9511M69.5524 45.6543H68.2567L65.7431 42.8285M65.7431 42.8285L63.1943 48.9511M63.1943 48.9511L62.1632 50.8349M63.1943 48.9511L67.6974 50.9004M62.1632 50.8349L64.6072 52.8758M62.1632 50.8349L56.9083 54.9167M64.6072 52.8758L65.2352 54.9167H61.232M64.6072 52.8758L67.6974 50.9004M61.232 54.9167L60.2666 57.7425M61.232 54.9167H56.9083M60.2666 57.7425L57.9352 59.2339H55.5018M60.2666 57.7425L61.232 62.1042M55.5018 59.2339L49.4429 61.6631M55.5018 59.2339L56.9083 54.9167M39.4085 42.8285L47.3863 41.2218L48.2165 38.9822M39.4085 42.8285L38.7108 41.2218M39.4085 42.8285V48.3025M48.2165 38.9822L43.5438 38.0608M35.833 41.2218H38.7108M38.7108 41.2218L43.5438 38.0608M39.4085 48.3025L39.9386 50.8349L37.3937 52.8758V54.9167M39.4085 48.3025L35.1669 49.6809M37.3937 54.9167L40.9196 58.5883M37.3937 54.9167L35.1669 59.2339M40.9196 58.5883L38.7108 60.6027M40.9196 58.5883L39.9386 63.7838M40.9196 58.5883L43.5438 63.7838M35.1669 59.2339L38.7108 60.6027M35.1669 59.2339L30.7627 56.866M38.7108 60.6027L39.9386 63.7838M38.7108 60.6027L33.0992 63.7838M39.9386 63.7838H43.5438M39.9386 63.7838L38.5753 65.4804M43.5438 63.7838L46.3008 65.4804M43.5438 63.7838L42.8617 66.5034M46.3008 65.4804L49.4429 61.6631M46.3008 65.4804L47.4965 66.8868M49.4429 61.6631L48.8898 64.9021M54.0912 33.9908L52.8705 38.0608M54.0912 33.9908V31.5824M43.5438 38.0608L39.9386 35.2806M43.5438 38.0608L42.7425 32.1577M67.6974 50.9004L67.7997 50.8349M42.8057 32.3041H41.1819L39.7128 35.3968L38.1663 35.9381L34.5321 43.7478V48.3098L35.3053 49.315L34.5321 50.1656V52.0214L30.8979 56.8154L31.4392 60.2176L30.8979 61.0682L32.9856 63.9292L35.9239 64.3158L41.1819 66.7901L42.8057 66.4035L43.9655 67.5634L47.5224 66.7901L48.9142 64.857L54.1722 63.0013L55.564 61.5321V59.4444L58.7343 62.46H60.6674L66.312 58.0526L67.7811 57.2793V55.1916L68.6317 54.1864L67.7811 51.0162L68.6317 47.8459L69.6369 45.6035V43.7478L70.9514 40.5775L72.4979 33.5411L70.9514 31.5307H68.2451L67.7811 30.0615L64.7655 28.4375L60.1261 30.0615L58.3477 29.5203L52.9351 32.3041L48.0637 34.5463L47.5224 35.3968L44.6615 34.0824L42.8057 32.3041Z" stroke="url(#paint6_linear)" stroke-opacity="0.72" stroke-width="0.32034"/>
<path d="M50.9691 36.0391L49.4457 36.7246L48.2193 38.9789L47.3891 41.2186L39.4113 42.8252V48.2992L39.9414 50.8317L37.3965 52.8725V54.9134L40.9224 58.585L43.5466 63.7806L46.3036 65.4772L49.4457 61.6598L55.5046 59.2306L56.9111 54.9134L62.166 50.8317L63.1971 48.9478L62.166 43.7322L59.3477 41.2186L54.7775 40.076L52.8733 38.0575L50.9691 36.0391Z" fill="url(#paint7_linear)"/>
<path opacity="0.5" d="M39.5303 48.3286L39.565 42.9607L47.5036 41.3633L42.0336 42.8982L40.1662 43.9155L39.5303 48.3286Z" fill="#FFF6ED"/>
<path opacity="0.4" d="M47.4982 41.3631L46.6665 43.7895C46.481 44.3306 46.0958 44.7804 45.5896 45.0468L39.4061 48.3011L44.2233 44.632L47.4982 41.3631Z" fill="url(#paint8_linear)"/>
<path opacity="0.6" d="M49.5253 36.8734L50.8638 36.1635L54.6563 40.1787L51.501 37.3616C51.1488 37.0472 50.6931 36.8734 50.221 36.8734L49.5253 36.8734Z" fill="white" fill-opacity="0.8"/>
<path d="M55.4959 59.1673L56.7969 54.7617L54.3786 58.4429L49.5166 61.6294L55.4959 59.1673Z" fill="url(#paint9_linear)" fill-opacity="0.8"/>
<path opacity="0.5" d="M60.258 31.5387L56.7402 34.5938L60.0596 32.7313L62.2224 33.9705L60.258 31.5387Z" fill="url(#paint10_linear)" fill-opacity="0.8"/>
<path d="M40.9718 58.495L39.8078 51.0217L42.5487 56.0954L42.9178 58.495L45.688 60.7611L49.3957 61.6249L45.3596 61.6249L40.9718 58.495Z" fill="url(#paint11_linear)" fill-opacity="0.8"/>
<path opacity="0.5" d="M41.0683 58.4906L37.5504 54.8383L37.5505 52.9509L40.0609 50.8867L38.3694 52.8069C37.4795 53.8171 38.1572 55.4078 39.5022 55.4659L39.822 55.4797L41.0683 58.4906Z" fill="white" fill-opacity="0.8"/>
<path opacity="0.6" d="M56.7646 54.8465L56.7646 47.5596C56.7646 47.1153 57.206 46.8059 57.6237 46.9573L63.022 48.9146L58.0866 46.6459L57.009 46.1318C56.5628 45.9189 56.0539 46.2703 56.0947 46.763L56.7646 54.8465Z" fill="white" fill-opacity="0.8"/>
<path opacity="0.5" d="M39.4056 48.2983L54.701 40.1825L60.1743 44.6691L63.0218 48.9192L58.5007 44.2287L55.9722 42.4466C54.7175 41.5622 53.078 41.4399 51.7059 42.1282L39.4056 48.2983Z" fill="white" fill-opacity="0.8"/>
<path opacity="0.2" d="M65.6846 42.6863L67.7203 39.4492L70.6112 41.4861L67.9422 41.0421L65.6846 42.6863Z" fill="url(#paint12_linear)" fill-opacity="0.9"/>
<path opacity="0.5" d="M54.6568 40.2343L53.0234 37.8253L53.5637 35.8906L60.5875 40.2343L62.1408 43.7746L59.3718 41.3375L54.6568 40.2343Z" fill="url(#paint13_linear)" fill-opacity="0.9"/>
<path opacity="0.5" d="M60.3955 57.8923L61.4015 55.0117H67.8851L62.5423 55.8971L60.3955 57.8923Z" fill="url(#paint14_linear)" fill-opacity="0.9"/>
<path opacity="0.5" d="M58.6789 62.6317L55.7078 59.8017L55.5537 59.2442L57.9802 59.3932L60.157 58.0078L61.0721 61.8682L60.7074 62.6317H58.6789Z" fill="url(#paint15_linear)" fill-opacity="0.9"/>
<path opacity="0.5" d="M66.512 58.2169L60.8273 62.5554L60.167 58.107L61.2479 55.2773H67.9452V57.4939L66.512 58.2169Z" fill="url(#paint16_linear)" fill-opacity="0.9"/>
<path opacity="0.5" d="M38.5635 65.5061L40.0202 63.7422L43.6295 63.8551L42.8202 66.5583L41.2017 66.979L38.5635 65.5061Z" fill="url(#paint17_linear)" fill-opacity="0.9"/>
<path opacity="0.5" d="M37.8669 41.906L35.8203 41.375L38.6117 41.3753L39.2645 42.8878V48.2812L38.6117 43.4815L37.8669 41.906Z" fill="url(#paint18_linear)" fill-opacity="0.9"/>
<path opacity="0.5" d="M46.5235 65.4654L47.4789 66.5846L48.7619 64.8373L49.144 62.2578L46.5235 65.4654Z" fill="url(#paint19_linear)" fill-opacity="0.9"/>
<path opacity="0.5" d="M31.5497 60.2903L30.8975 56.9258L35.1421 59.2296L38.4496 60.5649L33.781 59.741L30.8975 60.9768L31.5497 60.2903Z" fill="url(#paint20_linear)" fill-opacity="0.9"/>
<path opacity="0.5" d="M35.3291 58.9493L37.299 55.2773L37.4781 55.2776L40.657 58.5461L38.3288 57.1133L35.3291 58.9493Z" fill="url(#paint21_linear)" fill-opacity="0.9"/>
<path d="M48.9146 40.7148L48.7923 41.1301V53.1788L48.9146 53.3007L54.5073 49.9948L48.9146 40.7148Z" fill="url(#paint22_linear)" fill-opacity="0.24"/>
<path d="M48.9132 40.7148L43.3203 49.9948L48.9132 53.3007V40.7148Z" fill="url(#paint23_linear)" fill-opacity="0.24"/>
<path d="M48.9145 54.3757L48.8456 54.4597V58.7516L48.9145 58.9528L54.5107 51.0715L48.9145 54.3757Z" fill="url(#paint24_linear)" fill-opacity="0.24"/>
<path d="M48.9133 58.9528V54.3757L43.3204 51.0715L48.9133 58.9528Z" fill="url(#paint25_linear)" fill-opacity="0.24"/>
<path d="M48.9124 53.2901L54.5052 49.9842L48.9124 47.442V53.2901Z" fill="url(#paint26_linear)" fill-opacity="0.24"/>
<path d="M43.3204 49.9842L48.9133 53.2901V47.442L43.3204 49.9842Z" fill="url(#paint27_linear)" fill-opacity="0.24"/>
<g opacity="0.8">
<path opacity="0.5" d="M49.5568 40.3945L49.4346 40.8098V52.8585L49.5568 52.9804L55.1496 49.6745L49.5568 40.3945Z" fill="#FF9696"/>
<path d="M49.5548 40.3945L43.9619 49.6745L49.5548 52.9804V47.1323V40.3945Z" fill="url(#paint28_linear)"/>
<path d="M49.5572 54.0581L49.4883 54.1421V58.4341L49.5572 58.6352L55.1534 50.7539L49.5572 54.0581Z" fill="url(#paint29_linear)"/>
<path d="M49.5548 58.6352V54.0581L43.9619 50.7539L49.5548 58.6352Z" fill="url(#paint30_linear)"/>
<path opacity="0.5" d="M49.5547 52.9692L55.1474 49.6633L49.5547 47.1211V52.9692Z" fill="url(#paint31_linear)"/>
<path d="M43.9619 49.6633L49.5548 52.9692V47.1211L43.9619 49.6633Z" fill="url(#paint32_linear)"/>
</g>
<defs>
<filter id="filter0_f" x="3.11518" y="0.935492" width="97.1643" height="94.129" filterUnits="userSpaceOnUse" color-interpolation-filters="sRGB">
<feFlood flood-opacity="0" result="BackgroundImageFix"/>
<feBlend mode="normal" in="SourceGraphic" in2="BackgroundImageFix" result="shape"/>
<feGaussianBlur stdDeviation="11.5323" result="effect1_foregroundBlur"/>
</filter>
<filter id="filter1_f" x="0.62366" y="28.1471" width="102.148" height="39.7099" filterUnits="userSpaceOnUse" color-interpolation-filters="sRGB">
<feFlood flood-opacity="0" result="BackgroundImageFix"/>
<feBlend mode="normal" in="SourceGraphic" in2="BackgroundImageFix" result="shape"/>
<feGaussianBlur stdDeviation="7.68817" result="effect1_foregroundBlur"/>
</filter>
<linearGradient id="paint0_linear" x1="77.2149" y1="28.4195" x2="22.3336" y2="59.138" gradientUnits="userSpaceOnUse">
<stop offset="0.0575941" stop-color="#8F0B2B" stop-opacity="0.24"/>
<stop offset="0.386773" stop-color="#FE2C2C"/>
<stop offset="0.798239" stop-color="#BE0F0F"/>
<stop offset="0.939952" stop-color="#830228" stop-opacity="0.23"/>
</linearGradient>
<linearGradient id="paint1_linear" x1="87.3952" y1="44.3481" x2="81.9763" y2="67.0861" gradientUnits="userSpaceOnUse">
<stop offset="0.0575941" stop-color="#8F0B2B" stop-opacity="0.24"/>
<stop offset="0.386773" stop-color="#FE2C2C"/>
<stop offset="0.798239" stop-color="#BE0F0F"/>
<stop offset="0.939952" stop-color="#830228" stop-opacity="0.23"/>
</linearGradient>
<linearGradient id="paint2_linear" x1="40.0219" y1="34.843" x2="61.4447" y2="60.4459" gradientUnits="userSpaceOnUse">
<stop offset="0.0323751" stop-color="#380808"/>
<stop offset="0.230639" stop-color="#8C1C1C" stop-opacity="0.808148"/>
<stop offset="0.81341" stop-color="#830F0F" stop-opacity="0.188126"/>
<stop offset="1" stop-color="#380808"/>
</linearGradient>
<linearGradient id="paint3_linear" x1="72.4979" y1="32.0399" x2="27.6871" y2="57.2032" gradientUnits="userSpaceOnUse">
<stop offset="0.0575941" stop-color="#8F0B2B" stop-opacity="0.24"/>
<stop offset="0.386773" stop-color="#FE2C2C"/>
<stop offset="0.798239" stop-color="#BE0F0F"/>
<stop offset="0.939952" stop-color="#830228" stop-opacity="0.23"/>
</linearGradient>
<linearGradient id="paint4_linear" x1="72.4979" y1="32.0399" x2="27.6871" y2="57.2032" gradientUnits="userSpaceOnUse">
<stop offset="0.0575941" stop-color="#8F0B2B" stop-opacity="0.24"/>
<stop offset="0.386773" stop-color="#FE2C2C"/>
<stop offset="0.798239" stop-color="#BE0F0F"/>
<stop offset="0.939952" stop-color="#830228" stop-opacity="0.23"/>
</linearGradient>
<linearGradient id="paint5_linear" x1="62.0796" y1="30.9399" x2="46.2134" y2="61.9999" gradientUnits="userSpaceOnUse">
<stop stop-color="#550C26" stop-opacity="0.87"/>
<stop offset="0.260452" stop-color="#FF4158" stop-opacity="0.813997"/>
<stop offset="0.659267" stop-color="#EF7777" stop-opacity="0.49"/>
<stop offset="1" stop-color="#550C26" stop-opacity="0.62"/>
</linearGradient>
<linearGradient id="paint6_linear" x1="40.2252" y1="57.8857" x2="73.3128" y2="47.713" gradientUnits="userSpaceOnUse">
<stop stop-color="#2C0719"/>
<stop offset="0.161638" stop-color="#640919" stop-opacity="0"/>
<stop offset="0.653485" stop-color="#660825" stop-opacity="0"/>
<stop offset="0.852274" stop-color="#2C0719"/>
</linearGradient>
<linearGradient id="paint7_linear" x1="61.9395" y1="70.6292" x2="47.4827" y2="37.5423" gradientUnits="userSpaceOnUse">
<stop stop-color="#FB594F" stop-opacity="0.63"/>
<stop offset="0.872517" stop-color="#F21B42" stop-opacity="0.72"/>
</linearGradient>
<linearGradient id="paint8_linear" x1="47.4983" y1="45.5361" x2="41.6599" y2="42.2494" gradientUnits="userSpaceOnUse">
<stop stop-color="#FFF6ED" stop-opacity="0"/>
<stop offset="0.595887" stop-color="#FFF6ED"/>
</linearGradient>
<linearGradient id="paint9_linear" x1="59.0473" y1="59.6671" x2="52.4161" y2="57.5206" gradientUnits="userSpaceOnUse">
<stop stop-color="#FFCF73"/>
<stop offset="1" stop-color="#FFCF73" stop-opacity="0"/>
</linearGradient>
<linearGradient id="paint10_linear" x1="58.915" y1="28.2126" x2="60.3716" y2="35.0285" gradientUnits="userSpaceOnUse">
<stop stop-color="#FFCF73"/>
<stop offset="1" stop-color="#FFCF73" stop-opacity="0"/>
</linearGradient>
<linearGradient id="paint11_linear" x1="57.5988" y1="64.9129" x2="39.3597" y2="53.6888" gradientUnits="userSpaceOnUse">
<stop stop-color="#FFCF73"/>
<stop offset="1" stop-color="#FFCF73" stop-opacity="0"/>
</linearGradient>
<linearGradient id="paint12_linear" x1="64.2921" y1="41.991" x2="67.2426" y2="43.6726" gradientUnits="userSpaceOnUse">
<stop stop-color="#124E10" stop-opacity="0"/>
<stop offset="1" stop-color="#124E10"/>
</linearGradient>
<linearGradient id="paint13_linear" x1="50.4464" y1="42.0812" x2="56.538" y2="44.7191" gradientUnits="userSpaceOnUse">
<stop stop-color="#4E1044" stop-opacity="0"/>
<stop offset="1" stop-color="#3E104E"/>
</linearGradient>
<linearGradient id="paint14_linear" x1="58.2786" y1="57.2736" x2="61.3292" y2="60.2437" gradientUnits="userSpaceOnUse">
<stop stop-color="#124E10" stop-opacity="0"/>
<stop offset="1" stop-color="#124E10"/>
</linearGradient>
<linearGradient id="paint15_linear" x1="53.994" y1="61.6385" x2="57.6434" y2="63.2695" gradientUnits="userSpaceOnUse">
<stop stop-color="#4E1044" stop-opacity="0"/>
<stop offset="1" stop-color="#3E104E"/>
</linearGradient>
<linearGradient id="paint16_linear" x1="59.3216" y1="52.4385" x2="64.669" y2="60.03" gradientUnits="userSpaceOnUse">
<stop stop-color="#4E1044" stop-opacity="0"/>
<stop offset="1" stop-color="#3E104E"/>
</linearGradient>
<linearGradient id="paint17_linear" x1="37.1316" y1="66.2837" x2="40.1234" y2="68.0372" gradientUnits="userSpaceOnUse">
<stop stop-color="#4E1044" stop-opacity="0"/>
<stop offset="1" stop-color="#3E104E"/>
</linearGradient>
<linearGradient id="paint18_linear" x1="34.8468" y1="46.7978" x2="37.4874" y2="47.2909" gradientUnits="userSpaceOnUse">
<stop stop-color="#4E1044" stop-opacity="0"/>
<stop offset="1" stop-color="#3E104E"/>
</linearGradient>
<linearGradient id="paint19_linear" x1="45.7827" y1="65.6552" x2="47.7602" y2="66.1037" gradientUnits="userSpaceOnUse">
<stop stop-color="#4E1044" stop-opacity="0"/>
<stop offset="1" stop-color="#3E104E"/>
</linearGradient>
<linearGradient id="paint20_linear" x1="28.7629" y1="60.1067" x2="32.7915" y2="62.9191" gradientUnits="userSpaceOnUse">
<stop stop-color="#4E1044" stop-opacity="0"/>
<stop offset="1" stop-color="#3E104E"/>
</linearGradient>
<linearGradient id="paint21_linear" x1="33.8232" y1="58.1606" x2="37.0869" y2="59.9339" gradientUnits="userSpaceOnUse">
<stop stop-color="#124E10" stop-opacity="0"/>
<stop offset="1" stop-color="#124E10"/>
</linearGradient>
<linearGradient id="paint22_linear" x1="45.2219" y1="54.3708" x2="53.4412" y2="47.8676" gradientUnits="userSpaceOnUse">
<stop offset="0.214353" stop-color="#9B0B0B"/>
<stop offset="1" stop-color="#9B0B0B" stop-opacity="0"/>
</linearGradient>
<linearGradient id="paint23_linear" x1="45.2219" y1="54.3708" x2="53.4412" y2="47.8676" gradientUnits="userSpaceOnUse">
<stop offset="0.214353" stop-color="#9B0B0B"/>
<stop offset="1" stop-color="#9B0B0B" stop-opacity="0"/>
</linearGradient>
<linearGradient id="paint24_linear" x1="45.2219" y1="54.3708" x2="53.4412" y2="47.8676" gradientUnits="userSpaceOnUse">
<stop offset="0.214353" stop-color="#9B0B0B"/>
<stop offset="1" stop-color="#9B0B0B" stop-opacity="0"/>
</linearGradient>
<linearGradient id="paint25_linear" x1="45.2219" y1="54.3708" x2="53.4412" y2="47.8676" gradientUnits="userSpaceOnUse">
<stop offset="0.214353" stop-color="#9B0B0B"/>
<stop offset="1" stop-color="#9B0B0B" stop-opacity="0"/>
</linearGradient>
<linearGradient id="paint26_linear" x1="45.2219" y1="54.3708" x2="53.4412" y2="47.8676" gradientUnits="userSpaceOnUse">
<stop offset="0.214353" stop-color="#9B0B0B"/>
<stop offset="1" stop-color="#9B0B0B" stop-opacity="0"/>
</linearGradient>
<linearGradient id="paint27_linear" x1="45.2219" y1="54.3708" x2="53.4412" y2="47.8676" gradientUnits="userSpaceOnUse">
<stop offset="0.214353" stop-color="#9B0B0B"/>
<stop offset="1" stop-color="#9B0B0B" stop-opacity="0"/>
</linearGradient>
<linearGradient id="paint28_linear" x1="49.5548" y1="48.147" x2="44.6269" y2="48.458" gradientUnits="userSpaceOnUse">
<stop stop-color="#352B2C"/>
<stop offset="1" stop-color="#444141" stop-opacity="0.3"/>
</linearGradient>
<linearGradient id="paint29_linear" x1="49.4883" y1="53.8539" x2="55.2413" y2="54.679" gradientUnits="userSpaceOnUse">
<stop stop-color="#A05A66"/>
<stop offset="1" stop-color="#EB4C68" stop-opacity="0"/>
</linearGradient>
<linearGradient id="paint30_linear" x1="49.5548" y1="55.6085" x2="44.657" y2="56.1022" gradientUnits="userSpaceOnUse">
<stop stop-color="#352B2C"/>
<stop offset="1" stop-color="#444141" stop-opacity="0.3"/>
</linearGradient>
<linearGradient id="paint31_linear" x1="49.5547" y1="49.4214" x2="55.1474" y2="50.4885" gradientUnits="userSpaceOnUse">
<stop stop-color="#48111A"/>
<stop offset="1" stop-color="#EB4C68" stop-opacity="0"/>
</linearGradient>
<linearGradient id="paint32_linear" x1="49.5548" y1="50.7233" x2="44.6969" y2="51.3832" gradientUnits="userSpaceOnUse">
<stop stop-color="#352B2C"/>
<stop offset="1" stop-color="#444141" stop-opacity="0.3"/>
</linearGradient>
</defs>
</svg>
