<svg width="52" height="48" viewBox="0 0 52 48" fill="none" xmlns="http://www.w3.org/2000/svg">
<g opacity="0.6">
<g filter="url(#filter0_f)">
<path d="M19.3981 14.3718H20.3942L21.5325 15.4626L23.2874 16.2689L23.6194 15.7472L26.6075 14.3718L29.9277 12.6642L31.0186 12.9961L33.8644 12L35.7142 12.9961L35.9988 13.8974H37.6589L38.6075 15.1306L37.6589 19.4467L36.8525 21.3914V22.5297L36.2359 23.9052L35.7142 25.8499L36.2359 27.7945L35.7142 28.4111V29.6917L34.813 30.166L31.3506 32.8696H30.1648L28.2202 31.0198V32.3004L27.3664 33.2016L24.1412 34.3399L23.2874 35.5257L21.1056 36L20.3942 35.2885L19.3981 35.5257L16.1728 34.0079L14.3705 33.7708L13.0898 32.0158L13.4219 31.4941L13.0898 29.4072L15.3191 26.4665V25.3281L15.7934 24.8064L15.3191 24.1898V21.3914L17.5483 16.6009L18.4969 16.2689L19.3981 14.3718Z" fill="url(#paint0_linear)"/>
</g>
<g filter="url(#filter1_f)">
<path d="M16.8249 22.2043H18.2183L19.8107 22.4079L22.2658 22.5583L22.7302 22.461L26.9104 22.2043L31.5551 21.8857L33.0812 21.9476L37.0624 21.7617L39.6501 21.9476L40.0482 22.1158H42.3705L43.6976 22.3459L42.3705 23.1513L41.2426 23.5142V23.7267L40.38 23.9833L39.6501 24.3462L40.38 24.7091L39.6501 24.8242V25.0631L38.3894 25.1517L33.5457 25.6562H31.8869L29.1664 25.311V25.5499L27.9721 25.7181L23.4601 25.9305L22.2658 26.1518L19.2136 26.2403L18.2183 26.1076L16.8249 26.1518L12.3129 25.8686L9.79152 25.8243L8 25.4968L8.46447 25.3995L8 25.01L11.1186 24.4613V24.2489L11.7821 24.1515L11.1186 24.0364V23.5142L14.2371 22.6203L15.5642 22.5583L16.8249 22.2043Z" fill="url(#paint1_linear)"/>
</g>
</g>
<path d="M20.5912 16.152H21.4031L22.331 17.0412L23.7615 17.6984L24.0321 17.2732L26.4678 16.152L29.1741 14.7601L30.0633 15.0307L32.383 14.2188L33.8908 15.0307L34.1228 15.7653H35.476L36.2492 16.7705L35.476 20.2888L34.8187 21.8739V22.8018L34.3161 23.923L33.8908 25.5081L34.3161 27.0932L33.8908 27.5958V28.6397L33.1563 29.0263L30.334 31.23H29.3674L27.7823 29.7222V30.7661L27.0864 31.5006L24.4574 32.4285L23.7615 33.3951L21.983 33.7817L21.4031 33.2018L20.5912 33.3951L17.9622 32.1579L16.4931 31.9646L15.4492 30.5341L15.7199 30.1088L15.4492 28.4077L17.2663 26.0107V25.0828L17.6529 24.6575L17.2663 24.1549V21.8739L19.0834 17.9691L19.8567 17.6984L20.5912 16.152Z" fill="#500A0A" fill-opacity="0.4"/>
<path d="M20.5912 16.152H21.4031L22.331 17.0412L23.7615 17.6984L24.0321 17.2732L26.4678 16.152L29.1741 14.7601L30.0633 15.0307L32.383 14.2188L33.8908 15.0307L34.1228 15.7653H35.476L36.2492 16.7705L35.476 20.2888L34.8187 21.8739V22.8018L34.3161 23.923L33.8908 25.5081L34.3161 27.0932L33.8908 27.5958V28.6397L33.1563 29.0263L30.334 31.23H29.3674L27.7823 29.7222V30.7661L27.0864 31.5006L24.4574 32.4285L23.7615 33.3951L21.983 33.7817L21.4031 33.2018L20.5912 33.3951L17.9622 32.1579L16.4931 31.9646L15.4492 30.5341L15.7199 30.1088L15.4492 28.4077L17.2663 26.0107V25.0828L17.6529 24.6575L17.2663 24.1549V21.8739L19.0834 17.9691L19.8567 17.6984L20.5912 16.152Z" fill="url(#paint2_linear)"/>
<path d="M20.5914 16.152H21.4033L22.3312 17.0412L23.7617 17.6984L24.0323 17.2732L26.468 16.152L29.1743 14.7601L30.0635 15.0307L32.3833 14.2188L33.8911 15.0307L34.123 15.7653H35.4762L36.2494 16.7705L35.4762 20.2888L34.8189 21.8739V22.8018L34.3163 23.923L33.8911 25.5081L34.3163 27.0932L33.8911 27.5958V28.6397L33.1565 29.0263L30.3342 31.23H29.3676L27.7825 29.7222V30.7661L27.0866 31.5006L24.4576 32.4285L23.7617 33.3951L21.9833 33.7817L21.4033 33.2018L20.5914 33.3951L17.9624 32.1579L16.4933 31.9646L15.4494 30.5341L15.7201 30.1088L15.4494 28.4077L17.2665 26.0107V25.0828L17.6532 24.6575L17.2665 24.1549V21.8739L19.0836 17.9691L19.8569 17.6984L20.5914 16.152Z" fill="url(#paint3_linear)" fill-opacity="0.48"/>
<path d="M30.1338 15.7912L31.8057 16.0788L32.8721 17.2595L33.5195 18.7448L33.9003 19.8111L32.8721 21.4142L31.5977 24.4755L33.8492 25.4502L32.3041 26.4379L32.6181 27.4583H30.6165L30.1338 28.8712L28.9681 29.6169H27.7514L24.7219 30.8315L23.1509 32.7402L21.7724 31.8919H19.9698L19.3559 30.3014L17.5839 29.6169L18.6973 27.4583V26.4379L19.9698 25.4175L19.7047 24.1512V21.4142L19.3559 20.6109L21.7724 19.0304L24.1087 19.4911L24.7219 18.3639L25.4836 18.0212L26.4357 19.0304L27.0461 16.9954L28.4546 17.2595L30.1338 15.7912Z" fill="url(#paint4_linear)" fill-opacity="0.48"/>
<path d="M30.1338 15.7912L29.1818 14.7686M30.1338 15.7912L31.8057 16.0788L32.8721 17.2595M30.1338 15.7912L28.4546 17.2595L27.0461 16.9954M30.1338 15.7912L31.0821 16.9954L32.8721 17.2595M32.8721 17.2595L34.1288 15.7912M32.8721 17.2595L33.5195 18.7448L33.9003 19.8111M32.8721 17.2595V18.5543L31.0821 21.8677M33.9003 19.8111L32.8721 21.4142M33.9003 19.8111L34.502 20.2368L35.5616 19.4911M23.6937 17.6403L24.7219 18.3639M24.7219 18.3639L25.4836 18.0212L26.4357 19.0304M24.7219 18.3639L24.1087 19.4911M31.0821 21.8677L29.6729 20.6109L27.3879 20.0396L26.4357 19.0304M31.0821 21.8677L31.5977 24.4755M34.7767 22.8271H34.1288L32.8721 21.4142M32.8721 21.4142L31.5977 24.4755M31.5977 24.4755L31.0821 25.4175M31.5977 24.4755L33.8492 25.4502M31.0821 25.4175L32.3041 26.4379M31.0821 25.4175L28.4546 27.4583M32.3041 26.4379L32.6181 27.4583H30.6165M32.3041 26.4379L33.8492 25.4502M30.6165 27.4583L30.1338 28.8712M30.6165 27.4583H28.4546M30.1338 28.8712L28.9681 29.6169H27.7514M30.1338 28.8712L30.6165 31.0521M27.7514 29.6169L24.7219 30.8315M27.7514 29.6169L28.4546 27.4583M19.7047 21.4142L23.6937 20.6109L24.1087 19.4911M19.7047 21.4142L19.3559 20.6109M19.7047 21.4142V24.1512M24.1087 19.4911L21.7724 19.0304M17.917 20.6109H19.3559M19.3559 20.6109L21.7724 19.0304M19.7047 24.1512L19.9698 25.4175L18.6973 26.4379V27.4583M19.7047 24.1512L17.5839 24.8405M18.6973 27.4583L20.4603 29.2941M18.6973 27.4583L17.5839 29.6169M20.4603 29.2941L19.3559 30.3014M20.4603 29.2941L19.9698 31.8919M20.4603 29.2941L21.7724 31.8919M17.5839 29.6169L19.3559 30.3014M17.5839 29.6169L15.3818 28.433M19.3559 30.3014L19.9698 31.8919M19.3559 30.3014L16.5501 31.8919M19.9698 31.8919H21.7724M19.9698 31.8919L19.2881 32.7402M21.7724 31.8919L23.1509 32.7402M21.7724 31.8919L21.4313 33.2517M23.1509 32.7402L24.7219 30.8315M23.1509 32.7402L23.7487 33.4434M24.7219 30.8315L24.4454 32.4511M27.0461 16.9954L26.4357 19.0304M27.0461 16.9954V15.7912M21.7724 19.0304L19.9698 17.6403M21.7724 19.0304L21.3718 16.0788M33.8492 25.4502L33.9003 25.4175M21.4033 16.152H20.5914L19.8569 17.6984L19.0836 17.9691L17.2665 21.8739V24.1549L17.6532 24.6575L17.2665 25.0828V26.0107L15.4494 28.4077L15.7201 30.1088L15.4494 30.5341L16.4933 31.9646L17.9624 32.1579L20.5914 33.3951L21.4033 33.2018L21.9833 33.7817L23.7617 33.3951L24.4576 32.4285L27.0866 31.5006L27.7825 30.7661V29.7222L29.3676 31.23H30.3342L33.1565 29.0263L33.8911 28.6397V27.5958L34.3163 27.0932L33.8911 25.5081L34.3163 23.923L34.8189 22.8018V21.8739L35.4762 20.2888L36.2494 16.7705L35.4762 15.7653H34.123L33.8911 15.0307L32.3833 14.2188L30.0636 15.0307L29.1743 14.7601L26.468 16.152L24.0323 17.2732L23.7617 17.6984L22.3312 17.0412L21.4033 16.152Z" stroke="url(#paint5_linear)" stroke-width="0.16017"/>
<path d="M30.1338 15.7912L29.1818 14.7686M30.1338 15.7912L31.8057 16.0788L32.8721 17.2595M30.1338 15.7912L28.4546 17.2595L27.0461 16.9954M30.1338 15.7912L31.0821 16.9954L32.8721 17.2595M32.8721 17.2595L34.1288 15.7912M32.8721 17.2595L33.5195 18.7448L33.9003 19.8111M32.8721 17.2595V18.5543L31.0821 21.8677M33.9003 19.8111L32.8721 21.4142M33.9003 19.8111L34.502 20.2368L35.5616 19.4911M23.6937 17.6403L24.7219 18.3639M24.7219 18.3639L25.4836 18.0212L26.4357 19.0304M24.7219 18.3639L24.1087 19.4911M31.0821 21.8677L29.6729 20.6109L27.3879 20.0396L26.4357 19.0304M31.0821 21.8677L31.5977 24.4755M34.7767 22.8271H34.1288L32.8721 21.4142M32.8721 21.4142L31.5977 24.4755M31.5977 24.4755L31.0821 25.4175M31.5977 24.4755L33.8492 25.4502M31.0821 25.4175L32.3041 26.4379M31.0821 25.4175L28.4546 27.4583M32.3041 26.4379L32.6181 27.4583H30.6165M32.3041 26.4379L33.8492 25.4502M30.6165 27.4583L30.1338 28.8712M30.6165 27.4583H28.4546M30.1338 28.8712L28.9681 29.6169H27.7514M30.1338 28.8712L30.6165 31.0521M27.7514 29.6169L24.7219 30.8315M27.7514 29.6169L28.4546 27.4583M19.7047 21.4142L23.6937 20.6109L24.1087 19.4911M19.7047 21.4142L19.3559 20.6109M19.7047 21.4142V24.1512M24.1087 19.4911L21.7724 19.0304M17.917 20.6109H19.3559M19.3559 20.6109L21.7724 19.0304M19.7047 24.1512L19.9698 25.4175L18.6973 26.4379V27.4583M19.7047 24.1512L17.5839 24.8405M18.6973 27.4583L20.4603 29.2941M18.6973 27.4583L17.5839 29.6169M20.4603 29.2941L19.3559 30.3014M20.4603 29.2941L19.9698 31.8919M20.4603 29.2941L21.7724 31.8919M17.5839 29.6169L19.3559 30.3014M17.5839 29.6169L15.3818 28.433M19.3559 30.3014L19.9698 31.8919M19.3559 30.3014L16.5501 31.8919M19.9698 31.8919H21.7724M19.9698 31.8919L19.2881 32.7402M21.7724 31.8919L23.1509 32.7402M21.7724 31.8919L21.4313 33.2517M23.1509 32.7402L24.7219 30.8315M23.1509 32.7402L23.7487 33.4434M24.7219 30.8315L24.4454 32.4511M27.0461 16.9954L26.4357 19.0304M27.0461 16.9954V15.7912M21.7724 19.0304L19.9698 17.6403M21.7724 19.0304L21.3718 16.0788M33.8492 25.4502L33.9003 25.4175M21.4033 16.152H20.5914L19.8569 17.6984L19.0836 17.9691L17.2665 21.8739V24.1549L17.6532 24.6575L17.2665 25.0828V26.0107L15.4494 28.4077L15.7201 30.1088L15.4494 30.5341L16.4933 31.9646L17.9624 32.1579L20.5914 33.3951L21.4033 33.2018L21.9833 33.7817L23.7617 33.3951L24.4576 32.4285L27.0866 31.5006L27.7825 30.7661V29.7222L29.3676 31.23H30.3342L33.1565 29.0263L33.8911 28.6397V27.5958L34.3163 27.0932L33.8911 25.5081L34.3163 23.923L34.8189 22.8018V21.8739L35.4762 20.2888L36.2494 16.7705L35.4762 15.7653H34.123L33.8911 15.0307L32.3833 14.2188L30.0636 15.0307L29.1743 14.7601L26.468 16.152L24.0323 17.2732L23.7617 17.6984L22.3312 17.0412L21.4033 16.152Z" stroke="url(#paint6_linear)" stroke-opacity="0.72" stroke-width="0.16017"/>
<path d="M25.4845 18.0195L24.7229 18.3623L24.1097 19.4895L23.6946 20.6093L19.7056 21.4126V24.1496L19.9707 25.4158L18.6982 26.4363V27.4567L20.4612 29.2925L21.7733 31.8903L23.1518 32.7386L24.7229 30.8299L27.7523 29.6153L28.4555 27.4567L31.083 25.4158L31.5986 24.4739L31.083 21.8661L29.6738 20.6093L27.3888 20.038L26.4367 19.0288L25.4845 18.0195Z" fill="url(#paint7_linear)"/>
<path opacity="0.5" d="M19.7656 24.1643L19.783 21.4804L23.7523 20.6816L21.0173 21.4491L20.0836 21.9577L19.7656 24.1643Z" fill="#FFF6ED"/>
<path opacity="0.4" d="M23.7496 20.6815L23.3337 21.8948C23.241 22.1653 23.0484 22.3902 22.7953 22.5234L19.7035 24.1505L22.1122 22.316L23.7496 20.6815Z" fill="url(#paint8_linear)"/>
<path opacity="0.6" d="M24.7627 18.4367L25.4319 18.0818L27.3281 20.0893L25.7505 18.6808C25.5744 18.5236 25.3466 18.4367 25.1105 18.4367L24.7627 18.4367Z" fill="white" fill-opacity="0.8"/>
<path d="M27.7479 29.5836L28.3984 27.3809L27.1893 29.2214L24.7583 30.8147L27.7479 29.5836Z" fill="url(#paint9_linear)" fill-opacity="0.8"/>
<path opacity="0.5" d="M30.129 15.7693L28.3701 17.2969L30.0298 16.3656L31.1112 16.9852L30.129 15.7693Z" fill="url(#paint10_linear)" fill-opacity="0.8"/>
<path d="M20.4854 29.2475L19.9034 25.5108L21.2738 28.0477L21.4584 29.2475L22.8435 30.3805L24.6973 30.8124L22.6793 30.8124L20.4854 29.2475Z" fill="url(#paint11_linear)" fill-opacity="0.8"/>
<path opacity="0.5" d="M20.5341 29.2453L18.7752 27.4192L18.7752 26.4754L20.0305 25.4434L19.1847 26.4034C18.7397 26.9085 19.0786 27.7039 19.7511 27.7329L19.911 27.7398L20.5341 29.2453Z" fill="white" fill-opacity="0.8"/>
<path opacity="0.6" d="M28.3823 27.4232L28.3823 23.7798C28.3823 23.5576 28.603 23.4029 28.8119 23.4787L31.511 24.4573L29.0433 23.3229L28.5045 23.0659C28.2814 22.9595 28.0269 23.1351 28.0473 23.3815L28.3823 27.4232Z" fill="white" fill-opacity="0.8"/>
<path opacity="0.5" d="M19.7033 24.1492L27.351 20.0912L30.0876 22.3346L31.5114 24.4596L29.2508 22.1143L27.9866 21.2233C27.3592 20.7811 26.5395 20.7199 25.8534 21.0641L19.7033 24.1492Z" fill="white" fill-opacity="0.8"/>
<path opacity="0.2" d="M32.8428 21.3432L33.8607 19.7246L35.3061 20.743L33.9716 20.5211L32.8428 21.3432Z" fill="url(#paint12_linear)" fill-opacity="0.9"/>
<path opacity="0.5" d="M27.3294 20.1172L26.5127 18.9126L26.7829 17.9453L30.2947 20.1172L31.0714 21.8873L29.6869 20.6688L27.3294 20.1172Z" fill="url(#paint13_linear)" fill-opacity="0.9"/>
<path opacity="0.5" d="M30.1982 28.9462L30.7013 27.5059H33.943L31.2717 27.9485L30.1982 28.9462Z" fill="url(#paint14_linear)" fill-opacity="0.9"/>
<path opacity="0.5" d="M29.3399 31.3159L27.8544 29.9008L27.7773 29.6221L28.9906 29.6966L30.079 29.0039L30.5365 30.9341L30.3542 31.3159H29.3399Z" fill="url(#paint15_linear)" fill-opacity="0.9"/>
<path opacity="0.5" d="M33.2565 29.1085L30.4141 31.2777L30.084 29.0535L30.6244 27.6387H33.9731V28.7469L33.2565 29.1085Z" fill="url(#paint16_linear)" fill-opacity="0.9"/>
<path opacity="0.5" d="M19.2822 32.7531L20.0106 31.8711L21.8152 31.9276L21.4106 33.2791L20.6013 33.4895L19.2822 32.7531Z" fill="url(#paint17_linear)" fill-opacity="0.9"/>
<path opacity="0.5" d="M18.9344 20.953L17.9111 20.6875L19.3068 20.6877L19.6332 21.4439V24.1406L19.3068 21.7407L18.9344 20.953Z" fill="url(#paint18_linear)" fill-opacity="0.9"/>
<path opacity="0.5" d="M23.2617 32.7327L23.7394 33.2923L24.3809 32.4186L24.572 31.1289L23.2617 32.7327Z" fill="url(#paint19_linear)" fill-opacity="0.9"/>
<path opacity="0.5" d="M15.7753 30.1451L15.4492 28.4629L17.5715 29.6148L19.2253 30.2825L16.891 29.8705L15.4492 30.4884L15.7753 30.1451Z" fill="url(#paint20_linear)" fill-opacity="0.9"/>
<path opacity="0.5" d="M17.665 29.4747L18.65 27.6387L18.7395 27.6388L20.329 29.273L19.1649 28.5566L17.665 29.4747Z" fill="url(#paint21_linear)" fill-opacity="0.9"/>
<path d="M24.4573 20.3574L24.3961 20.565V26.5894L24.4573 26.6504L27.2536 24.9974L24.4573 20.3574Z" fill="url(#paint22_linear)" fill-opacity="0.24"/>
<path d="M24.4566 20.3574L21.6602 24.9974L24.4566 26.6504V20.3574Z" fill="url(#paint23_linear)" fill-opacity="0.24"/>
<path d="M24.4573 27.1878L24.4228 27.2299V29.3758L24.4573 29.4764L27.2554 25.5357L24.4573 27.1878Z" fill="url(#paint24_linear)" fill-opacity="0.24"/>
<path d="M24.4566 29.4764V27.1878L21.6602 25.5357L24.4566 29.4764Z" fill="url(#paint25_linear)" fill-opacity="0.24"/>
<path d="M24.4562 26.645L27.2526 24.9921L24.4562 23.721V26.645Z" fill="url(#paint26_linear)" fill-opacity="0.24"/>
<path d="M21.6602 24.9921L24.4566 26.645V23.721L21.6602 24.9921Z" fill="url(#paint27_linear)" fill-opacity="0.24"/>
<g opacity="0.8">
<path opacity="0.5" d="M24.7779 20.1973L24.7168 20.4049V26.4292L24.7779 26.4902L27.5743 24.8373L24.7779 20.1973Z" fill="#FF9696"/>
<path d="M24.7769 20.1973L21.9805 24.8373L24.7769 26.4902V23.5662V20.1973Z" fill="url(#paint28_linear)"/>
<path d="M24.7776 27.0291L24.7432 27.0711V29.217L24.7776 29.3176L27.5757 25.377L24.7776 27.0291Z" fill="url(#paint29_linear)"/>
<path d="M24.7769 29.3176V27.0291L21.9805 25.377L24.7769 29.3176Z" fill="url(#paint30_linear)"/>
<path opacity="0.5" d="M24.7764 26.4846L27.5727 24.8316L24.7764 23.5605V26.4846Z" fill="url(#paint31_linear)"/>
<path d="M21.9805 24.8316L24.7769 26.4846V23.5605L21.9805 24.8316Z" fill="url(#paint32_linear)"/>
</g>
<defs>
<filter id="filter0_f" x="1.55759" y="0.467746" width="48.5821" height="47.0645" filterUnits="userSpaceOnUse" color-interpolation-filters="sRGB">
<feFlood flood-opacity="0" result="BackgroundImageFix"/>
<feBlend mode="normal" in="SourceGraphic" in2="BackgroundImageFix" result="shape"/>
<feGaussianBlur stdDeviation="5.76613" result="effect1_foregroundBlur"/>
</filter>
<filter id="filter1_f" x="0.31183" y="14.0735" width="51.0739" height="19.8549" filterUnits="userSpaceOnUse" color-interpolation-filters="sRGB">
<feFlood flood-opacity="0" result="BackgroundImageFix"/>
<feBlend mode="normal" in="SourceGraphic" in2="BackgroundImageFix" result="shape"/>
<feGaussianBlur stdDeviation="3.84408" result="effect1_foregroundBlur"/>
</filter>
<linearGradient id="paint0_linear" x1="38.6075" y1="14.2097" x2="11.1668" y2="29.569" gradientUnits="userSpaceOnUse">
<stop offset="0.0575941" stop-color="#8F0B2B" stop-opacity="0.24"/>
<stop offset="0.386773" stop-color="#FE2C2C"/>
<stop offset="0.798239" stop-color="#BE0F0F"/>
<stop offset="0.939952" stop-color="#830228" stop-opacity="0.23"/>
</linearGradient>
<linearGradient id="paint1_linear" x1="43.6976" y1="22.1741" x2="40.9882" y2="33.5431" gradientUnits="userSpaceOnUse">
<stop offset="0.0575941" stop-color="#8F0B2B" stop-opacity="0.24"/>
<stop offset="0.386773" stop-color="#FE2C2C"/>
<stop offset="0.798239" stop-color="#BE0F0F"/>
<stop offset="0.939952" stop-color="#830228" stop-opacity="0.23"/>
</linearGradient>
<linearGradient id="paint2_linear" x1="20.0114" y1="17.4215" x2="30.7228" y2="30.223" gradientUnits="userSpaceOnUse">
<stop offset="0.0323751" stop-color="#380808"/>
<stop offset="0.230639" stop-color="#8C1C1C" stop-opacity="0.808148"/>
<stop offset="0.81341" stop-color="#830F0F" stop-opacity="0.188126"/>
<stop offset="1" stop-color="#380808"/>
</linearGradient>
<linearGradient id="paint3_linear" x1="36.2494" y1="16.02" x2="13.844" y2="28.6016" gradientUnits="userSpaceOnUse">
<stop offset="0.0575941" stop-color="#8F0B2B" stop-opacity="0.24"/>
<stop offset="0.386773" stop-color="#FE2C2C"/>
<stop offset="0.798239" stop-color="#BE0F0F"/>
<stop offset="0.939952" stop-color="#830228" stop-opacity="0.23"/>
</linearGradient>
<linearGradient id="paint4_linear" x1="36.2494" y1="16.02" x2="13.844" y2="28.6016" gradientUnits="userSpaceOnUse">
<stop offset="0.0575941" stop-color="#8F0B2B" stop-opacity="0.24"/>
<stop offset="0.386773" stop-color="#FE2C2C"/>
<stop offset="0.798239" stop-color="#BE0F0F"/>
<stop offset="0.939952" stop-color="#830228" stop-opacity="0.23"/>
</linearGradient>
<linearGradient id="paint5_linear" x1="31.0403" y1="15.47" x2="23.1072" y2="31" gradientUnits="userSpaceOnUse">
<stop stop-color="#550C26" stop-opacity="0.87"/>
<stop offset="0.260452" stop-color="#FF4158" stop-opacity="0.813997"/>
<stop offset="0.659267" stop-color="#EF7777" stop-opacity="0.49"/>
<stop offset="1" stop-color="#550C26" stop-opacity="0.62"/>
</linearGradient>
<linearGradient id="paint6_linear" x1="20.1131" y1="28.9429" x2="36.6569" y2="23.8565" gradientUnits="userSpaceOnUse">
<stop stop-color="#2C0719"/>
<stop offset="0.161638" stop-color="#640919" stop-opacity="0"/>
<stop offset="0.653485" stop-color="#660825" stop-opacity="0"/>
<stop offset="0.852274" stop-color="#2C0719"/>
</linearGradient>
<linearGradient id="paint7_linear" x1="30.9697" y1="35.3146" x2="23.7413" y2="18.7711" gradientUnits="userSpaceOnUse">
<stop stop-color="#FB594F" stop-opacity="0.63"/>
<stop offset="0.872517" stop-color="#F21B42" stop-opacity="0.72"/>
</linearGradient>
<linearGradient id="paint8_linear" x1="23.7496" y1="22.7681" x2="20.8304" y2="21.1247" gradientUnits="userSpaceOnUse">
<stop stop-color="#FFF6ED" stop-opacity="0"/>
<stop offset="0.595887" stop-color="#FFF6ED"/>
</linearGradient>
<linearGradient id="paint9_linear" x1="29.5236" y1="29.8336" x2="26.2081" y2="28.7603" gradientUnits="userSpaceOnUse">
<stop stop-color="#FFCF73"/>
<stop offset="1" stop-color="#FFCF73" stop-opacity="0"/>
</linearGradient>
<linearGradient id="paint10_linear" x1="29.4575" y1="14.1063" x2="30.1858" y2="17.5143" gradientUnits="userSpaceOnUse">
<stop stop-color="#FFCF73"/>
<stop offset="1" stop-color="#FFCF73" stop-opacity="0"/>
</linearGradient>
<linearGradient id="paint11_linear" x1="28.7989" y1="32.4564" x2="19.6794" y2="26.8444" gradientUnits="userSpaceOnUse">
<stop stop-color="#FFCF73"/>
<stop offset="1" stop-color="#FFCF73" stop-opacity="0"/>
</linearGradient>
<linearGradient id="paint12_linear" x1="32.1465" y1="20.9955" x2="33.6218" y2="21.8363" gradientUnits="userSpaceOnUse">
<stop stop-color="#124E10" stop-opacity="0"/>
<stop offset="1" stop-color="#124E10"/>
</linearGradient>
<linearGradient id="paint13_linear" x1="25.2242" y1="21.0406" x2="28.27" y2="22.3596" gradientUnits="userSpaceOnUse">
<stop stop-color="#4E1044" stop-opacity="0"/>
<stop offset="1" stop-color="#3E104E"/>
</linearGradient>
<linearGradient id="paint14_linear" x1="29.1398" y1="28.6368" x2="30.6651" y2="30.1219" gradientUnits="userSpaceOnUse">
<stop stop-color="#124E10" stop-opacity="0"/>
<stop offset="1" stop-color="#124E10"/>
</linearGradient>
<linearGradient id="paint15_linear" x1="26.9975" y1="30.8193" x2="28.8222" y2="31.6348" gradientUnits="userSpaceOnUse">
<stop stop-color="#4E1044" stop-opacity="0"/>
<stop offset="1" stop-color="#3E104E"/>
</linearGradient>
<linearGradient id="paint16_linear" x1="29.6613" y1="26.2193" x2="32.335" y2="30.015" gradientUnits="userSpaceOnUse">
<stop stop-color="#4E1044" stop-opacity="0"/>
<stop offset="1" stop-color="#3E104E"/>
</linearGradient>
<linearGradient id="paint17_linear" x1="18.5663" y1="33.1419" x2="20.0622" y2="34.0186" gradientUnits="userSpaceOnUse">
<stop stop-color="#4E1044" stop-opacity="0"/>
<stop offset="1" stop-color="#3E104E"/>
</linearGradient>
<linearGradient id="paint18_linear" x1="17.4244" y1="23.3989" x2="18.7447" y2="23.6455" gradientUnits="userSpaceOnUse">
<stop stop-color="#4E1044" stop-opacity="0"/>
<stop offset="1" stop-color="#3E104E"/>
</linearGradient>
<linearGradient id="paint19_linear" x1="22.8914" y1="32.8276" x2="23.8801" y2="33.0519" gradientUnits="userSpaceOnUse">
<stop stop-color="#4E1044" stop-opacity="0"/>
<stop offset="1" stop-color="#3E104E"/>
</linearGradient>
<linearGradient id="paint20_linear" x1="14.3819" y1="30.0533" x2="16.3962" y2="31.4596" gradientUnits="userSpaceOnUse">
<stop stop-color="#4E1044" stop-opacity="0"/>
<stop offset="1" stop-color="#3E104E"/>
</linearGradient>
<linearGradient id="paint21_linear" x1="16.9121" y1="29.0803" x2="18.544" y2="29.967" gradientUnits="userSpaceOnUse">
<stop stop-color="#124E10" stop-opacity="0"/>
<stop offset="1" stop-color="#124E10"/>
</linearGradient>
<linearGradient id="paint22_linear" x1="22.6109" y1="27.1854" x2="26.7206" y2="23.9338" gradientUnits="userSpaceOnUse">
<stop offset="0.214353" stop-color="#9B0B0B"/>
<stop offset="1" stop-color="#9B0B0B" stop-opacity="0"/>
</linearGradient>
<linearGradient id="paint23_linear" x1="22.6109" y1="27.1854" x2="26.7206" y2="23.9338" gradientUnits="userSpaceOnUse">
<stop offset="0.214353" stop-color="#9B0B0B"/>
<stop offset="1" stop-color="#9B0B0B" stop-opacity="0"/>
</linearGradient>
<linearGradient id="paint24_linear" x1="22.6109" y1="27.1854" x2="26.7206" y2="23.9338" gradientUnits="userSpaceOnUse">
<stop offset="0.214353" stop-color="#9B0B0B"/>
<stop offset="1" stop-color="#9B0B0B" stop-opacity="0"/>
</linearGradient>
<linearGradient id="paint25_linear" x1="22.6109" y1="27.1854" x2="26.7206" y2="23.9338" gradientUnits="userSpaceOnUse">
<stop offset="0.214353" stop-color="#9B0B0B"/>
<stop offset="1" stop-color="#9B0B0B" stop-opacity="0"/>
</linearGradient>
<linearGradient id="paint26_linear" x1="22.6109" y1="27.1854" x2="26.7206" y2="23.9338" gradientUnits="userSpaceOnUse">
<stop offset="0.214353" stop-color="#9B0B0B"/>
<stop offset="1" stop-color="#9B0B0B" stop-opacity="0"/>
</linearGradient>
<linearGradient id="paint27_linear" x1="22.6109" y1="27.1854" x2="26.7206" y2="23.9338" gradientUnits="userSpaceOnUse">
<stop offset="0.214353" stop-color="#9B0B0B"/>
<stop offset="1" stop-color="#9B0B0B" stop-opacity="0"/>
</linearGradient>
<linearGradient id="paint28_linear" x1="24.7769" y1="24.0735" x2="22.3129" y2="24.229" gradientUnits="userSpaceOnUse">
<stop stop-color="#352B2C"/>
<stop offset="1" stop-color="#444141" stop-opacity="0.3"/>
</linearGradient>
<linearGradient id="paint29_linear" x1="24.7432" y1="26.927" x2="27.6197" y2="27.3395" gradientUnits="userSpaceOnUse">
<stop stop-color="#A05A66"/>
<stop offset="1" stop-color="#EB4C68" stop-opacity="0"/>
</linearGradient>
<linearGradient id="paint30_linear" x1="24.7769" y1="27.8042" x2="22.328" y2="28.0511" gradientUnits="userSpaceOnUse">
<stop stop-color="#352B2C"/>
<stop offset="1" stop-color="#444141" stop-opacity="0.3"/>
</linearGradient>
<linearGradient id="paint31_linear" x1="24.7764" y1="24.7107" x2="27.5727" y2="25.2442" gradientUnits="userSpaceOnUse">
<stop stop-color="#48111A"/>
<stop offset="1" stop-color="#EB4C68" stop-opacity="0"/>
</linearGradient>
<linearGradient id="paint32_linear" x1="24.7769" y1="25.3617" x2="22.3479" y2="25.6916" gradientUnits="userSpaceOnUse">
<stop stop-color="#352B2C"/>
<stop offset="1" stop-color="#444141" stop-opacity="0.3"/>
</linearGradient>
</defs>
</svg>
