<svg width="91" height="104" viewBox="0 0 91 104" fill="none" xmlns="http://www.w3.org/2000/svg">
<g filter="url(#filter0_f)">
<path d="M66.9702 46.1855L67.5629 47.6536L66.2257 50.3712L66.2605 50.9785L65.2868 52.1006L64.7733 53.2617L63.4867 54.2494L62.5845 56.0855L59.0735 58.0058L58.8823 58.6044L55.8769 60.4957L55.4 61.7634L52.9143 63.6685L52.4716 64.9996L50.6528 66.823L49.5879 66.884L46.5005 70.5427L43.0572 71.7193L43.102 72.5001L41.2714 73.5843L39.8643 73.5343L37.5996 75.035L36.4943 75.9906L34.1577 76.4498L32.1539 77.3709L29.5767 76.3605L27.8204 76.4611L26.2844 73.466L26.4791 72.3735L25.4356 68.9662L23.9079 65.9899L24.4048 62.8169L23.8088 58.3358L25.1259 56.6478L25.494 55.1754L30.4117 53.1602L32.3203 51.451L35.6764 48.7563C35.7789 48.674 37.2657 48.2769 37.9963 48.0885L40.362 47.2844L42.6508 47.4781L45.4471 46.7066L48.6247 46.9773L51.7587 46.487L53.847 46.6782L56.002 46.244L58.4244 46.675L63.4319 45.3004L66.9702 46.1855Z" fill="url(#paint0_linear)"/>
</g>
<g filter="url(#filter1_f)">
<path d="M65.1942 78.8457L65.8358 76.1555L64.6832 71.2949L64.7464 70.1924L63.8652 68.206L63.4284 66.1266L62.2398 64.3992L61.4623 61.1151L58.1809 57.806L58.0264 56.7305L55.2297 53.4492L54.8332 51.1745L52.5368 47.8429L52.1763 45.4518L50.517 42.2357L49.4962 42.1772L46.7072 35.6962L43.4546 33.7321L43.5358 32.3145L41.829 30.4389L40.4738 30.5983L38.3701 27.9888L37.3542 26.3108L35.1304 25.5927L33.2491 24.0211L30.722 25.9787L29.0385 25.8822L27.4154 31.3865L27.5491 33.3573L26.3793 39.5844L24.7649 45.0543L25.0874 50.7814L24.2952 58.9331L25.4788 61.9284L25.7607 64.5793L30.3897 67.9916L32.141 70.9964L35.2356 75.7167C35.33 75.8608 36.74 76.508 37.4331 76.8136L39.668 78.1554L41.8779 77.6924L44.5284 78.954L47.5964 78.3079L50.5853 79.0433L52.6023 78.5946L54.6527 79.2763L57.0026 78.3765L61.7493 80.6231L65.1942 78.8457Z" fill="url(#paint1_linear)" fill-opacity="0.4"/>
</g>
<path d="M27.4154 35.9965L29.2377 35.5566L32.4417 36.8478H33.181L34.4747 37.7454L35.8475 38.2471L36.9564 39.4087L39.1214 40.28L41.2071 43.4116L41.9199 43.6066L44.0057 46.2996L45.5106 46.7748L47.6491 49.0189L49.2332 49.4678L51.3189 51.1311V52.0551L55.5432 54.9065L56.7313 57.9427H57.6817L58.8698 59.5796L58.7114 60.7941L60.3747 62.827L61.4572 63.8303L61.8519 65.8739L62.8302 67.6525L61.4253 69.8314V71.3553L57.6848 72.5353L56.3729 72.3128L52.1667 73.0465L48.4496 74.2203L44.6346 73.6334L39.1568 73.9269L37.2004 72.7041L35.4397 72.3128L33.3366 67.9599L31.3956 66.2245L28.3596 63.1885C28.2669 63.0958 27.8884 61.7902 27.7107 61.149L26.8995 59.0632L27.2935 57.0933L26.5519 54.6367L27.1011 51.902L26.7241 49.1673L27.1011 47.3706L26.7241 45.4854L27.4154 43.4116L26.0957 39.0128L27.4154 35.9965Z" fill="#1E41D7" fill-opacity="0.6"/>
<path d="M27.4154 35.9965L29.2377 35.5566L32.4417 36.8478H33.181L34.4747 37.7454L35.8475 38.2471L36.9564 39.4087L39.1214 40.28L41.2071 43.4116L41.9199 43.6066L44.0057 46.2996L45.5106 46.7748L47.6491 49.0189L49.2332 49.4678L51.3189 51.1311V52.0551L55.5432 54.9065L56.7313 57.9427H57.6817L58.8698 59.5796L58.7114 60.7941L60.3747 62.827L61.4572 63.8303L61.8519 65.8739L62.8302 67.6525L61.4253 69.8314V71.3553L57.6848 72.5353L56.3729 72.3128L52.1667 73.0465L48.4496 74.2203L44.9913 73.7394L39.1568 73.9269L37.2004 72.7041L35.4397 72.3128L33.3366 67.9599L31.3956 66.2245L28.3596 63.1885C28.2669 63.0958 27.8884 61.7902 27.7107 61.149L26.8995 59.0632L27.2935 57.0933L26.5519 54.6367L27.1011 51.902L26.7241 49.1673L27.1011 47.3706L26.7241 45.4854L27.4154 43.4116L26.0957 39.0128L27.4154 35.9965Z" fill="url(#paint2_linear)" fill-opacity="0.48"/>
<path d="M27.4154 35.9965L29.2377 35.5566L32.4417 36.8478H33.181L34.4747 37.7454L35.8475 38.2471L36.9564 39.4087L39.1214 40.28L41.2071 43.4116L41.9199 43.6066L44.0057 46.2996L45.5106 46.7748L47.6491 49.0189L49.2332 49.4678L51.3189 51.1311V52.0551L55.5432 54.9065L56.7313 57.9427H57.6817L58.8698 59.5796L58.7114 60.7941L60.3747 62.827L61.4572 63.8303L61.8519 65.8739L62.8302 67.6525L61.4253 69.8314V71.3553L57.6848 72.5353L56.3729 72.3128L52.1667 73.0465L48.4496 74.2203L44.9913 73.7394L39.1568 73.9269L37.2004 72.7041L35.4397 72.3128L33.3366 67.9599L31.3956 66.2245L28.3596 63.1885C28.2669 63.0958 27.8884 61.7902 27.7107 61.149L26.8995 59.0632L27.2935 57.0933L26.5519 54.6367L27.1011 51.902L26.7241 49.1673L27.1011 47.3706L26.7241 45.4854L27.4154 43.4116L26.0957 39.0128L27.4154 35.9965Z" fill="url(#paint3_linear)" fill-opacity="0.49"/>
<path d="M33.9142 46.4913L37.1483 45.9519L38.2787 47.624L39.904 47.1365L41.448 48.9243H44.5361L47.2991 50.5496L48.8125 53.1387L51.8661 55.6857L51.3664 58.4062L53.5318 59.6277L54.2571 62.5163L52.7688 64.6768H55.593L59.4736 67.9208L60.1759 69.9142L56.3729 72.3128L55.593 64.6768H52.7688L53.1996 67.0769L51.3664 69.0434L46.5759 71.5305L44.9913 73.7394L39.904 72.1231L37.2004 72.7041L39.0333 69.9142L41.0111 65.8053H37.7771L33.3366 67.9599L30.1976 62.9642L28.0593 60.2356L28.6891 57.6305L27.4175 54.9627L28.0593 52.5662H29.8015L28.0593 50.2101L30.6065 45.9519L29.2211 42.9005L31.0248 42.5077L33.9142 46.4913Z" fill="url(#paint4_linear)" fill-opacity="0.48"/>
<path d="M33.9142 46.4913L37.1483 45.9519L38.2787 47.624L39.904 47.1365L41.448 48.9243H44.5361L47.2991 50.5496L48.8125 53.1387L51.8661 55.6857L51.3664 58.4062L53.5318 59.6277L54.2571 62.5163L52.7688 64.6768H55.593L59.4736 67.9208L60.1759 69.9142L56.3729 72.3128L55.593 64.6768H52.7688L53.1996 67.0769L51.3664 69.0434L46.5759 71.5305L44.9913 73.7394L39.904 72.1231L37.2004 72.7041L39.0333 69.9142L41.0111 65.8053H37.7771L33.3366 67.9599L30.1976 62.9642L28.0593 60.2356L28.6891 57.6305L27.4175 54.9627L28.0593 52.5662H29.8015L28.0593 50.2101L30.6065 45.9519L29.2211 42.9005L31.0248 42.5077L33.9142 46.4913Z" fill="url(#paint5_linear)" fill-opacity="0.49"/>
<path d="M27.4154 35.9965L29.2377 35.5566L32.4417 36.8478M27.4154 35.9965L26.0957 39.0128L27.4154 43.4116M27.4154 35.9965L29.646 39.989M27.4154 43.4116L26.7241 45.4854L27.1011 47.3706M27.4154 43.4116L29.2211 42.9005M27.1011 47.3706L26.7241 49.1673L27.1011 51.902M27.1011 47.3706L28.0593 50.2101M27.1011 51.902L26.5519 54.6367L27.2935 57.0933L26.8995 59.0632L27.7107 61.149C27.8884 61.7902 28.2669 63.0958 28.3596 63.1885L31.3956 66.2245L33.3366 67.9599M27.1011 51.902L28.0593 52.5662M33.3366 67.9599L35.4397 72.3128L37.2004 72.7041M33.3366 67.9599L30.1976 62.9642M33.3366 67.9599L37.7771 65.8053M37.2004 72.7041L39.1568 73.9269L44.9913 73.7394M37.2004 72.7041L39.0333 69.9142M37.2004 72.7041L39.904 72.1231M44.9913 73.7394L48.4496 74.2203L52.1667 73.0465M44.9913 73.7394L46.5759 71.5305M44.9913 73.7394L39.904 72.1231M52.1667 73.0465L56.3729 72.3128M52.1667 73.0465L51.3664 69.0434M56.3729 72.3128L57.6848 72.5353L61.4253 71.3553V69.8314M56.3729 72.3128L60.1759 69.9142M56.3729 72.3128L55.593 64.6768M61.4253 69.8314L62.8302 67.6525L61.8519 65.8739M61.4253 69.8314L60.1759 69.9142M61.8519 65.8739L61.4572 63.8303L60.3747 62.827L58.7114 60.7941M61.8519 65.8739L59.4736 67.9208M58.7114 60.7941L58.8698 59.5796L57.6817 57.9427H56.7313L55.5432 54.9065M58.7114 60.7941L56.1623 61.4773L54.2571 62.5163M55.5432 54.9065L51.3189 52.0551M55.5432 54.9065L51.8661 55.6857M51.3189 52.0551V51.1311L49.2332 49.4678L47.6491 49.0189M51.3189 52.0551L48.8125 53.1387M47.6491 49.0189L45.5106 46.7748L44.0057 46.2996M47.6491 49.0189L47.2991 50.5496M44.0057 46.2996L41.9199 43.6066L41.2071 43.4116L39.1214 40.28M44.0057 46.2996L39.904 47.1365M39.1214 40.28L36.9564 39.4087L35.8475 38.2471L34.4747 37.7454L33.181 36.8478M39.1214 40.28L37.7771 42.5077M33.181 36.8478H32.4417M33.181 36.8478L34.4532 40.8775H36.3766L37.7771 42.5077M32.4417 36.8478L32.3114 38.7807L29.646 39.989M37.1483 45.9519L33.9142 46.4913M37.1483 45.9519L38.2787 47.624L39.904 47.1365M37.1483 45.9519L37.7771 42.5077M33.9142 46.4913L31.0248 42.5077L29.2211 42.9005M33.9142 46.4913L32.8362 48.4674V54.9803M33.9142 46.4913L30.6065 45.9519M32.8362 56.8219L35.8906 60.2356L34.4532 63.5595M32.8362 56.8219V54.9803M32.8362 56.8219L28.6891 57.6305M34.4532 63.5595L30.1976 62.9642M34.4532 63.5595L37.7771 65.8053M37.7771 65.8053H41.0111M41.0111 65.8053L44.9913 69.3817M41.0111 65.8053L39.0333 69.9142M44.9913 69.3817L47.9679 66.7412M44.9913 69.3817L46.5759 71.5305M47.9679 66.7412L52.7688 64.6768M47.9679 66.7412L51.3664 69.0434M52.7688 64.6768L54.2571 62.5163M52.7688 64.6768L53.1996 67.0769L51.3664 69.0434M52.7688 64.6768H55.593M54.2571 62.5163L53.5318 59.6277L51.3664 58.4062L51.8661 55.6857M51.8661 55.6857L48.8125 53.1387M48.8125 53.1387L47.2991 50.5496M47.2991 50.5496L44.5361 48.9243H41.448L39.904 47.1365M37.7771 42.5077L40.5856 42.4784M30.6065 45.9519L29.2211 42.9005M30.6065 45.9519L28.0593 50.2101M29.2211 42.9005L28.0593 41.9437L29.646 39.989M28.0593 50.2101L29.8015 52.5662M32.8362 54.9803L29.8015 52.5662M29.8015 52.5662H28.0593M28.0593 52.5662L27.4175 54.9627L28.6891 57.6305M28.6891 57.6305L28.0593 60.2356L30.1976 62.9642M46.5759 71.5305L51.3664 69.0434M39.0333 69.9142L39.904 72.1231M59.4736 67.9208L60.1759 69.9142M59.4736 67.9208L55.593 64.6768" stroke="url(#paint6_linear)" stroke-width="0.299549"/>
<path d="M27.4154 35.9965L29.2377 35.5566L32.4417 36.8478M27.4154 35.9965L26.0957 39.0128L27.4154 43.4116M27.4154 35.9965L29.646 39.989M27.4154 43.4116L26.7241 45.4854L27.1011 47.3706M27.4154 43.4116L29.2211 42.9005M27.1011 47.3706L26.7241 49.1673L27.1011 51.902M27.1011 47.3706L28.0593 50.2101M27.1011 51.902L26.5519 54.6367L27.2935 57.0933L26.8995 59.0632L27.7107 61.149C27.8884 61.7902 28.2669 63.0958 28.3596 63.1885L31.3956 66.2245L33.3366 67.9599M27.1011 51.902L28.0593 52.5662M33.3366 67.9599L35.4397 72.3128L37.2004 72.7041M33.3366 67.9599L30.1976 62.9642M33.3366 67.9599L37.7771 65.8053M37.2004 72.7041L39.1568 73.9269L44.9913 73.7394M37.2004 72.7041L39.0333 69.9142M37.2004 72.7041L39.904 72.1231M44.9913 73.7394L48.4496 74.2203L52.1667 73.0465M44.9913 73.7394L46.5759 71.5305M44.9913 73.7394L39.904 72.1231M52.1667 73.0465L56.3729 72.3128M52.1667 73.0465L51.3664 69.0434M56.3729 72.3128L57.6848 72.5353L61.4253 71.3553V69.8314M56.3729 72.3128L60.1759 69.9142M56.3729 72.3128L55.593 64.6768M61.4253 69.8314L62.8302 67.6525L61.8519 65.8739M61.4253 69.8314L60.1759 69.9142M61.8519 65.8739L61.4572 63.8303L60.3747 62.827L58.7114 60.7941M61.8519 65.8739L59.4736 67.9208M58.7114 60.7941L58.8698 59.5796L57.6817 57.9427H56.7313L55.5432 54.9065M58.7114 60.7941L56.1623 61.4773L54.2571 62.5163M55.5432 54.9065L51.3189 52.0551M55.5432 54.9065L51.8661 55.6857M51.3189 52.0551V51.1311L49.2332 49.4678L47.6491 49.0189M51.3189 52.0551L48.8125 53.1387M47.6491 49.0189L45.5106 46.7748L44.0057 46.2996M47.6491 49.0189L47.2991 50.5496M44.0057 46.2996L41.9199 43.6066L41.2071 43.4116L39.1214 40.28M44.0057 46.2996L39.904 47.1365M39.1214 40.28L36.9564 39.4087L35.8475 38.2471L34.4747 37.7454L33.181 36.8478M39.1214 40.28L37.7771 42.5077M33.181 36.8478H32.4417M33.181 36.8478L34.4532 40.8775H36.3766L37.7771 42.5077M32.4417 36.8478L32.3114 38.7807L29.646 39.989M37.1483 45.9519L33.9142 46.4913M37.1483 45.9519L38.2787 47.624L39.904 47.1365M37.1483 45.9519L37.7771 42.5077M33.9142 46.4913L31.0248 42.5077L29.2211 42.9005M33.9142 46.4913L32.8362 48.4674V54.9803M33.9142 46.4913L30.6065 45.9519M32.8362 56.8219L35.8906 60.2356L34.4532 63.5595M32.8362 56.8219V54.9803M32.8362 56.8219L28.6891 57.6305M34.4532 63.5595L30.1976 62.9642M34.4532 63.5595L37.7771 65.8053M37.7771 65.8053H41.0111M41.0111 65.8053L44.9913 69.3817M41.0111 65.8053L39.0333 69.9142M44.9913 69.3817L47.9679 66.7412M44.9913 69.3817L46.5759 71.5305M47.9679 66.7412L52.7688 64.6768M47.9679 66.7412L51.3664 69.0434M52.7688 64.6768L54.2571 62.5163M52.7688 64.6768L53.1996 67.0769L51.3664 69.0434M52.7688 64.6768H55.593M54.2571 62.5163L53.5318 59.6277L51.3664 58.4062L51.8661 55.6857M51.8661 55.6857L48.8125 53.1387M48.8125 53.1387L47.2991 50.5496M47.2991 50.5496L44.5361 48.9243H41.448L39.904 47.1365M37.7771 42.5077L40.5856 42.4784M30.6065 45.9519L29.2211 42.9005M30.6065 45.9519L28.0593 50.2101M29.2211 42.9005L28.0593 41.9437L29.646 39.989M28.0593 50.2101L29.8015 52.5662M32.8362 54.9803L29.8015 52.5662M29.8015 52.5662H28.0593M28.0593 52.5662L27.4175 54.9627L28.6891 57.6305M28.6891 57.6305L28.0593 60.2356L30.1976 62.9642M46.5759 71.5305L51.3664 69.0434M39.0333 69.9142L39.904 72.1231M59.4736 67.9208L60.1759 69.9142M59.4736 67.9208L55.593 64.6768" stroke="url(#paint7_linear)" stroke-opacity="0.72" stroke-width="0.299549"/>
<path d="M33.9149 46.4906L37.1489 45.9512L38.2794 47.6234L39.9046 47.1358L41.4487 48.9236H44.5367L47.2997 50.5489L48.8132 53.138L51.8668 55.685L51.3671 58.4055L53.5324 59.627L54.2578 62.5157L52.7695 64.6761L47.9685 66.7405L44.992 69.381L41.0118 65.8046H37.7778L37.5602 65.6576L34.4539 63.5588L35.8913 60.2349L32.8369 56.8212V54.9796V53.138V48.4667L33.3759 47.4786L33.9149 46.4906Z" fill="url(#paint8_linear)" fill-opacity="0.81"/>
<path d="M32.8359 48.5001L33.9125 46.4906L37.1466 45.9512C37.1466 45.9512 34.7076 46.4013 34.0458 47.6144C33.0252 49.4856 32.8359 56.8731 32.8359 56.8731V48.5001Z" fill="url(#paint9_linear)"/>
<path d="M32.8339 50.8653L32.8339 48.5011L35.0684 46.3121C35.0684 46.3121 33.4785 47.9076 33.679 49.2748C33.9883 51.3837 38.8772 58.4216 38.8772 58.4216L32.8339 50.8653Z" fill="url(#paint10_linear)"/>
<path d="M37.7791 65.8094L34.4542 63.5385L35.4274 61.3053C35.4274 61.3053 35.3058 62.9298 35.9748 63.9991C37.1054 65.806 41.011 65.8036 41.011 65.8036L37.7791 65.8094Z" fill="url(#paint11_linear)"/>
<path d="M41.4411 48.9116L44.5306 48.9118L47.338 50.5633C47.338 50.5633 45.4716 49.8087 44.1195 49.5232C42.0341 49.0829 43.2066 56.3026 43.2066 56.3026L41.4411 48.9116Z" fill="url(#paint12_linear)"/>
<path d="M36.0648 60.2069L32.9873 56.7656C32.9873 56.7656 35.4216 59.0891 36.4278 59.0891C37.6667 59.0891 42.456 56.6796 42.456 56.6796L36.0648 60.2069Z" fill="url(#paint13_linear)"/>
<path d="M54.0973 62.4864L52.6689 64.5566C52.6689 64.5566 53.3979 63.2394 53.5699 62.2479C53.6394 61.847 53.4026 59.7276 53.4026 59.7276L54.0973 62.4864Z" fill="url(#paint14_linear)"/>
<path d="M39.903 47.1365L41.4385 48.915C41.4385 48.915 40.7307 48.1991 39.7274 47.6695C39.3675 47.4796 38.2773 47.6258 38.2773 47.6258L39.903 47.1365Z" fill="url(#paint15_linear)"/>
<path d="M41.0684 65.6543C41.0684 65.6543 43.3918 66.9894 44.4713 66.9894C45.3894 66.9894 52.6707 64.5548 52.6707 64.5548L47.8862 66.6118L44.9924 69.1811L41.0684 65.6543Z" fill="url(#paint16_linear)"/>
<path d="M41.0283 65.8242C41.0283 65.8242 44.649 63.6557 46.9478 63.6557C49.686 63.6557 52.6712 64.5582 52.6712 64.5582L47.519 62.2716C47.046 62.0618 46.4983 62.1108 46.0702 62.4014L41.0283 65.8242Z" fill="url(#paint17_linear)" fill-opacity="0.76"/>
<path opacity="0.6" d="M48.6992 53.2363L51.778 55.7459L51.2009 58.4877C51.2009 58.4877 51.1186 56.5948 50.7628 56.1209C49.4832 54.4163 36.0654 60.2046 36.0654 60.2046L48.6992 53.2363Z" fill="url(#paint18_linear)"/>
<path opacity="0.9" d="M46.3658 71.4686L51.346 68.844L51.5337 69.0808L52.3105 72.9119L48.7539 73.0506L44.6897 73.8887L46.3658 71.4686Z" fill="url(#paint19_linear)"/>
<path opacity="0.4" d="M41.0587 66.0486L44.8791 69.4804L46.6592 71.6533L45.2679 73.6289L37.3237 72.583L39.1973 69.9287L41.0587 66.0486Z" fill="url(#paint20_linear)"/>
<path opacity="0.9" d="M37.5963 72.7753L39.8799 72.2318L43.833 73.5254L40.6374 73.4048L37.5963 72.7753Z" fill="url(#paint21_linear)"/>
<path opacity="0.9" d="M28.2639 63.2371L33.0898 67.6562L30.1953 62.9839L27.9115 60.1463L27.0439 59.0348L28.2639 63.2371Z" fill="url(#paint22_linear)"/>
<path opacity="0.9" d="M35.4449 72.3232L33.5381 68.0264L35.9604 70.6813L38.8809 69.8605L37.1438 72.5332L35.4449 72.3232Z" fill="url(#paint23_linear)"/>
<path opacity="0.9" d="M29.2282 35.7129L32.2811 36.9387H28.7915L27.3522 38.4126L27.5291 43.2642L26.2822 39.0363L27.5575 36.1238L29.2282 35.7129Z" fill="url(#paint24_linear)"/>
<path opacity="0.9" d="M29.2282 35.7129L32.2811 36.9387L32.168 38.6847L29.7314 40.1149L27.2634 43.4205L26.2822 39.0363L27.5575 36.1238L29.2282 35.7129Z" fill="url(#paint25_linear)"/>
<path opacity="0.9" d="M30.6737 46.1084L29.6091 47.4598L27.9629 50.1166L26.9454 47.3434L26.5712 45.4787L27.2632 43.4255L28.1591 42.2194L29.2376 42.9891L30.6737 46.1084Z" fill="url(#paint26_linear)"/>
<path opacity="0.9" d="M36.9556 39.205L39.2056 40.1846L35.3509 39.6442L34.4789 40.6732L33.7986 38.5103L33.3277 37.0977L35.8869 38.1681L36.9556 39.205Z" fill="url(#paint27_linear)"/>
<path opacity="0.7" d="M51.3056 52.2246L55.087 54.7982L51.7666 53.1733H49.1494L51.3056 52.2246Z" fill="url(#paint28_linear)"/>
<path opacity="0.9" d="M30.493 63.1424L34.4507 63.7394L37.4824 65.7862L34.5355 66.1021L33.6628 64.4441L30.493 63.1424Z" fill="url(#paint29_linear)"/>
<path opacity="0.5" d="M33.5392 68.0253L37.5558 65.9038L40.7754 65.9527L38.9188 69.801L35.6063 72.459L33.5392 68.0253Z" fill="url(#paint30_linear)"/>
<path opacity="0.84" fill-rule="evenodd" clip-rule="evenodd" d="M38.2201 55.6486C37.3133 58.0563 38.564 60.7766 41.003 61.6521C41.0968 61.7147 41.1906 61.8397 41.1906 61.9335V62.3713C41.1906 62.4338 41.1906 62.4651 41.1593 62.4963C41.1281 62.6214 41.003 62.684 40.8779 62.6214C39.1269 62.0586 37.7823 60.7141 37.2195 58.9631C36.2814 55.9926 37.9074 52.8345 40.8779 51.8965C40.9092 51.8652 40.9717 51.8652 41.003 51.8652C41.1281 51.8965 41.1906 51.9903 41.1906 52.1154V52.5531C41.1906 52.7095 41.1281 52.8033 41.003 52.8658C39.721 53.3348 38.6891 54.3354 38.2201 55.6486ZM44.036 52.0215C44.0672 51.8965 44.1923 51.8339 44.3174 51.8965C46.0371 52.4593 47.4129 53.8038 47.9758 55.5861C48.9138 58.5566 47.2878 61.7147 44.3174 62.6527C44.2861 62.684 44.2236 62.684 44.1923 62.684C44.0672 62.6527 44.0047 62.5589 44.0047 62.4338V61.9961C44.0047 61.8397 44.0672 61.7459 44.1923 61.6834C45.4743 61.2144 46.5061 60.2138 46.9751 58.9006C47.882 56.4929 46.6312 53.7725 44.1923 52.8971C44.0985 52.8345 44.0047 52.7095 44.0047 52.5844V52.1466C44.0047 52.0841 44.0047 52.0528 44.036 52.0215ZM42.6913 56.7444C44.0045 56.9007 44.6612 57.276 44.6612 58.3703C44.6612 59.2146 44.0358 59.8712 43.0978 60.0276V60.778C43.0665 60.9343 42.9727 61.0281 42.8476 61.0281H42.3786C42.2222 60.9968 42.1284 60.903 42.1284 60.778V60.0276C41.0966 59.8712 40.5963 59.3084 40.4713 58.5267V58.4954C40.4713 58.3703 40.5651 58.2765 40.6901 58.2765H41.2217C41.3155 58.2765 41.4093 58.3391 41.4405 58.4641C41.5343 58.9331 41.8157 59.2771 42.6288 59.2771C43.2228 59.2771 43.6606 58.9332 43.6606 58.4329C43.6606 57.9326 43.3792 57.745 42.5037 57.5887C41.1904 57.4323 40.5651 57.0258 40.5651 55.994C40.5651 55.2123 41.1591 54.5869 42.0971 54.4618V53.7427C42.1284 53.5863 42.2222 53.4925 42.3473 53.4925H42.8164C42.9727 53.5238 43.0665 53.6176 43.0665 53.7427V54.4931C43.7856 54.5556 44.3484 55.0872 44.4735 55.7751V55.8064C44.4735 55.9314 44.3797 56.0252 44.2546 56.0252H43.7544C43.6606 56.0252 43.5668 55.9627 43.5355 55.8689C43.3792 55.3999 43.0665 55.2123 42.5037 55.2123C41.8783 55.2123 41.5656 55.4936 41.5656 55.9314C41.5656 56.3692 41.7532 56.6193 42.6913 56.7444Z" fill="url(#paint31_linear)" fill-opacity="0.9"/>
<defs>
<filter id="filter0_f" x="0.443766" y="21.936" width="90.4838" height="78.8001" filterUnits="userSpaceOnUse" color-interpolation-filters="sRGB">
<feFlood flood-opacity="0" result="BackgroundImageFix"/>
<feBlend mode="normal" in="SourceGraphic" in2="BackgroundImageFix" result="shape"/>
<feGaussianBlur stdDeviation="11.6824" result="effect1_foregroundBlur"/>
</filter>
<filter id="filter1_f" x="0.930094" y="0.656656" width="88.2703" height="103.332" filterUnits="userSpaceOnUse" color-interpolation-filters="sRGB">
<feFlood flood-opacity="0" result="BackgroundImageFix"/>
<feBlend mode="normal" in="SourceGraphic" in2="BackgroundImageFix" result="shape"/>
<feGaussianBlur stdDeviation="11.6824" result="effect1_foregroundBlur"/>
</filter>
<linearGradient id="paint0_linear" x1="68.2794" y1="60.1622" x2="23.7203" y2="62.7146" gradientUnits="userSpaceOnUse">
<stop stop-color="#1E7ED7"/>
<stop offset="1" stop-color="#1E41D7"/>
</linearGradient>
<linearGradient id="paint1_linear" x1="67.1366" y1="53.4469" x2="24.4244" y2="51.0004" gradientUnits="userSpaceOnUse">
<stop stop-color="#1E7ED7"/>
<stop offset="1" stop-color="#1E41D7"/>
</linearGradient>
<linearGradient id="paint2_linear" x1="62.8302" y1="39.1165" x2="21.2623" y2="59.9664" gradientUnits="userSpaceOnUse">
<stop offset="0.31071" stop-color="#213C95" stop-opacity="0.78"/>
<stop offset="0.440919" stop-color="#98A4F1"/>
<stop offset="0.6974" stop-color="#393DE7"/>
<stop offset="0.818309" stop-color="#6857E9" stop-opacity="0.08"/>
</linearGradient>
<linearGradient id="paint3_linear" x1="27.3346" y1="34.5073" x2="60.4754" y2="74.2203" gradientUnits="userSpaceOnUse">
<stop offset="0.0438972" stop-color="#0A0F28"/>
<stop offset="0.213034" stop-color="#130B1E" stop-opacity="0.5"/>
<stop offset="1" stop-color="#061042"/>
</linearGradient>
<linearGradient id="paint4_linear" x1="62.8302" y1="39.1165" x2="21.2623" y2="59.9664" gradientUnits="userSpaceOnUse">
<stop offset="0.31071" stop-color="#213C95" stop-opacity="0.78"/>
<stop offset="0.440919" stop-color="#98A4F1"/>
<stop offset="0.6974" stop-color="#393DE7"/>
<stop offset="0.818309" stop-color="#6857E9" stop-opacity="0.08"/>
</linearGradient>
<linearGradient id="paint5_linear" x1="27.3346" y1="34.5073" x2="60.4754" y2="74.2203" gradientUnits="userSpaceOnUse">
<stop offset="0.0438972" stop-color="#0A0F28"/>
<stop offset="0.213034" stop-color="#130B1E" stop-opacity="0.5"/>
<stop offset="1" stop-color="#061042"/>
</linearGradient>
<linearGradient id="paint6_linear" x1="53.6342" y1="38.0295" x2="32.5508" y2="65.0543" gradientUnits="userSpaceOnUse">
<stop offset="0.19917" stop-color="#0E1D68" stop-opacity="0.87"/>
<stop offset="0.434645" stop-color="#63FFFF" stop-opacity="0.49"/>
<stop offset="0.866181" stop-color="#86D1FB" stop-opacity="0.34"/>
<stop offset="1" stop-color="#0F1847" stop-opacity="0.62"/>
</linearGradient>
<linearGradient id="paint7_linear" x1="29.3663" y1="58.5327" x2="64.4608" y2="66.503" gradientUnits="userSpaceOnUse">
<stop stop-color="#070F35"/>
<stop offset="0.0600316" stop-color="#172A6F" stop-opacity="0.185071"/>
<stop offset="0.167396" stop-color="#1B307C" stop-opacity="0"/>
<stop offset="0.602331" stop-color="#1B307C" stop-opacity="0.14"/>
<stop offset="0.856481" stop-color="#070F35"/>
</linearGradient>
<linearGradient id="paint8_linear" x1="41.5453" y1="74.3186" x2="52.0527" y2="42.916" gradientUnits="userSpaceOnUse">
<stop offset="0.120618" stop-color="#1BCCF2" stop-opacity="0.72"/>
<stop offset="0.245674" stop-color="#1BCCF2" stop-opacity="0.38"/>
<stop offset="0.47782" stop-color="#1BCCF2" stop-opacity="0.36"/>
<stop offset="0.855882" stop-color="#6BFFB8" stop-opacity="0.71"/>
</linearGradient>
<linearGradient id="paint9_linear" x1="32.8359" y1="45.534" x2="35.8996" y2="52.2029" gradientUnits="userSpaceOnUse">
<stop offset="0.289954" stop-color="#B3EFFA"/>
<stop offset="0.985103" stop-color="#2BA4D8" stop-opacity="0"/>
</linearGradient>
<linearGradient id="paint10_linear" x1="31.4615" y1="48.3398" x2="40.099" y2="58.9953" gradientUnits="userSpaceOnUse">
<stop offset="0.135403" stop-color="#B3EFFA"/>
<stop offset="0.985103" stop-color="#2BA4D8" stop-opacity="0"/>
</linearGradient>
<linearGradient id="paint11_linear" x1="34.7617" y1="65.358" x2="41.7914" y2="63.2497" gradientUnits="userSpaceOnUse">
<stop offset="0.289954" stop-color="#B3EFFA"/>
<stop offset="0.985103" stop-color="#2BA4D8" stop-opacity="0"/>
</linearGradient>
<linearGradient id="paint12_linear" x1="41.0281" y1="48.2515" x2="37.9507" y2="55.5022" gradientUnits="userSpaceOnUse">
<stop stop-color="#76DEFF"/>
<stop offset="0.76136" stop-color="#2B8FD8" stop-opacity="0"/>
</linearGradient>
<linearGradient id="paint13_linear" x1="32.961" y1="59.287" x2="42.5462" y2="55.5947" gradientUnits="userSpaceOnUse">
<stop offset="0.143213" stop-color="#B3EFFA"/>
<stop offset="0.942412" stop-color="#2BA4D8" stop-opacity="0"/>
</linearGradient>
<linearGradient id="paint14_linear" x1="54.0594" y1="65.7233" x2="47.893" y2="57.5083" gradientUnits="userSpaceOnUse">
<stop offset="0.143213" stop-color="#B3EFFA"/>
<stop offset="0.942412" stop-color="#2BA4D8" stop-opacity="0"/>
</linearGradient>
<linearGradient id="paint15_linear" x1="43.0886" y1="47.4116" x2="34.7512" y2="53.4116" gradientUnits="userSpaceOnUse">
<stop offset="0.143213" stop-color="#B3EFFA"/>
<stop offset="0.942412" stop-color="#2BA4D8" stop-opacity="0"/>
</linearGradient>
<linearGradient id="paint16_linear" x1="46.4932" y1="71.203" x2="45.8631" y2="63.221" gradientUnits="userSpaceOnUse">
<stop offset="0.117431" stop-color="#B7F4FF"/>
<stop offset="1" stop-color="#2BA4D8" stop-opacity="0"/>
</linearGradient>
<linearGradient id="paint17_linear" x1="46.4932" y1="59.0106" x2="45.863" y2="66.9926" gradientUnits="userSpaceOnUse">
<stop offset="0.0315517" stop-color="#B3EFFA"/>
<stop offset="1" stop-color="#2BA4D8" stop-opacity="0"/>
</linearGradient>
<linearGradient id="paint18_linear" x1="47.7538" y1="55.1006" x2="35.6505" y2="63.823" gradientUnits="userSpaceOnUse">
<stop stop-color="#76DEFF"/>
<stop offset="1" stop-color="#2B8FD8" stop-opacity="0"/>
</linearGradient>
<linearGradient id="paint19_linear" x1="49.029" y1="68.1722" x2="48.3973" y2="76.0198" gradientUnits="userSpaceOnUse">
<stop stop-color="#12144E"/>
<stop offset="0.586049" stop-color="#410093" stop-opacity="0.51"/>
</linearGradient>
<linearGradient id="paint20_linear" x1="42.7716" y1="68.8276" x2="42.2081" y2="75.8285" gradientUnits="userSpaceOnUse">
<stop stop-color="#12144E"/>
<stop offset="0.586049" stop-color="#410093" stop-opacity="0.51"/>
</linearGradient>
<linearGradient id="paint21_linear" x1="38.2781" y1="71.5102" x2="37.7146" y2="78.511" gradientUnits="userSpaceOnUse">
<stop stop-color="#12144E"/>
<stop offset="0.586049" stop-color="#410093" stop-opacity="0.51"/>
</linearGradient>
<linearGradient id="paint22_linear" x1="24.9521" y1="62.8449" x2="38.6933" y2="52.6896" gradientUnits="userSpaceOnUse">
<stop stop-color="#12144E"/>
<stop offset="0.586049" stop-color="#410093" stop-opacity="0.51"/>
</linearGradient>
<linearGradient id="paint23_linear" x1="36.2095" y1="70.5266" x2="36.7807" y2="75.2469" gradientUnits="userSpaceOnUse">
<stop offset="0.129707" stop-color="#12144E"/>
<stop offset="0.586049" stop-color="#410093" stop-opacity="0.51"/>
</linearGradient>
<linearGradient id="paint24_linear" x1="28.452" y1="36.4981" x2="32.0392" y2="44.046" gradientUnits="userSpaceOnUse">
<stop stop-color="#12144E"/>
<stop offset="0.483447" stop-color="#410093" stop-opacity="0.51"/>
</linearGradient>
<linearGradient id="paint25_linear" x1="28.452" y1="36.4981" x2="32.0392" y2="44.046" gradientUnits="userSpaceOnUse">
<stop stop-color="#12144E"/>
<stop offset="0.483447" stop-color="#410093" stop-opacity="0.51"/>
</linearGradient>
<linearGradient id="paint26_linear" x1="33.1995" y1="47.5745" x2="22.2677" y2="42.6173" gradientUnits="userSpaceOnUse">
<stop offset="0.106676" stop-color="#12144E" stop-opacity="0.36"/>
<stop offset="0.879434" stop-color="#230C42" stop-opacity="0.42"/>
</linearGradient>
<linearGradient id="paint27_linear" x1="34.1624" y1="40.7459" x2="37.8945" y2="37.6457" gradientUnits="userSpaceOnUse">
<stop offset="0.0117096" stop-color="#410093" stop-opacity="0.51"/>
<stop offset="0.605749" stop-color="#12144E"/>
</linearGradient>
<linearGradient id="paint28_linear" x1="52.3221" y1="54.0298" x2="52.8856" y2="47.029" gradientUnits="userSpaceOnUse">
<stop stop-color="#12144E"/>
<stop offset="0.586049" stop-color="#410093" stop-opacity="0.51"/>
</linearGradient>
<linearGradient id="paint29_linear" x1="33.8285" y1="62.0965" x2="28.4797" y2="66.6484" gradientUnits="userSpaceOnUse">
<stop stop-color="#12144E"/>
<stop offset="0.586049" stop-color="#410093" stop-opacity="0.51"/>
</linearGradient>
<linearGradient id="paint30_linear" x1="33.5564" y1="67.5155" x2="32.9929" y2="74.5164" gradientUnits="userSpaceOnUse">
<stop stop-color="#12144E"/>
<stop offset="0.586049" stop-color="#410093" stop-opacity="0.51"/>
</linearGradient>
<linearGradient id="paint31_linear" x1="36.9541" y1="48.5927" x2="46.7573" y2="64.481" gradientUnits="userSpaceOnUse">
<stop offset="0.192664" stop-color="#99CEFF" stop-opacity="0.21"/>
<stop offset="0.415531" stop-color="#99F9FF" stop-opacity="0.78"/>
<stop offset="0.668153" stop-color="white" stop-opacity="0.6"/>
<stop offset="0.932383" stop-color="#EAEAEA" stop-opacity="0.49"/>
</linearGradient>
</defs>
</svg>
