<svg width="108" height="83" viewBox="0 0 108 83" fill="none" xmlns="http://www.w3.org/2000/svg">
<g filter="url(#filter0_f)">
<path d="M61.3648 26.729L68.1451 28.6165L70.1283 30.6117L69.7397 32.0082L70.9897 35.1314L75.747 39.8994L75.5224 40.7063L80.0787 47.4246L79.3755 48.232L80.8929 49.6574L84.1455 50.8222L84.9374 52.8909L82.5931 54.3566L82.5273 57.8149L81.0483 58.595L78.5956 57.9124L71.0351 58.5502L65.8162 59.3716L58.7967 57.8194L57.4726 56.6818L48.011 55.5534L36.5204 50.4163L33.1769 47.4461L33.7937 46.949L31.3329 40.7925L27.4396 37.3564L28.6936 36.535L26.7324 35.7218L27.7375 32.1101L23.6141 27.0296L25 24.5062L29.9538 24.1461L30.7637 23.2012L42.0976 25.9541L47.4501 27.1093L52.2883 26.182L55.2069 26.9942L56.608 26.381L61.3648 26.729Z" fill="url(#paint0_linear)"/>
</g>
<path d="M55.9383 22.0234L60.0948 22.0241L61.539 23.7029V25.4532L62.7447 28.6814L66.2063 32.6874V33.6987L69.8623 40.0383L69.59 41.2052L70.679 42.372L72.714 42.674L73.4921 44.8239L72.3904 47.2877L72.9005 51.3315L72.1826 52.7177H70.679L66.4785 55.907L63.6393 58.5518L59.3998 59.0185L58.4664 58.124L52.9046 59.8742L45.5537 57.6183L43.1811 55.2458L43.4534 54.4679L41.0785 48.1034L38.3194 45.3668L38.9028 44.0055L37.6582 43.6944V39.168L34.5078 34.5932L34.8968 31.2094L37.6582 29.187L37.9694 27.8257L44.8536 27.359L48.0818 26.97L50.6876 24.3252H52.4768L53.1768 23.1584L55.9383 22.0234Z" fill="#09340A" fill-opacity="0.17"/>
<path d="M55.9383 22.0234L60.0948 22.0241L61.539 23.7029V25.4532L62.7447 28.6814L66.2063 32.6874V33.6987L69.8623 40.0383L69.59 41.2052L70.6791 42.372L72.714 42.674L73.4921 44.8239L72.3904 47.2877L72.9005 51.3315L72.1826 52.7177H70.6791L66.4785 55.907L63.6393 58.5518L59.3999 59.0185L58.4664 58.124L52.9046 59.8742L45.5537 57.6183L43.1811 55.2458L43.4534 54.4679L41.0785 48.1034L38.3194 45.3668L38.9028 44.0055L37.6582 43.6944V39.168L34.5078 34.5932L34.8968 31.2094L37.6582 29.187L37.9694 27.8257L44.8536 27.359L48.0818 26.97L50.6876 24.3252H52.4768L53.1768 23.1584L55.9383 22.0234Z" fill="url(#paint1_linear)" fill-opacity="0.48"/>
<path d="M55.9556 30.9363L49.5888 31.9684L47.6436 36.3393L42.859 38.4561L41.4566 44.0111L45.4878 45.6827L46.2864 48.1637L46.1288 51.1322L49.644 53.1562L52.2006 51.7714L57.1797 53.0735L63.4919 50.1735L64.8767 47.7235L64.2376 42.5039L61.5745 41.1191L58.9115 39.6278L60.8289 38.4561L59.5506 35.793L56.8876 34.9408L55.9556 30.9363Z" fill="url(#paint2_linear)" fill-opacity="0.48"/>
<path d="M63.0093 33.9046H60.638L55.9556 30.9363L53.1287 26.9804L48.0818 26.97L49.5888 31.9684L41.5547 30.9363L48.0818 26.97L53.1287 26.9804L52.4768 24.3252L58.7603 26.2563L62.0492 32.3391L66.2063 33.6987L63.0093 36.9679L66.27 39.0429L67.8509 44.3785L69.4318 49.5164L64.2446 42.5497L66.27 39.0429L63.0093 36.9679V33.9046Z" fill="url(#paint3_linear)" fill-opacity="0.48"/>
<path d="M52.4768 24.3252L53.1768 23.1584L55.9383 22.0234L60.0948 22.0241L61.539 23.7029M52.4768 24.3252H50.6876L48.0818 26.97M52.4768 24.3252L58.7603 26.2563M52.4768 24.3252L53.1287 26.9804M48.0818 26.97L44.8536 27.359L37.9694 27.8257M48.0818 26.97L53.1287 26.9804M48.0818 26.97L49.5888 31.9684M48.0818 26.97L41.5547 30.9363M37.9694 27.8257L37.6582 29.187L34.8968 31.2094M37.9694 27.8257L41.5547 30.9363M34.8968 31.2094L34.5078 34.5932M34.8968 31.2094L40.0221 36.2616M34.5078 34.5932L37.6582 39.168V43.6944M34.5078 34.5932L40.0221 36.2616M37.6582 43.6944L38.9028 44.0055M37.6582 43.6944L40.0221 39.4116V36.2616M38.9028 44.0055L38.3194 45.3668M38.9028 44.0055L41.4566 44.0111M38.3194 45.3668L41.0785 48.1034L43.4534 54.4679M38.3194 45.3668L41.4566 44.0111M43.4534 54.4679L43.1811 55.2458L45.5537 57.6183L52.9046 59.8742L58.4664 58.124M43.4534 54.4679L45.9477 54.5716M58.4664 58.124L59.3999 59.0185L63.6393 58.5518L66.4785 55.907L70.6791 52.7177H72.1826L72.9005 51.3315M58.4664 58.124L53.8708 56.5154M69.8623 40.0383L69.59 41.2052L70.6791 42.372L72.714 42.674L73.4921 44.8239L72.3904 47.2877M69.8623 40.0383L66.2063 33.6987M69.8623 40.0383L66.27 39.0429M66.2063 33.6987V32.6874L62.7447 28.6814M66.2063 33.6987L62.0492 32.3391L58.7603 26.2563M66.2063 33.6987L63.0093 36.9679M62.7447 28.6814L61.539 25.4532V23.7029M62.7447 28.6814L58.7603 26.2563M61.539 23.7029L58.7603 26.2563M72.9005 51.3315L72.3904 47.2877M72.9005 51.3315L69.4318 49.5164M72.3904 47.2877L67.8509 44.3785M49.5888 31.9684L55.9556 30.9363M49.5888 31.9684L47.6436 36.3393L42.859 38.4561M49.5888 31.9684L41.5547 30.9363M55.9556 30.9363L56.8876 34.9408L59.5506 35.793L60.8289 38.4561M55.9556 30.9363L60.638 33.9046H63.0093V36.9679M55.9556 30.9363L53.1287 26.9804M55.9556 30.9363L58.7603 26.2563M60.8289 38.4561L58.9115 39.6278L61.5745 41.1191L64.2376 42.5039L64.8767 47.7235L63.4919 50.1735M60.8289 38.4561L63.0093 36.9679M63.4919 50.1735L57.1797 53.0735M63.4919 50.1735L67.1592 52.283M57.1797 53.0735L52.2006 51.7714M57.1797 53.0735L62.3095 58.6059L67.1592 52.283M57.1797 53.0735L53.8708 56.5154M52.2006 51.7714L49.644 53.1562L46.1288 51.1322M52.2006 51.7714L53.8708 56.5154M46.1288 51.1322L46.2864 48.1637L45.4878 45.6827L41.4566 44.0111M46.1288 51.1322L45.9477 54.5716M41.4566 44.0111L42.859 38.4561M42.859 38.4561L40.0221 36.2616M63.0093 36.9679L66.27 39.0429M66.27 39.0429L67.8509 44.3785M66.27 39.0429L64.2446 42.5497L69.4318 49.5164M67.8509 44.3785L69.4318 49.5164M69.4318 49.5164L67.1592 52.283M53.8708 56.5154L51.4531 57.7243L45.9477 54.5716M41.5547 30.9363L40.0221 36.2616" stroke="url(#paint4_linear)" stroke-width="0.316581"/>
<path d="M52.4768 24.3252L53.1768 23.1584L55.9383 22.0234L60.0948 22.0241L61.539 23.7029M52.4768 24.3252H50.6876L48.0818 26.97M52.4768 24.3252L58.7603 26.2563M52.4768 24.3252L53.1287 26.9804M48.0818 26.97L44.8536 27.359L37.9694 27.8257M48.0818 26.97L53.1287 26.9804M48.0818 26.97L49.5888 31.9684M48.0818 26.97L41.5547 30.9363M37.9694 27.8257L37.6582 29.187L34.8968 31.2094M37.9694 27.8257L41.5547 30.9363M34.8968 31.2094L34.5078 34.5932M34.8968 31.2094L40.0221 36.2616M34.5078 34.5932L37.6582 39.168V43.6944M34.5078 34.5932L40.0221 36.2616M37.6582 43.6944L38.9028 44.0055M37.6582 43.6944L40.0221 39.4116V36.2616M38.9028 44.0055L38.3194 45.3668M38.9028 44.0055L41.4566 44.0111M38.3194 45.3668L41.0785 48.1034L43.4534 54.4679M38.3194 45.3668L41.4566 44.0111M43.4534 54.4679L43.1811 55.2458L45.5537 57.6183L52.9046 59.8742L58.4664 58.124M43.4534 54.4679L45.9477 54.5716M58.4664 58.124L59.3999 59.0185L63.6393 58.5518L66.4785 55.907L70.6791 52.7177H72.1826L72.9005 51.3315M58.4664 58.124L53.8708 56.5154M69.8623 40.0383L69.59 41.2052L70.6791 42.372L72.714 42.674L73.4921 44.8239L72.3904 47.2877M69.8623 40.0383L66.2063 33.6987M69.8623 40.0383L66.27 39.0429M66.2063 33.6987V32.6874L62.7447 28.6814M66.2063 33.6987L62.0492 32.3391L58.7603 26.2563M66.2063 33.6987L63.0093 36.9679M62.7447 28.6814L61.539 25.4532V23.7029M62.7447 28.6814L58.7603 26.2563M61.539 23.7029L58.7603 26.2563M72.9005 51.3315L72.3904 47.2877M72.9005 51.3315L69.4318 49.5164M72.3904 47.2877L67.8509 44.3785M49.5888 31.9684L55.9556 30.9363M49.5888 31.9684L47.6436 36.3393L42.859 38.4561M49.5888 31.9684L41.5547 30.9363M55.9556 30.9363L56.8876 34.9408L59.5506 35.793L60.8289 38.4561M55.9556 30.9363L60.638 33.9046H63.0093V36.9679M55.9556 30.9363L53.1287 26.9804M55.9556 30.9363L58.7603 26.2563M60.8289 38.4561L58.9115 39.6278L61.5745 41.1191L64.2376 42.5039L64.8767 47.7235L63.4919 50.1735M60.8289 38.4561L63.0093 36.9679M63.4919 50.1735L57.1797 53.0735M63.4919 50.1735L67.1592 52.283M57.1797 53.0735L52.2006 51.7714M57.1797 53.0735L62.3095 58.6059L67.1592 52.283M57.1797 53.0735L53.8708 56.5154M52.2006 51.7714L49.644 53.1562L46.1288 51.1322M52.2006 51.7714L53.8708 56.5154M46.1288 51.1322L46.2864 48.1637L45.4878 45.6827L41.4566 44.0111M46.1288 51.1322L45.9477 54.5716M41.4566 44.0111L42.859 38.4561M42.859 38.4561L40.0221 36.2616M63.0093 36.9679L66.27 39.0429M66.27 39.0429L67.8509 44.3785M66.27 39.0429L64.2446 42.5497L69.4318 49.5164M67.8509 44.3785L69.4318 49.5164M69.4318 49.5164L67.1592 52.283M53.8708 56.5154L51.4531 57.7243L45.9477 54.5716M41.5547 30.9363L40.0221 36.2616" stroke="url(#paint5_linear)" stroke-opacity="0.72" stroke-width="0.316581"/>
<path opacity="0.4" d="M53.8193 56.4844L51.7088 53.5732H46.8873L45.85 54.4819L46.071 51.1314L49.6614 53.1711L52.1553 51.8264L53.8193 56.4844Z" fill="url(#paint6_linear)"/>
<path opacity="0.3" d="M53.9283 56.2926L58.3174 58.0391L54.5109 57.3895L51.4344 57.6373L53.9283 56.2926Z" fill="url(#paint7_linear)"/>
<path opacity="0.4" d="M59.0146 26.214L61.3644 24.1578V25.5506L62.5518 28.4961L59.0146 26.214Z" fill="url(#paint8_linear)"/>
<path opacity="0.5" d="M53.0446 59.7989L45.7673 57.8138L43.1504 55.2461L46.3898 57.2746L50.7861 58.938L57.9558 58.0781L53.0446 59.7989Z" fill="url(#paint9_linear)"/>
<path opacity="0.5" d="M43.5982 54.5946L41.1877 48.0522L38.3213 45.4883L42.106 46.4449L42.9095 50.6924L45.8174 54.5946L43.5982 54.5946Z" fill="url(#paint10_linear)"/>
<path opacity="0.6" d="M57.3696 53.1554L62.5283 58.7656L57.0354 55.3926L54.3852 55.9707L57.3696 53.1554Z" fill="url(#paint11_linear)"/>
<path opacity="0.6" d="M66.3659 39.2764L69.7695 40.0684L67.705 40.7149L67.8965 44.3867L66.3659 39.2764Z" fill="url(#paint12_linear)"/>
<path opacity="0.3" d="M63.3643 50.3892L66.9238 52.332L63.0943 51.594L57.5418 53.2488L63.3643 50.3892Z" fill="url(#paint13_linear)"/>
<path d="M56.0358 31.0039L49.6444 31.9623L47.644 36.3434L42.8594 38.4602L41.457 44.0153L45.4882 45.6868L46.2868 48.1679L46.1292 51.1363L49.6444 53.1603L52.201 51.7755L57.4206 53.1603L63.4923 50.1776L64.8771 47.7276L64.238 42.508L61.5749 41.1232L58.9119 39.6319L60.8293 38.4602L59.551 35.7971L56.888 34.9449L56.0358 31.0039Z" fill="url(#paint14_linear)"/>
<path d="M47.7597 36.4943L49.6993 32.1198L55.8507 31.1211C55.8507 31.1211 51.0156 32.219 50.2173 32.6768C49.4189 33.1347 47.7597 36.4943 47.7597 36.4943Z" fill="url(#paint15_linear)"/>
<path d="M41.8239 43.1941L42.9931 38.5731L47.7731 36.457C47.7731 36.457 45.028 37.6917 43.8057 38.7438C42.9016 39.522 42.1527 41.9712 41.8239 43.1941L41.6445 43.9032C41.6445 43.9032 41.7082 43.6247 41.8239 43.1941Z" fill="url(#paint16_linear)"/>
<path d="M47.7608 36.4098L47.7608 36.4094L52.3719 38.7668L58.5989 39.6371C58.5989 39.6371 54.0759 39.4363 52.0676 39.4363C50.0592 39.4363 47.7608 36.4098 47.7608 36.4098Z" fill="url(#paint17_linear)"/>
<path d="M46.4329 48.1994C46.2518 47.4753 45.6184 45.5672 45.6184 45.5672L49.908 47.9452L52.1933 51.6035C52.1933 51.6035 48.7372 46.5926 46.4329 48.1994Z" fill="url(#paint18_linear)"/>
<path d="M63.1907 50.1394L57.1686 52.9102L52.1738 51.6003C52.1738 51.6003 54.8022 52.0931 57.878 51.6614C60.4439 51.3012 62.5597 50.4212 63.1907 50.1394L63.3828 50.051C63.3828 50.051 63.3161 50.0834 63.1907 50.1394Z" fill="url(#paint19_linear)"/>
<path d="M52.1807 51.6098L49.6403 53.1562L46.1916 51.1294C46.1916 51.1294 48.8564 52.2764 49.6403 52.3666C50.4241 52.4568 52.1807 51.6098 52.1807 51.6098Z" fill="url(#paint20_linear)"/>
<path d="M64.7476 47.7543L57.2472 45.765C57.2472 45.765 62.5402 46.9685 63.5361 46.2637C64.3379 45.6962 64.2028 43.7109 64.1197 42.9585L64.0825 42.6665C64.0825 42.6665 64.0996 42.7764 64.1197 42.9585L64.4724 45.727L64.7476 47.7543Z" fill="url(#paint21_linear)"/>
<path opacity="0.3" d="M58.0356 39.3286L47.7591 36.4566C47.7591 36.4566 52.7601 36.9388 53.756 36.2339C54.751 35.5297 55.7743 31.2249 55.7761 31.2175C55.7742 31.2255 54.6569 35.9025 55.1067 37.2717C55.4721 38.3835 57.1397 39.0466 58.0356 39.3286L58.6088 39.4888C58.6088 39.4888 58.3789 39.4367 58.0356 39.3286Z" fill="url(#paint22_linear)"/>
<path d="M52.1994 51.6162L56.4938 45.5976L64.7185 47.6959C64.7185 47.6959 59.2045 46.7371 57.921 46.8663C56.6376 46.9954 52.1994 51.6162 52.1994 51.6162Z" fill="url(#paint23_linear)"/>
<path d="M56.7613 35.0625L55.8418 31.1172C55.8418 31.1172 56.5238 33.843 57.5763 35.3248L59.4337 35.9227L60.4829 38.1028C60.581 38.2854 60.6265 38.4012 60.6265 38.4012L60.4829 38.1028C60.2237 37.6203 59.5976 36.6717 58.4754 36.1625C58.154 36.0166 57.8524 35.7135 57.5763 35.3248L56.7613 35.0625Z" fill="url(#paint24_linear)"/>
<g opacity="0.7">
<path fill-rule="evenodd" clip-rule="evenodd" d="M47.2913 36.3003L44.4677 42.2094C44.4569 42.2313 44.4535 42.2562 44.4579 42.2802C44.4624 42.3042 44.4744 42.3262 44.4923 42.343L52.1183 49.6234C52.14 49.6441 52.1688 49.6557 52.1989 49.6557C52.2289 49.6557 52.2577 49.6441 52.2794 49.6234L59.9054 42.3434C59.9233 42.3267 59.9353 42.3047 59.9398 42.2807C59.9442 42.2566 59.9408 42.2318 59.93 42.2098L57.1064 36.3007C57.0973 36.2809 57.0826 36.2641 57.0642 36.2523C57.0457 36.2406 57.0243 36.2343 57.0024 36.2344H47.3963C47.3742 36.2341 47.3526 36.2402 47.334 36.2519C47.3154 36.2636 47.3006 36.2804 47.2913 36.3003Z" fill="url(#paint25_linear)"/>
<path fill-rule="evenodd" clip-rule="evenodd" d="M53.1778 42.8157C53.123 42.8197 52.8401 42.8366 52.2092 42.8366C51.7073 42.8366 51.351 42.8216 51.226 42.8157C49.2865 42.7307 47.8389 42.3943 47.8389 41.9916C47.8389 41.5888 49.2865 41.2529 51.226 41.1666V42.4807C51.3528 42.4897 51.716 42.5111 52.2178 42.5111C52.8201 42.5111 53.1216 42.4861 53.1759 42.4811V41.1675C55.1113 41.2534 56.5558 41.5898 56.5558 41.9916C56.5558 42.3934 55.1118 42.7297 53.1759 42.8152L53.1778 42.8157ZM53.1778 41.0316V39.8557H55.8787V38.0625H48.525V39.8557H51.2255V41.0311C49.0306 41.1316 47.3799 41.5648 47.3799 42.0838C47.3799 42.6029 49.0306 43.0357 51.2255 43.1366V46.9047H53.1773V43.1352C55.3672 43.0347 57.0152 42.602 57.0152 42.0834C57.0152 41.5648 55.3686 41.132 53.1773 41.0311L53.1778 41.0316Z" fill="url(#paint26_linear)"/>
</g>
<defs>
<filter id="filter0_f" x="0.820421" y="0.407335" width="106.911" height="81.7581" filterUnits="userSpaceOnUse" color-interpolation-filters="sRGB">
<feFlood flood-opacity="0" result="BackgroundImageFix"/>
<feBlend mode="normal" in="SourceGraphic" in2="BackgroundImageFix" result="shape"/>
<feGaussianBlur stdDeviation="11.3969" result="effect1_foregroundBlur"/>
</filter>
<linearGradient id="paint0_linear" x1="89.2265" y1="37.4788" x2="36.4985" y2="70.9338" gradientUnits="userSpaceOnUse">
<stop offset="0.0575941" stop-color="#0B8F30" stop-opacity="0.24"/>
<stop offset="0.386773" stop-color="#0B8F30"/>
<stop offset="0.798239" stop-color="#09521D"/>
<stop offset="0.939952" stop-color="#0D4F1F" stop-opacity="0.23"/>
</linearGradient>
<linearGradient id="paint1_linear" x1="73.4921" y1="25.5084" x2="30.8786" y2="48.6791" gradientUnits="userSpaceOnUse">
<stop offset="0.0575941" stop-color="#0B8F30" stop-opacity="0.24"/>
<stop offset="0.386773" stop-color="#0B8F30"/>
<stop offset="0.798239" stop-color="#09521D"/>
<stop offset="0.939952" stop-color="#0D4F1F" stop-opacity="0.23"/>
</linearGradient>
<linearGradient id="paint2_linear" x1="73.4921" y1="25.5084" x2="30.8786" y2="48.6791" gradientUnits="userSpaceOnUse">
<stop offset="0.0575941" stop-color="#0B8F30" stop-opacity="0.24"/>
<stop offset="0.386773" stop-color="#0B8F30"/>
<stop offset="0.798239" stop-color="#09521D"/>
<stop offset="0.939952" stop-color="#0D4F1F" stop-opacity="0.23"/>
</linearGradient>
<linearGradient id="paint3_linear" x1="73.4921" y1="25.5084" x2="30.8786" y2="48.6791" gradientUnits="userSpaceOnUse">
<stop offset="0.0575941" stop-color="#0B8F30" stop-opacity="0.24"/>
<stop offset="0.386773" stop-color="#0B8F30"/>
<stop offset="0.798239" stop-color="#09521D"/>
<stop offset="0.939952" stop-color="#0D4F1F" stop-opacity="0.23"/>
</linearGradient>
<linearGradient id="paint4_linear" x1="63.733" y1="24.4443" x2="48.0966" y2="54.0838" gradientUnits="userSpaceOnUse">
<stop offset="0.203125" stop-color="#0E3C31" stop-opacity="0.87"/>
<stop offset="0.427083" stop-color="#44FFB0" stop-opacity="0.49"/>
<stop offset="0.671875" stop-color="#35FFAA" stop-opacity="0.813997"/>
<stop offset="1" stop-color="#0E3C31" stop-opacity="0.62"/>
</linearGradient>
<linearGradient id="paint5_linear" x1="42.0221" y1="50.85" x2="72.742" y2="42.7693" gradientUnits="userSpaceOnUse">
<stop stop-color="#072C0D"/>
<stop offset="0.167396" stop-color="#09640D" stop-opacity="0"/>
<stop offset="0.602331" stop-color="#09640D" stop-opacity="0"/>
<stop offset="0.852274" stop-color="#072C0D"/>
</linearGradient>
<linearGradient id="paint6_linear" x1="50.1729" y1="51.1316" x2="48.4588" y2="56.9175" gradientUnits="userSpaceOnUse">
<stop stop-color="#3C0E86"/>
<stop offset="0.68449" stop-color="#2B3DE2" stop-opacity="0"/>
</linearGradient>
<linearGradient id="paint7_linear" x1="51.9459" y1="55.5979" x2="50.2319" y2="61.3838" gradientUnits="userSpaceOnUse">
<stop stop-color="#0E3486" stop-opacity="0.7"/>
<stop offset="1" stop-color="#2B3DE2" stop-opacity="0.51"/>
</linearGradient>
<linearGradient id="paint8_linear" x1="57.0322" y1="25.5195" x2="55.3181" y2="31.3054" gradientUnits="userSpaceOnUse">
<stop stop-color="#0E3486" stop-opacity="0.7"/>
<stop offset="1" stop-color="#2B3DE2" stop-opacity="0.51"/>
</linearGradient>
<linearGradient id="paint9_linear" x1="51.0361" y1="61.2769" x2="53.6783" y2="53.2764" gradientUnits="userSpaceOnUse">
<stop stop-color="#67860E" stop-opacity="0.7"/>
<stop offset="0.537332" stop-color="#B2E22B" stop-opacity="0.03"/>
</linearGradient>
<linearGradient id="paint10_linear" x1="39.5982" y1="53.8769" x2="49.3421" y2="48.2248" gradientUnits="userSpaceOnUse">
<stop stop-color="#67860E" stop-opacity="0.7"/>
<stop offset="0.584272" stop-color="#B2E22B" stop-opacity="0.03"/>
</linearGradient>
<linearGradient id="paint11_linear" x1="56.9497" y1="52.6219" x2="54.3853" y2="59.2467" gradientUnits="userSpaceOnUse">
<stop stop-color="#204F1F"/>
<stop offset="1" stop-color="#0C3804" stop-opacity="0.51"/>
</linearGradient>
<linearGradient id="paint12_linear" x1="65.946" y1="38.7432" x2="63.3815" y2="45.368" gradientUnits="userSpaceOnUse">
<stop stop-color="#204F1F"/>
<stop offset="1" stop-color="#0C3804" stop-opacity="0.51"/>
</linearGradient>
<linearGradient id="paint13_linear" x1="61.3162" y1="51.2034" x2="62.7247" y2="57.0712" gradientUnits="userSpaceOnUse">
<stop stop-color="#0E3486" stop-opacity="0.7"/>
<stop offset="1" stop-color="#2B3DE2" stop-opacity="0.51"/>
</linearGradient>
<linearGradient id="paint14_linear" x1="50.9782" y1="57.8295" x2="58.9808" y2="25.8446" gradientUnits="userSpaceOnUse">
<stop stop-color="#4FFB6B" stop-opacity="0.63"/>
<stop offset="0.60414" stop-color="#1BF231" stop-opacity="0"/>
</linearGradient>
<linearGradient id="paint15_linear" x1="50.0915" y1="30.4276" x2="50.5465" y2="35.0767" gradientUnits="userSpaceOnUse">
<stop offset="0.289954" stop-color="#3DFF21"/>
<stop offset="1" stop-color="#41D82B" stop-opacity="0"/>
</linearGradient>
<linearGradient id="paint16_linear" x1="43.3854" y1="36.8809" x2="43.8403" y2="41.53" gradientUnits="userSpaceOnUse">
<stop offset="0.289954" stop-color="#3DFF21"/>
<stop offset="1" stop-color="#41D82B" stop-opacity="0"/>
</linearGradient>
<linearGradient id="paint17_linear" x1="52.6135" y1="36.6508" x2="48.9513" y2="45.1941" gradientUnits="userSpaceOnUse">
<stop offset="0.0856313" stop-color="#3DFF21"/>
<stop offset="0.708273" stop-color="#41D82B" stop-opacity="0"/>
</linearGradient>
<linearGradient id="paint18_linear" x1="49.9869" y1="45.8992" x2="49.521" y2="51.6453" gradientUnits="userSpaceOnUse">
<stop offset="0.0856313" stop-color="#3DFF21"/>
<stop offset="0.708273" stop-color="#41D82B" stop-opacity="0"/>
</linearGradient>
<linearGradient id="paint19_linear" x1="56.8613" y1="54.6684" x2="56.4064" y2="50.0193" gradientUnits="userSpaceOnUse">
<stop offset="0.289954" stop-color="#3DFF21"/>
<stop offset="1" stop-color="#41D82B" stop-opacity="0"/>
</linearGradient>
<linearGradient id="paint20_linear" x1="49.3291" y1="54.6733" x2="48.8742" y2="50.0242" gradientUnits="userSpaceOnUse">
<stop offset="0.289954" stop-color="#3DFF21"/>
<stop offset="1" stop-color="#41D82B" stop-opacity="0"/>
</linearGradient>
<linearGradient id="paint21_linear" x1="65.1558" y1="48.1876" x2="60.9312" y2="45.307" gradientUnits="userSpaceOnUse">
<stop offset="0.289954" stop-color="#3DFF21"/>
<stop offset="1" stop-color="#41D82B" stop-opacity="0"/>
</linearGradient>
<linearGradient id="paint22_linear" x1="53.0731" y1="38.1571" x2="48.8486" y2="35.2765" gradientUnits="userSpaceOnUse">
<stop offset="0.289954" stop-color="#21F2FF"/>
<stop offset="1" stop-color="#2BCED8" stop-opacity="0"/>
</linearGradient>
<linearGradient id="paint23_linear" x1="57.6928" y1="43.5893" x2="59.402" y2="50.3911" gradientUnits="userSpaceOnUse">
<stop offset="0.275602" stop-color="#41D82B" stop-opacity="0"/>
<stop offset="0.902134" stop-color="#3DFF21"/>
</linearGradient>
<linearGradient id="paint24_linear" x1="58.2354" y1="34.1436" x2="55.2697" y2="37.7527" gradientUnits="userSpaceOnUse">
<stop offset="0.289954" stop-color="#3DFF21"/>
<stop offset="1" stop-color="#41D82B" stop-opacity="0"/>
</linearGradient>
<linearGradient id="paint25_linear" x1="50.1694" y1="36.2344" x2="56.1714" y2="48.8979" gradientUnits="userSpaceOnUse">
<stop stop-color="#50AF95" stop-opacity="0.31"/>
<stop offset="0.222119" stop-color="#50AF95"/>
<stop offset="0.475616" stop-color="#50AF95" stop-opacity="0.758691"/>
<stop offset="0.755771" stop-color="#50AF95" stop-opacity="0.388314"/>
<stop offset="1" stop-color="#50AF95"/>
</linearGradient>
<linearGradient id="paint26_linear" x1="48.9679" y1="38.0625" x2="53.4454" y2="47.9248" gradientUnits="userSpaceOnUse">
<stop stop-color="white"/>
<stop offset="0.372968" stop-color="white" stop-opacity="0.453474"/>
<stop offset="0.710632" stop-color="white" stop-opacity="0.65827"/>
<stop offset="1" stop-color="white"/>
</linearGradient>
</defs>
</svg>
