<svg width="449" height="284" viewBox="0 0 449 284" fill="none" xmlns="http://www.w3.org/2000/svg">
<path fill-rule="evenodd" clip-rule="evenodd" d="M431.005 0L431.005 3H445.005V19H448.005V0.0186793L431.005 0Z" fill="url(#paint0_linear)"/>
<path fill-rule="evenodd" clip-rule="evenodd" d="M21.0039 3L21.0039 6H7.00415V22H4.00391V3.01868L21.0039 3Z" fill="url(#paint1_linear)"/>
<g opacity="0.5">
<path d="M439.505 24V24.5H440.005H447.505V283.5H22.5049V278V277.5H22.0049H8.50488V260V259.5H8.00488H0.504883V0.5H425.505V6V6.5H426.005H439.505V24Z" stroke="url(#paint2_linear)"/>
<path d="M439.505 24V24.5H440.005H447.505V283.5H22.5049V278V277.5H22.0049H8.50488V260V259.5H8.00488H0.504883V0.5H425.505V6V6.5H426.005H439.505V24Z" stroke="url(#paint3_linear)"/>
</g>
<path opacity="0.5" d="M435.505 27V27.5H436.005H443.505V256.5H438.005H437.505V257V274.5H422.005H421.505V275V280.5H26.5049V275V274.5H26.0049H12.5049V257V256.5H12.0049H4.50488V27.5H10.0049H10.5049V27V9.5H26.0049H26.5049V9V3.5H421.505V9V9.5H422.005H435.505V27Z" stroke="url(#paint4_linear)"/>
<path fill-rule="evenodd" clip-rule="evenodd" d="M17 284V281H3V265.001H-0.000204086V283.981L17 284Z" fill="url(#paint5_linear)"/>
<path fill-rule="evenodd" clip-rule="evenodd" d="M427 281L427 278H441V262H444V280.981L427 281Z" fill="url(#paint6_linear)"/>
<defs>
<linearGradient id="paint0_linear" x1="430.952" y1="18.8997" x2="449.876" y2="2.10922" gradientUnits="userSpaceOnUse">
<stop stop-color="#8F67FF" stop-opacity="0"/>
<stop offset="0.396674" stop-color="#8F67FF" stop-opacity="0"/>
<stop offset="0.81834" stop-color="#8F67FF"/>
</linearGradient>
<linearGradient id="paint1_linear" x1="21.0567" y1="21.8997" x2="2.13269" y2="5.10922" gradientUnits="userSpaceOnUse">
<stop stop-color="#8F67FF" stop-opacity="0"/>
<stop offset="0.396674" stop-color="#8F67FF" stop-opacity="0"/>
<stop offset="0.81834" stop-color="#8F67FF"/>
</linearGradient>
<linearGradient id="paint2_linear" x1="123.877" y1="147" x2="271.256" y2="441.573" gradientUnits="userSpaceOnUse">
<stop stop-color="#FFD271"/>
<stop offset="0.240464" stop-color="#825900"/>
<stop offset="0.965426" stop-color="#F2C565"/>
</linearGradient>
<linearGradient id="paint3_linear" x1="10.0282" y1="519.368" x2="429.144" y2="422.921" gradientUnits="userSpaceOnUse">
<stop offset="0.00828865" stop-color="#8F67FF"/>
<stop offset="0.243203" stop-color="#8F67FF" stop-opacity="0.51"/>
<stop offset="0.838831" stop-color="#8F67FF" stop-opacity="0.24"/>
<stop offset="1" stop-color="#8F67FF"/>
</linearGradient>
<linearGradient id="paint4_linear" x1="125.455" y1="149.251" x2="270.928" y2="437.295" gradientUnits="userSpaceOnUse">
<stop stop-color="#FFD271"/>
<stop offset="0.240464" stop-color="#825900"/>
<stop offset="0.965426" stop-color="#F2C565"/>
</linearGradient>
<linearGradient id="paint5_linear" x1="16.9998" y1="265.101" x2="-2.00517" y2="281.823" gradientUnits="userSpaceOnUse">
<stop stop-color="#8F67FF" stop-opacity="0"/>
<stop offset="0.396674" stop-color="#8F67FF" stop-opacity="0"/>
<stop offset="0.81834" stop-color="#8F67FF"/>
</linearGradient>
<linearGradient id="paint6_linear" x1="426.947" y1="262.1" x2="445.871" y2="278.891" gradientUnits="userSpaceOnUse">
<stop stop-color="#8F67FF" stop-opacity="0"/>
<stop offset="0.396674" stop-color="#8F67FF" stop-opacity="0"/>
<stop offset="0.81834" stop-color="#8F67FF"/>
</linearGradient>
</defs>
</svg>
