<svg width="420" height="140" viewBox="0 0 420 140" fill="none" xmlns="http://www.w3.org/2000/svg">
<g opacity="0.5">
<path d="M17.4925 139.5C17.2265 130.444 9.75796 123.17 0.5 122.916V17.0841C9.75797 16.8305 17.2265 9.55594 17.4925 0.5H402.507C402.773 9.55597 410.242 16.8305 419.5 17.0841V122.916C410.242 123.17 402.773 130.444 402.507 139.5H17.4925Z" stroke="url(#paint0_linear)"/>
<path d="M17.4925 139.5C17.2265 130.444 9.75796 123.17 0.5 122.916V17.0841C9.75797 16.8305 17.2265 9.55594 17.4925 0.5H402.507C402.773 9.55597 410.242 16.8305 419.5 17.0841V122.916C410.242 123.17 402.773 130.444 402.507 139.5H17.4925Z" stroke="url(#paint1_linear)"/>
</g>
<defs>
<linearGradient id="paint0_linear" x1="143.719" y1="38.4871" x2="154.186" y2="132.456" gradientUnits="userSpaceOnUse">
<stop stop-color="#FFD271"/>
<stop offset="0.240464" stop-color="#825900"/>
<stop offset="0.965426" stop-color="#F2C565"/>
</linearGradient>
<linearGradient id="paint1_linear" x1="11.632" y1="134.674" x2="283.295" y2="-129.429" gradientUnits="userSpaceOnUse">
<stop offset="0.0887621" stop-color="#8F67FF"/>
<stop offset="0.289134" stop-color="#8F67FF" stop-opacity="0.51"/>
<stop offset="0.670006" stop-color="#8F67FF" stop-opacity="0.49"/>
<stop offset="0.827212" stop-color="#8F67FF"/>
</linearGradient>
</defs>
</svg>
