<svg width="32" height="32" viewBox="0 0 32 32" fill="none" xmlns="http://www.w3.org/2000/svg">
<circle cx="16" cy="16" r="13.75" stroke="url(#paint0_linear)" stroke-width="0.5"/>
<circle cx="16" cy="16" r="15.5" stroke="url(#paint1_linear)"/>
<path d="M10 21.9986V21.7077L11.3271 21.0351L15.1812 16.0175L11.418 10.9272L10.2727 10.2909V10H14.8176V10.2909L13.3632 10.9635V11.0544L16.272 14.8903L19.2898 11.0362V10.9635L17.9082 10.2909V10H21.7259V10.2909L20.5806 10.9635L16.8901 15.7084L20.9078 20.9987L22.1804 21.7077V21.9986H17.5446V21.7077L18.8717 21.0532V20.9805L15.7811 16.8174L12.6179 20.9805V21.0532L14.0904 21.7077V21.9986H10Z" fill="url(#paint2_linear)"/>
<defs>
<linearGradient id="paint0_linear" x1="16" y1="2" x2="16" y2="32.1" gradientUnits="userSpaceOnUse">
<stop stop-color="#FFD271"/>
<stop offset="0.114449" stop-color="#825900"/>
<stop offset="0.851909" stop-color="#825900"/>
<stop offset="0.965426" stop-color="#F2C565"/>
</linearGradient>
<linearGradient id="paint1_linear" x1="16" y1="0" x2="16" y2="34.4" gradientUnits="userSpaceOnUse">
<stop stop-color="#FFD271"/>
<stop offset="0.114449" stop-color="#825900"/>
<stop offset="0.851909" stop-color="#825900"/>
<stop offset="0.965426" stop-color="#F2C565"/>
</linearGradient>
<linearGradient id="paint2_linear" x1="16.009" y1="12.9996" x2="16.7744" y2="22.8453" gradientUnits="userSpaceOnUse">
<stop stop-color="#FFD271"/>
<stop offset="0.489118" stop-color="#825900"/>
</linearGradient>
</defs>
</svg>
