<svg width="124" height="38" viewBox="0 0 124 38" fill="none" xmlns="http://www.w3.org/2000/svg">
<path d="M0 0.5H124V33L122 35L120 37H66H62H58H4L2 35L0 33L0 0.5Z" fill="url(#paint0_radial)" fill-opacity="0.8"/>
<path d="M66 37.5H62H58H4.20711L0.5 33.7929V4.20711L4.20711 0.5H119.793L123.5 4.20711V33.7929L119.793 37.5H66Z" stroke="#513E18"/>
<path d="M26.7574 24.16C25.8507 24.16 25.0294 23.9733 24.2934 23.6C23.568 23.2267 22.9867 22.704 22.5494 22.032C22.1227 21.36 21.9094 20.5813 21.9094 19.696C21.9094 18.9813 22.048 18.3307 22.3254 17.744C22.6027 17.1467 22.9867 16.6347 23.4774 16.208C23.968 15.7707 24.5334 15.44 25.1734 15.216C25.8134 14.9813 26.496 14.864 27.2214 14.864C27.936 14.864 28.5174 14.928 28.9654 15.056C29.424 15.184 29.8507 15.3387 30.2454 15.52L30.3894 17.92H30.1174L28.9494 16.128C28.6614 15.9467 28.4 15.824 28.1654 15.76C27.9414 15.6853 27.6747 15.648 27.3654 15.648C26.7147 15.648 26.1547 15.8133 25.6854 16.144C25.2267 16.464 24.8747 16.912 24.6294 17.488C24.384 18.0533 24.2614 18.7093 24.2614 19.456C24.2614 20.6187 24.5227 21.5573 25.0454 22.272C25.568 22.976 26.304 23.328 27.2534 23.328C27.5414 23.328 27.8294 23.296 28.1174 23.232V20.784L26.9014 20.16V19.92H31.4294V20.16L30.4054 20.8V23.024C30.1494 23.248 29.8187 23.4453 29.4134 23.616C29.0187 23.7867 28.592 23.92 28.1334 24.016C27.6747 24.112 27.216 24.16 26.7574 24.16ZM37.7875 24.16C36.8488 24.16 36.0168 23.9573 35.2915 23.552C34.5768 23.1467 34.0115 22.5973 33.5955 21.904C33.1795 21.2 32.9715 20.4 32.9715 19.504C32.9715 18.6187 33.1795 17.824 33.5955 17.12C34.0115 16.416 34.5768 15.8613 35.2915 15.456C36.0168 15.0507 36.8488 14.848 37.7875 14.848C38.7262 14.848 39.5582 15.0507 40.2835 15.456C41.0088 15.8613 41.5795 16.416 41.9955 17.12C42.4115 17.824 42.6195 18.6187 42.6195 19.504C42.6195 20.4 42.4115 21.2 41.9955 21.904C41.5795 22.5973 41.0088 23.1467 40.2835 23.552C39.5582 23.9573 38.7262 24.16 37.7875 24.16ZM38.0115 23.328C38.6942 23.328 39.2275 23.008 39.6115 22.368C40.0062 21.728 40.2035 20.9067 40.2035 19.904C40.2035 19.0827 40.0915 18.3573 39.8675 17.728C39.6542 17.088 39.3502 16.5867 38.9555 16.224C38.5715 15.8613 38.1288 15.68 37.6275 15.68C37.1795 15.68 36.7848 15.824 36.4435 16.112C36.1128 16.4 35.8515 16.8 35.6595 17.312C35.4782 17.824 35.3875 18.416 35.3875 19.088C35.3875 19.9093 35.4995 20.64 35.7235 21.28C35.9475 21.92 36.2568 22.4213 36.6515 22.784C37.0462 23.1467 37.4995 23.328 38.0115 23.328ZM49.8223 24V23.744L51.2943 23.216V15.856H49.3103L48.2383 18.064H47.9823V15.04H56.9423V18.064H56.6863L55.5983 15.856H53.6143V23.216L55.1023 23.744V24H49.8223ZM63.1156 24.16C62.177 24.16 61.345 23.9573 60.6196 23.552C59.905 23.1467 59.3396 22.5973 58.9236 21.904C58.5076 21.2 58.2996 20.4 58.2996 19.504C58.2996 18.6187 58.5076 17.824 58.9236 17.12C59.3396 16.416 59.905 15.8613 60.6196 15.456C61.345 15.0507 62.177 14.848 63.1156 14.848C64.0543 14.848 64.8863 15.0507 65.6116 15.456C66.337 15.8613 66.9076 16.416 67.3236 17.12C67.7396 17.824 67.9476 18.6187 67.9476 19.504C67.9476 20.4 67.7396 21.2 67.3236 21.904C66.9076 22.5973 66.337 23.1467 65.6116 23.552C64.8863 23.9573 64.0543 24.16 63.1156 24.16ZM63.3396 23.328C64.0223 23.328 64.5556 23.008 64.9396 22.368C65.3343 21.728 65.5316 20.9067 65.5316 19.904C65.5316 19.0827 65.4196 18.3573 65.1956 17.728C64.9823 17.088 64.6783 16.5867 64.2836 16.224C63.8996 15.8613 63.457 15.68 62.9556 15.68C62.5076 15.68 62.113 15.824 61.7716 16.112C61.441 16.4 61.1796 16.8 60.9876 17.312C60.8063 17.824 60.7156 18.416 60.7156 19.088C60.7156 19.9093 60.8276 20.64 61.0516 21.28C61.2756 21.92 61.585 22.4213 61.9796 22.784C62.3743 23.1467 62.8276 23.328 63.3396 23.328ZM73.0384 24V23.744L73.8544 23.28L77.4224 14.96H78.7824L82.2864 23.184L83.2784 23.744V24H78.7984V23.744L79.9344 23.264L79.0224 21.072H75.7904L74.8784 23.264L76.0144 23.744V24H73.0384ZM76.1264 20.256H78.6704L77.3904 17.2L76.1264 20.256ZM84.2821 24V23.744L85.4661 23.216V15.824L84.2821 15.296V15.04H89.1301C90.2501 15.04 91.1301 15.2373 91.7701 15.632C92.4101 16.0267 92.7301 16.6453 92.7301 17.488C92.7301 18.0107 92.5595 18.4693 92.2181 18.864C91.8875 19.2587 91.4288 19.5627 90.8421 19.776C90.2555 19.9893 89.5888 20.096 88.8421 20.096H87.8021V23.216L89.2261 23.744V24H84.2821ZM87.8021 15.856V19.344H88.2501C88.9328 19.344 89.4555 19.1893 89.8181 18.88C90.1808 18.56 90.3621 18.128 90.3621 17.584C90.3621 16.976 90.1755 16.5387 89.8021 16.272C89.4395 15.9947 88.8901 15.856 88.1541 15.856H87.8021ZM93.9384 24V23.744L95.1224 23.216V15.824L93.9384 15.296V15.04H98.7864C99.9064 15.04 100.786 15.2373 101.426 15.632C102.066 16.0267 102.386 16.6453 102.386 17.488C102.386 18.0107 102.216 18.4693 101.874 18.864C101.544 19.2587 101.085 19.5627 100.498 19.776C99.9117 19.9893 99.245 20.096 98.4984 20.096H97.4584V23.216L98.8824 23.744V24H93.9384ZM97.4584 15.856V19.344H97.9064C98.589 19.344 99.1117 19.1893 99.4744 18.88C99.837 18.56 100.018 18.128 100.018 17.584C100.018 16.976 99.8317 16.5387 99.4584 16.272C99.0957 15.9947 98.5464 15.856 97.8104 15.856H97.4584Z" fill="url(#paint1_linear)"/>
<rect width="2" height="2" fill="#EABE5E"/>
<rect y="36" width="2" height="2" fill="#EABE5E"/>
<rect x="122" width="2" height="2" fill="#EABE5E"/>
<rect x="122" y="36" width="2" height="2" fill="#EABE5E"/>
<defs>
<radialGradient id="paint0_radial" cx="0" cy="0" r="1" gradientUnits="userSpaceOnUse" gradientTransform="translate(62 -38.5) rotate(90) scale(94 158.203)">
<stop offset="0.721698" stop-color="#FFB002" stop-opacity="0"/>
<stop offset="0.831808" stop-color="#FFAF00" stop-opacity="0.11"/>
</radialGradient>
<linearGradient id="paint1_linear" x1="61.4533" y1="13" x2="61.9107" y2="32.8021" gradientUnits="userSpaceOnUse">
<stop stop-color="#FFD271"/>
<stop offset="0.489118" stop-color="#825900"/>
</linearGradient>
</defs>
</svg>
