<svg width="122" height="32" viewBox="0 0 122 32" fill="none" xmlns="http://www.w3.org/2000/svg">
<path d="M0.616 20.5V20.276L1.652 19.814V13.346L0.616 12.884V12.66H4.844V12.884L3.696 13.346V19.786H6.272L7.322 17.504H7.546V20.5H0.616ZM8.8328 20.5V20.276L9.8688 19.814V13.346L8.8328 12.884V12.66H15.5948V14.76H15.3708L14.4608 13.374H11.9128V16.118H13.7188L14.3628 15.11H14.5728V17.77H14.3628L13.7188 16.776H11.9128V19.786H14.7408L15.7068 17.98H15.9308V20.5H8.8328ZM16.9183 20.5V20.276L17.6323 19.87L20.7543 12.59H21.9443L25.0103 19.786L25.8783 20.276V20.5H21.9583V20.276L22.9523 19.856L22.1543 17.938H19.3263L18.5283 19.856L19.5223 20.276V20.5H16.9183ZM19.6203 17.224H21.8463L20.7263 14.55L19.6203 17.224ZM26.7566 20.5V20.276L27.7926 19.814V13.346L26.7566 12.884V12.66H31.0406C31.89 12.66 32.5573 12.8327 33.0426 13.178C33.5373 13.514 33.7846 13.976 33.7846 14.564C33.7846 15.4227 33.262 16.034 32.2166 16.398L34.3726 19.828L35.2826 20.276V20.5H32.3846L30.3546 16.93H29.8366V19.8L30.7326 20.276V20.5H26.7566ZM30.2286 13.304H29.8366V16.272H30.2706C30.7653 16.272 31.1293 16.1367 31.3626 15.866C31.6053 15.586 31.7266 15.2173 31.7266 14.76C31.7266 13.7893 31.2273 13.304 30.2286 13.304ZM35.7521 20.5V20.262L36.7881 19.8V13.346L35.7521 12.884V12.66H38.2861L42.9481 17.84V13.346L41.5901 12.884V12.66H44.8241V12.884L43.8021 13.346V20.556H42.8081L37.6421 14.858V19.786L39.0001 20.262V20.5H35.7521ZM49.4923 20.5V20.276L50.5283 19.8L50.7803 13.332L49.7163 12.884V12.66H53.0203L55.2743 17.77L57.5283 12.66H60.7203V12.884L59.6703 13.22L59.8663 19.8L60.8043 20.276V20.5H56.8423V20.276L57.8083 19.814L57.6963 14.2L54.8963 20.556H54.2943L51.5223 14.186L51.3683 19.814L52.4183 20.276V20.5H49.4923ZM66.2594 20.64C65.438 20.64 64.71 20.4627 64.0754 20.108C63.45 19.7533 62.9554 19.2727 62.5914 18.666C62.2274 18.05 62.0454 17.35 62.0454 16.566C62.0454 15.7913 62.2274 15.096 62.5914 14.48C62.9554 13.864 63.45 13.3787 64.0754 13.024C64.71 12.6693 65.438 12.492 66.2594 12.492C67.0807 12.492 67.8087 12.6693 68.4434 13.024C69.078 13.3787 69.5774 13.864 69.9414 14.48C70.3054 15.096 70.4874 15.7913 70.4874 16.566C70.4874 17.35 70.3054 18.05 69.9414 18.666C69.5774 19.2727 69.078 19.7533 68.4434 20.108C67.8087 20.4627 67.0807 20.64 66.2594 20.64ZM66.4554 19.912C67.0527 19.912 67.5194 19.632 67.8554 19.072C68.2007 18.512 68.3734 17.7933 68.3734 16.916C68.3734 16.1973 68.2754 15.5627 68.0794 15.012C67.8927 14.452 67.6267 14.0133 67.2814 13.696C66.9454 13.3787 66.558 13.22 66.1194 13.22C65.7274 13.22 65.382 13.346 65.0834 13.598C64.794 13.85 64.5654 14.2 64.3974 14.648C64.2387 15.096 64.1594 15.614 64.1594 16.202C64.1594 16.9207 64.2574 17.56 64.4534 18.12C64.6494 18.68 64.92 19.1187 65.2654 19.436C65.6107 19.7533 66.0074 19.912 66.4554 19.912ZM71.7918 20.5V20.276L72.8278 19.814V13.346L71.7918 12.884V12.66H76.0758C76.9251 12.66 77.5924 12.8327 78.0778 13.178C78.5724 13.514 78.8198 13.976 78.8198 14.564C78.8198 15.4227 78.2971 16.034 77.2518 16.398L79.4078 19.828L80.3178 20.276V20.5H77.4198L75.3898 16.93H74.8718V19.8L75.7678 20.276V20.5H71.7918ZM75.2638 13.304H74.8718V16.272H75.3058C75.8004 16.272 76.1644 16.1367 76.3978 15.866C76.6404 15.586 76.7618 15.2173 76.7618 14.76C76.7618 13.7893 76.2624 13.304 75.2638 13.304ZM80.8152 20.5V20.276L81.8512 19.814V13.346L80.8152 12.884V12.66H87.5772V14.76H87.3532L86.4432 13.374H83.8952V16.118H85.7012L86.3452 15.11H86.5552V17.77H86.3452L85.7012 16.776H83.8952V19.786H86.7232L87.6892 17.98H87.9132V20.5H80.8152Z" fill="#9067FF"/>
<path d="M104 28L116 16L104 4L104 12L108 16L104 20L104 28Z" fill="url(#paint0_linear)"/>
<path d="M100 20L104 16L100 12L96 16L100 20Z" fill="url(#paint1_linear)"/>
<defs>
<linearGradient id="paint0_linear" x1="106.5" y1="4" x2="106.441" y2="27.9986" gradientUnits="userSpaceOnUse">
<stop offset="0.214206" stop-color="#8F67FF"/>
<stop offset="0.477988" stop-color="#FFE5A0"/>
<stop offset="0.501587" stop-color="#6C46D2"/>
<stop offset="0.811402" stop-color="#5C3EAB"/>
</linearGradient>
<linearGradient id="paint1_linear" x1="97.6667" y1="12" x2="97.6569" y2="19.9996" gradientUnits="userSpaceOnUse">
<stop offset="0.214206" stop-color="#8F67FF"/>
<stop offset="0.477988" stop-color="#FFE5A0"/>
<stop offset="0.501587" stop-color="#6C46D2"/>
<stop offset="0.811402" stop-color="#5C3EAB"/>
</linearGradient>
</defs>
</svg>
