<svg width="16" height="17" viewBox="0 0 16 17" fill="none" xmlns="http://www.w3.org/2000/svg">
<path fill-rule="evenodd" clip-rule="evenodd" d="M4.32077 13.2399C5.33678 14.0297 6.61347 14.5 8 14.5C11.3137 14.5 14 11.8137 14 8.5C14 7.11347 13.5297 5.83678 12.7399 4.82077L4.32077 13.2399ZM3.26011 12.1792L11.6792 3.76011C10.6632 2.97031 9.38653 2.5 8 2.5C4.68629 2.5 2 5.18629 2 8.5C2 9.88653 2.47031 11.1632 3.26011 12.1792ZM1 8.5C1 12.366 4.13401 15.5 8 15.5C11.866 15.5 15 12.366 15 8.5C15 4.63401 11.866 1.5 8 1.5C4.13401 1.5 1 4.63401 1 8.5Z" fill="#EC5454"/>
</svg>
