<svg width="12" height="12" viewBox="0 0 12 12" fill="none" xmlns="http://www.w3.org/2000/svg">
<path d="M1.5 10.4989L1.5 10.2808L2.49534 9.7763L5.38591 6.01311L2.56351 2.19537L1.70452 1.71816L1.70452 1.5L5.11321 1.5L5.11321 1.71816L4.02243 2.22264L4.02243 2.29082L6.20399 5.16775L8.46737 2.27718V2.22264L7.43112 1.71816L7.43112 1.5L10.2944 1.5L10.2944 1.71816L9.43543 2.22264L6.66758 5.78132L9.68086 9.74903L10.6353 10.2808L10.6353 10.4989L7.15843 10.4989L7.15843 10.2808L8.15377 9.78994V9.7354L5.83586 6.61304L3.46341 9.7354L3.46341 9.78994L4.56782 10.2808L4.56782 10.4989L1.5 10.4989Z" fill="url(#paint0_linear)"/>
<defs>
<linearGradient id="paint0_linear" x1="6.00674" y1="3.74974" x2="6.58077" y2="11.134" gradientUnits="userSpaceOnUse">
<stop stop-color="#FFD271"/>
<stop offset="0.489118" stop-color="#825900"/>
</linearGradient>
</defs>
</svg>
