<svg width="16" height="16" viewBox="0 0 16 16" fill="none" xmlns="http://www.w3.org/2000/svg">
<path fill-rule="evenodd" clip-rule="evenodd" d="M2 8C2 11.3137 4.68629 14 8 14C11.3137 14 14 11.3137 14 8C14 4.68629 11.3137 2 8 2C4.68629 2 2 4.68629 2 8ZM1 8C1 11.866 4.13401 15 8 15C11.866 15 15 11.866 15 8C15 4.13401 11.866 1 8 1C4.13401 1 1 4.13401 1 8ZM7.32811 7.79664L7.62811 9.28464L7.86811 9.28464L7.97611 8.50464C8.72811 8.22464 9.26811 7.90864 9.59611 7.55664C9.92411 7.20464 10.0881 6.80864 10.0881 6.36864C10.0881 6.03264 10.0041 5.72864 9.83611 5.45664C9.66811 5.17664 9.43611 4.95664 9.14011 4.79664C8.85211 4.63664 8.52011 4.55664 8.14411 4.55664C7.81611 4.55664 7.53611 4.60864 7.30411 4.71264C7.08011 4.80864 6.83211 4.95264 6.56011 5.14464C6.34411 5.28864 6.18011 5.45264 6.06811 5.63664C5.96411 5.82064 5.91211 6.00864 5.91211 6.20064C5.91211 6.36864 5.94011 6.48064 5.99611 6.53664C6.05211 6.58464 6.15611 6.60864 6.30811 6.60864L6.86011 6.60864L6.95611 6.48864L6.95611 6.09264C6.95611 5.74864 7.03611 5.48864 7.19611 5.31264C7.35611 5.12864 7.57611 5.03664 7.85611 5.03664C8.22411 5.03664 8.51211 5.14864 8.72011 5.37264C8.92811 5.58864 9.03211 5.90464 9.03211 6.32064C9.03211 6.64064 8.89211 6.92864 8.61211 7.18464C8.33211 7.43264 7.90411 7.63664 7.32811 7.79664ZM7.20811 11.2166C7.36011 11.3686 7.54011 11.4446 7.74811 11.4446C7.94811 11.4446 8.12411 11.3686 8.27611 11.2166C8.43611 11.0566 8.51611 10.8766 8.51611 10.6766C8.51611 10.4686 8.43611 10.2886 8.27611 10.1366C8.12411 9.98464 7.94811 9.90864 7.74811 9.90864C7.54011 9.90864 7.36011 9.98464 7.20811 10.1366C7.05611 10.2886 6.98011 10.4686 6.98011 10.6766C6.98011 10.8766 7.05611 11.0566 7.20811 11.2166Z" fill="url(#paint0_linear)"/>
<defs>
<linearGradient id="paint0_linear" x1="9.38841" y1="16.6253" x2="6.00236" y2="0.315728" gradientUnits="userSpaceOnUse">
<stop offset="0.0747145" stop-color="#825900"/>
<stop offset="1" stop-color="#FFD271"/>
</linearGradient>
</defs>
</svg>
