<svg width="16" height="17" viewBox="0 0 16 17" fill="none" xmlns="http://www.w3.org/2000/svg">
<path fill-rule="evenodd" clip-rule="evenodd" d="M2 8.5C2 11.8137 4.68629 14.5 8 14.5C11.3137 14.5 14 11.8137 14 8.5C14 5.18629 11.3137 2.5 8 2.5C4.68629 2.5 2 5.18629 2 8.5ZM1 8.5C1 12.366 4.13401 15.5 8 15.5C11.866 15.5 15 12.366 15 8.5C15 4.63401 11.866 1.5 8 1.5C4.13401 1.5 1 4.63401 1 8.5ZM7.27943 11.5303L6.74911 12.0607L6.21878 11.5303L3.72063 9.03223L4.78128 7.97156L6.7491 9.93934L11.2188 5.46967L12.2794 6.53033L7.27943 11.5303Z" fill="#00C9B1"/>
</svg>
