<svg width="16" height="16" viewBox="0 0 16 16" fill="none" xmlns="http://www.w3.org/2000/svg">
<path fill-rule="evenodd" clip-rule="evenodd" d="M2.5 14.5L1.5 14.5L1.5 13.5L1.5 2.5L1.5 1.5L2.5 1.5L13.5 1.5L14.5 1.5L14.5 2.5L14.5 13.5L14.5 14.5L13.5 14.5L2.5 14.5ZM13.5 2.5L2.5 2.5L2.5 13.5L13.5 13.5L13.5 2.5ZM3.49991 5.91016L3.49991 4.91016L6.99991 4.91016L6.99991 5.91016L3.49991 5.91016ZM12.4999 11.498L8.99991 11.498L8.99991 10.498L12.4999 10.498L12.4999 11.498ZM12.4999 10.002L8.99991 10.002L8.99991 9.00195L12.4999 9.00195L12.4999 10.002ZM6.24991 10.75L7.99991 10.75L7.99991 9.75L6.24991 9.75L6.24991 8L5.24991 8L5.24991 9.75L3.49991 9.75L3.49991 10.75L5.24991 10.75L5.24991 12.5L6.24991 12.5L6.24991 10.75ZM11.7927 7.38867L10.5554 6.15131L9.318 7.38867L8.6109 6.68156L9.84826 5.4442L8.61075 4.20669L9.31785 3.49958L10.5554 4.7371L11.7929 3.49958L12.5 4.20669L11.2625 5.4442L12.4998 6.68157L11.7927 7.38867Z" fill="url(#paint0_linear)"/>
<defs>
<linearGradient id="paint0_linear" x1="9.38841" y1="16.6253" x2="6.00236" y2="0.315728" gradientUnits="userSpaceOnUse">
<stop offset="0.0747145" stop-color="#825900"/>
<stop offset="1" stop-color="#FFD271"/>
</linearGradient>
</defs>
</svg>
