<svg width="16" height="16" viewBox="0 0 16 16" fill="none" xmlns="http://www.w3.org/2000/svg">
<path fill-rule="evenodd" clip-rule="evenodd" d="M14.5 13.1074L14.5 14.1074L13.5 14.1074L2.5 14.1074L1.5 14.1074L1.5 13.1074L1.5 5.80898L1.5 4.80898L1.50098 4.80898L1.50098 2.75L1.50098 2.25L2.00098 2.25L13 2.25L13 3.25L2.50098 3.25L2.50098 4.80898L13.5 4.80898L14.5 4.80898L14.5 5.80898L14.5 13.1074ZM13.5 5.80898L2.5 5.80898L2.5 13.1074L13.5 13.1074L13.5 5.80898ZM10.8578 10.0186C11.1674 10.0186 11.4183 9.76768 11.4183 9.45813C11.4183 9.14859 11.1674 8.89765 10.8578 8.89765C10.5483 8.89765 10.2974 9.14859 10.2974 9.45813C10.2974 9.76768 10.5483 10.0186 10.8578 10.0186ZM10.8578 11.0186C11.7197 11.0186 12.4183 10.32 12.4183 9.45813C12.4183 8.5963 11.7197 7.89765 10.8578 7.89765C9.99601 7.89765 9.29736 8.5963 9.29736 9.45813C9.29736 10.32 9.99601 11.0186 10.8578 11.0186Z" fill="url(#paint0_linear)"/>
<defs>
<linearGradient id="paint0_linear" x1="8.79936" y1="16.2498" x2="6.31501" y2="2.06106" gradientUnits="userSpaceOnUse">
<stop offset="0.0747145" stop-color="#825900"/>
<stop offset="1" stop-color="#FFD271"/>
</linearGradient>
</defs>
</svg>
