<svg width="209" height="58" viewBox="0 0 209 58" fill="none" xmlns="http://www.w3.org/2000/svg">
<path d="M15.75 2.65625H16.75V1.65625H15.75V2.65625ZM15.75 42.1094H14.75V43.1094H15.75V42.1094ZM39.2656 42.1094H40.2656V41.1094H39.2656V42.1094ZM39.2656 55V56H40.2656V55H39.2656ZM1.14062 55H0.140625V56H1.14062V55ZM1.14062 2.65625V1.65625H0.140625V2.65625H1.14062ZM14.75 2.65625V42.1094H16.75V2.65625H14.75ZM15.75 43.1094H39.2656V41.1094H15.75V43.1094ZM38.2656 42.1094V55H40.2656V42.1094H38.2656ZM39.2656 54H1.14062V56H39.2656V54ZM2.14062 55V2.65625H0.140625V55H2.14062ZM1.14062 3.65625H15.75V1.65625H1.14062V3.65625ZM86.375 23.0469H87.375V22.0469H86.375V23.0469ZM86.375 33.9844V34.9844H87.375V33.9844H86.375ZM65.5938 33.9844V32.9844H64.5938V33.9844H65.5938ZM65.5938 42.5H64.5938V43.5H65.5938V42.5ZM89.1094 42.5H90.1094V41.5H89.1094V42.5ZM89.1094 55V56H90.1094V55H89.1094ZM50.9844 55H49.9844V56H50.9844V55ZM50.9844 2.65625V1.65625H49.9844V2.65625H50.9844ZM89.1094 2.65625H90.1094V1.65625H89.1094V2.65625ZM89.1094 14.7656V15.7656H90.1094V14.7656H89.1094ZM65.5938 14.7656V13.7656H64.5938V14.7656H65.5938ZM65.5938 23.0469H64.5938V24.0469H65.5938V23.0469ZM85.375 23.0469V33.9844H87.375V23.0469H85.375ZM86.375 32.9844H65.5938V34.9844H86.375V32.9844ZM64.5938 33.9844V42.5H66.5938V33.9844H64.5938ZM65.5938 43.5H89.1094V41.5H65.5938V43.5ZM88.1094 42.5V55H90.1094V42.5H88.1094ZM89.1094 54H50.9844V56H89.1094V54ZM51.9844 55V2.65625H49.9844V55H51.9844ZM50.9844 3.65625H89.1094V1.65625H50.9844V3.65625ZM88.1094 2.65625V14.7656H90.1094V2.65625H88.1094ZM89.1094 13.7656H65.5938V15.7656H89.1094V13.7656ZM64.5938 14.7656V23.0469H66.5938V14.7656H64.5938ZM65.5938 24.0469H86.375V22.0469H65.5938V24.0469ZM142.703 2.65625H143.703V1.65625H142.703V2.65625ZM142.703 15.5469V16.5469H143.703V15.5469H142.703ZM127.312 15.5469V14.5469H126.312V15.5469H127.312ZM127.312 54.7656V55.7656H128.312V54.7656H127.312ZM112.703 54.7656H111.703V55.7656H112.703V54.7656ZM112.703 15.5469H113.703V14.5469H112.703V15.5469ZM97.3125 15.5469H96.3125V16.5469H97.3125V15.5469ZM97.3125 2.65625V1.65625H96.3125V2.65625H97.3125ZM141.703 2.65625V15.5469H143.703V2.65625H141.703ZM142.703 14.5469H127.312V16.5469H142.703V14.5469ZM126.312 15.5469V54.7656H128.312V15.5469H126.312ZM127.312 53.7656H112.703V55.7656H127.312V53.7656ZM113.703 54.7656V15.5469H111.703V54.7656H113.703ZM112.703 14.5469H97.3125V16.5469H112.703V14.5469ZM98.3125 15.5469V2.65625H96.3125V15.5469H98.3125ZM97.3125 3.65625H142.703V1.65625H97.3125V3.65625ZM160.438 2.65625H161.438V1.65625H160.438V2.65625ZM160.438 25.625V26.625H161.438V25.625H160.438ZM149.344 25.625H148.344V26.625H149.344V25.625ZM149.344 2.65625V1.65625H148.344V2.65625H149.344ZM159.438 2.65625V25.625H161.438V2.65625H159.438ZM160.438 24.625H149.344V26.625H160.438V24.625ZM150.344 25.625V2.65625H148.344V25.625H150.344ZM149.344 3.65625H160.438V1.65625H149.344V3.65625ZM197.078 2.65625L196.824 3.62333L196.834 3.62593L196.843 3.62833L197.078 2.65625ZM204.344 5.625H205.344V5.09819L204.909 4.80027L204.344 5.625ZM204.344 19.7656L203.841 20.6301L205.344 21.5037V19.7656H204.344ZM197.703 16.4062L197.291 17.3174L197.3 17.3215L197.309 17.3254L197.703 16.4062ZM185.906 21.25L185.497 22.1625L185.51 22.1685L185.524 22.174L185.906 21.25ZM191.453 23.4375L191.097 24.372L191.102 24.3738L191.453 23.4375ZM197.078 25.5469L197.436 24.6132L197.429 24.6105L197.078 25.5469ZM205.125 31.4844L204.277 32.0144L204.281 32.0207L204.285 32.0269L205.125 31.4844ZM204.656 47.8906L205.454 48.4933L205.46 48.4855L204.656 47.8906ZM196.844 53.9844L197.25 54.8983L197.262 54.8928L196.844 53.9844ZM176.531 54.5312L176.196 55.4734L176.531 54.5312ZM168.484 50.4688H167.484V50.9875L167.908 51.2862L168.484 50.4688ZM168.484 36.3281L169.084 35.5281L167.484 34.3281V36.3281H168.484ZM176.531 40.9375L176.145 41.8601L176.151 41.8625L176.531 40.9375ZM189.656 42.1094L190.012 43.0439L190.024 43.0395L190.035 43.0349L189.656 42.1094ZM186.766 36.25L186.464 37.2036L186.473 37.2063L186.482 37.2088L186.766 36.25ZM179.344 33.9062L179.038 34.8583L179.043 34.8598L179.344 33.9062ZM169.188 24.6875L168.232 24.9816L168.234 24.9886L169.188 24.6875ZM171.062 9.21875L171.863 9.81878L171.868 9.81083L171.062 9.21875ZM188.016 2.48438C191.003 2.48438 193.938 2.86396 196.824 3.62333L197.333 1.68917C194.281 0.886044 191.174 0.484375 188.016 0.484375V2.48438ZM196.843 3.62833C199.79 4.33965 202.088 5.29038 203.778 6.44973L204.909 4.80027C202.954 3.45962 200.408 2.43119 197.313 1.68417L196.843 3.62833ZM203.344 5.625V19.7656H205.344V5.625H203.344ZM204.846 18.9011C202.575 17.5804 200.325 16.4419 198.097 15.4871L197.309 17.3254C199.456 18.2456 201.634 19.3467 203.841 20.6301L204.846 18.9011ZM198.115 15.4951C195.771 14.4348 193.047 13.9219 189.969 13.9219V15.9219C192.828 15.9219 195.26 16.3985 197.291 17.3174L198.115 15.4951ZM189.969 13.9219C188.152 13.9219 186.531 14.1968 185.131 14.78L185.9 16.6262C187 16.1678 188.348 15.9219 189.969 15.9219V13.9219ZM185.131 14.78C184.382 15.092 183.747 15.5364 183.301 16.1501C182.848 16.7721 182.641 17.4991 182.641 18.2812H184.641C184.641 17.8655 184.745 17.5638 184.918 17.3265C185.097 17.0808 185.399 16.8351 185.9 16.6262L185.131 14.78ZM182.641 18.2812C182.641 19.1407 182.895 19.9292 183.412 20.6067C183.919 21.2705 184.638 21.7774 185.497 22.1625L186.315 20.3375C185.664 20.0455 185.251 19.7191 185.002 19.3933C184.764 19.0812 184.641 18.7239 184.641 18.2812H182.641ZM185.524 22.174C187.046 22.8038 188.904 23.5366 191.097 24.372L191.809 22.503C189.627 21.6717 187.787 20.9462 186.289 20.326L185.524 22.174ZM191.102 24.3738L196.727 26.4832L197.429 24.6105L191.804 22.5012L191.102 24.3738ZM196.72 26.4805C200.395 27.8902 202.866 29.7573 204.277 32.0144L205.973 30.9544C204.259 28.2115 201.365 26.1202 197.436 24.6132L196.72 26.4805ZM204.285 32.0269C205.815 34.3964 206.547 36.7109 206.547 38.9844H208.547C208.547 36.2578 207.664 33.5723 205.965 30.9418L204.285 32.0269ZM206.547 38.9844C206.547 42.1102 205.648 44.869 203.852 47.2958L205.46 48.4855C207.518 45.7039 208.547 42.5252 208.547 38.9844H206.547ZM203.858 47.288C202.043 49.6921 199.577 51.6255 196.426 53.076L197.262 54.8928C200.673 53.3224 203.415 51.1933 205.454 48.4932L203.858 47.288ZM196.438 53.0706C193.3 54.465 189.769 55.1719 185.828 55.1719V57.1719C190.012 57.1719 193.825 56.4204 197.25 54.8982L196.438 53.0706ZM185.828 55.1719C182.822 55.1719 179.837 54.6463 176.867 53.5891L176.196 55.4734C179.372 56.6037 182.584 57.1719 185.828 57.1719V55.1719ZM176.867 53.5891C173.866 52.521 171.267 51.2059 169.06 49.6513L167.908 51.2862C170.285 52.9608 173.051 54.354 176.196 55.4734L176.867 53.5891ZM169.484 50.4688V36.3281H167.484V50.4688H169.484ZM167.884 37.1281C170.45 39.0523 173.204 40.6301 176.145 41.8601L176.917 40.0149C174.129 38.8491 171.519 37.3539 169.084 35.5281L167.884 37.1281ZM176.151 41.8625C179.179 43.1059 182.224 43.7344 185.281 43.7344V41.7344C182.505 41.7344 179.717 41.1649 176.911 40.0125L176.151 41.8625ZM185.281 43.7344C187.166 43.7344 188.76 43.5211 190.012 43.0439L189.3 41.1749C188.365 41.531 187.043 41.7344 185.281 41.7344V43.7344ZM190.035 43.0349C190.732 42.7499 191.33 42.3386 191.752 41.7632C192.18 41.1793 192.375 40.4965 192.375 39.7656H190.375C190.375 40.1285 190.284 40.3832 190.139 40.5805C189.988 40.7864 189.727 41.0001 189.278 41.1838L190.035 43.0349ZM192.375 39.7656C192.375 38.5601 191.707 37.6086 190.692 36.9103L189.558 38.5584C190.209 39.0059 190.375 39.4086 190.375 39.7656H192.375ZM190.692 36.9103C189.742 36.2577 188.515 35.7255 187.05 35.2912L186.482 37.2088C187.828 37.6078 188.841 38.0652 189.558 38.5584L190.692 36.9103ZM187.067 35.2964L179.645 32.9527L179.043 34.8598L186.464 37.2036L187.067 35.2964ZM179.65 32.9542C176.835 32.0495 174.725 30.8416 173.254 29.371L171.84 30.7852C173.598 32.5439 176.019 33.888 179.038 34.8583L179.65 32.9542ZM173.254 29.371C171.741 27.8584 170.713 26.1975 170.141 24.3864L168.234 24.9886C168.912 27.1358 170.123 29.0687 171.84 30.7852L173.254 29.371ZM170.143 24.3934C169.547 22.4555 169.25 20.4973 169.25 18.5156H167.25C167.25 20.7007 167.578 22.857 168.232 24.9816L170.143 24.3934ZM169.25 18.5156C169.25 14.9931 170.14 12.1155 171.863 9.81875L170.262 8.61875C168.235 11.322 167.25 14.6423 167.25 18.5156H169.25ZM171.868 9.81083C173.634 7.4077 175.938 5.59039 178.802 4.35582L178.01 2.51918C174.833 3.88878 172.241 5.92564 170.257 8.62667L171.868 9.81083ZM178.802 4.35582C181.694 3.10921 184.762 2.48438 188.016 2.48438V0.484375C184.498 0.484375 181.16 1.16162 178.01 2.51918L178.802 4.35582Z" fill="url(#paint0_linear)"/>
<defs>
<linearGradient id="paint0_linear" x1="24.3202" y1="-13" x2="218.008" y2="79.1139" gradientUnits="userSpaceOnUse">
<stop offset="0.0799975" stop-color="#D656FE"/>
<stop offset="0.805463" stop-color="#00EAAD"/>
</linearGradient>
</defs>
</svg>
