<svg width="570" height="5" viewBox="0 0 570 5" fill="none" xmlns="http://www.w3.org/2000/svg">
<path fill-rule="evenodd" clip-rule="evenodd" d="M1.80919 1H0V0H2.10939H2.4096L2.55071 0.264969L4.53987 4H7V5H4.23966H3.93946L3.79835 4.73503L1.80919 1ZM6.29986 1H3.5V0H6.60485H6.90983L7.04941 0.271169L8.96875 4H9.5V5H8.66377H8.35879L8.21921 4.72883L6.29986 1ZM7.97388 1H9.59561L11.5858 4.73512L11.7269 5H12.027H14.56H14.8498L14.9938 4.74848L16.4078 2.27947L15.54 1.78252L14.2701 4H12.3272L10.337 0.26488L10.1959 0H9.89574H7.97388V1ZM26.1199 1H28.9197L30.8391 4.72883L30.9787 5H31.2836H32.1199V4H31.5886L29.6693 0.271169L29.5297 0H29.2247H26.1199V1ZM30.7205 1H32.5297L34.5188 4.73503L34.6599 5H34.9601H37.7205V4H35.2603L33.2712 0.264969L33.1301 0H32.8299H30.7205V1ZM15.9692 4.5V5H16.4692H19.0363H19.2931L19.4427 4.79121L20.8757 2.79121L20.0628 2.20879L18.7794 4H16.9692V3.99488H15.9692V4.5ZM20.9692 5V4.5V3.99488H21.9692V4H23.7794L25.0628 2.20879L25.8757 2.79121L24.4427 4.79121L24.2931 5H24.0363H21.4692H20.9692ZM25.9692 4.5V5H26.4692H28.9358H29.2358L29.3769 4.73533L29.9104 3.73533L29.0281 3.26467L28.6358 4H26.9692V3.72691H25.9692V4.5ZM14.3267 1H11.9739V0H14.677H14.9265L15.0765 0.199437L15.3735 0.594178L15.5763 0.863796L15.4022 1.15278L14.435 2.75804L13.5784 2.24196L14.3267 1ZM16.4692 1H18.8221L18.0738 2.24196L18.9303 2.75804L19.8975 1.15278L20.0716 0.863795L19.8688 0.594177L19.5719 0.199437L19.4219 0H19.1723H16.4692V1ZM23.7433 1H20.4692V0H24.0733H24.28L24.4264 0.145929L24.8223 0.540671L25.1403 0.857765L24.859 1.20788L23.5695 2.81314L22.7899 2.18686L23.7433 1ZM43.2036 1H44.8253L46.8155 4.73512L46.9566 5H47.2568H49.7897H50.0795L50.2236 4.74848L51.6375 2.27947L50.7697 1.78252L49.4998 4H47.5569L45.5667 0.26488L45.4256 0H45.1255H43.2036V1ZM64.1495 1H61.3496V0H64.4545H64.7594L64.899 0.271169L66.8184 4H67.3496V5H66.5134H66.2084L66.0688 4.72883L64.1495 1ZM38.7297 1H41.5296L43.4489 4.72883L43.5885 5H43.8935H44.7297V4H44.1985L42.2791 0.271169L42.1396 0H41.8346H38.7297V1ZM67.7594 1H65.9502V0H68.0596H68.3598L68.5009 0.264969L70.4901 4H72.9502V5H70.1899H69.8897L69.7485 4.73503L67.7594 1ZM35.2297 1H37.0389L39.0281 4.73503L39.1692 5H39.4694H42.2297V4H39.7696L37.7804 0.264969L37.6393 0H37.3391H35.2297V1ZM51.199 5V4.5V3.99488H52.199V4H54.0092L55.2925 2.20879L56.1054 2.79121L54.6724 4.79121L54.5229 5H54.266H51.699H51.199ZM56.199 4.5V5H56.699H59.266H59.5229L59.6724 4.79121L61.1054 2.79121L60.2925 2.20879L59.0092 4H57.199V3.99488H56.199V4.5ZM61.199 5V4.5V3.72691H62.199V4H63.8656L64.2578 3.26467L65.1401 3.73533L64.6067 4.73533L64.4655 5H64.1655H61.699H61.199ZM47.2036 1H49.5565L48.8082 2.24196L49.6647 2.75804L50.6319 1.15278L50.806 0.863796L50.6032 0.594178L50.3063 0.199437L50.1562 0H49.9067H47.2036V1ZM54.0518 1H51.699V0H54.4021H54.6516L54.8016 0.199437L55.0986 0.594177L55.3014 0.863795L55.1272 1.15278L54.1601 2.75804L53.3035 2.24196L54.0518 1ZM55.699 1H58.9731L58.0196 2.18686L58.7992 2.81314L60.0888 1.20788L60.37 0.857765L60.052 0.540671L59.6561 0.145929L59.5098 0H59.3031H55.699V1ZM298.03 1H295.677V0H298.38H298.63L298.78 0.199437L299.077 0.594178L299.279 0.863796L299.105 1.15278L298.138 2.75804L297.282 2.24196L298.03 1ZM366.51 1H368.862L368.114 2.24196L368.971 2.75804L369.938 1.15278L370.112 0.863796L369.909 0.594178L369.612 0.199437L369.462 0H369.213H366.51V1ZM72.6417 1H70.8325V0H72.9419H73.2421L73.3832 0.264969L75.3724 4H77.8325V5H75.0722H74.772L74.6309 4.73503L72.6417 1ZM77.1324 1H74.3325V0H77.4374H77.7423L77.8819 0.271169L79.8013 4H80.3325V5H79.4963H79.1913L79.0517 4.72883L77.1324 1ZM78.8064 1H80.4281L82.4183 4.73512L82.5594 5H82.8596H85.3925H85.6823L85.8264 4.74848L87.2403 2.27947L86.3725 1.78252L85.1026 4H83.1597L81.1695 0.26488L81.0284 0H80.7283H78.8064V1ZM96.9524 1H99.7523L101.672 4.72883L101.811 5H102.116H102.952V4H102.421L100.502 0.271169L100.362 0H100.057H96.9524V1ZM101.553 1H103.362L105.351 4.73503L105.492 5H105.793H108.553V4H106.093L104.104 0.264969L103.963 0H103.662H101.553V1ZM86.8018 4.5V5H87.3018H89.8688H90.1256L90.2752 4.79121L91.7082 2.79121L90.8953 2.20879L89.6119 4H87.8018V3.99488H86.8018V4.5ZM91.8018 5V4.5V3.99488H92.8018V4H94.6119L95.8953 2.20879L96.7082 2.79121L95.2752 4.79121L95.1256 5H94.8688H92.3018H91.8018ZM96.8018 4.5V5H97.3018H99.7683H100.068L100.209 4.73533L100.743 3.73533L99.8606 3.26467L99.4683 4H97.8018V3.72691H96.8018V4.5ZM85.1592 1H82.8064V0H85.5095H85.759L85.909 0.199437L86.206 0.594178L86.4088 0.863796L86.2347 1.15278L85.2675 2.75804L84.4109 2.24196L85.1592 1ZM87.3018 1H89.6546L88.9063 2.24196L89.7629 2.75804L90.73 1.15278L90.9041 0.863795L90.7013 0.594177L90.4044 0.199437L90.2544 0H90.0048H87.3018V1ZM94.5758 1H91.3018V0H94.9059H95.1125L95.2589 0.145929L95.6548 0.540671L95.9728 0.857765L95.6916 1.20788L94.402 2.81314L93.6224 2.18686L94.5758 1ZM114.036 1H115.658L117.648 4.73512L117.789 5H118.089H120.622H120.912L121.056 4.74848L122.47 2.27947L121.602 1.78252L120.332 4H118.389L116.399 0.26488L116.258 0H115.958H114.036V1ZM134.982 1H132.182V0H135.287H135.592L135.731 0.271169L137.651 4H138.182V5H137.346H137.041L136.901 4.72883L134.982 1ZM109.562 1H112.362L114.281 4.72883L114.421 5H114.726H115.562V4H115.031L113.111 0.271169L112.972 0H112.667H109.562V1ZM138.592 1H136.782V0H138.892H139.192L139.333 0.264969L141.322 4H143.782V5H141.022H140.722L140.581 4.73503L138.592 1ZM106.062 1H107.871L109.86 4.73503L110.001 5H110.302H113.062V4H110.602L108.613 0.264969L108.472 0H108.171H106.062V1ZM122.031 5V4.5V3.99488H123.031V4H124.841L126.125 2.20879L126.938 2.79121L125.505 4.79121L125.355 5H125.098H122.531H122.031ZM127.031 4.5V5H127.531H130.098H130.355L130.505 4.79121L131.938 2.79121L131.125 2.20879L129.841 4H128.031V3.99488H127.031V4.5ZM132.031 5V4.5V3.72691H133.031V4H134.698L135.09 3.26467L135.972 3.73533L135.439 4.73533L135.298 5H134.998H132.531H132.031ZM118.036 1H120.389L119.64 2.24196L120.497 2.75804L121.464 1.15278L121.638 0.863796L121.435 0.594178L121.139 0.199437L120.989 0H120.739H118.036V1ZM124.884 1H122.531V0H125.234H125.484L125.634 0.199437L125.931 0.594177L126.134 0.863795L125.96 1.15278L124.992 2.75804L124.136 2.24196L124.884 1ZM126.531 1H129.805L128.852 2.18686L129.631 2.81314L130.921 1.20788L131.202 0.857765L130.884 0.540671L130.488 0.145929L130.342 0H130.135H126.531V1ZM143.474 1H141.665V0H143.774H144.075L144.216 0.264969L146.205 4H148.665V5H145.905H145.604L145.463 4.73503L143.474 1ZM147.965 1H145.165V0H148.27H148.575L148.714 0.271169L150.634 4H151.165V5H150.329H150.024L149.884 4.72883L147.965 1ZM151.261 1H149.639V0H151.561H151.861L152.002 0.26488L153.992 4H155.935L157.205 1.78252L158.073 2.27947L156.659 4.74848L156.515 5H156.225H153.692H153.392L153.251 4.73512L151.261 1ZM177.268 1H179.077L181.066 4.73503L181.207 5H181.507H184.268V4H181.808L179.819 0.264969L179.677 0H179.377H177.268V1ZM180.768 1H183.568L185.487 4.72883L185.627 5H185.932H186.768V4H186.237L184.317 0.271169L184.178 0H183.873H180.768V1ZM186.863 1H185.242V0H187.164H187.464L187.605 0.26488L189.595 4H191.538L192.808 1.78252L193.676 2.27947L192.262 4.74848L192.118 5H191.828H189.295H188.995L188.854 4.73512L186.863 1ZM206.188 1H203.388V0H206.493H206.798L206.937 0.271169L208.856 4H209.388V5H208.551H208.246L208.107 4.72883L206.188 1ZM209.797 1H207.988V0H210.098H210.398L210.539 0.264969L212.528 4H214.988V5H212.228H211.928L211.787 4.73503L209.797 1ZM193.237 5V4.5V3.99488H194.237V4H196.047L197.331 2.20879L198.144 2.79121L196.711 4.79121L196.561 5H196.304H193.737H193.237ZM198.237 4.5V5H198.737H201.304H201.561L201.711 4.79121L203.144 2.79121L202.331 2.20879L201.047 4H199.237V3.99488H198.237V4.5ZM203.237 5V4.5V3.72691H204.237V4H205.904L206.296 3.26467L207.178 3.73533L206.645 4.73533L206.504 5H206.204H203.737H203.237ZM189.242 1H191.595L190.846 2.24196L191.703 2.75804L192.67 1.15278L192.844 0.863796L192.641 0.594178L192.344 0.199437L192.194 0H191.945H189.242V1ZM196.09 1H193.737V0H196.44H196.69L196.84 0.199437L197.137 0.594177L197.339 0.863795L197.165 1.15278L196.198 2.75804L195.342 2.24196L196.09 1ZM197.737 1H201.011L200.058 2.18686L200.837 2.81314L202.127 1.20788L202.408 0.857765L202.09 0.540671L201.694 0.145929L201.548 0H201.341H197.737V1ZM167.785 1H170.585L172.504 4.72883L172.644 5H172.949H173.785V4H173.254L171.334 0.271169L171.195 0H170.89H167.785V1ZM172.385 1H174.195L176.184 4.73503L176.325 5H176.625H179.385V4H176.925L174.936 0.264969L174.795 0H174.495H172.385V1ZM157.634 4.5V5H158.134H160.701H160.958L161.108 4.79121L162.541 2.79121L161.728 2.20879L160.444 4H158.634V3.99488H157.634V4.5ZM162.634 5V4.5V3.99488H163.634V4H165.444L166.728 2.20879L167.541 2.79121L166.108 4.79121L165.958 5H165.701H163.134H162.634ZM167.634 4.5V5H168.134H170.601H170.901L171.042 4.73533L171.575 3.73533L170.693 3.26467L170.301 4H168.634V3.72691H167.634V4.5ZM155.992 1H153.639V0H156.342H156.592L156.742 0.199437L157.038 0.594178L157.241 0.863796L157.067 1.15278L156.1 2.75804L155.243 2.24196L155.992 1ZM158.134 1H160.487L159.739 2.24196L160.595 2.75804L161.563 1.15278L161.737 0.863795L161.534 0.594177L161.237 0.199437L161.087 0H160.837H158.134V1ZM165.408 1H162.134V0H165.738H165.945L166.091 0.145929L166.487 0.540671L166.805 0.857765L166.524 1.20788L165.235 2.81314L164.455 2.18686L165.408 1ZM215.997 1H218.797L220.717 4.72883L220.856 5H221.161H221.997V4H221.466L219.547 0.271169L219.407 0H219.102H215.997V1ZM214.307 1H212.497V0H214.607H214.907L215.048 0.264969L217.037 4H219.497V5H216.737H216.437L216.296 4.73503L214.307 1ZM220.471 1H222.093L224.083 4.73512L224.224 5H224.524H227.057H227.347L227.491 4.74848L228.905 2.27947L228.037 1.78252L226.767 4H224.824L222.834 0.26488L222.693 0H222.393H220.471V1ZM249.91 1H248.1V0H250.21H250.51L250.651 0.264969L252.64 4H255.1V5H252.34H252.04L251.899 4.73503L249.91 1ZM254.4 1H251.6V0H254.705H255.01L255.15 0.271169L257.069 4H257.6V5H256.764H256.459L256.32 4.72883L254.4 1ZM257.696 1H256.074V0H257.996H258.296L258.437 0.26488L260.428 4H262.37L263.64 1.78252L264.508 2.27947L263.094 4.74848L262.95 5H262.66H260.127H259.827L259.686 4.73512L257.696 1ZM283.703 1H285.512L287.501 4.73503L287.643 5H287.943H290.703V4H288.243L286.254 0.264969L286.113 0H285.813H283.703V1ZM290.003 1H287.203V0H290.308H290.613L290.753 0.271169L292.672 4H293.203V5H292.367H292.062L291.922 4.72883L290.003 1ZM293.299 1H291.677V0H293.599H293.899L294.04 0.26488L296.03 4H297.973L299.243 1.78252L300.111 2.27947L298.697 4.74848L298.553 5H298.263H295.73H295.43L295.289 4.73512L293.299 1ZM274.22 1H277.02L278.939 4.72883L279.079 5H279.384H280.22V4H279.689L277.77 0.271169L277.63 0H277.325H274.22V1ZM278.821 1H280.63L282.619 4.73503L282.76 5H283.06H285.821V4H283.361L281.372 0.264969L281.23 0H280.93H278.821V1ZM264.07 4.5V5H264.57H267.137H267.393L267.543 4.79121L268.976 2.79121L268.163 2.20879L266.88 4H265.07V3.99488H264.07V4.5ZM269.07 5V4.5V3.99488H270.07V4H271.88L273.163 2.20879L273.976 2.79121L272.543 4.79121L272.393 5H272.137H269.57H269.07ZM274.07 4.5V5H274.57H277.036H277.336L277.477 4.73533L278.011 3.73533L277.128 3.26467L276.736 4H275.07V3.72691H274.07V4.5ZM262.427 1H260.074V0H262.777H263.027L263.177 0.199437L263.474 0.594178L263.677 0.863796L263.503 1.15278L262.535 2.75804L261.679 2.24196L262.427 1ZM264.57 1H266.922L266.174 2.24196L267.031 2.75804L267.998 1.15278L268.172 0.863795L267.969 0.594177L267.672 0.199437L267.522 0H267.273H264.57V1ZM271.844 1H268.57V0H272.174H272.38L272.527 0.145929L272.923 0.540671L273.241 0.857765L272.959 1.20788L271.67 2.81314L270.89 2.18686L271.844 1ZM241.417 1H238.617V0H241.722H242.027L242.167 0.271169L244.086 4H244.617V5H243.781H243.476L243.336 4.72883L241.417 1ZM243.218 1H245.027L247.016 4.73503L247.157 5H247.457H250.218V4H247.758L245.768 0.264969L245.627 0H245.327H243.218V1ZM228.467 5V4.5V3.99488H229.467V4H231.277L232.56 2.20879L233.373 2.79121L231.94 4.79121L231.79 5H231.534H228.967H228.467ZM233.467 4.5V5H233.967H236.534H236.79L236.94 4.79121L238.373 2.79121L237.56 2.20879L236.277 4H234.467V3.99488H233.467V4.5ZM238.467 5V4.5V3.72691H239.467V4H241.133L241.525 3.26467L242.408 3.73533L241.874 4.73533L241.733 5H241.433H238.967H238.467ZM224.471 1H226.824L226.076 2.24196L226.932 2.75804L227.899 1.15278L228.074 0.863796L227.871 0.594178L227.574 0.199437L227.424 0H227.174H224.471V1ZM231.319 1H228.967V0H231.67H231.919L232.069 0.199437L232.366 0.594177L232.569 0.863795L232.395 1.15278L231.428 2.75804L230.571 2.24196L231.319 1ZM232.967 1H236.241L235.287 2.18686L236.067 2.81314L237.356 1.20788L237.638 0.857765L237.32 0.540671L236.924 0.145929L236.777 0H236.571H232.967V1ZM309.823 1H312.623L314.542 4.72883L314.682 5H314.987H315.823V4H315.292L313.372 0.271169L313.233 0H312.928H309.823V1ZM314.424 1H316.233L318.222 4.73503L318.363 5H318.663H321.424V4H318.963L316.974 0.264969L316.833 0H316.533H314.424V1ZM299.672 5V4.5V3.99488H300.672V4H302.483L303.766 2.20879L304.579 2.79121L303.146 4.79121L302.996 5H302.739H300.172H299.672ZM304.672 4.5V5H305.172H307.739H307.996L308.146 4.79121L309.579 2.79121L308.766 2.20879L307.483 4H305.672V3.99488H304.672V4.5ZM309.672 5V4.5V3.72691H310.672V4H312.339L312.731 3.26467L313.614 3.73533L313.08 4.73533L312.939 5H312.639H310.172H309.672ZM300.172 1H302.525L301.777 2.24196L302.633 2.75804L303.601 1.15278L303.775 0.863795L303.572 0.594177L303.275 0.199437L303.125 0H302.875H300.172V1ZM307.446 1H304.172V0H307.776H307.983L308.129 0.145929L308.525 0.540671L308.843 0.857765L308.562 1.20788L307.273 2.81314L306.493 2.18686L307.446 1ZM362.51 1H364.131L366.121 4.73512L366.263 5H366.563H369.096H369.385L369.529 4.74848L370.943 2.27947L370.076 1.78252L368.806 4H366.863L364.873 0.26488L364.732 0H364.431H362.51V1ZM360.836 1H358.036V0H361.141H361.445L361.585 0.271169L363.504 4H364.036V5H363.199H362.894L362.755 4.72883L360.836 1ZM354.536 1H356.345L358.334 4.73503L358.475 5H358.775H361.536V4H359.076L357.086 0.264969L356.945 0H356.645H354.536V1ZM328.528 1H326.906V0H328.828H329.128L329.27 0.26488L331.26 4H333.203L334.473 1.78252L335.34 2.27947L333.926 4.74848L333.782 5H333.493H330.96H330.66L330.518 4.73512L328.528 1ZM345.052 1H347.852L349.772 4.72883L349.911 5H350.216H351.052V4H350.521L348.602 0.271169L348.462 0H348.157H345.052V1ZM325.232 1H322.433V0H325.537H325.842L325.982 0.271169L327.901 4H328.433V5H327.596H327.291L327.152 4.72883L325.232 1ZM349.653 1H351.462L353.451 4.73503L353.593 5H353.893H356.653V4H354.193L352.204 0.264969L352.063 0H351.762H349.653V1ZM320.742 1H318.933V0H321.042H321.342L321.483 0.264969L323.472 4H325.933V5H323.172H322.872L322.731 4.73503L320.742 1ZM334.902 4.5V5H335.402H337.969H338.226L338.375 4.79121L339.808 2.79121L338.995 2.20879L337.712 4H335.902V3.99488H334.902V4.5ZM339.902 5V4.5V3.99488H340.902V4H342.712L343.995 2.20879L344.808 2.79121L343.375 4.79121L343.226 5H342.969H340.402H339.902ZM344.902 4.5V5H345.402H347.868H348.168L348.31 4.73533L348.843 3.73533L347.961 3.26467L347.568 4H345.902V3.72691H344.902V4.5ZM333.259 1H330.906V0H333.61H333.859L334.009 0.199437L334.306 0.594178L334.509 0.863796L334.335 1.15278L333.368 2.75804L332.511 2.24196L333.259 1ZM335.402 1H337.755L337.006 2.24196L337.863 2.75804L338.83 1.15278L339.004 0.863795L338.801 0.594177L338.505 0.199437L338.354 0H338.105H335.402V1ZM342.676 1H339.402V0H343.006H343.213L343.359 0.145929L343.755 0.540671L344.073 0.857765L343.792 1.20788L342.502 2.81314L341.723 2.18686L342.676 1ZM380.656 1H383.455L385.375 4.72883L385.514 5H385.819H386.656V4H386.124L384.205 0.271169L384.065 0H383.76H380.656V1ZM391.948 1H390.138V0H392.248H392.548L392.689 0.264969L394.678 4H397.138V5H394.378H394.078L393.937 4.73503L391.948 1ZM396.438 1H393.638V0H396.743H397.048L397.188 0.271169L399.107 4H399.638V5H398.802H398.497L398.358 4.72883L396.438 1ZM398.112 1H399.734L401.724 4.73512L401.865 5H402.165H404.698H404.988L405.132 4.74848L406.546 2.27947L405.678 1.78252L404.409 4H402.466L400.475 0.26488L400.334 0H400.034H398.112V1ZM416.258 1H419.058L420.978 4.72883L421.117 5H421.422H422.258V4H421.727L419.808 0.271169L419.668 0H419.363H416.258V1ZM420.859 1H422.668L424.657 4.73503L424.798 5H425.099H427.859V4H425.399L423.41 0.264969L423.268 0H422.968H420.859V1ZM406.108 4.5V5H406.608H409.175H409.432L409.581 4.79121L411.014 2.79121L410.201 2.20879L408.918 4H407.108V3.99488H406.108V4.5ZM411.108 5V4.5V3.99488H412.108V4H413.918L415.201 2.20879L416.014 2.79121L414.581 4.79121L414.432 5H414.175H411.608H411.108ZM416.108 4.5V5H416.608H419.074H419.374L419.515 4.73533L420.049 3.73533L419.167 3.26467L418.774 4H417.108V3.72691H416.108V4.5ZM404.465 1H402.112V0H404.815H405.065L405.215 0.199437L405.512 0.594178L405.715 0.863796L405.541 1.15278L404.573 2.75804L403.717 2.24196L404.465 1ZM406.608 1H408.961L408.212 2.24196L409.069 2.75804L410.036 1.15278L410.21 0.863795L410.007 0.594177L409.71 0.199437L409.56 0H409.311H406.608V1ZM413.882 1H410.608V0H414.212H414.418L414.565 0.145929L414.961 0.540671L415.279 0.857765L414.997 1.20788L413.708 2.81314L412.928 2.18686L413.882 1ZM504.548 1H506.169L508.159 4.73512L508.301 5H508.601H511.134H511.424L511.568 4.74848L512.982 2.27947L512.114 1.78252L510.844 4H508.901L506.911 0.26488L506.77 0H506.469H504.548V1ZM502.874 1H500.074V0H503.179H503.484L503.623 0.271169L505.542 4H506.074V5H505.237H504.932L504.793 4.72883L502.874 1ZM496.574 1H498.383L500.372 4.73503L500.513 5H500.813H503.574V4H501.114L499.124 0.264969L498.983 0H498.683H496.574V1ZM510.9 1H508.548V0H511.251H511.5L511.65 0.199437L511.947 0.594178L512.15 0.863796L511.976 1.15278L511.009 2.75804L510.152 2.24196L510.9 1ZM387.065 1H385.256V0H387.366H387.666L387.807 0.264969L389.796 4H392.256V5H389.496H389.196L389.054 4.73503L387.065 1ZM370.505 4.5V5H371.005H373.572H373.829L373.978 4.79121L375.411 2.79121L374.598 2.20879L373.315 4H371.505V3.99488H370.505V4.5ZM375.505 5V4.5V3.99488H376.505V4H378.315L379.598 2.20879L380.411 2.79121L378.978 4.79121L378.829 5H378.572H376.005H375.505ZM380.505 4.5V5H381.005H383.471H383.771L383.913 4.73533L384.446 3.73533L383.564 3.26467L383.171 4H381.505V3.72691H380.505V4.5ZM373.358 1H371.005V0H373.708H373.958L374.108 0.199437L374.404 0.594177L374.607 0.863795L374.433 1.15278L373.466 2.75804L372.609 2.24196L373.358 1ZM375.005 1H378.279L377.326 2.18686L378.105 2.81314L379.395 1.20788L379.676 0.857765L379.358 0.540671L378.962 0.145929L378.816 0H378.609H375.005V1ZM470.567 1H468.945V0H470.867H471.167L471.308 0.26488L473.298 4H475.241L476.511 1.78252L477.379 2.27947L475.965 4.74848L475.821 5H475.531H472.998H472.698L472.557 4.73512L470.567 1ZM487.091 1H489.891L491.81 4.72883L491.95 5H492.255H493.091V4H492.56L490.64 0.271169L490.501 0H490.196H487.091V1ZM467.271 1H464.471V0H467.576H467.881L468.02 0.271169L469.94 4H470.471V5H469.635H469.33L469.19 4.72883L467.271 1ZM491.691 1H493.501L495.49 4.73503L495.631 5H495.931H498.691V4H496.231L494.242 0.264969L494.101 0H493.801H491.691V1ZM462.78 1H460.971V0H463.08H463.381L463.522 0.264969L465.511 4H467.971V5H465.211H464.91L464.769 4.73503L462.78 1ZM476.94 4.5V5H477.44H480.007H480.264L480.414 4.79121L481.847 2.79121L481.034 2.20879L479.75 4H477.94V3.99488H476.94V4.5ZM481.94 5V4.5V3.99488H482.94V4H484.75L486.034 2.20879L486.847 2.79121L485.414 4.79121L485.264 5H485.007H482.44H481.94ZM486.94 4.5V5H487.44H489.907H490.207L490.348 4.73533L490.881 3.73533L489.999 3.26467L489.607 4H487.94V3.72691H486.94V4.5ZM475.298 1H472.945V0H475.648H475.897L476.047 0.199437L476.344 0.594178L476.547 0.863796L476.373 1.15278L475.406 2.75804L474.549 2.24196L475.298 1ZM477.44 1H479.793L479.045 2.24196L479.901 2.75804L480.868 1.15278L481.043 0.863795L480.84 0.594177L480.543 0.199437L480.393 0H480.143H477.44V1ZM484.714 1H481.44V0H485.044H485.251L485.397 0.145929L485.793 0.540671L486.111 0.857765L485.83 1.20788L484.54 2.81314L483.761 2.18686L484.714 1ZM433.342 1H434.964L436.954 4.73512L437.095 5H437.395H439.928H440.218L440.362 4.74848L441.776 2.27947L440.908 1.78252L439.638 4H437.695L435.705 0.26488L435.564 0H435.264H433.342V1ZM454.288 1H451.488V0H454.593H454.898L455.037 0.271169L456.957 4H457.488V5H456.652H456.347L456.207 4.72883L454.288 1ZM428.868 1H431.668L433.587 4.72883L433.727 5H434.032H434.868V4H434.337L432.417 0.271169L432.278 0H431.973H428.868V1ZM457.898 1H456.088V0H458.198H458.498L458.639 0.264969L460.628 4H463.088V5H460.328H460.028L459.887 4.73503L457.898 1ZM425.368 1H427.177L429.166 4.73503L429.307 5H429.608H432.368V4H429.908L427.919 0.264969L427.778 0H427.477H425.368V1ZM441.337 5V4.5V3.99488H442.337V4H444.147L445.431 2.20879L446.244 2.79121L444.811 4.79121L444.661 5H444.404H441.837H441.337ZM446.337 4.5V5H446.837H449.404H449.661L449.811 4.79121L451.244 2.79121L450.431 2.20879L449.147 4H447.337V3.99488H446.337V4.5ZM451.337 5V4.5V3.72691H452.337V4H454.004L454.396 3.26467L455.278 3.73533L454.745 4.73533L454.604 5H454.304H451.837H451.337ZM437.342 1H439.695L438.946 2.24196L439.803 2.75804L440.77 1.15278L440.944 0.863796L440.741 0.594178L440.444 0.199437L440.294 0H440.045H437.342V1ZM444.19 1H441.837V0H444.54H444.79L444.94 0.199437L445.237 0.594177L445.44 0.863795L445.265 1.15278L444.298 2.75804L443.442 2.24196L444.19 1ZM445.837 1H449.111L448.158 2.18686L448.937 2.81314L450.227 1.20788L450.508 0.857765L450.19 0.540671L449.794 0.145929L449.648 0H449.441H445.837V1ZM525.493 1H522.694V0H525.798H526.103L526.243 0.271169L528.162 4H528.694V5H527.857H527.552L527.413 4.72883L525.493 1ZM529.103 1H527.294V0H529.404H529.704L529.845 0.264969L531.834 4H534.294V5H531.534H531.234L531.093 4.73503L529.103 1ZM512.543 4.5V5H513.043H515.61H515.867L516.016 4.79121L517.449 2.79121L516.637 2.20879L515.353 4H513.543V3.99488H512.543V4.5ZM517.543 5V4.5V3.99488H518.543V4H520.353L521.637 2.20879L522.449 2.79121L521.016 4.79121L520.867 5H520.61H518.043H517.543ZM522.543 4.5V5H523.043H525.51H525.81L525.951 4.73533L526.484 3.73533L525.602 3.26467L525.21 4H523.543V3.72691H522.543V4.5ZM515.396 1H513.043V0H515.746H515.996L516.146 0.199437L516.443 0.594177L516.645 0.863795L516.471 1.15278L515.504 2.75804L514.648 2.24196L515.396 1ZM517.043 1H520.317L519.364 2.18686L520.143 2.81314L521.433 1.20788L521.714 0.857765L521.396 0.540671L521 0.145929L520.854 0H520.647H517.043V1ZM541.399 1H539.777V0H541.699H541.999L542.14 0.26488L544.13 4H546.073L547.343 1.78252L548.211 2.27947L546.797 4.74848L546.653 5H546.363H543.83H543.53L543.389 4.73512L541.399 1ZM557.923 1H560.723L562.642 4.72883L562.782 5H563.087H563.923V4H563.392L561.473 0.271169L561.333 0H561.028H557.923V1ZM538.103 1H535.303V0H538.408H538.713L538.853 0.271169L540.772 4H541.303V5H540.467H540.162L540.022 4.72883L538.103 1ZM562.524 1H564.333L566.322 4.73503L566.463 5H566.763H569.524V4H567.064L565.074 0.264969L564.933 0H564.633H562.524V1ZM533.612 1H531.803V0H533.913H534.213L534.354 0.264969L536.343 4H538.803V5H536.043H535.743L535.602 4.73503L533.612 1ZM547.772 4.5V5H548.272H550.839H551.096L551.246 4.79121L552.679 2.79121L551.866 2.20879L550.583 4H548.772V3.99488H547.772V4.5ZM552.772 5V4.5V3.99488H553.772V4H555.583L556.866 2.20879L557.679 2.79121L556.246 4.79121L556.096 5H555.839H553.272H552.772ZM557.772 4.5V5H558.272H560.739H561.039L561.18 4.73533L561.714 3.73533L560.831 3.26467L560.439 4H558.772V3.72691H557.772V4.5ZM546.13 1H543.777V0H546.48H546.73L546.88 0.199437L547.177 0.594178L547.379 0.863796L547.205 1.15278L546.238 2.75804L545.382 2.24196L546.13 1ZM548.272 1H550.625L549.877 2.24196L550.734 2.75804L551.701 1.15278L551.875 0.863795L551.672 0.594177L551.375 0.199437L551.225 0H550.976H548.272V1ZM555.547 1H552.272V0H555.877H556.083L556.23 0.145929L556.625 0.540671L556.944 0.857765L556.662 1.20788L555.373 2.81314L554.593 2.18686L555.547 1Z" fill="url(#paint0_linear)" fill-opacity="0.6"/>
<defs>
<linearGradient id="paint0_linear" x1="0.00419418" y1="3.00075" x2="17.3782" y2="-93.9907" gradientUnits="userSpaceOnUse">
<stop stop-color="#8F67FF" stop-opacity="0"/>
<stop offset="0.504057" stop-color="#8F67FF"/>
<stop offset="1" stop-color="#8F67FF" stop-opacity="0"/>
</linearGradient>
</defs>
</svg>
