<svg width="80" height="20" viewBox="0 0 80 20" fill="none" xmlns="http://www.w3.org/2000/svg">
<path d="M12.584 0.551999L11.648 3.696H7.904C7.712 3.696 7.56 3.728 7.448 3.792C7.352 3.856 7.272 4 7.208 4.224L4.208 14.4C4.08 14.864 4.264 15.096 4.76 15.096H5.984L7.304 10.632H6.56L7.472 7.536H11.648L8.768 17.328L4.736 19.368L5.12 18H2.888C2.472 18 2.088 17.944 1.736 17.832C1.384 17.704 1.088 17.512 0.848 17.256C0.624 16.984 0.472 16.648 0.392 16.248C0.328 15.832 0.384 15.336 0.56 14.76L4.256 2.184C4.448 1.528 4.736 1.096 5.12 0.887999C5.52 0.663999 6.008 0.551999 6.584 0.551999H12.584ZM18.533 4.344L15.365 12.24H17.165L18.533 4.344ZM9.365 18L17.021 0.551999H22.181L19.805 18H16.205L16.757 14.856H14.381L13.133 18H9.365ZM29.0782 0.551999L25.0222 14.352C24.9422 14.624 24.9502 14.816 25.0462 14.928C25.1582 15.024 25.3502 15.072 25.6222 15.072H26.5582L30.8302 0.551999H34.4302L29.4862 17.328L25.3102 19.368L25.7182 18H23.6302C23.1822 18 22.7742 17.944 22.4062 17.832C22.0542 17.704 21.7662 17.512 21.5422 17.256C21.3182 16.984 21.1742 16.648 21.1102 16.248C21.0622 15.832 21.1262 15.336 21.3022 14.76L25.4782 0.551999H29.1022H29.0782ZM35.6266 0.551999H38.7226L38.8426 7.296L40.8346 0.551999H44.3386L39.2026 18H36.2986L35.9866 11.04L33.8986 18H30.4906L35.6266 0.551999ZM45.3727 0.551999H53.8207L52.8847 3.696H50.4367L46.2847 18H42.6847L46.9327 3.696H44.4367L45.3727 0.551999ZM54.8219 0.551999H58.6859L54.5339 14.688H58.4699L57.2219 18H49.6859L54.8219 0.551999ZM63.5876 0.551999H70.4516L69.5156 3.696H66.2996L65.1716 7.536H68.3156L67.4036 10.632H64.2596L63.0596 14.688H66.3956L65.1956 18H58.4516L63.5876 0.551999ZM71.4352 0.551999H79.8832L78.9472 3.696H76.4992L72.3472 18H68.7472L72.9952 3.696H70.4992L71.4352 0.551999Z" fill="url(#paint0_linear)"/>
<defs>
<linearGradient id="paint0_linear" x1="26" y1="-3" x2="26.4721" y2="18.0006" gradientUnits="userSpaceOnUse">
<stop offset="0.28169" stop-color="#FFD271"/>
<stop offset="0.465019" stop-color="#FFDB8D"/>
<stop offset="1" stop-color="#825900"/>
</linearGradient>
</defs>
</svg>
