<svg width="126" height="53" viewBox="0 0 126 53" fill="none" xmlns="http://www.w3.org/2000/svg">
<g clip-path="url(#clip0)">
<path opacity="0.4" fill-rule="evenodd" clip-rule="evenodd" d="M-1.43545 42.1296C-8.46303 43.1671 -13.0107 41.6049 -15.9156 39.1262C-18.8922 36.5863 -20.6319 32.6679 -21.1659 28.1336C-21.6994 23.603 -20.9822 18.7617 -19.3766 14.8132C-17.7306 10.7653 -15.4085 8.23483 -13.1835 7.39396L-15.509 1.24052C-20.1754 3.00405 -23.4962 7.48058 -25.4703 12.3353C-27.4848 17.2895 -28.365 23.2465 -27.699 28.9029C-27.0333 34.5555 -24.7765 40.2128 -20.1854 44.1303C-15.5226 48.109 -8.93134 49.8858 -0.474653 48.6372C9.23483 47.2037 16.7824 43.544 21.5674 37.3051C23.9364 39.1718 26.3592 40.3395 28.8497 40.7267C32.4174 41.2815 35.5802 40.1528 38.216 38.2254C41.4647 35.8497 44.17 32.0716 46.4264 27.9802C48.2922 27.8354 49.6736 27.9613 50.6515 28.2448C51.8588 28.5949 52.3546 29.137 52.6298 29.8067C52.9816 30.6628 53.1493 32.2015 52.606 34.7589C52.0725 37.2708 50.922 40.4424 49.0575 44.3169L54.9851 47.1694C56.9731 43.0383 58.3573 39.3427 59.0407 36.1257C59.7143 32.9543 59.7811 29.9024 58.7143 27.3063C57.5708 24.5239 55.3301 22.7522 52.4832 21.9268C51.5898 21.6678 50.6368 21.5003 49.6322 21.4135L49.6979 21.2638C55.0532 9.02901 61.1008 7.15798 62.5419 7.21127L62.6026 7.21351H62.6634C63.138 7.21351 65.038 7.73159 67.8381 10.1292C70.4654 12.3788 73.5388 16.0029 76.3942 21.3546C75.0258 21.4025 73.743 21.5849 72.5637 21.9268C69.7169 22.7522 67.4761 24.5239 66.3327 27.3063C65.2658 29.9024 65.3326 32.9543 66.0063 36.1257C66.6897 39.3427 68.0739 43.0383 70.0619 47.1694L75.9895 44.3169C74.125 40.4424 72.9745 37.2708 72.4409 34.7589C71.8977 32.2015 72.0654 30.6628 72.4172 29.8067C72.6924 29.137 73.1881 28.5949 74.3955 28.2448C75.6658 27.8765 77.617 27.7743 80.4263 28.1858C83.6996 33.0767 87.1412 36.6188 90.8314 38.4439C93.558 39.7924 96.4382 40.2099 99.3411 39.5065C100.867 39.1368 102.314 38.4785 103.685 37.586C108.489 43.4153 115.837 46.8627 125.191 48.2438C133.648 49.4923 140.239 47.7155 144.902 43.7368C149.493 39.8193 151.75 34.162 152.415 28.5094C153.081 22.853 152.201 16.896 150.187 11.9419C148.213 7.08712 144.892 2.61059 140.225 0.847069L137.9 7.0005C140.125 7.84138 142.447 10.3718 144.093 14.4198C145.699 18.3682 146.416 23.2095 145.882 27.7401C145.348 32.2745 143.609 36.1928 140.632 38.7327C137.727 41.2114 133.179 42.7737 126.152 41.7361C116.441 40.3025 110.388 36.5812 107.132 31.0764C103.807 25.4538 102.95 17.2282 105.346 5.85529L98.9092 4.49911C96.6166 15.3808 96.8591 24.6795 100.205 32.0012C99.3304 32.5858 98.5246 32.9358 97.792 33.1133C96.5508 33.4141 95.2464 33.2887 93.7477 32.5474C90.5064 30.9444 86.6072 26.5751 82.2759 18.4044C79.0669 12.351 75.472 8.00555 72.1165 5.13245C68.9363 2.40937 65.5518 0.661373 62.7266 0.635605C57.2348 0.469929 49.4186 5.49659 43.6717 18.626C40.8806 25.0026 37.7494 30.4172 34.333 32.9154C32.761 34.065 31.3228 34.454 29.8604 34.2266C28.5827 34.0279 26.9267 33.3025 24.893 31.5178C27.8725 24.3358 28.0093 15.3444 25.8072 4.89257L19.3703 6.24874C21.7664 17.6217 20.9091 25.8473 17.5841 31.4699C14.3288 36.9746 8.27502 40.6959 -1.43545 42.1296Z" fill="url(#paint0_linear)" fill-opacity="0.8"/>
</g>
<path d="M1 0H125V44L123 46L121 48H67L63 52L59 48H5L3 46L1 44V0Z" fill="url(#paint1_radial)" fill-opacity="0.8"/>
<path d="M1 0H125V44L123 46L121 48H67L63 52L59 48H5L3 46L1 44V0Z" fill="url(#paint2_radial)" fill-opacity="0.8"/>
<path d="M1 0V44L5 48H59L63 52L67 48H121L125 44V0" stroke="url(#paint3_linear)"/>
<path d="M65 46L63 43L61 46L63 49L65 46Z" fill="url(#paint4_linear)"/>
<defs>
<linearGradient id="paint0_linear" x1="53.5735" y1="49" x2="49.8219" y2="-6.91472" gradientUnits="userSpaceOnUse">
<stop stop-color="#AD8419"/>
<stop offset="0.505153" stop-color="#3A1668"/>
<stop offset="0.707907" stop-color="#221932" stop-opacity="0.06"/>
</linearGradient>
<radialGradient id="paint1_radial" cx="0" cy="0" r="1" gradientUnits="userSpaceOnUse" gradientTransform="translate(63 -27.5) rotate(90) scale(99.5 155.525)">
<stop offset="0.630777" stop-color="#FFB002" stop-opacity="0"/>
<stop offset="0.803009" stop-color="#FFAF00" stop-opacity="0.3"/>
</radialGradient>
<radialGradient id="paint2_radial" cx="0" cy="0" r="1" gradientUnits="userSpaceOnUse" gradientTransform="translate(63 -27.5) rotate(90) scale(94 158.203)">
<stop offset="0.721698" stop-color="#FFB002" stop-opacity="0"/>
<stop offset="0.831808" stop-color="#FFAF00" stop-opacity="0.11"/>
</radialGradient>
<linearGradient id="paint3_linear" x1="63" y1="0" x2="63" y2="52" gradientUnits="userSpaceOnUse">
<stop offset="0.128829" stop-color="#FFD271" stop-opacity="0"/>
<stop offset="0.598031" stop-color="#825900"/>
<stop offset="0.892653" stop-color="#FFD271"/>
<stop offset="1" stop-color="#825900"/>
</linearGradient>
<linearGradient id="paint4_linear" x1="60" y1="46.5" x2="65.9802" y2="46.6752" gradientUnits="userSpaceOnUse">
<stop offset="0.44031" stop-color="#FFD271"/>
<stop offset="0.544434" stop-color="#825900"/>
</linearGradient>
<linearGradient id="paint5_linear" x1="61.6933" y1="18" x2="62.5077" y2="37.7791" gradientUnits="userSpaceOnUse">
<stop stop-color="#FFD271"/>
<stop offset="0.489118" stop-color="#825900"/>
</linearGradient>
<clipPath id="clip0">
<rect x="1" width="124" height="48" rx="8" fill="white"/>
</clipPath>
</defs>
</svg>
