<svg width="592" height="59" viewBox="0 0 592 59" fill="none" xmlns="http://www.w3.org/2000/svg">
<g opacity="0.2">
<path d="M295.646 11.3536L296 11.7071L296.354 11.3536L300.207 7.5H591.5V54.5H300.207L296.354 50.6464L296 50.2929L295.646 50.6464L291.793 54.5H0.5V7.5H291.793L295.646 11.3536Z" stroke="url(#paint0_linear)"/>
<g opacity="0.6" filter="url(#filter0_f)">
<path d="M298 6L296 9L294 6L296 3L298 6Z" fill="url(#paint1_linear)"/>
</g>
<path d="M298 6L296 9L294 6L296 3L298 6Z" fill="url(#paint2_linear)"/>
<path d="M298 56L296 53L294 56L296 59L298 56Z" fill="url(#paint3_linear)"/>
</g>
<defs>
<filter id="filter0_f" x="291" y="0" width="10" height="12" filterUnits="userSpaceOnUse" color-interpolation-filters="sRGB">
<feFlood flood-opacity="0" result="BackgroundImageFix"/>
<feBlend mode="normal" in="SourceGraphic" in2="BackgroundImageFix" result="shape"/>
<feGaussianBlur stdDeviation="1.5" result="effect1_foregroundBlur"/>
</filter>
<linearGradient id="paint0_linear" x1="0" y1="7" x2="98.5959" y2="258.836" gradientUnits="userSpaceOnUse">
<stop offset="0.165311" stop-color="#8963F3" stop-opacity="0"/>
<stop offset="0.352431" stop-color="#8D66FD"/>
<stop offset="0.6295" stop-color="#00C9B1"/>
<stop offset="0.823799" stop-color="#00C9B1" stop-opacity="0"/>
</linearGradient>
<linearGradient id="paint1_linear" x1="292" y1="0.500001" x2="303.144" y2="12.8703" gradientUnits="userSpaceOnUse">
<stop offset="0.183042" stop-color="#7F6BEE"/>
<stop offset="0.65409" stop-color="#15BABC"/>
</linearGradient>
<linearGradient id="paint2_linear" x1="295.5" y1="3.5" x2="303.11" y2="12.9114" gradientUnits="userSpaceOnUse">
<stop stop-color="#7F6BEE"/>
<stop offset="0.811402" stop-color="#15BABC"/>
</linearGradient>
<linearGradient id="paint3_linear" x1="295.5" y1="58.5" x2="303.11" y2="49.0886" gradientUnits="userSpaceOnUse">
<stop stop-color="#7F6BEE"/>
<stop offset="0.811402" stop-color="#15BABC"/>
</linearGradient>
<linearGradient id="paint4_linear" x1="269" y1="19" x2="328.389" y2="41.0765" gradientUnits="userSpaceOnUse">
<stop stop-color="#8963F3"/>
<stop offset="1" stop-color="#00C9B1"/>
</linearGradient>
</defs>
</svg>
