<svg width="592" height="56" viewBox="0 0 592 56" fill="none" xmlns="http://www.w3.org/2000/svg">
<g clip-path="url(#clip0)">
<g opacity="0.4" clip-path="url(#clip1)">
<path fill-rule="evenodd" clip-rule="evenodd" d="M86.8602 9.5H77.2151C77.7998 9.88525 78.3565 10.3025 78.8853 10.7501C83.0635 14.2867 85.1447 19.4196 85.7604 24.6061C86.3762 29.794 85.5613 35.2631 83.6999 39.804C82.9374 41.6642 81.9656 43.4444 80.7901 45.0015H101.431C93.6341 34.6077 88.7094 22.771 86.6575 9.53142L86.8602 9.5ZM11.2215 9.5H50.4448C46.2113 11.3369 42.7766 13.9259 40.2358 17.3233C37.1805 16.7807 34.001 17.3692 30.8004 18.9395C28.0706 20.2788 25.2893 22.3432 22.4513 25.0693C17.0286 25.7956 14.1839 24.6738 12.7775 22.8528C11.1579 20.7558 10.5433 16.6828 12.1139 9.70073L11.2215 9.5ZM0 9.5H7.04196C5.62345 16.3454 5.86994 22.089 8.82033 25.9091C10.9033 28.6061 13.9725 29.9208 17.6638 30.2201C17.4616 30.4599 17.2592 30.7028 17.0564 30.9486C12.4076 36.5861 8.7749 40.7684 6.07884 43.2324C5.12368 44.1054 4.38631 44.6673 3.84462 45.0015H0.306924V48.6718L0 48.9321C0.097136 49.0466 0.199527 49.1555 0.306924 49.2582V50.0015H1.38973C1.74111 50.165 2.12141 50.2786 2.52623 50.3346C3.43275 50.4599 4.2817 50.2724 4.99196 50.0015H133.303C134.005 50.4612 134.749 50.845 135.533 51.1392L135.96 50.0015H204.834C204.864 50.0154 204.894 50.029 204.924 50.0424C204.948 50.053 204.972 50.0634 204.996 50.0736C205.019 50.0836 205.042 50.0935 205.066 50.1031C205.79 50.4055 206.678 50.6352 207.635 50.5157C208.19 50.4465 208.699 50.2686 209.151 50.0015H212.446C212.899 50.2691 213.409 50.4474 213.964 50.5166C214.921 50.636 215.809 50.4064 216.534 50.104C216.611 50.0716 216.689 50.0374 216.768 50.0015H344.709C345.411 50.4612 346.155 50.845 346.94 51.1392L347.366 50.0015H416.611C417.321 50.2719 418.169 50.4589 419.075 50.3337C419.479 50.2778 419.858 50.1645 420.209 50.0015H424.113C424.566 50.2691 425.076 50.4474 425.631 50.5166C426.588 50.636 427.476 50.4064 428.2 50.104C428.236 50.0892 428.272 50.0739 428.307 50.0583L428.354 50.0377C428.369 50.031 428.384 50.0243 428.399 50.0175L428.434 50.0015H556.375C557.078 50.4612 557.821 50.845 558.606 51.1392L559.032 50.0015H606.5V45.0015H596.997C598.718 36.0322 598.477 28.3415 595.954 22.1508C597.282 22.2526 598.709 22.6647 600.264 23.4274C603.781 25.1531 607.818 28.6296 612.353 34.1288L613.189 35.1429C617.409 40.2638 620.959 44.5706 623.73 47.3512C625.178 48.8039 626.62 50.0575 627.987 50.7376C628.684 51.0842 629.573 51.3906 630.558 51.3273C631.651 51.2571 632.589 50.7493 633.267 49.9502L629.454 46.7158C629.602 46.5412 629.898 46.3594 630.238 46.3376C630.346 46.3306 630.409 46.3438 630.417 46.3456C630.409 46.3436 630.345 46.3259 630.214 46.2608C629.628 45.9694 628.671 45.2253 627.272 43.8217C624.676 41.2164 621.269 37.0841 616.941 31.8344L616.939 31.8315L616.21 30.9477C616.007 30.7009 615.803 30.4571 615.6 30.2164C619.293 29.9176 622.363 28.6028 624.447 25.9052C627.525 21.9194 627.66 15.8398 626.031 8.59952L621.153 9.6968C622.724 16.6789 622.109 20.7518 620.49 22.8489C619.083 24.6704 616.237 25.7923 610.812 25.0648C607.975 22.3404 605.195 20.2773 602.466 18.9386C599.349 17.4094 596.253 16.8113 593.271 17.2821C590.87 13.9479 587.631 11.3708 583.639 9.5H592V4.5H0V9.5ZM555.815 9.5H546.407L546.61 9.53142C544.558 22.771 539.633 34.6077 531.837 45.0015H551.659C550.835 43.6964 550.134 42.277 549.555 40.812C547.702 36.122 546.893 30.4596 547.505 25.0829C548.115 19.7145 550.177 14.3837 554.334 10.6828C554.805 10.2633 555.299 9.86858 555.815 9.5ZM558.07 45.0015H576.715C578.26 40.6051 578.754 37.2106 578.449 34.7012C578.149 32.2344 577.09 30.6159 575.304 29.5375C573.606 28.5125 572.515 28.2678 571.739 28.2948C570.977 28.3213 570.152 28.6206 568.989 29.4405L566.108 25.3541C567.69 24.2389 569.456 23.3711 571.565 23.2978C573.659 23.225 575.719 23.9478 577.888 25.2571C581.115 27.2052 582.945 30.2549 583.412 34.0981C583.796 37.2574 583.262 40.9185 581.984 45.0015H591.899C594.054 34.5434 593.247 26.8408 590.059 21.4924C586.877 16.1548 580.986 12.6125 571.727 11.2565C565.012 10.273 560.559 11.835 557.659 14.4172C554.692 17.059 552.992 21.0869 552.473 25.6479C551.955 30.2008 552.65 35.0388 554.205 38.9748C555.257 41.638 556.612 43.678 558.07 45.0015ZM365.049 45.0015H346.404C344.946 43.678 343.591 41.638 342.539 38.9748C340.984 35.0388 340.289 30.2008 340.807 25.6479C341.325 21.0869 343.025 17.059 345.993 14.4172C348.893 11.835 353.345 10.273 360.061 11.2565C369.32 12.6125 375.211 16.1548 378.393 21.4924C381.581 26.8408 382.388 34.5434 380.233 45.0015H370.318C371.596 40.9185 372.13 37.2574 371.746 34.0981C371.279 30.2549 369.448 27.2052 366.222 25.2571C364.053 23.9478 361.993 23.225 359.899 23.2978C357.789 23.3711 356.024 24.2389 354.442 25.3541L357.323 29.4405C358.486 28.6206 359.311 28.3213 360.072 28.2948C360.849 28.2678 361.94 28.5125 363.638 29.5375C365.424 30.6159 366.483 32.2344 366.783 34.7012C367.088 37.2106 366.594 40.6051 365.049 45.0015ZM410.175 45.0015H385.331C387.052 36.0322 386.811 28.3415 384.288 22.1508C385.616 22.2525 387.043 22.6647 388.598 23.4274C392.115 25.1531 396.152 28.6296 400.687 34.1288C404.347 38.5672 407.523 42.286 410.175 45.0015ZM427.124 45.0015H417.758C417.216 44.6674 416.478 44.1053 415.522 43.2315C412.826 40.7675 409.193 36.5852 404.544 30.9477C404.341 30.7009 404.138 30.4571 403.935 30.2164C407.627 29.9175 410.697 28.6028 412.78 25.9052C415.73 22.0858 415.977 16.3437 414.56 9.5H430.113C428.695 16.3454 428.941 22.089 431.892 25.9091C433.975 28.6061 437.044 29.9208 440.735 30.2201C440.533 30.4599 440.331 30.7028 440.128 30.9486C435.474 36.5919 431.839 40.8244 429.134 43.3402C428.307 44.1092 427.642 44.6457 427.124 45.0015ZM371.973 9.5H410.362L409.487 9.6968C411.057 16.6789 410.443 20.7518 408.823 22.8489C407.417 24.6703 404.571 25.7922 399.146 25.0649C396.309 22.3405 393.529 20.2773 390.8 18.9386C387.684 17.4094 384.587 16.8112 381.605 17.2821C379.204 13.9479 375.965 11.3708 371.973 9.5ZM342.668 10.6828C343.139 10.2633 343.633 9.86858 344.149 9.5H334.74L334.943 9.53142C332.891 22.771 327.966 34.6077 320.17 45.0015H339.992C339.169 43.6964 338.467 42.277 337.889 40.812C336.036 36.122 335.227 30.4596 335.839 25.0829C336.449 19.7145 338.511 14.3837 342.668 10.6828ZM206.143 45.0015H215.457C215.976 44.6457 216.641 44.1092 217.467 43.3402C220.172 40.8244 223.808 36.5919 228.461 30.9486C228.664 30.7028 228.866 30.4599 229.069 30.2201C225.377 29.9208 222.308 28.6061 220.225 25.9091C217.275 22.089 217.028 16.3454 218.447 9.5H203.153C204.571 16.3437 204.324 22.0858 201.374 25.9052C199.291 28.6028 196.221 29.9175 192.528 30.2164C192.731 30.4571 192.935 30.7009 193.138 30.9477C197.792 36.591 201.427 40.8235 204.132 43.3393C204.959 44.109 205.625 44.6457 206.143 45.0015ZM198.956 9.5H160.567C164.558 11.3708 167.798 13.9479 170.199 17.2821C173.18 16.8112 176.277 17.4094 179.394 18.9386C182.123 20.2773 184.903 22.3405 187.74 25.0649C193.165 25.7922 196.01 24.6703 197.417 22.8489C199.037 20.7518 199.651 16.6789 198.081 9.6968L198.956 9.5ZM132.743 9.5H123.336L123.538 9.53142C121.486 22.771 116.562 34.6077 108.765 45.0015H128.586C127.763 43.6964 127.061 42.277 126.482 40.812C124.63 36.122 123.821 30.4596 124.432 25.0829C125.043 19.7145 127.105 14.3837 131.262 10.6828C131.733 10.2633 132.227 9.86858 132.743 9.5ZM134.998 45.0015H153.643C155.188 40.6051 155.682 37.2106 155.377 34.7012C155.077 32.2344 154.018 30.6159 152.232 29.5375C150.534 28.5125 149.443 28.2678 148.666 28.2948C147.905 28.3213 147.08 28.6206 145.917 29.4405L143.036 25.3541C144.618 24.2389 146.384 23.3711 148.493 23.2978C150.587 23.225 152.647 23.9478 154.816 25.2571C158.043 27.2052 159.873 30.2549 160.34 34.0981C160.724 37.2574 160.19 40.9185 158.912 45.0015H168.827C170.981 34.5434 170.175 26.8408 166.987 21.4924C163.805 16.1548 157.913 12.6125 148.655 11.2565C141.939 10.273 137.487 11.835 134.586 14.4172C131.619 17.059 129.919 21.0869 129.4 25.6479C128.883 30.2008 129.578 35.0388 131.133 38.9748C132.185 41.638 133.54 43.678 134.998 45.0015ZM173.925 45.0015H198.706C196.07 42.2595 192.914 38.5344 189.281 34.1288C184.746 28.6296 180.709 25.1531 177.192 23.4274C175.637 22.6647 174.21 22.2525 172.881 22.1508C175.405 28.3415 175.646 36.0322 173.925 45.0015ZM459.271 45.0015H434.561C437.197 42.2596 440.353 38.5348 443.986 34.1297C448.52 28.6305 452.557 25.154 456.074 23.4283C457.691 22.6353 459.17 22.2213 460.542 22.141C457.908 28.3116 457.593 36.0071 459.271 45.0015ZM474.354 45.0015H464.364C462.304 34.7308 463.128 27.1464 466.279 21.8611C469.461 16.5234 475.352 12.9812 484.611 11.6252C491.362 10.6365 495.832 12.1167 498.727 14.5665C501.672 17.0599 503.353 20.8691 503.867 25.1955C504.38 29.5204 503.691 34.135 502.145 37.9076C500.655 41.5424 498.543 44.0082 496.358 45.0015H479.623C478.078 40.6055 477.584 37.2113 477.889 34.7021C478.189 32.2353 479.248 30.6168 481.034 29.5384C482.732 28.5134 483.823 28.2687 484.6 28.2957C485.361 28.3222 486.186 28.6215 487.349 29.4414L490.23 25.355C488.648 24.2398 486.882 23.372 484.773 23.2987C482.679 23.2259 480.619 23.9487 478.45 25.258C475.223 27.2061 473.393 30.2559 472.926 34.099C472.542 37.258 473.076 40.9189 474.354 45.0015ZM524.502 45.0015H503.862C505.037 43.4444 506.009 41.6642 506.771 39.804C508.633 35.2631 509.448 29.794 508.832 24.6061C508.216 19.4196 506.135 14.2867 501.957 10.7501C501.428 10.3025 500.871 9.88525 500.287 9.5H509.932L509.729 9.53142C511.781 22.771 516.706 34.6077 524.502 45.0015ZM434.293 9.5H473.516C469.283 11.3369 465.848 13.9259 463.307 17.3233C460.252 16.7807 457.073 17.3692 453.872 18.9395C451.142 20.2788 448.361 22.3432 445.523 25.0693C440.1 25.7956 437.255 24.6738 435.849 22.8528C434.229 20.7558 433.615 16.6828 435.185 9.70073L434.293 9.5ZM222.894 45.0015H247.604C245.926 36.0071 246.241 28.3116 248.876 22.141C247.503 22.2213 246.024 22.6353 244.408 23.4283C240.89 25.154 236.854 28.6305 232.319 34.1297C228.686 38.5348 225.53 42.2596 222.894 45.0015ZM252.697 45.0015H262.687C261.409 40.9189 260.875 37.258 261.259 34.099C261.726 30.2558 263.557 27.2061 266.783 25.258C268.952 23.9487 271.012 23.2259 273.107 23.2987C275.216 23.372 276.982 24.2398 278.563 25.355L275.682 29.4414C274.519 28.6215 273.695 28.3222 272.933 28.2957C272.156 28.2687 271.065 28.5134 269.368 29.5384C267.582 30.6168 266.522 32.2353 266.223 34.7021C265.918 37.2113 266.411 40.6055 267.956 45.0015H284.691C286.876 44.0082 288.988 41.5424 290.478 37.9076C292.025 34.135 292.713 29.5204 292.2 25.1955C291.686 20.8691 290.005 17.0599 287.06 14.5665C284.166 12.1167 279.695 10.6365 272.944 11.6252C263.686 12.9812 257.794 16.5234 254.612 21.8611C251.462 27.1464 250.637 34.7308 252.697 45.0015ZM292.195 45.0015H312.835C305.039 34.6077 300.114 22.771 298.062 9.53142L298.265 9.5H288.62C289.205 9.88525 289.761 10.3025 290.29 10.7501C294.468 14.2867 296.549 19.4196 297.165 24.6061C297.781 29.794 296.966 35.2631 295.105 39.804C294.342 41.6642 293.37 43.4444 292.195 45.0015ZM261.85 9.5H222.626L223.519 9.70073C221.948 16.6828 222.563 20.7558 224.182 22.8528C225.589 24.6738 228.433 25.7956 233.856 25.0693C236.694 22.3432 239.475 20.2788 242.205 18.9395C245.406 17.3692 248.585 16.7807 251.641 17.3233C254.181 13.9259 257.616 11.3369 261.85 9.5ZM36.1997 45.0015H11.4269C14.0788 42.2861 17.2543 38.5676 20.914 34.1297C25.4488 28.6305 29.4856 25.154 33.0027 23.4283C34.6191 22.6353 36.098 22.2213 37.4708 22.141C34.836 28.3116 34.5211 36.0071 36.1997 45.0015ZM51.2826 45.0015H41.2924C39.2321 34.7308 40.0568 27.1464 43.2076 21.8611C46.3895 16.5234 52.2809 12.9812 61.5395 11.6252C68.2903 10.6365 72.7608 12.1167 75.6549 14.5665C78.6007 17.0599 80.2817 20.8691 80.7952 25.1955C81.3086 29.5204 80.6199 34.135 79.0735 37.9076C77.5835 41.5424 75.471 44.0082 73.2863 45.0015H56.5513C55.0063 40.6055 54.5129 37.2113 54.8178 34.7021C55.1175 32.2353 56.1767 30.6168 57.9629 29.5384C59.6605 28.5134 60.7515 28.2687 61.5281 28.2957C62.2899 28.3222 63.1144 28.6215 64.2773 29.4414L67.1585 25.355C65.5768 24.2398 63.8109 23.372 61.7018 23.2987C59.6075 23.2259 57.5471 23.9487 55.3786 25.258C52.1519 27.2061 50.3213 30.2558 49.8543 34.099C49.4704 37.258 50.0043 40.9189 51.2826 45.0015ZM514.787 9.5C516.751 21.4608 521.212 32.1336 528.169 41.5544C535.127 32.1336 539.588 21.4608 541.552 9.5H514.787ZM303.12 9.5H329.885C327.921 21.4607 323.46 32.1334 316.503 41.5541C309.545 32.1334 305.084 21.4607 303.12 9.5ZM91.7157 9.5C93.6796 21.4608 98.1401 32.1336 105.098 41.5544C112.056 32.1336 116.516 21.4608 118.48 9.5H91.7157Z" fill="url(#paint0_linear)"/>
</g>
<path d="M295.646 8.35355L296 8.70711L296.354 8.35355L300.207 4.5H591.5V51.5H300.207L296.354 47.6464L296 47.2929L295.646 47.6464L291.793 51.5H0.5V4.5H291.793L295.646 8.35355Z" stroke="url(#paint1_linear)"/>
<g opacity="0.6" filter="url(#filter0_f)">
<path d="M298 3L296 6L294 3L296 0L298 3Z" fill="url(#paint2_linear)"/>
</g>
<path d="M298 3L296 6L294 3L296 0L298 3Z" fill="url(#paint3_linear)"/>
<path d="M298 53L296 50L294 53L296 56L298 53Z" fill="url(#paint4_linear)"/>
</g>
<defs>
<filter id="filter0_f" x="291" y="-3" width="10" height="12" filterUnits="userSpaceOnUse" color-interpolation-filters="sRGB">
<feFlood flood-opacity="0" result="BackgroundImageFix"/>
<feBlend mode="normal" in="SourceGraphic" in2="BackgroundImageFix" result="shape"/>
<feGaussianBlur stdDeviation="1.5" result="effect1_foregroundBlur"/>
</filter>
<linearGradient id="paint0_linear" x1="34.5002" y1="16.5" x2="582.266" y2="26.5785" gradientUnits="userSpaceOnUse">
<stop stop-color="#8A63F4" stop-opacity="0.1"/>
<stop offset="0.480276" stop-color="#894CF2"/>
<stop offset="0.978939" stop-color="#8735F0" stop-opacity="0.1"/>
</linearGradient>
<linearGradient id="paint1_linear" x1="0" y1="4" x2="98.5959" y2="255.836" gradientUnits="userSpaceOnUse">
<stop offset="0.262965" stop-color="#8963F3" stop-opacity="0"/>
<stop offset="0.352431" stop-color="#8D66FD" stop-opacity="0.5"/>
<stop offset="0.6295" stop-color="#00C9B1" stop-opacity="0.5"/>
<stop offset="0.7174" stop-color="#00C9B1" stop-opacity="0"/>
</linearGradient>
<linearGradient id="paint2_linear" x1="292" y1="-2.5" x2="303.144" y2="9.87028" gradientUnits="userSpaceOnUse">
<stop offset="0.183042" stop-color="#7F6BEE"/>
<stop offset="0.65409" stop-color="#15BABC"/>
</linearGradient>
<linearGradient id="paint3_linear" x1="295.5" y1="0.499999" x2="303.11" y2="9.91142" gradientUnits="userSpaceOnUse">
<stop stop-color="#7F6BEE"/>
<stop offset="0.811402" stop-color="#15BABC"/>
</linearGradient>
<linearGradient id="paint4_linear" x1="295.5" y1="55.5" x2="303.11" y2="46.0886" gradientUnits="userSpaceOnUse">
<stop stop-color="#7F6BEE"/>
<stop offset="0.811402" stop-color="#15BABC"/>
</linearGradient>
<linearGradient id="paint5_linear" x1="269" y1="16" x2="328.389" y2="38.0765" gradientUnits="userSpaceOnUse">
<stop stop-color="#8963F3"/>
<stop offset="1" stop-color="#00C9B1"/>
</linearGradient>
<clipPath id="clip0">
<rect width="592" height="56" fill="white"/>
</clipPath>
<clipPath id="clip1">
<rect width="592" height="45" fill="white" transform="translate(0 6)"/>
</clipPath>
</defs>
</svg>
