<svg width="270" height="61" viewBox="0 0 270 61" fill="none" xmlns="http://www.w3.org/2000/svg">
<g opacity="0.1" clip-path="url(#clip0)">
<path opacity="0.4" fill-rule="evenodd" clip-rule="evenodd" d="M-73.2689 13H-82.066C-81.7394 13.2395 -81.4223 13.4897 -81.1147 13.7501C-76.9365 17.2867 -74.8553 22.4196 -74.2396 27.6061C-73.6238 32.794 -74.4387 38.2631 -76.3001 42.804C-77.0627 44.6644 -78.0346 46.4447 -79.2103 48.002H-58.5692C-66.2738 37.7309 -71.174 26.0506 -73.2689 13ZM-147.952 13H-110.649C-114.384 14.7967 -117.446 17.2235 -119.764 20.3233C-122.82 19.7807 -125.999 20.3692 -129.2 21.9395C-131.929 23.2788 -134.711 25.3432 -137.549 28.0693C-142.971 28.7956 -145.816 27.6738 -147.222 25.8528C-148.819 23.7859 -149.439 19.7995 -147.952 13ZM-159.693 13H-153.059C-154.363 19.625 -154.058 25.1824 -151.18 28.9091C-149.097 31.6061 -146.028 32.9208 -142.336 33.2201C-142.538 33.4599 -142.741 33.7028 -142.944 33.9486C-147.592 39.5861 -151.225 43.7684 -153.921 46.2324C-154.877 47.1058 -155.614 47.6678 -156.156 48.002H-159.693V51.6718L-160 51.9321C-159.903 52.0466 -159.8 52.1555 -159.693 52.2582V53.002H-158.609C-158.258 53.1652 -157.878 53.2786 -157.474 53.3346C-156.568 53.4598 -155.719 53.2726 -155.009 53.002H-26.6969C-25.9946 53.4615 -25.2511 53.8451 -24.4668 54.1392L-24.0405 53.002H44.8345C44.8652 53.0161 44.896 53.0299 44.9267 53.0435C44.973 53.064 45.0192 53.0839 45.0654 53.1031C45.7898 53.4055 46.6778 53.6352 47.6352 53.5157C48.189 53.4466 48.698 53.2688 49.1504 53.002H52.4469C52.8997 53.2693 53.4092 53.4474 53.9636 53.5166C54.921 53.636 55.809 53.4064 56.5334 53.104C56.5621 53.0921 56.5907 53.0799 56.6194 53.0675C56.6683 53.0463 56.7173 53.0245 56.7663 53.002H184.709C185.412 53.4615 186.155 53.8451 186.939 54.1392L187.366 53.002H256.612C257.322 53.2721 258.169 53.4588 259.074 53.3337C259.478 53.2778 259.857 53.1648 260.208 53.002H264.114C264.566 53.2693 265.076 53.4474 265.63 53.5166C266.588 53.636 267.476 53.4064 268.2 53.104C268.278 53.0717 268.355 53.0377 268.433 53.002H396.376C397.078 53.4615 397.822 53.8451 398.606 54.1392L399.032 53.002H432V48.4827L436.698 49.4805C438.738 39.8757 438.615 31.6792 435.954 25.1508C437.282 25.2526 438.709 25.6647 440.264 26.4274C443.781 28.1531 447.818 31.6296 452.353 37.1288L453.189 38.1429C457.409 43.2638 460.959 47.5706 463.73 50.3512C465.178 51.8039 466.62 53.0575 467.987 53.7376C468.684 54.0842 469.573 54.3906 470.558 54.3273C471.651 54.2571 472.589 53.7493 473.267 52.9502L469.454 49.7158C469.602 49.5412 469.898 49.3594 470.238 49.3376C470.346 49.3306 470.409 49.3438 470.417 49.3456C470.409 49.3436 470.345 49.3259 470.214 49.2608C469.628 48.9694 468.671 48.2253 467.272 46.8217C464.676 44.2164 461.269 40.0841 456.941 34.8344L456.939 34.8315L456.21 33.9477C456.007 33.7009 455.803 33.4571 455.6 33.2164C459.293 32.9176 462.363 31.6028 464.447 28.9052C467.525 24.9194 467.66 18.8398 466.031 11.5995L461.153 12.6968C462.724 19.6789 462.109 23.7518 460.49 25.8489C459.083 27.6704 456.237 28.7923 450.812 28.0648C447.975 25.3404 445.195 23.2773 442.466 21.9386C439.349 20.4094 436.253 19.8113 433.271 20.2821C431.077 17.2355 428.184 14.8211 424.655 13H432V8H-159.693V13ZM395.149 13H386.536C384.441 26.0507 379.541 37.7309 371.836 48.002H391.659C390.836 46.6967 390.134 45.2772 389.555 43.812C387.702 39.122 386.893 33.4596 387.505 28.0829C388.115 22.7145 390.177 17.3837 394.334 13.6828C394.599 13.4473 394.87 13.2196 395.149 13ZM398.071 48.002H416.715C418.26 43.6053 418.754 40.2107 418.449 37.7012C418.149 35.2344 417.09 33.6159 415.304 32.5375C413.606 31.5125 412.515 31.2678 411.739 31.2948C410.977 31.3213 410.152 31.6206 408.989 32.4405L406.108 28.3541C407.69 27.2389 409.456 26.3711 411.565 26.2978C413.659 26.225 415.719 26.9478 417.888 28.2571C421.115 30.2052 422.945 33.2549 423.412 37.0981C423.796 40.2575 423.262 43.9188 421.984 48.002H431.899C434.054 37.5437 433.247 29.8408 430.059 24.4924C426.877 19.1548 420.986 15.6125 411.727 14.2565C405.012 13.273 400.559 14.835 397.659 17.4172C394.692 20.059 392.992 24.0869 392.473 28.6479C391.955 33.2008 392.65 38.0388 394.205 41.9748C395.257 44.6384 396.613 46.6784 398.071 48.002ZM205.048 48.002H186.404C184.946 46.6784 183.591 44.6384 182.539 41.9748C180.984 38.0388 180.289 33.2008 180.806 28.6479C181.325 24.0869 183.025 20.059 185.992 17.4172C188.893 14.835 193.345 13.273 200.061 14.2565C209.319 15.6125 215.211 19.1548 218.393 24.4924C221.581 29.8408 222.387 37.5437 220.233 48.002H210.317C211.596 43.9188 212.13 40.2575 211.746 37.0981C211.279 33.2549 209.448 30.2052 206.222 28.2571C204.053 26.9478 201.993 26.225 199.898 26.2978C197.789 26.3711 196.023 27.2389 194.442 28.3541L197.323 32.4405C198.486 31.6206 199.31 31.3213 200.072 31.2948C200.849 31.2678 201.94 31.5125 203.637 32.5375C205.423 33.6159 206.483 35.2344 206.782 37.7012C207.087 40.2107 206.594 43.6053 205.048 48.002ZM250.175 48.002H225.331C227.052 39.0325 226.811 31.3416 224.287 25.1508C225.616 25.2525 227.043 25.6647 228.598 26.4274C232.115 28.1531 236.152 31.6296 240.687 37.1288C244.347 41.5674 247.523 45.2864 250.175 48.002ZM267.123 48.002H257.758C257.216 47.6679 256.478 47.1057 255.522 46.2315C252.826 43.7675 249.193 39.5852 244.544 33.9477C244.341 33.7009 244.137 33.4571 243.934 33.2164C247.627 32.9175 250.697 31.6028 252.78 28.9052C255.658 25.1792 255.963 19.6233 254.66 13H270.012C268.708 19.625 269.013 25.1824 271.892 28.9091C273.975 31.6061 277.044 32.9208 280.735 33.2201C280.533 33.4599 280.33 33.7028 280.128 33.9486C275.474 39.5919 271.838 43.8244 269.134 46.3402C268.307 47.1096 267.641 47.6461 267.123 48.002ZM212.989 13H249.554C251.039 19.7971 250.419 23.7824 248.823 25.8489C247.416 27.6703 244.571 28.7922 239.146 28.0649C236.309 25.3405 233.529 23.2773 230.8 21.9386C227.683 20.4094 224.586 19.8112 221.605 20.2821C219.411 17.2355 216.517 14.8211 212.989 13ZM182.668 13.6828C182.932 13.4473 183.204 13.2196 183.483 13H174.869C172.774 26.0506 167.874 37.7309 160.169 48.002H179.993C179.169 46.6967 178.467 45.2772 177.888 43.812C176.035 39.122 175.227 33.4596 175.838 28.0829C176.449 22.7145 178.511 17.3837 182.668 13.6828ZM46.1437 48.002H55.4565C55.9747 47.6461 56.6402 47.1096 57.4672 46.3402C60.1716 43.8244 63.8074 39.5919 68.461 33.9486C68.6637 33.7028 68.8662 33.4599 69.0684 33.2201C65.377 32.9208 62.3079 31.6061 60.2249 28.9091C57.3466 25.1824 57.0417 19.625 58.3455 13H43.2541C44.5571 19.6233 44.2517 25.1792 41.374 28.9052C39.2905 31.6028 36.2205 32.9175 32.5281 33.2164C32.7311 33.4571 32.9343 33.7009 33.1379 33.9477C37.7915 39.591 41.4272 43.8235 44.1317 46.3393C44.9594 47.1093 45.6253 47.6461 46.1437 48.002ZM38.1476 13H1.58272C5.11081 14.8211 8.00453 17.2355 10.1985 20.2821C13.1801 19.8112 16.277 20.4094 19.3939 21.9386C22.1225 23.2773 24.9026 25.3405 27.7393 28.0649C33.1644 28.7922 36.01 27.6703 37.4168 25.8489C39.0128 23.7824 39.6328 19.7971 38.1476 13ZM-27.9237 13H-36.5358C-38.6306 26.0506 -43.5308 37.7309 -51.2354 48.002H-31.4137C-32.2372 46.6967 -32.939 45.2772 -33.5179 43.812C-35.3707 39.122 -36.1794 33.4596 -35.5679 28.0829C-34.9574 22.7145 -32.8954 17.3837 -28.7386 13.6828C-28.4741 13.4473 -28.2025 13.2196 -27.9237 13ZM-25.0019 48.002H-6.35745C-4.81213 43.6053 -4.31854 40.2107 -4.62349 37.7012C-4.92326 35.2344 -5.98242 33.6159 -7.76859 32.5375C-9.46625 31.5125 -10.5572 31.2678 -11.3338 31.2948C-12.0956 31.3213 -12.9201 31.6206 -14.083 32.4405L-16.9642 28.3541C-15.3825 27.2389 -13.6166 26.3711 -11.5075 26.2978C-9.41325 26.225 -7.35286 26.9478 -5.1843 28.2571C-1.95764 30.2052 -0.127014 33.2549 0.339996 37.0981C0.723923 40.2575 0.18985 43.9188 -1.08875 48.002H8.82642C10.9812 37.5437 10.1747 29.8408 6.98634 24.4924C3.80438 19.1548 -2.08699 15.6125 -11.3456 14.2565C-18.0612 13.273 -22.5135 14.835 -25.4138 17.4172C-28.381 20.059 -30.0812 24.0869 -30.5999 28.6479C-31.1177 33.2008 -30.4226 38.0388 -28.8676 41.9748C-27.8154 44.6384 -26.4602 46.6784 -25.0019 48.002ZM13.9243 48.002H38.7065C36.0697 45.26 32.9135 41.5346 29.2803 37.1288C24.7455 31.6296 20.7087 28.1531 17.1916 26.4274C15.6369 25.6647 14.2093 25.2525 12.881 25.1508C15.4046 31.3416 15.6458 39.0325 13.9243 48.002ZM299.271 48.002H274.56C277.197 45.26 280.352 41.535 283.985 37.1297C288.52 31.6305 292.557 28.154 296.074 26.4283C297.69 25.6353 299.169 25.2213 300.542 25.141C297.907 31.3117 297.592 39.0073 299.271 48.002ZM314.354 48.002H304.364C302.303 37.7311 303.128 30.1465 306.279 24.8611C309.461 19.5234 315.352 15.9812 324.611 14.6252C331.362 13.6365 335.832 15.1167 338.726 17.5665C341.672 20.0599 343.353 23.8691 343.867 28.1955C344.38 32.5204 343.691 37.135 342.145 40.9076C340.655 44.543 338.542 47.009 336.357 48.002H319.623C318.078 43.6057 317.584 40.2114 317.889 37.7021C318.189 35.2353 319.248 33.6168 321.034 32.5384C322.732 31.5134 323.823 31.2687 324.599 31.2957C325.361 31.3222 326.186 31.6215 327.349 32.4414L330.23 28.355C328.648 27.2398 326.882 26.372 324.773 26.2987C322.679 26.2259 320.618 26.9487 318.45 28.258C315.223 30.2061 313.393 33.2559 312.926 37.099C312.542 40.2582 313.076 43.9192 314.354 48.002ZM364.502 48.002H343.861C345.037 46.4447 346.009 44.6644 346.771 42.804C348.633 38.2631 349.448 32.794 348.832 27.6061C348.216 22.4196 346.135 17.2867 341.957 13.7501C341.649 13.4897 341.332 13.2395 341.005 13H349.803C351.898 26.0506 356.798 37.7309 364.502 48.002ZM275.119 13H312.422C308.688 14.7967 305.625 17.2235 303.307 20.3233C300.252 19.7807 297.072 20.3692 293.872 21.9395C291.142 23.2788 288.361 25.3432 285.523 28.0693C280.1 28.7956 277.255 27.6738 275.849 25.8528C274.252 23.7859 273.633 19.7995 275.119 13ZM62.8932 48.002H87.6043C85.9256 39.0073 86.2405 31.3117 88.8753 25.141C87.5025 25.2213 86.0236 25.6353 84.4073 26.4283C80.8901 28.154 76.8534 31.6305 72.3185 37.1297C68.6857 41.535 65.5299 45.26 62.8932 48.002ZM92.6971 48.002H102.687C101.409 43.9192 100.875 40.2582 101.259 37.099C101.726 33.2558 103.556 30.2061 106.783 28.258C108.952 26.9487 111.012 26.2259 113.106 26.2987C115.215 26.372 116.981 27.2398 118.563 28.355L115.682 32.4414C114.519 31.6215 113.694 31.3222 112.933 31.2957C112.156 31.2687 111.065 31.5134 109.367 32.5384C107.581 33.6168 106.522 35.2353 106.222 37.7021C105.917 40.2114 106.411 43.6057 107.956 48.002H124.69C126.875 47.009 128.988 44.543 130.478 40.9076C132.024 37.135 132.713 32.5204 132.2 28.1955C131.686 23.8691 130.005 20.0599 127.059 17.5665C124.165 15.1167 119.695 13.6365 112.944 14.6252C103.685 15.9812 97.7941 19.5234 94.6121 24.8611C91.4613 30.1465 90.6366 37.7311 92.6971 48.002ZM132.194 48.002H152.836C145.131 37.7309 140.231 26.0506 138.136 13H129.339C129.665 13.2395 129.982 13.4897 130.29 13.7501C134.468 17.2867 136.549 22.4196 137.165 27.6061C137.781 32.794 136.966 38.2631 135.104 42.804C134.342 44.6644 133.37 46.4447 132.194 48.002ZM100.755 13H63.452C61.9658 19.7995 62.5857 23.7859 64.1821 25.8528C65.5885 27.6738 68.4331 28.7956 73.8559 28.0693C76.6938 25.3432 79.4752 23.2788 82.2049 21.9395C85.4055 20.3692 88.585 19.7807 91.6403 20.3233C93.9586 17.2235 97.021 14.7967 100.755 13ZM-123.8 48.002H-148.574C-145.922 45.2865 -142.746 41.5678 -139.086 37.1297C-134.551 31.6305 -130.514 28.154 -126.997 26.4283C-125.381 25.6353 -123.902 25.2213 -122.529 25.141C-125.164 31.3117 -125.479 39.0073 -123.8 48.002ZM-108.717 48.002H-118.707C-120.768 37.7311 -119.943 30.1465 -116.792 24.8611C-113.61 19.5234 -107.719 15.9812 -98.4605 14.6252C-91.7097 13.6365 -87.2392 15.1167 -84.3451 17.5665C-81.3993 20.0599 -79.7183 23.8691 -79.2048 28.1955C-78.6914 32.5204 -79.3801 37.135 -80.9265 40.9076C-82.4167 44.543 -84.5297 47.009 -86.7148 48.002H-103.449C-104.994 43.6057 -105.487 40.2114 -105.182 37.7021C-104.882 35.2353 -103.823 33.6168 -102.037 32.5384C-100.339 31.5134 -99.2485 31.2687 -98.4719 31.2957C-97.7101 31.3222 -96.8856 31.6215 -95.7227 32.4414L-92.8415 28.355C-94.4232 27.2398 -96.1891 26.372 -98.2982 26.2987C-100.392 26.2259 -102.453 26.9487 -104.621 28.258C-107.848 30.2061 -109.679 33.2558 -110.146 37.099C-110.53 40.2582 -109.996 43.9192 -108.717 48.002ZM354.871 13C356.876 24.7584 361.308 35.265 368.169 44.5544C375.03 35.265 379.463 24.7584 381.468 13H354.871ZM143.204 13H169.801C167.796 24.7583 163.363 35.2649 156.503 44.5541C149.642 35.2649 145.209 24.7583 143.204 13ZM-68.2009 13C-66.1957 24.7584 -61.7631 35.2651 -54.9023 44.5544C-48.0416 35.2651 -43.6089 24.7584 -41.6037 13H-68.2009Z" fill="url(#paint0_linear)"/>
</g>
<path d="M135.646 11.3536L136 11.7071L136.354 11.3536L140.207 7.5H267.5V54.5H140.207L136.354 50.6464L136 50.2929L135.646 50.6464L131.793 54.5H3V7.5H131.793L135.646 11.3536Z" stroke="url(#paint1_linear)"/>
<g opacity="0.6" filter="url(#filter0_f)">
<path d="M138 6L136 9L134 6L136 3L138 6Z" fill="url(#paint2_linear)"/>
</g>
<path d="M138 6L136 9L134 6L136 3L138 6Z" fill="url(#paint3_linear)"/>
<path d="M138 56L136 53L134 56L136 59L138 56Z" fill="url(#paint4_linear)"/>
<path d="M6 5H264V1H6V5ZM266 7V55H270V7H266ZM264 57H6V61H264V57ZM4 55V7H0V55H4ZM6 57C4.89543 57 4 56.1046 4 55H0C0 58.3137 2.68629 61 6 61V57ZM266 55C266 56.1046 265.105 57 264 57V61C267.314 61 270 58.3137 270 55H266ZM264 5C265.105 5 266 5.89543 266 7H270C270 3.68629 267.314 1 264 1V5ZM6 1C2.68629 1 0 3.68629 0 7H4C4 5.89543 4.89543 5 6 5V1Z" fill="#00C9B1" fill-opacity="0.5"/>
<defs>
<filter id="filter0_f" x="131" y="0" width="10" height="12" filterUnits="userSpaceOnUse" color-interpolation-filters="sRGB">
<feFlood flood-opacity="0" result="BackgroundImageFix"/>
<feBlend mode="normal" in="SourceGraphic" in2="BackgroundImageFix" result="shape"/>
<feGaussianBlur stdDeviation="1.5" result="effect1_foregroundBlur"/>
</filter>
<linearGradient id="paint0_linear" x1="429.712" y1="20.3046" x2="431.269" y2="57.6978" gradientUnits="userSpaceOnUse">
<stop stop-color="#8A63F4"/>
<stop offset="0.651042" stop-color="#8735F0"/>
</linearGradient>
<linearGradient id="paint1_linear" x1="2.00001" y1="55" x2="63.1664" y2="151.429" gradientUnits="userSpaceOnUse">
<stop offset="0.0348114" stop-color="#8963F3" stop-opacity="0"/>
<stop offset="0.361751" stop-color="#8D66FD"/>
<stop offset="0.648" stop-color="#00C9B1"/>
<stop offset="0.892697" stop-color="#00C9B1" stop-opacity="0"/>
</linearGradient>
<linearGradient id="paint2_linear" x1="132" y1="0.500001" x2="143.144" y2="12.8703" gradientUnits="userSpaceOnUse">
<stop offset="0.183042" stop-color="#7F6BEE"/>
<stop offset="0.65409" stop-color="#15BABC"/>
</linearGradient>
<linearGradient id="paint3_linear" x1="135.5" y1="3.5" x2="143.11" y2="12.9114" gradientUnits="userSpaceOnUse">
<stop stop-color="#7F6BEE"/>
<stop offset="0.811402" stop-color="#15BABC"/>
</linearGradient>
<linearGradient id="paint4_linear" x1="135.5" y1="58.5" x2="143.11" y2="49.0886" gradientUnits="userSpaceOnUse">
<stop stop-color="#7F6BEE"/>
<stop offset="0.811402" stop-color="#15BABC"/>
</linearGradient>
<linearGradient id="paint5_linear" x1="55" y1="19" x2="145.496" y2="118.696" gradientUnits="userSpaceOnUse">
<stop stop-color="#8963F3"/>
<stop offset="1" stop-color="#00C9B1"/>
</linearGradient>
<clipPath id="clip0">
<rect width="261" height="45" fill="white" transform="translate(7 9)"/>
</clipPath>
</defs>
</svg>
