<svg width="266" height="59" viewBox="0 0 266 59" fill="none" xmlns="http://www.w3.org/2000/svg">
<g opacity="0.1" clip-path="url(#clip0)">
<path opacity="0.4" fill-rule="evenodd" clip-rule="evenodd" d="M-75.2689 13H-84.066C-83.7394 13.2395 -83.4223 13.4897 -83.1147 13.7501C-78.9365 17.2867 -76.8553 22.4196 -76.2396 27.6061C-75.6238 32.794 -76.4387 38.2631 -78.3001 42.804C-79.0627 44.6644 -80.0346 46.4447 -81.2103 48.002H-60.5692C-68.2738 37.7309 -73.174 26.0506 -75.2689 13ZM-149.952 13H-112.649C-116.384 14.7967 -119.446 17.2235 -121.764 20.3233C-124.82 19.7807 -127.999 20.3692 -131.2 21.9395C-133.929 23.2788 -136.711 25.3432 -139.549 28.0693C-144.971 28.7956 -147.816 27.6738 -149.222 25.8528C-150.819 23.7859 -151.439 19.7995 -149.952 13ZM-161.693 13H-155.059C-156.363 19.625 -156.058 25.1824 -153.18 28.9091C-151.097 31.6061 -148.028 32.9208 -144.336 33.2201C-144.538 33.4599 -144.741 33.7028 -144.944 33.9486C-149.592 39.5861 -153.225 43.7684 -155.921 46.2324C-156.877 47.1058 -157.614 47.6678 -158.156 48.002H-161.693V51.6718L-162 51.9321C-161.903 52.0466 -161.8 52.1555 -161.693 52.2582V53.002H-160.609C-160.258 53.1652 -159.878 53.2786 -159.474 53.3346C-158.568 53.4598 -157.719 53.2726 -157.009 53.002H-28.6969C-27.9946 53.4615 -27.2511 53.8451 -26.4668 54.1392L-26.0405 53.002H42.8345C42.8652 53.0161 42.896 53.0299 42.9267 53.0435C42.973 53.064 43.0192 53.0839 43.0654 53.1031C43.7898 53.4055 44.6778 53.6352 45.6352 53.5157C46.189 53.4466 46.698 53.2688 47.1504 53.002H50.4469C50.8997 53.2693 51.4092 53.4474 51.9636 53.5166C52.921 53.636 53.809 53.4064 54.5334 53.104C54.5621 53.0921 54.5907 53.0799 54.6194 53.0675C54.6683 53.0463 54.7173 53.0245 54.7663 53.002H182.709C183.412 53.4615 184.155 53.8451 184.939 54.1392L185.366 53.002H254.612C255.322 53.2721 256.169 53.4588 257.074 53.3337C257.478 53.2778 257.857 53.1648 258.208 53.002H262.114C262.566 53.2693 263.076 53.4474 263.63 53.5166C264.588 53.636 265.476 53.4064 266.2 53.104C266.278 53.0717 266.355 53.0377 266.433 53.002H394.376C395.078 53.4615 395.822 53.8451 396.606 54.1392L397.032 53.002H430V48.4827L434.698 49.4805C436.738 39.8757 436.615 31.6792 433.954 25.1508C435.282 25.2526 436.709 25.6647 438.264 26.4274C441.781 28.1531 445.818 31.6296 450.353 37.1288L451.189 38.1429C455.409 43.2638 458.959 47.5706 461.73 50.3512C463.178 51.8039 464.62 53.0575 465.987 53.7376C466.684 54.0842 467.573 54.3906 468.558 54.3273C469.651 54.2571 470.589 53.7493 471.267 52.9502L467.454 49.7158C467.602 49.5412 467.898 49.3594 468.238 49.3376C468.346 49.3306 468.409 49.3438 468.417 49.3456C468.409 49.3436 468.345 49.3259 468.214 49.2608C467.628 48.9694 466.671 48.2253 465.272 46.8217C462.676 44.2164 459.269 40.0841 454.941 34.8344L454.939 34.8315L454.21 33.9477C454.007 33.7009 453.803 33.4571 453.6 33.2164C457.293 32.9176 460.363 31.6028 462.447 28.9052C465.525 24.9194 465.66 18.8398 464.031 11.5995L459.153 12.6968C460.724 19.6789 460.109 23.7518 458.49 25.8489C457.083 27.6704 454.237 28.7923 448.812 28.0648C445.975 25.3404 443.195 23.2773 440.466 21.9386C437.349 20.4094 434.253 19.8113 431.271 20.2821C429.077 17.2355 426.184 14.8211 422.655 13H430V8H-161.693V13ZM393.149 13H384.536C382.441 26.0507 377.541 37.7309 369.836 48.002H389.659C388.836 46.6967 388.134 45.2772 387.555 43.812C385.702 39.122 384.893 33.4596 385.505 28.0829C386.115 22.7145 388.177 17.3837 392.334 13.6828C392.599 13.4473 392.87 13.2196 393.149 13ZM396.071 48.002H414.715C416.26 43.6053 416.754 40.2107 416.449 37.7012C416.149 35.2344 415.09 33.6159 413.304 32.5375C411.606 31.5125 410.515 31.2678 409.739 31.2948C408.977 31.3213 408.152 31.6206 406.989 32.4405L404.108 28.3541C405.69 27.2389 407.456 26.3711 409.565 26.2978C411.659 26.225 413.719 26.9478 415.888 28.2571C419.115 30.2052 420.945 33.2549 421.412 37.0981C421.796 40.2575 421.262 43.9188 419.984 48.002H429.899C432.054 37.5437 431.247 29.8408 428.059 24.4924C424.877 19.1548 418.986 15.6125 409.727 14.2565C403.012 13.273 398.559 14.835 395.659 17.4172C392.692 20.059 390.992 24.0869 390.473 28.6479C389.955 33.2008 390.65 38.0388 392.205 41.9748C393.257 44.6384 394.613 46.6784 396.071 48.002ZM203.048 48.002H184.404C182.946 46.6784 181.591 44.6384 180.539 41.9748C178.984 38.0388 178.289 33.2008 178.806 28.6479C179.325 24.0869 181.025 20.059 183.992 17.4172C186.893 14.835 191.345 13.273 198.061 14.2565C207.319 15.6125 213.211 19.1548 216.393 24.4924C219.581 29.8408 220.387 37.5437 218.233 48.002H208.317C209.596 43.9188 210.13 40.2575 209.746 37.0981C209.279 33.2549 207.448 30.2052 204.222 28.2571C202.053 26.9478 199.993 26.225 197.898 26.2978C195.789 26.3711 194.023 27.2389 192.442 28.3541L195.323 32.4405C196.486 31.6206 197.31 31.3213 198.072 31.2948C198.849 31.2678 199.94 31.5125 201.637 32.5375C203.423 33.6159 204.483 35.2344 204.782 37.7012C205.087 40.2107 204.594 43.6053 203.048 48.002ZM248.175 48.002H223.331C225.052 39.0325 224.811 31.3416 222.287 25.1508C223.616 25.2525 225.043 25.6647 226.598 26.4274C230.115 28.1531 234.152 31.6296 238.687 37.1288C242.347 41.5674 245.523 45.2864 248.175 48.002ZM265.123 48.002H255.758C255.216 47.6679 254.478 47.1057 253.522 46.2315C250.826 43.7675 247.193 39.5852 242.544 33.9477C242.341 33.7009 242.137 33.4571 241.934 33.2164C245.627 32.9175 248.697 31.6028 250.78 28.9052C253.658 25.1792 253.963 19.6233 252.66 13H268.012C266.708 19.625 267.013 25.1824 269.892 28.9091C271.975 31.6061 275.044 32.9208 278.735 33.2201C278.533 33.4599 278.33 33.7028 278.128 33.9486C273.474 39.5919 269.838 43.8244 267.134 46.3402C266.307 47.1096 265.641 47.6461 265.123 48.002ZM210.989 13H247.554C249.039 19.7971 248.419 23.7824 246.823 25.8489C245.416 27.6703 242.571 28.7922 237.146 28.0649C234.309 25.3405 231.529 23.2773 228.8 21.9386C225.683 20.4094 222.586 19.8112 219.605 20.2821C217.411 17.2355 214.517 14.8211 210.989 13ZM180.668 13.6828C180.932 13.4473 181.204 13.2196 181.483 13H172.869C170.774 26.0506 165.874 37.7309 158.169 48.002H177.993C177.169 46.6967 176.467 45.2772 175.888 43.812C174.035 39.122 173.227 33.4596 173.838 28.0829C174.449 22.7145 176.511 17.3837 180.668 13.6828ZM44.1437 48.002H53.4565C53.9747 47.6461 54.6402 47.1096 55.4672 46.3402C58.1716 43.8244 61.8074 39.5919 66.461 33.9486C66.6637 33.7028 66.8662 33.4599 67.0684 33.2201C63.377 32.9208 60.3079 31.6061 58.2249 28.9091C55.3466 25.1824 55.0417 19.625 56.3455 13H41.2541C42.5571 19.6233 42.2517 25.1792 39.374 28.9052C37.2905 31.6028 34.2205 32.9175 30.5281 33.2164C30.7311 33.4571 30.9343 33.7009 31.1379 33.9477C35.7915 39.591 39.4272 43.8235 42.1317 46.3393C42.9594 47.1093 43.6253 47.6461 44.1437 48.002ZM36.1476 13H-0.417282C3.11081 14.8211 6.00453 17.2355 8.1985 20.2821C11.1801 19.8112 14.277 20.4094 17.3939 21.9386C20.1225 23.2773 22.9026 25.3405 25.7393 28.0649C31.1644 28.7922 34.01 27.6703 35.4168 25.8489C37.0128 23.7824 37.6328 19.7971 36.1476 13ZM-29.9237 13H-38.5358C-40.6306 26.0506 -45.5308 37.7309 -53.2354 48.002H-33.4137C-34.2372 46.6967 -34.939 45.2772 -35.5179 43.812C-37.3707 39.122 -38.1794 33.4596 -37.5679 28.0829C-36.9574 22.7145 -34.8954 17.3837 -30.7386 13.6828C-30.4741 13.4473 -30.2025 13.2196 -29.9237 13ZM-27.0019 48.002H-8.35745C-6.81213 43.6053 -6.31854 40.2107 -6.62349 37.7012C-6.92326 35.2344 -7.98242 33.6159 -9.76859 32.5375C-11.4662 31.5125 -12.5572 31.2678 -13.3338 31.2948C-14.0956 31.3213 -14.9201 31.6206 -16.083 32.4405L-18.9642 28.3541C-17.3825 27.2389 -15.6166 26.3711 -13.5075 26.2978C-11.4133 26.225 -9.35286 26.9478 -7.1843 28.2571C-3.95764 30.2052 -2.12701 33.2549 -1.66 37.0981C-1.27608 40.2575 -1.81015 43.9188 -3.08875 48.002H6.82642C8.98116 37.5437 8.17471 29.8408 4.98634 24.4924C1.80438 19.1548 -4.08699 15.6125 -13.3456 14.2565C-20.0612 13.273 -24.5135 14.835 -27.4138 17.4172C-30.381 20.059 -32.0812 24.0869 -32.5999 28.6479C-33.1177 33.2008 -32.4226 38.0388 -30.8676 41.9748C-29.8154 44.6384 -28.4602 46.6784 -27.0019 48.002ZM11.9243 48.002H36.7065C34.0697 45.26 30.9135 41.5346 27.2803 37.1288C22.7455 31.6296 18.7087 28.1531 15.1916 26.4274C13.6369 25.6647 12.2093 25.2525 10.881 25.1508C13.4046 31.3416 13.6458 39.0325 11.9243 48.002ZM297.271 48.002H272.56C275.197 45.26 278.352 41.535 281.985 37.1297C286.52 31.6305 290.557 28.154 294.074 26.4283C295.69 25.6353 297.169 25.2213 298.542 25.141C295.907 31.3117 295.592 39.0073 297.271 48.002ZM312.354 48.002H302.364C300.303 37.7311 301.128 30.1465 304.279 24.8611C307.461 19.5234 313.352 15.9812 322.611 14.6252C329.362 13.6365 333.832 15.1167 336.726 17.5665C339.672 20.0599 341.353 23.8691 341.867 28.1955C342.38 32.5204 341.691 37.135 340.145 40.9076C338.655 44.543 336.542 47.009 334.357 48.002H317.623C316.078 43.6057 315.584 40.2114 315.889 37.7021C316.189 35.2353 317.248 33.6168 319.034 32.5384C320.732 31.5134 321.823 31.2687 322.599 31.2957C323.361 31.3222 324.186 31.6215 325.349 32.4414L328.23 28.355C326.648 27.2398 324.882 26.372 322.773 26.2987C320.679 26.2259 318.618 26.9487 316.45 28.258C313.223 30.2061 311.393 33.2559 310.926 37.099C310.542 40.2582 311.076 43.9192 312.354 48.002ZM362.502 48.002H341.861C343.037 46.4447 344.009 44.6644 344.771 42.804C346.633 38.2631 347.448 32.794 346.832 27.6061C346.216 22.4196 344.135 17.2867 339.957 13.7501C339.649 13.4897 339.332 13.2395 339.005 13H347.803C349.898 26.0506 354.798 37.7309 362.502 48.002ZM273.119 13H310.422C306.688 14.7967 303.625 17.2235 301.307 20.3233C298.252 19.7807 295.072 20.3692 291.872 21.9395C289.142 23.2788 286.361 25.3432 283.523 28.0693C278.1 28.7956 275.255 27.6738 273.849 25.8528C272.252 23.7859 271.633 19.7995 273.119 13ZM60.8932 48.002H85.6043C83.9256 39.0073 84.2405 31.3117 86.8753 25.141C85.5025 25.2213 84.0236 25.6353 82.4073 26.4283C78.8901 28.154 74.8534 31.6305 70.3185 37.1297C66.6857 41.535 63.5299 45.26 60.8932 48.002ZM90.6971 48.002H100.687C99.4089 43.9192 98.8749 40.2582 99.2588 37.099C99.7259 33.2558 101.556 30.2061 104.783 28.258C106.952 26.9487 109.012 26.2259 111.106 26.2987C113.215 26.372 114.981 27.2398 116.563 28.355L113.682 32.4414C112.519 31.6215 111.694 31.3222 110.933 31.2957C110.156 31.2687 109.065 31.5134 107.367 32.5384C105.581 33.6168 104.522 35.2353 104.222 37.7021C103.917 40.2114 104.411 43.6057 105.956 48.002H122.69C124.875 47.009 126.988 44.543 128.478 40.9076C130.024 37.135 130.713 32.5204 130.2 28.1955C129.686 23.8691 128.005 20.0599 125.059 17.5665C122.165 15.1167 117.695 13.6365 110.944 14.6252C101.685 15.9812 95.7941 19.5234 92.6121 24.8611C89.4613 30.1465 88.6366 37.7311 90.6971 48.002ZM130.194 48.002H150.836C143.131 37.7309 138.231 26.0506 136.136 13H127.339C127.665 13.2395 127.982 13.4897 128.29 13.7501C132.468 17.2867 134.549 22.4196 135.165 27.6061C135.781 32.794 134.966 38.2631 133.104 42.804C132.342 44.6644 131.37 46.4447 130.194 48.002ZM98.7554 13H61.452C59.9658 19.7995 60.5857 23.7859 62.1821 25.8528C63.5885 27.6738 66.4331 28.7956 71.8559 28.0693C74.6938 25.3432 77.4752 23.2788 80.2049 21.9395C83.4055 20.3692 86.585 19.7807 89.6403 20.3233C91.9586 17.2235 95.021 14.7967 98.7554 13ZM-125.8 48.002H-150.574C-147.922 45.2865 -144.746 41.5678 -141.086 37.1297C-136.551 31.6305 -132.514 28.154 -128.997 26.4283C-127.381 25.6353 -125.902 25.2213 -124.529 25.141C-127.164 31.3117 -127.479 39.0073 -125.8 48.002ZM-110.717 48.002H-120.707C-122.768 37.7311 -121.943 30.1465 -118.792 24.8611C-115.61 19.5234 -109.719 15.9812 -100.461 14.6252C-93.7097 13.6365 -89.2392 15.1167 -86.3451 17.5665C-83.3993 20.0599 -81.7183 23.8691 -81.2048 28.1955C-80.6914 32.5204 -81.3801 37.135 -82.9265 40.9076C-84.4167 44.543 -86.5297 47.009 -88.7148 48.002H-105.449C-106.994 43.6057 -107.487 40.2114 -107.182 37.7021C-106.882 35.2353 -105.823 33.6168 -104.037 32.5384C-102.339 31.5134 -101.249 31.2687 -100.472 31.2957C-99.7101 31.3222 -98.8856 31.6215 -97.7227 32.4414L-94.8415 28.355C-96.4232 27.2398 -98.1891 26.372 -100.298 26.2987C-102.392 26.2259 -104.453 26.9487 -106.621 28.258C-109.848 30.2061 -111.679 33.2558 -112.146 37.099C-112.53 40.2582 -111.996 43.9192 -110.717 48.002ZM352.871 13C354.876 24.7584 359.308 35.265 366.169 44.5544C373.03 35.265 377.463 24.7584 379.468 13H352.871ZM141.204 13H167.801C165.796 24.7583 161.363 35.2649 154.503 44.5541C147.642 35.2649 143.209 24.7583 141.204 13ZM-70.2009 13C-68.1957 24.7584 -63.7631 35.2651 -56.9023 44.5544C-50.0416 35.2651 -45.6089 24.7584 -43.6037 13H-70.2009Z" fill="url(#paint0_linear)"/>
</g>
<path d="M133.646 11.3536L134 11.7071L134.354 11.3536L138.207 7.5H265.5V54.5H138.207L134.354 50.6464L134 50.2929L133.646 50.6464L129.793 54.5H1V7.5H129.793L133.646 11.3536Z" stroke="url(#paint1_linear)"/>
<g opacity="0.6" filter="url(#filter0_f)">
<path d="M136 6L134 9L132 6L134 3L136 6Z" fill="url(#paint2_linear)"/>
</g>
<path d="M136 6L134 9L132 6L134 3L136 6Z" fill="url(#paint3_linear)"/>
<path d="M136 56L134 53L132 56L134 59L136 56Z" fill="url(#paint4_linear)"/>
<defs>
<filter id="filter0_f" x="129" y="0" width="10" height="12" filterUnits="userSpaceOnUse" color-interpolation-filters="sRGB">
<feFlood flood-opacity="0" result="BackgroundImageFix"/>
<feBlend mode="normal" in="SourceGraphic" in2="BackgroundImageFix" result="shape"/>
<feGaussianBlur stdDeviation="1.5" result="effect1_foregroundBlur"/>
</filter>
<linearGradient id="paint0_linear" x1="427.712" y1="20.3046" x2="429.269" y2="57.6978" gradientUnits="userSpaceOnUse">
<stop stop-color="#8A63F4"/>
<stop offset="0.651042" stop-color="#8735F0"/>
</linearGradient>
<linearGradient id="paint1_linear" x1="5.96635e-06" y1="55" x2="61.1664" y2="151.429" gradientUnits="userSpaceOnUse">
<stop offset="0.0348114" stop-color="#8963F3" stop-opacity="0"/>
<stop offset="0.361751" stop-color="#8D66FD"/>
<stop offset="0.648" stop-color="#00C9B1"/>
<stop offset="0.892697" stop-color="#00C9B1" stop-opacity="0"/>
</linearGradient>
<linearGradient id="paint2_linear" x1="130" y1="0.500001" x2="141.144" y2="12.8703" gradientUnits="userSpaceOnUse">
<stop offset="0.183042" stop-color="#7F6BEE"/>
<stop offset="0.65409" stop-color="#15BABC"/>
</linearGradient>
<linearGradient id="paint3_linear" x1="133.5" y1="3.5" x2="141.11" y2="12.9114" gradientUnits="userSpaceOnUse">
<stop stop-color="#7F6BEE"/>
<stop offset="0.811402" stop-color="#15BABC"/>
</linearGradient>
<linearGradient id="paint4_linear" x1="133.5" y1="58.5" x2="141.11" y2="49.0886" gradientUnits="userSpaceOnUse">
<stop stop-color="#7F6BEE"/>
<stop offset="0.811402" stop-color="#15BABC"/>
</linearGradient>
<linearGradient id="paint5_linear" x1="53" y1="19" x2="143.496" y2="118.696" gradientUnits="userSpaceOnUse">
<stop stop-color="#8963F3"/>
<stop offset="1" stop-color="#00C9B1"/>
</linearGradient>
<clipPath id="clip0">
<rect width="261" height="45" fill="white" transform="translate(5 9)"/>
</clipPath>
</defs>
</svg>
