<svg width="34" height="34" viewBox="0 0 34 34" fill="none" xmlns="http://www.w3.org/2000/svg">
<path d="M17.001 34C26.3898 34 34.001 26.3888 34.001 17C34.001 7.61116 26.3898 0 17.001 0C7.61214 0 0.000976562 7.61116 0.000976562 17C0.000976562 26.3888 7.61214 34 17.001 34Z" fill="url(#paint0_linear)"/>
<path d="M29.1709 17.2066H26.174C26.174 11.0992 21.2057 6.14844 15.0765 6.14844C9.02328 6.14844 4.1019 10.978 3.98145 16.9808C3.85684 23.1858 9.69897 28.574 15.9268 28.574H16.7102C22.2008 28.574 29.5599 24.2911 30.7097 19.0727C30.922 18.1108 30.1595 17.2066 29.1709 17.2066ZM10.623 17.4787C10.623 18.2954 9.95265 18.9634 9.13302 18.9634C8.31338 18.9634 7.64304 18.2951 7.64304 17.4787V15.0768C7.64304 14.2601 8.31338 13.5921 9.13302 13.5921C9.95265 13.5921 10.623 14.2601 10.623 15.0768V17.4787ZM15.7968 17.4787C15.7968 18.2954 15.1265 18.9634 14.3069 18.9634C13.4872 18.9634 12.8169 18.2951 12.8169 17.4787V15.0768C12.8169 14.2601 13.4875 13.5921 14.3069 13.5921C15.1265 13.5921 15.7968 14.2601 15.7968 15.0768V17.4787Z" fill="url(#paint1_linear)"/>
<defs>
<linearGradient id="paint0_linear" x1="17.001" y1="0" x2="17.001" y2="34" gradientUnits="userSpaceOnUse">
<stop stop-color="#534BB1"/>
<stop offset="1" stop-color="#551BF9"/>
</linearGradient>
<linearGradient id="paint1_linear" x1="17.3624" y1="6.14844" x2="17.3624" y2="28.574" gradientUnits="userSpaceOnUse">
<stop stop-color="white"/>
<stop offset="1" stop-color="white" stop-opacity="0.82"/>
</linearGradient>
</defs>
</svg>
