<svg width="120" height="121" viewBox="0 0 120 121" fill="none" xmlns="http://www.w3.org/2000/svg">
<path opacity="0.1" fill-rule="evenodd" clip-rule="evenodd" d="M104.921 99.8271C114.304 89.2391 120 75.3102 120 60.0508C120 45.0821 114.519 31.3937 105.454 20.8833C102.915 29.8298 101.871 41.614 101.852 56.4492L102.033 56.4577C101.971 57.7994 101.916 59.1176 101.87 60.4124C101.897 63.0839 101.954 65.8481 102.038 68.7062L101.69 68.7164C101.611 81.7035 102.593 91.975 104.921 99.8271ZM89.2306 112.461C86.8139 111.818 84.7947 110.113 83.2315 108.199C80.8131 105.237 78.7805 101.004 77.0378 96.3991C76.4301 94.7932 75.8461 93.1106 75.285 91.3779C73.7942 91.2236 72.7863 91.4246 72.1224 91.747C71.2649 92.1634 70.3759 93.0802 69.829 95.3089C69.2663 97.6021 69.1708 100.94 69.7483 105.493C70.2221 109.228 71.1296 113.642 72.4907 118.749C78.4445 117.488 84.0723 115.344 89.2306 112.461ZM65.9537 119.759C64.6363 114.73 63.7201 110.245 63.2224 106.321C62.5988 101.404 62.6029 97.1543 63.4403 93.7413C64.2936 90.2639 66.1052 87.3561 69.249 85.8295C70.5167 85.2139 71.8813 84.8832 73.3097 84.7814C72.9711 83.5666 72.6423 82.3441 72.3229 81.1221C71.0781 76.359 69.7755 72.4586 68.4853 69.2875C67.2866 70.8933 66.0662 72.1504 64.8377 73.0663C63.2802 74.2274 61.4857 74.9974 59.6205 74.9045C57.6246 74.8615 55.8326 73.7099 54.4489 72.4893C53.3876 71.5532 52.2987 70.3389 51.2006 68.8572C49.5965 72.2056 47.9548 76.3179 46.3834 81.283C46.0066 82.4734 45.6295 83.6286 45.252 84.7482C47.1137 84.7231 48.8866 85.045 50.5022 85.8295C53.646 87.3561 55.4576 90.2639 56.3109 93.7413C57.1483 97.1543 57.1523 101.404 56.5288 106.321C56.0318 110.239 55.1178 114.715 53.8039 119.735C55.8408 119.944 57.9079 120.051 60 120.051C62.0092 120.051 63.9953 119.952 65.9537 119.759ZM47.2739 118.698C48.6275 113.613 49.5307 109.216 50.0029 105.493C50.5803 100.94 50.4848 97.6021 49.9222 95.3089C49.3753 93.0802 48.4862 92.1633 47.6288 91.747C46.7343 91.3126 45.2154 91.0985 42.7321 91.6772C41.7448 94.1772 40.754 96.4329 39.7585 98.4397C37.562 102.868 35.2094 106.362 32.595 108.528C31.2033 109.681 29.6704 110.498 28.0525 110.847C33.863 114.51 40.3458 117.202 47.2739 118.698ZM15.025 99.7665C5.67467 89.186 -3.28842e-06 75.2811 -2.62268e-06 60.0508C-1.96973e-06 45.113 5.45882 31.4501 14.4904 20.9483C17.9 32.263 18.8953 48.2456 18.5841 69.3774L18.7396 69.3797C18.5793 82.0708 17.4473 92.1019 15.025 99.7665ZM27.0782 9.88144C33.148 5.89022 39.9855 2.97093 47.3214 1.39286C50.2971 13.6009 50.9987 21.914 49.9061 26.7426C49.3293 29.2914 48.3786 30.3325 47.5307 30.7789C46.6914 31.2209 45.2428 31.4596 42.8019 30.8446C41.8055 28.1015 40.8064 25.6314 39.8033 23.4387C37.6196 18.6653 35.2877 14.9115 32.695 12.5827C31.3693 11.392 29.8531 10.4625 28.1388 10.0587C27.7846 9.97522 27.4307 9.91637 27.0782 9.88144ZM53.8411 0.363023C56.7656 12.5003 57.7447 21.9075 56.3221 28.1944C55.4987 31.8331 53.7487 34.9392 50.5955 36.5996C48.9172 37.4833 47.0709 37.8337 45.1388 37.7905C45.5612 39.1385 45.9833 40.5353 46.4052 41.9806C48.0413 47.5859 49.7545 52.197 51.425 55.92C52.4814 54.6252 53.5284 53.5582 54.5489 52.728C55.9582 51.5815 57.7199 50.5583 59.6295 50.5216C61.4132 50.4388 63.1676 51.1167 64.735 52.1942C65.918 53.0076 67.0984 54.1159 68.2615 55.526C69.622 51.9776 70.9976 47.5678 72.3078 42.1315C72.6597 40.6717 73.0229 39.212 73.3978 37.7639C71.9054 37.6618 70.4772 37.2966 69.1535 36.5996C66.0003 34.9392 64.2503 31.8331 63.4269 28.1944C62.0034 21.9033 62.9847 12.4876 65.9138 0.338539C63.9683 0.148198 61.9955 0.0507787 60 0.0507786C57.9206 0.0507785 55.8659 0.156556 53.8411 0.363023ZM72.44 1.34204C69.4538 13.5778 68.7488 21.9073 69.8429 26.7426C70.4197 29.2914 71.3704 30.3325 72.2183 30.7789C72.8376 31.105 73.7885 31.3204 75.225 31.164C75.7957 29.2468 76.39 27.3863 77.0089 25.6133C78.7448 20.6396 80.7612 16.0923 83.152 12.9172C84.8466 10.6667 87.1695 8.58268 90.0418 8.10192C84.6497 4.97697 78.7262 2.66744 72.44 1.34204ZM98.4576 21.6279C95.9701 31.8596 95.1371 44.7982 95.2901 60.3362C94.7307 76.2353 95.4013 89.2711 97.9962 99.4489L97.8603 99.3704C95.0053 104.311 92.8912 105.797 91.7793 106.086C91.1494 106.25 90.0813 106.187 88.327 104.038C86.5926 101.914 84.8603 98.4835 83.1901 94.0706C81.5424 89.7168 80.0458 84.6569 78.6874 79.4588C76.7793 72.1579 74.6783 66.5427 72.5408 62.295C74.6794 57.709 76.7872 51.6212 78.7029 43.6728C80.0634 38.0282 81.5644 32.5235 83.2196 27.7811C84.8964 22.977 86.645 19.2141 88.407 16.8741C90.2295 14.4538 91.2516 14.5135 91.7146 14.6443C92.1719 14.7734 92.97 15.19 94.0743 16.3882C95.1693 17.5763 96.4217 19.3781 97.8057 21.9753L98.4576 21.6279ZM21.7086 100.389C23.308 102.838 24.6299 103.924 25.5387 104.293C26.189 104.557 26.9947 104.625 28.3987 103.462C29.9543 102.173 31.8119 99.6565 33.8656 95.5165C35.8885 91.4384 37.975 86.0492 40.1118 79.298C42.3555 72.209 44.7918 66.5928 47.1907 62.2896C44.7884 57.6367 42.3432 51.5415 40.0905 43.8237C37.9497 36.4895 35.8559 30.6227 33.8213 26.1752C31.7547 21.6577 29.8765 18.8933 28.2992 17.4765C27.5398 16.7945 26.9811 16.5442 26.6303 16.4616C26.3316 16.3912 26.0326 16.4021 25.6269 16.5807C24.6767 16.9987 23.2191 18.3187 21.4507 21.4035C23.8527 30.565 24.9098 41.9802 25.1576 55.5708L25.1624 55.5706C25.7446 74.2221 24.9569 89.1592 21.7086 100.389ZM64.1553 60.9873C64.4627 61.4244 64.7766 61.9013 65.0957 62.4205C64.7532 63.0297 64.4162 63.5869 64.0863 64.0954C62.8125 66.0594 61.7126 67.191 60.9059 67.7924C60.2891 68.2523 59.9601 68.3215 59.9084 68.3317L59.9039 68.3314L59.8885 68.3243C59.7969 68.2825 59.4384 68.1188 58.8005 67.5562C57.8679 66.7335 56.6603 65.3347 55.2839 63.1944C55.1245 62.9465 54.9636 62.6898 54.8013 62.4243C54.9404 62.2159 55.0783 62.0136 55.2152 61.8174C56.5801 59.86 57.7761 58.5826 58.7001 57.831C59.3635 57.2913 59.7343 57.1435 59.8275 57.1064C59.8333 57.1041 59.8381 57.1022 59.8417 57.1007C59.8442 57.0997 59.8461 57.0988 59.8476 57.0981L59.9207 57.0936L59.9252 57.0942C59.9696 57.1 60.3275 57.1469 61.0081 57.6149C61.8104 58.1665 62.897 59.1984 64.1553 60.9873Z" fill="url(#paint0_radial)"/>
<defs>
<radialGradient id="paint0_radial" cx="0" cy="0" r="1" gradientUnits="userSpaceOnUse" gradientTransform="translate(60 60.0508) rotate(-180) scale(96)">
<stop offset="0.114583" stop-color="#F649F6"/>
<stop offset="0.322917" stop-color="#69F0A8" stop-opacity="0.670131"/>
<stop offset="0.59375" stop-color="#9D21FF" stop-opacity="0.04"/>
</radialGradient>
</defs>
</svg>
