<svg width="20" height="20" viewBox="0 0 20 20" fill="none" xmlns="http://www.w3.org/2000/svg">
<path fill-rule="evenodd" clip-rule="evenodd" d="M10 4.52004L6.11587 8.40424L6.11595 8.40408L3.85602 6.14406L10 0L16.1461 6.1459L13.8861 8.40592L10 4.52004ZM2.26009 7.73967L0 10.0001L2.25993 12.2597L4.52002 9.99961L2.26009 7.73967ZM10 15.4801L6.11587 11.5962L3.85282 13.8529L3.85602 13.8561L10 20.0002L16.1461 13.8544L16.1472 13.8532L13.886 11.5943L10 15.4801ZM17.7402 7.74095L15.4801 10.001L17.7401 12.261L20.0001 10.0009L17.7402 7.74095ZM12.2931 9.99836H12.2923L12.2944 9.99948L12.2932 10.0008L9.99995 12.2941L7.70866 10.0024L7.70546 9.99916L7.70866 9.99604L8.11026 9.59436L8.30498 9.39955L9.99995 7.70506L12.2931 9.99836Z" fill="white"/>
</svg>
