<svg width="420" height="576" viewBox="0 0 420 576" fill="none" xmlns="http://www.w3.org/2000/svg">
<g clip-path="url(#clip0)">
<path opacity="0.64" d="M71.2 430.789V571.679L157.4 494.019L71.2 430.789Z" fill="url(#paint0_linear)" fill-opacity="0.2"/>
<path d="M84.15 542.68C85.3926 542.68 86.4 541.672 86.4 540.43C86.4 539.187 85.3926 538.18 84.15 538.18C82.9073 538.18 81.9 539.187 81.9 540.43C81.9 541.672 82.9073 542.68 84.15 542.68Z" fill="url(#paint1_linear)"/>
<path opacity="0.6" d="M156.06 492.529L81.03 560.129V547.079L73.2 555.109V430.789H69.2V576.169L158.74 495.509L156.06 492.529Z" fill="url(#paint2_linear)"/>
<path opacity="0.64" d="M348.42 430.789V571.679L262.22 494.019L348.42 430.789Z" fill="url(#paint3_linear)" fill-opacity="0.2"/>
<path d="M335.47 542.68C336.713 542.68 337.72 541.672 337.72 540.43C337.72 539.187 336.713 538.18 335.47 538.18C334.227 538.18 333.22 539.187 333.22 540.43C333.22 541.672 334.227 542.68 335.47 542.68Z" fill="url(#paint4_linear)"/>
<path opacity="0.6" d="M263.56 492.529L338.59 560.129V547.079L346.42 555.109V430.789H350.42V576.169L260.88 495.509L263.56 492.529Z" fill="url(#paint5_linear)"/>
<path opacity="0.64" d="M45.61 2H2V268.73L43.77 330.5L45.61 2Z" fill="url(#paint6_linear)" fill-opacity="0.2"/>
<path opacity="0.64" d="M374.01 2H417.62V268.73L375.85 330.5L374.01 2Z" fill="url(#paint7_linear)" fill-opacity="0.2"/>
<path d="M399.03 22C400.273 22 401.28 20.9926 401.28 19.75C401.28 18.5074 400.273 17.5 399.03 17.5C397.787 17.5 396.78 18.5074 396.78 19.75C396.78 20.9926 397.787 22 399.03 22Z" fill="url(#paint8_linear)"/>
<path d="M20.59 22C21.8326 22 22.84 20.9926 22.84 19.75C22.84 18.5074 21.8326 17.5 20.59 17.5C19.3473 17.5 18.34 18.5074 18.34 19.75C18.34 20.9926 19.3473 22 20.59 22Z" fill="url(#paint9_linear)"/>
<path opacity="0.4" d="M0 0V269.46L42.24 331.78L45.3 329.22L4 268V14.5H14.12V4H405.5V14.5H415.62V268L374.32 329.22L377.38 331.78L419.62 269.46V0H0Z" fill="url(#paint10_linear)"/>
<g opacity="0.2">
<g opacity="0.2">
<path opacity="0.2" d="M103.11 452.94C131.94 475.18 167.76 493.861 192.25 499.41C199.62 501.081 205.91 507.91 209.82 513.2C213.71 508.29 219.75 501.95 226.46 499.57C275.85 482.05 369.27 434.31 369.27 379.04V9.98047H50.58V380.25C50.58 400.69 69.73 427.19 103.11 452.94Z" fill="url(#paint11_linear)"/>
</g>
</g>
<path opacity="0.2" d="M103.45 454.421C132.28 476.661 168.1 495.341 192.59 500.891C199.96 502.561 206.25 509.391 210.16 514.681C214.05 509.771 220.09 503.431 226.8 501.051C276.19 483.531 369.61 435.791 369.61 380.521V11.4609H50.9199V381.731C50.9199 402.171 70.07 428.671 103.45 454.421Z" fill="url(#paint12_linear)"/>
<path d="M45.61 5H374.22V379.04C374.22 436.38 282.15 485.09 228.11 504.26C218.54 507.65 209.63 522.02 209.63 522.02C209.63 522.02 201.05 506.51 191.15 504.26C142.33 493.19 45.62 430.31 45.62 380.25L45.61 5Z" fill="#5B5B5B" fill-opacity="0.2" stroke="url(#paint13_linear)" stroke-width="9.942"/>
<path d="M87.44 31.6797H331.32" stroke="url(#paint14_linear)" stroke-width="0.4605" stroke-miterlimit="10"/>
<path opacity="0.6" d="M359.25 379.04C359.25 405.16 332.78 429.5 310.57 445.32C274.76 470.83 234.57 486.08 223.11 490.15C218.69 491.72 214.3 494.46 209.98 498.36C205.02 493.8 199.82 490.88 194.45 489.66C171.25 484.4 137 466.46 109.21 445.02C93.58 432.96 80.87 420.42 72.43 408.75C64.68 398.02 60.58 388.17 60.58 380.25V30.6405H80.14V39.5405H71.24V19.9805H348.58V39.5405H339.68V30.6405H359.24V379.04H359.25Z" stroke="url(#paint15_linear)" stroke-miterlimit="10"/>
</g>
<defs>
<linearGradient id="paint0_linear" x1="131.5" y1="431" x2="79.5041" y2="560.002" gradientUnits="userSpaceOnUse">
<stop offset="0.0505" stop-color="white"/>
<stop offset="0.302017" stop-color="#575A59"/>
<stop offset="0.583859" stop-color="#CDCDCD"/>
<stop offset="1" stop-color="#505455"/>
</linearGradient>
<linearGradient id="paint1_linear" x1="68.9936" y1="540.429" x2="156.922" y2="540.429" gradientUnits="userSpaceOnUse">
<stop stop-color="#825900" stop-opacity="0.44"/>
<stop offset="0.2429" stop-color="#C19639"/>
<stop offset="0.5093" stop-color="#FFDE96"/>
<stop offset="0.7457" stop-color="#C19639"/>
<stop offset="1" stop-color="#825900" stop-opacity="0.44"/>
</linearGradient>
<linearGradient id="paint2_linear" x1="68.995" y1="503.481" x2="156.923" y2="503.481" gradientUnits="userSpaceOnUse">
<stop stop-color="#825900" stop-opacity="0.44"/>
<stop offset="0.2429" stop-color="#C19639"/>
<stop offset="0.5093" stop-color="#FFDE96"/>
<stop offset="0.7457" stop-color="#C19639"/>
<stop offset="1" stop-color="#825900" stop-opacity="0.44"/>
</linearGradient>
<linearGradient id="paint3_linear" x1="289.007" y1="430.988" x2="348.005" y2="571.976" gradientUnits="userSpaceOnUse">
<stop offset="0.0505" stop-color="white"/>
<stop offset="0.302017" stop-color="#575A59"/>
<stop offset="0.583859" stop-color="#CDCDCD"/>
<stop offset="1" stop-color="#505455"/>
</linearGradient>
<linearGradient id="paint4_linear" x1="350.626" y1="540.429" x2="262.698" y2="540.429" gradientUnits="userSpaceOnUse">
<stop stop-color="#825900" stop-opacity="0.44"/>
<stop offset="0.2429" stop-color="#C19639"/>
<stop offset="0.5093" stop-color="#FFDE96"/>
<stop offset="0.7457" stop-color="#C19639"/>
<stop offset="1" stop-color="#825900" stop-opacity="0.44"/>
</linearGradient>
<linearGradient id="paint5_linear" x1="350.618" y1="503.481" x2="262.699" y2="503.481" gradientUnits="userSpaceOnUse">
<stop stop-color="#825900" stop-opacity="0.44"/>
<stop offset="0.2429" stop-color="#C19639"/>
<stop offset="0.5093" stop-color="#FFDE96"/>
<stop offset="0.7457" stop-color="#C19639"/>
<stop offset="1" stop-color="#825900" stop-opacity="0.44"/>
</linearGradient>
<linearGradient id="paint6_linear" x1="23.8046" y1="6.07158" x2="23.8046" y2="420.105" gradientUnits="userSpaceOnUse">
<stop offset="0.0505" stop-color="white"/>
<stop offset="0.1535" stop-color="#575A59"/>
<stop offset="0.430413" stop-color="#CDCDCD"/>
<stop offset="0.610702" stop-color="#505455"/>
</linearGradient>
<linearGradient id="paint7_linear" x1="395.815" y1="6.07158" x2="395.815" y2="420.105" gradientUnits="userSpaceOnUse">
<stop offset="0.0505" stop-color="white"/>
<stop offset="0.1535" stop-color="#575A59"/>
<stop offset="0.430413" stop-color="#CDCDCD"/>
<stop offset="0.610702" stop-color="#505455"/>
</linearGradient>
<linearGradient id="paint8_linear" x1="-20.6477" y1="19.755" x2="416.908" y2="19.755" gradientUnits="userSpaceOnUse">
<stop stop-color="#825900" stop-opacity="0.44"/>
<stop offset="0.2429" stop-color="#C19639"/>
<stop offset="0.5093" stop-color="#FFDE96"/>
<stop offset="0.7457" stop-color="#C19639"/>
<stop offset="1" stop-color="#825900" stop-opacity="0.44"/>
</linearGradient>
<linearGradient id="paint9_linear" x1="-0.645735" y1="19.755" x2="436.91" y2="19.755" gradientUnits="userSpaceOnUse">
<stop stop-color="#825900" stop-opacity="0.44"/>
<stop offset="0.2429" stop-color="#C19639"/>
<stop offset="0.5093" stop-color="#FFDE96"/>
<stop offset="0.7457" stop-color="#C19639"/>
<stop offset="1" stop-color="#825900" stop-opacity="0.44"/>
</linearGradient>
<linearGradient id="paint10_linear" x1="162.514" y1="-9.89062" x2="140.014" y2="387.609" gradientUnits="userSpaceOnUse">
<stop stop-color="#825900" stop-opacity="0.44"/>
<stop offset="0.2429" stop-color="#C19639"/>
<stop offset="0.5093" stop-color="#FFDE96"/>
<stop offset="0.651599" stop-color="#C19639"/>
<stop offset="0.811734" stop-color="#825900" stop-opacity="0.44"/>
</linearGradient>
<linearGradient id="paint11_linear" x1="44.835" y1="41.5865" x2="356.758" y2="353.509" gradientUnits="userSpaceOnUse">
<stop stop-color="white" stop-opacity="0"/>
<stop offset="0.175" stop-color="white" stop-opacity="0.5"/>
<stop offset="0.2263" stop-color="white" stop-opacity="0.8"/>
<stop offset="0.2831" stop-color="white" stop-opacity="0.5"/>
<stop offset="0.486" stop-color="white" stop-opacity="0"/>
<stop offset="0.7188" stop-color="white" stop-opacity="0.5"/>
<stop offset="0.7663" stop-color="white" stop-opacity="0.8"/>
<stop offset="0.8045" stop-color="white" stop-opacity="0.5"/>
<stop offset="1" stop-color="white" stop-opacity="0"/>
</linearGradient>
<linearGradient id="paint12_linear" x1="45.1749" y1="43.0669" x2="357.098" y2="354.99" gradientUnits="userSpaceOnUse">
<stop stop-color="white" stop-opacity="0"/>
<stop offset="0.175" stop-color="white" stop-opacity="0.5"/>
<stop offset="0.2263" stop-color="white" stop-opacity="0.8"/>
<stop offset="0.2831" stop-color="white" stop-opacity="0.5"/>
<stop offset="0.486" stop-color="white" stop-opacity="0"/>
<stop offset="0.7188" stop-color="white" stop-opacity="0.5"/>
<stop offset="0.7663" stop-color="white" stop-opacity="0.8"/>
<stop offset="0.8045" stop-color="white" stop-opacity="0.5"/>
<stop offset="1" stop-color="white" stop-opacity="0"/>
</linearGradient>
<linearGradient id="paint13_linear" x1="111.5" y1="468.5" x2="297" y2="68" gradientUnits="userSpaceOnUse">
<stop offset="0.0505" stop-color="white"/>
<stop offset="0.218016" stop-color="#575A59"/>
<stop offset="0.516875" stop-color="#CDCDCD"/>
<stop offset="1" stop-color="#505455"/>
</linearGradient>
<linearGradient id="paint14_linear" x1="nan" y1="nan" x2="nan" y2="nan" gradientUnits="userSpaceOnUse">
<stop stop-color="#825900" stop-opacity="0.44"/>
<stop offset="0.2429" stop-color="#C19639"/>
<stop offset="0.5093" stop-color="#FFDE96"/>
<stop offset="0.7457" stop-color="#C19639"/>
<stop offset="1" stop-color="#825900" stop-opacity="0.44"/>
</linearGradient>
<linearGradient id="paint15_linear" x1="74.6778" y1="16.743" x2="352.926" y2="416.47" gradientUnits="userSpaceOnUse">
<stop stop-color="#825900" stop-opacity="0.44"/>
<stop offset="0.2429" stop-color="#C19639"/>
<stop offset="0.5093" stop-color="#FFDE96"/>
<stop offset="0.7457" stop-color="#C19639"/>
<stop offset="1" stop-color="#825900" stop-opacity="0.44"/>
</linearGradient>
<clipPath id="clip0">
<rect width="420" height="576" fill="white"/>
</clipPath>
</defs>
</svg>
