<svg width="420" height="576" viewBox="0 0 420 576" fill="none" xmlns="http://www.w3.org/2000/svg">
<g clip-path="url(#clip0)">
<path opacity="0.37" d="M71.2 430.789V571.679L157.4 494.019L71.2 430.789Z" fill="url(#paint0_linear)" fill-opacity="0.4"/>
<path d="M84.1499 542.68C85.3925 542.68 86.3999 541.672 86.3999 540.43C86.3999 539.187 85.3925 538.18 84.1499 538.18C82.9073 538.18 81.8999 539.187 81.8999 540.43C81.8999 541.672 82.9073 542.68 84.1499 542.68Z" fill="url(#paint1_linear)"/>
<path opacity="0.6" d="M156.06 492.529L81.03 560.129V547.079L73.2 555.099V430.789H69.2V576.169L158.74 495.499L156.06 492.529Z" fill="url(#paint2_linear)"/>
<path opacity="0.37" d="M348.42 430.789V571.679L262.22 494.019L348.42 430.789Z" fill="url(#paint3_linear)" fill-opacity="0.4"/>
<path d="M335.47 542.68C336.713 542.68 337.72 541.672 337.72 540.43C337.72 539.187 336.713 538.18 335.47 538.18C334.227 538.18 333.22 539.187 333.22 540.43C333.22 541.672 334.227 542.68 335.47 542.68Z" fill="url(#paint4_linear)"/>
<path opacity="0.6" d="M263.56 492.529L338.59 560.129V547.079L346.42 555.099V430.789H350.42V576.169L260.88 495.499L263.56 492.529Z" fill="url(#paint5_linear)"/>
<path opacity="0.37" d="M45.61 2H2V268.73L43.77 330.5L45.61 2Z" fill="url(#paint6_linear)" fill-opacity="0.4"/>
<path opacity="0.37" d="M374.01 2H417.62V268.73L375.85 330.5L374.01 2Z" fill="url(#paint7_linear)" fill-opacity="0.4"/>
<path d="M399.03 22C400.273 22 401.28 20.9926 401.28 19.75C401.28 18.5074 400.273 17.5 399.03 17.5C397.787 17.5 396.78 18.5074 396.78 19.75C396.78 20.9926 397.787 22 399.03 22Z" fill="url(#paint8_linear)"/>
<path d="M20.5898 22C21.8325 22 22.8398 20.9926 22.8398 19.75C22.8398 18.5074 21.8325 17.5 20.5898 17.5C19.3472 17.5 18.3398 18.5074 18.3398 19.75C18.3398 20.9926 19.3472 22 20.5898 22Z" fill="url(#paint9_linear)"/>
<path opacity="0.4" d="M0 0V269.46L42.24 331.78L45.3 329.22L4 268V14.5H14.12V4H405.5V14.5H415.62V268L374.32 329.22L377.38 331.78L419.62 269.46V0H0Z" fill="url(#paint10_linear)"/>
<g opacity="0.2">
<g opacity="0.2">
<path opacity="0.2" d="M103.11 452.939C131.94 475.179 167.76 493.859 192.25 499.409C199.62 501.079 205.91 507.909 209.82 513.199C213.71 508.289 219.75 501.949 226.46 499.569C275.85 482.049 369.27 434.309 369.27 379.039V9.96875H50.5798V380.239C50.5798 400.689 69.7299 427.189 103.11 452.939Z" fill="url(#paint11_linear)"/>
</g>
</g>
<path opacity="0.2" d="M102.53 447.97C131.36 470.21 167.18 488.89 191.67 494.44C199.04 496.11 205.33 502.94 209.24 508.23C213.13 503.32 219.17 496.98 225.88 494.6C275.27 477.08 368.69 429.34 368.69 374.07V5H50V375.27C50 395.72 69.15 422.22 102.53 447.97Z" fill="url(#paint12_linear)"/>
<path d="M45.6099 5H374.22V379.04C374.22 436.38 282.15 485.09 228.11 504.26C218.54 507.65 209.63 522.02 209.63 522.02C209.63 522.02 201.05 506.51 191.15 504.26C142.33 493.19 45.6199 430.31 45.6199 380.25L45.6099 5Z" fill="#4A0300" fill-opacity="0.4" stroke="url(#paint13_linear)" stroke-width="9.942"/>
<path opacity="0.6" d="M359.25 379.04C359.25 405.16 332.78 429.5 310.57 445.32C274.76 470.83 234.57 486.08 223.11 490.15C218.69 491.72 214.3 494.46 209.98 498.36C205.02 493.8 199.82 490.88 194.45 489.66C171.25 484.4 137 466.46 109.21 445.02C93.5801 432.96 80.8701 420.42 72.4301 408.75C64.6801 398.02 60.5801 388.17 60.5801 380.25V30.6405H80.1401V39.5404H71.2401V19.9805H348.58V39.5404H339.68V30.6405H359.24V379.04H359.25Z" stroke="url(#paint14_linear)" stroke-miterlimit="10"/>
<path d="M87.4399 31.6797H331.32" stroke="url(#paint15_linear)" stroke-width="0.4605" stroke-miterlimit="10"/>
</g>
<defs>
<linearGradient id="paint0_linear" x1="114.005" y1="430.988" x2="76.0013" y2="569.986" gradientUnits="userSpaceOnUse">
<stop offset="0.128361" stop-color="#E85246"/>
<stop offset="0.411818" stop-color="#9B1618"/>
<stop offset="0.618171" stop-color="#E81C39"/>
<stop offset="0.835835" stop-color="#560713"/>
</linearGradient>
<linearGradient id="paint1_linear" x1="68.9935" y1="540.428" x2="156.922" y2="540.428" gradientUnits="userSpaceOnUse">
<stop stop-color="#825900" stop-opacity="0.44"/>
<stop offset="0.2429" stop-color="#C19639"/>
<stop offset="0.5093" stop-color="#FFDE96"/>
<stop offset="0.7457" stop-color="#C19639"/>
<stop offset="1" stop-color="#825900" stop-opacity="0.44"/>
</linearGradient>
<linearGradient id="paint2_linear" x1="68.995" y1="503.481" x2="156.923" y2="503.481" gradientUnits="userSpaceOnUse">
<stop stop-color="#825900" stop-opacity="0.44"/>
<stop offset="0.2429" stop-color="#C19639"/>
<stop offset="0.5093" stop-color="#FFDE96"/>
<stop offset="0.7457" stop-color="#C19639"/>
<stop offset="1" stop-color="#825900" stop-opacity="0.44"/>
</linearGradient>
<linearGradient id="paint3_linear" x1="297.506" y1="430.988" x2="339.51" y2="564.485" gradientUnits="userSpaceOnUse">
<stop offset="0.128361" stop-color="#E85246"/>
<stop offset="0.411818" stop-color="#9B1618"/>
<stop offset="0.618171" stop-color="#E81C39"/>
<stop offset="0.835835" stop-color="#560713"/>
</linearGradient>
<linearGradient id="paint4_linear" x1="350.626" y1="540.428" x2="262.698" y2="540.428" gradientUnits="userSpaceOnUse">
<stop stop-color="#825900" stop-opacity="0.44"/>
<stop offset="0.2429" stop-color="#C19639"/>
<stop offset="0.5093" stop-color="#FFDE96"/>
<stop offset="0.7457" stop-color="#C19639"/>
<stop offset="1" stop-color="#825900" stop-opacity="0.44"/>
</linearGradient>
<linearGradient id="paint5_linear" x1="350.618" y1="503.481" x2="262.699" y2="503.481" gradientUnits="userSpaceOnUse">
<stop stop-color="#825900" stop-opacity="0.44"/>
<stop offset="0.2429" stop-color="#C19639"/>
<stop offset="0.5093" stop-color="#FFDE96"/>
<stop offset="0.7457" stop-color="#C19639"/>
<stop offset="1" stop-color="#825900" stop-opacity="0.44"/>
</linearGradient>
<linearGradient id="paint6_linear" x1="23.8046" y1="6.07091" x2="23.8967" y2="311.614" gradientUnits="userSpaceOnUse">
<stop offset="0.0505" stop-color="#E85246"/>
<stop offset="0.1535" stop-color="#9B1618"/>
<stop offset="0.5484" stop-color="#E81C39"/>
<stop offset="0.849411" stop-color="#580713"/>
</linearGradient>
<linearGradient id="paint7_linear" x1="395.815" y1="6.07091" x2="395.907" y2="311.614" gradientUnits="userSpaceOnUse">
<stop offset="0.0505" stop-color="#E85246"/>
<stop offset="0.1535" stop-color="#9B1618"/>
<stop offset="0.5484" stop-color="#E81C39"/>
<stop offset="0.849411" stop-color="#580713"/>
</linearGradient>
<linearGradient id="paint8_linear" x1="-20.6477" y1="19.7538" x2="416.908" y2="19.7538" gradientUnits="userSpaceOnUse">
<stop stop-color="#825900" stop-opacity="0.44"/>
<stop offset="0.2429" stop-color="#C19639"/>
<stop offset="0.5093" stop-color="#FFDE96"/>
<stop offset="0.7457" stop-color="#C19639"/>
<stop offset="1" stop-color="#825900" stop-opacity="0.44"/>
</linearGradient>
<linearGradient id="paint9_linear" x1="-0.645857" y1="19.7538" x2="436.91" y2="19.7538" gradientUnits="userSpaceOnUse">
<stop stop-color="#825900" stop-opacity="0.44"/>
<stop offset="0.2429" stop-color="#C19639"/>
<stop offset="0.5093" stop-color="#FFDE96"/>
<stop offset="0.7457" stop-color="#C19639"/>
<stop offset="1" stop-color="#825900" stop-opacity="0.44"/>
</linearGradient>
<linearGradient id="paint10_linear" x1="162.514" y1="-9.89062" x2="140.014" y2="387.609" gradientUnits="userSpaceOnUse">
<stop stop-color="#825900" stop-opacity="0.44"/>
<stop offset="0.2429" stop-color="#C19639"/>
<stop offset="0.5093" stop-color="#FFDE96"/>
<stop offset="0.651599" stop-color="#C19639"/>
<stop offset="0.811734" stop-color="#825900" stop-opacity="0.44"/>
</linearGradient>
<linearGradient id="paint11_linear" x1="44.8348" y1="41.5836" x2="356.757" y2="353.506" gradientUnits="userSpaceOnUse">
<stop stop-color="#C21B1B" stop-opacity="0"/>
<stop offset="0.175" stop-color="#C21B1B"/>
<stop offset="0.2263" stop-color="#F95D69"/>
<stop offset="0.2831" stop-color="#C21B1B"/>
<stop offset="0.486" stop-color="#C21B1B" stop-opacity="0"/>
<stop offset="0.7188" stop-color="#C21B1B"/>
<stop offset="0.7663" stop-color="#F95D69"/>
<stop offset="0.8045" stop-color="#C21B1B"/>
<stop offset="1" stop-color="#C21B1B" stop-opacity="0"/>
</linearGradient>
<linearGradient id="paint12_linear" x1="44.255" y1="36.6149" x2="356.178" y2="348.538" gradientUnits="userSpaceOnUse">
<stop stop-color="#C21B1B" stop-opacity="0"/>
<stop offset="0.175" stop-color="#C21B1B"/>
<stop offset="0.2263" stop-color="#F95D69"/>
<stop offset="0.2831" stop-color="#C21B1B"/>
<stop offset="0.486" stop-color="#C21B1B" stop-opacity="0"/>
<stop offset="0.7188" stop-color="#C21B1B"/>
<stop offset="0.7663" stop-color="#F95D69"/>
<stop offset="0.8045" stop-color="#C21B1B"/>
<stop offset="1" stop-color="#C21B1B" stop-opacity="0"/>
</linearGradient>
<linearGradient id="paint13_linear" x1="99.9914" y1="465.801" x2="262.191" y2="-18.0761" gradientUnits="userSpaceOnUse">
<stop offset="0.0228972" stop-color="#F33B2D" stop-opacity="0.69"/>
<stop offset="0.20318" stop-color="#9B1618"/>
<stop offset="0.570461" stop-color="#E81C39"/>
<stop offset="0.92995" stop-color="#560511" stop-opacity="0.77"/>
</linearGradient>
<linearGradient id="paint14_linear" x1="74.6779" y1="16.7419" x2="352.926" y2="416.469" gradientUnits="userSpaceOnUse">
<stop stop-color="#825900" stop-opacity="0.44"/>
<stop offset="0.2429" stop-color="#C19639"/>
<stop offset="0.5093" stop-color="#FFDE96"/>
<stop offset="0.7457" stop-color="#C19639"/>
<stop offset="1" stop-color="#825900" stop-opacity="0.44"/>
</linearGradient>
<linearGradient id="paint15_linear" x1="nan" y1="nan" x2="nan" y2="nan" gradientUnits="userSpaceOnUse">
<stop stop-color="#825900" stop-opacity="0.44"/>
<stop offset="0.2429" stop-color="#C19639"/>
<stop offset="0.5093" stop-color="#FFDE96"/>
<stop offset="0.7457" stop-color="#C19639"/>
<stop offset="1" stop-color="#825900" stop-opacity="0.44"/>
</linearGradient>
<clipPath id="clip0">
<rect width="420" height="576" fill="white"/>
</clipPath>
</defs>
</svg>
