<svg width="420" height="576" viewBox="0 0 420 576" fill="none" xmlns="http://www.w3.org/2000/svg">
<g clip-path="url(#clip0)">
<path opacity="0.37" d="M71 431V571.89L157.2 494.23L71 431Z" fill="url(#paint0_linear)" fill-opacity="0.4"/>
<path d="M84.14 542.68C85.3827 542.68 86.39 541.672 86.39 540.43C86.39 539.187 85.3827 538.18 84.14 538.18C82.8974 538.18 81.89 539.187 81.89 540.43C81.89 541.672 82.8974 542.68 84.14 542.68Z" fill="url(#paint1_linear)"/>
<path opacity="0.6" d="M156.06 492.529L81.02 560.129V547.079L73.1901 555.099V430.789H69.1901V576.169L158.73 495.499L156.06 492.529Z" fill="url(#paint2_linear)"/>
<path opacity="0.37" d="M348.42 430.789V571.679L262.21 494.019L348.42 430.789Z" fill="url(#paint3_linear)" fill-opacity="0.4"/>
<path d="M335.46 542.68C336.703 542.68 337.71 541.672 337.71 540.43C337.71 539.187 336.703 538.18 335.46 538.18C334.217 538.18 333.21 539.187 333.21 540.43C333.21 541.672 334.217 542.68 335.46 542.68Z" fill="url(#paint4_linear)"/>
<path opacity="0.6" d="M263.55 492.529L338.58 560.129V547.079L346.42 555.099V430.789H350.42V576.169L260.87 495.499L263.55 492.529Z" fill="url(#paint5_linear)"/>
<path opacity="0.37" d="M45.61 2H2V268.73L43.76 330.5L45.61 2Z" fill="url(#paint6_linear)" fill-opacity="0.4"/>
<path opacity="0.37" d="M374 2H417.61V268.73L375.84 330.5L374 2Z" fill="url(#paint7_linear)" fill-opacity="0.4"/>
<path d="M399.02 22C400.263 22 401.27 20.9926 401.27 19.75C401.27 18.5074 400.263 17.5 399.02 17.5C397.777 17.5 396.77 18.5074 396.77 19.75C396.77 20.9926 397.777 22 399.02 22Z" fill="url(#paint8_linear)"/>
<path d="M20.58 22C21.8226 22 22.83 20.9926 22.83 19.75C22.83 18.5074 21.8226 17.5 20.58 17.5C19.3373 17.5 18.33 18.5074 18.33 19.75C18.33 20.9926 19.3373 22 20.58 22Z" fill="url(#paint9_linear)"/>
<path opacity="0.4" d="M0 0V269.46L42.23 331.78L45.3 329.22L4 268V14.5H14.11V4H405.49V14.5H415.61V268L374.31 329.22L377.37 331.78L419.61 269.46V0H0Z" fill="url(#paint10_linear)"/>
<g opacity="0.2">
<path opacity="0.2" d="M103.1 452.939C131.93 475.179 167.75 493.859 192.24 499.409C199.61 501.079 205.9 507.909 209.81 513.199C213.7 508.289 219.74 501.949 226.45 499.569C275.84 482.049 369.26 434.309 369.26 379.039V9.96875H50.58V380.239C50.58 400.689 69.72 427.189 103.1 452.939Z" fill="url(#paint11_linear)"/>
</g>
<path opacity="0.2" d="M102.72 454.861C131.55 477.101 167.37 495.781 191.86 501.331C199.23 503.001 205.52 509.831 209.43 515.121C213.32 510.211 219.36 503.871 226.07 501.491C275.46 483.971 368.88 436.231 368.88 380.961V11.8906H50.2V382.161C50.2 402.611 69.34 429.111 102.72 454.861Z" fill="url(#paint12_linear)"/>
<path d="M45.61 5H374.22V379.04C374.22 436.38 282.15 485.09 228.11 504.26C218.54 507.65 209.63 522.02 209.63 522.02C209.63 522.02 201.05 506.51 191.15 504.26C142.33 493.19 45.62 430.31 45.62 380.25L45.61 5Z" fill="#00180B" fill-opacity="0.4" stroke="url(#paint13_linear)" stroke-width="9.942"/>
<path opacity="0.6" d="M359.25 379.04C359.25 405.16 332.78 429.5 310.57 445.32C274.76 470.83 234.57 486.08 223.11 490.15C218.69 491.72 214.3 494.46 209.98 498.36C205.02 493.8 199.82 490.88 194.45 489.66C171.25 484.4 137 466.46 109.21 445.02C93.58 432.96 80.8701 420.42 72.4301 408.75C64.6801 398.02 60.58 388.17 60.58 380.25V30.6405H80.14V39.5404H71.24V19.9805H348.58V39.5404H339.68V30.6405H359.24V379.04H359.25Z" stroke="url(#paint14_linear)" stroke-miterlimit="10"/>
<path d="M87.4301 31.6797H331.31" stroke="url(#paint15_linear)" stroke-width="0.4605" stroke-miterlimit="10"/>
</g>
<defs>
<linearGradient id="paint0_linear" x1="114.1" y1="411.837" x2="70.8006" y2="572.197" gradientUnits="userSpaceOnUse">
<stop offset="0.0505" stop-color="#159933"/>
<stop offset="0.29079" stop-color="#155731"/>
<stop offset="0.48835" stop-color="#0F9030"/>
<stop offset="0.785462" stop-color="#0C3F13"/>
</linearGradient>
<linearGradient id="paint1_linear" x1="68.9855" y1="540.428" x2="156.914" y2="540.428" gradientUnits="userSpaceOnUse">
<stop stop-color="#825900" stop-opacity="0.44"/>
<stop offset="0.2429" stop-color="#C19639"/>
<stop offset="0.5093" stop-color="#FFDE96"/>
<stop offset="0.7457" stop-color="#C19639"/>
<stop offset="1" stop-color="#825900" stop-opacity="0.44"/>
</linearGradient>
<linearGradient id="paint2_linear" x1="68.9851" y1="503.481" x2="156.913" y2="503.481" gradientUnits="userSpaceOnUse">
<stop stop-color="#825900" stop-opacity="0.44"/>
<stop offset="0.2429" stop-color="#C19639"/>
<stop offset="0.5093" stop-color="#FFDE96"/>
<stop offset="0.7457" stop-color="#C19639"/>
<stop offset="1" stop-color="#825900" stop-opacity="0.44"/>
</linearGradient>
<linearGradient id="paint3_linear" x1="297.5" y1="430.988" x2="352" y2="570.988" gradientUnits="userSpaceOnUse">
<stop offset="0.0505" stop-color="#159933"/>
<stop offset="0.329735" stop-color="#155731"/>
<stop offset="0.50614" stop-color="#0F9030"/>
<stop offset="0.799075" stop-color="#09340F"/>
</linearGradient>
<linearGradient id="paint4_linear" x1="350.618" y1="540.428" x2="262.69" y2="540.428" gradientUnits="userSpaceOnUse">
<stop stop-color="#825900" stop-opacity="0.44"/>
<stop offset="0.2429" stop-color="#C19639"/>
<stop offset="0.5093" stop-color="#FFDE96"/>
<stop offset="0.7457" stop-color="#C19639"/>
<stop offset="1" stop-color="#825900" stop-opacity="0.44"/>
</linearGradient>
<linearGradient id="paint5_linear" x1="350.618" y1="503.481" x2="262.69" y2="503.481" gradientUnits="userSpaceOnUse">
<stop stop-color="#825900" stop-opacity="0.44"/>
<stop offset="0.2429" stop-color="#C19639"/>
<stop offset="0.5093" stop-color="#FFDE96"/>
<stop offset="0.7457" stop-color="#C19639"/>
<stop offset="1" stop-color="#825900" stop-opacity="0.44"/>
</linearGradient>
<linearGradient id="paint6_linear" x1="23.8067" y1="6.07091" x2="23.8067" y2="420.113" gradientUnits="userSpaceOnUse">
<stop offset="0.0505" stop-color="#159933"/>
<stop offset="0.1535" stop-color="#155731"/>
<stop offset="0.417648" stop-color="#0F9030"/>
<stop offset="0.692354" stop-color="#0C2D11"/>
</linearGradient>
<linearGradient id="paint7_linear" x1="395.807" y1="6.07091" x2="395.807" y2="420.113" gradientUnits="userSpaceOnUse">
<stop offset="0.0505" stop-color="#159933"/>
<stop offset="0.1535" stop-color="#155731"/>
<stop offset="0.417648" stop-color="#0F9030"/>
<stop offset="0.692354" stop-color="#0C2D11"/>
</linearGradient>
<linearGradient id="paint8_linear" x1="-20.6559" y1="19.7538" x2="416.9" y2="19.7538" gradientUnits="userSpaceOnUse">
<stop stop-color="#825900" stop-opacity="0.44"/>
<stop offset="0.2429" stop-color="#C19639"/>
<stop offset="0.5093" stop-color="#FFDE96"/>
<stop offset="0.7457" stop-color="#C19639"/>
<stop offset="1" stop-color="#825900" stop-opacity="0.44"/>
</linearGradient>
<linearGradient id="paint9_linear" x1="-0.653844" y1="19.7538" x2="436.902" y2="19.7538" gradientUnits="userSpaceOnUse">
<stop stop-color="#825900" stop-opacity="0.44"/>
<stop offset="0.2429" stop-color="#C19639"/>
<stop offset="0.5093" stop-color="#FFDE96"/>
<stop offset="0.7457" stop-color="#C19639"/>
<stop offset="1" stop-color="#825900" stop-opacity="0.44"/>
</linearGradient>
<linearGradient id="paint10_linear" x1="162.51" y1="-9.89062" x2="140.01" y2="387.609" gradientUnits="userSpaceOnUse">
<stop stop-color="#825900" stop-opacity="0.44"/>
<stop offset="0.2429" stop-color="#C19639"/>
<stop offset="0.5093" stop-color="#FFDE96"/>
<stop offset="0.651599" stop-color="#C19639"/>
<stop offset="0.811734" stop-color="#825900" stop-opacity="0.44"/>
</linearGradient>
<linearGradient id="paint11_linear" x1="44.827" y1="41.5836" x2="356.75" y2="353.506" gradientUnits="userSpaceOnUse">
<stop stop-color="#0C792B" stop-opacity="0"/>
<stop offset="0.175" stop-color="#0C792B"/>
<stop offset="0.2263" stop-color="#2DA92A"/>
<stop offset="0.2831" stop-color="#0C792B"/>
<stop offset="0.486" stop-color="#0C792B" stop-opacity="0"/>
<stop offset="0.7188" stop-color="#0C792B"/>
<stop offset="0.7663" stop-color="#2DA92A"/>
<stop offset="0.8045" stop-color="#0C792B"/>
<stop offset="1" stop-color="#0C792B" stop-opacity="0"/>
</linearGradient>
<linearGradient id="paint12_linear" x1="44.447" y1="43.5055" x2="356.37" y2="355.428" gradientUnits="userSpaceOnUse">
<stop stop-color="#0C792B" stop-opacity="0"/>
<stop offset="0.175" stop-color="#0C792B"/>
<stop offset="0.2263" stop-color="#2DA92A"/>
<stop offset="0.2831" stop-color="#0C792B"/>
<stop offset="0.486" stop-color="#0C792B" stop-opacity="0"/>
<stop offset="0.7188" stop-color="#0C792B"/>
<stop offset="0.7663" stop-color="#2DA92A"/>
<stop offset="0.8045" stop-color="#0C792B"/>
<stop offset="1" stop-color="#0C792B" stop-opacity="0"/>
</linearGradient>
<linearGradient id="paint13_linear" x1="99.4917" y1="463.476" x2="265.228" y2="-14.4247" gradientUnits="userSpaceOnUse">
<stop offset="0.0505" stop-color="#048321"/>
<stop offset="0.190277" stop-color="#155731"/>
<stop offset="0.630367" stop-color="#0F9030"/>
<stop offset="0.964962" stop-color="#08230C"/>
</linearGradient>
<linearGradient id="paint14_linear" x1="74.6698" y1="16.7419" x2="352.918" y2="416.469" gradientUnits="userSpaceOnUse">
<stop stop-color="#825900" stop-opacity="0.44"/>
<stop offset="0.2429" stop-color="#C19639"/>
<stop offset="0.5093" stop-color="#FFDE96"/>
<stop offset="0.7457" stop-color="#C19639"/>
<stop offset="1" stop-color="#825900" stop-opacity="0.44"/>
</linearGradient>
<linearGradient id="paint15_linear" x1="nan" y1="nan" x2="nan" y2="nan" gradientUnits="userSpaceOnUse">
<stop stop-color="#825900" stop-opacity="0.44"/>
<stop offset="0.2429" stop-color="#C19639"/>
<stop offset="0.5093" stop-color="#FFDE96"/>
<stop offset="0.7457" stop-color="#C19639"/>
<stop offset="1" stop-color="#825900" stop-opacity="0.44"/>
</linearGradient>
<clipPath id="clip0">
<rect width="420" height="576" fill="white"/>
</clipPath>
</defs>
</svg>
