<svg width="261" height="45" viewBox="0 0 261 45" fill="none" xmlns="http://www.w3.org/2000/svg">
<g clip-path="url(#clip0)">
<path opacity="0.4" fill-rule="evenodd" clip-rule="evenodd" d="M-80.2689 4H-89.066C-88.7394 4.23954 -88.4223 4.48969 -88.1147 4.7501C-83.9365 8.28674 -81.8553 13.4196 -81.2396 18.6061C-80.6238 23.794 -81.4387 29.2631 -83.3001 33.804C-84.0627 35.6644 -85.0346 37.4447 -86.2103 39.002H-65.5692C-73.2738 28.7309 -78.174 17.0506 -80.2689 4ZM-154.952 4H-117.649C-121.384 5.79665 -124.446 8.22348 -126.764 11.3233C-129.82 10.7807 -132.999 11.3692 -136.2 12.9395C-138.929 14.2788 -141.711 16.3432 -144.549 19.0693C-149.971 19.7956 -152.816 18.6738 -154.222 16.8528C-155.819 14.7859 -156.439 10.7995 -154.952 4ZM-166.693 4H-160.059C-161.363 10.625 -161.058 16.1824 -158.18 19.9091C-156.097 22.6061 -153.028 23.9208 -149.336 24.2201C-149.538 24.4599 -149.741 24.7028 -149.944 24.9486C-154.592 30.5861 -158.225 34.7684 -160.921 37.2324C-161.877 38.1058 -162.614 38.6678 -163.156 39.002H-166.693V42.6718L-167 42.9321C-166.903 43.0466 -166.8 43.1555 -166.693 43.2582V44.002H-165.609C-165.258 44.1652 -164.878 44.2786 -164.474 44.3346C-163.568 44.4598 -162.719 44.2726 -162.009 44.002H-33.6969C-32.9946 44.4615 -32.2511 44.8451 -31.4668 45.1392L-31.0405 44.002H37.8345C37.8652 44.0161 37.896 44.0299 37.9267 44.0435C37.973 44.064 38.0192 44.0839 38.0654 44.1031C38.7898 44.4055 39.6778 44.6352 40.6352 44.5157C41.189 44.4466 41.698 44.2688 42.1504 44.002H45.4469C45.8997 44.2693 46.4092 44.4474 46.9636 44.5166C47.921 44.636 48.809 44.4064 49.5334 44.104C49.5621 44.0921 49.5907 44.0799 49.6194 44.0675C49.6683 44.0463 49.7173 44.0245 49.7663 44.002H177.709C178.412 44.4615 179.155 44.8451 179.939 45.1392L180.366 44.002H249.612C250.322 44.2721 251.169 44.4588 252.074 44.3337C252.478 44.2778 252.857 44.1648 253.208 44.002H257.114C257.566 44.2693 258.076 44.4474 258.63 44.5166C259.588 44.636 260.476 44.4064 261.2 44.104C261.278 44.0717 261.355 44.0377 261.433 44.002H389.376C390.078 44.4615 390.822 44.8451 391.606 45.1392L392.032 44.002H425V39.4827L429.698 40.4805C431.738 30.8757 431.615 22.6792 428.954 16.1508C430.282 16.2526 431.709 16.6647 433.264 17.4274C436.781 19.1531 440.818 22.6296 445.353 28.1288L446.189 29.1429C450.409 34.2638 453.959 38.5706 456.73 41.3512C458.178 42.8039 459.62 44.0575 460.987 44.7376C461.684 45.0842 462.573 45.3906 463.558 45.3273C464.651 45.2571 465.589 44.7493 466.267 43.9502L462.454 40.7158C462.602 40.5412 462.898 40.3594 463.238 40.3376C463.346 40.3306 463.409 40.3438 463.417 40.3456C463.409 40.3436 463.345 40.3259 463.214 40.2608C462.628 39.9694 461.671 39.2253 460.272 37.8217C457.676 35.2164 454.269 31.0841 449.941 25.8344L449.939 25.8315L449.21 24.9477C449.007 24.7009 448.803 24.4571 448.6 24.2164C452.293 23.9176 455.363 22.6028 457.447 19.9052C460.525 15.9194 460.66 9.8398 459.031 2.59952L454.153 3.6968C455.724 10.6789 455.109 14.7518 453.49 16.8489C452.083 18.6704 449.237 19.7923 443.812 19.0648C440.975 16.3404 438.195 14.2773 435.466 12.9386C432.349 11.4094 429.253 10.8113 426.271 11.2821C424.077 8.23551 421.184 5.8211 417.655 4H425V-1H-166.693V4ZM388.149 4H379.536C377.441 17.0507 372.541 28.7309 364.836 39.002H384.659C383.836 37.6967 383.134 36.2772 382.555 34.812C380.702 30.122 379.893 24.4596 380.505 19.0829C381.115 13.7145 383.177 8.38366 387.334 4.68284C387.599 4.44732 387.87 4.21963 388.149 4ZM391.071 39.002H409.715C411.26 34.6053 411.754 31.2107 411.449 28.7012C411.149 26.2344 410.09 24.6159 408.304 23.5375C406.606 22.5125 405.515 22.2678 404.739 22.2948C403.977 22.3213 403.152 22.6206 401.989 23.4405L399.108 19.3541C400.69 18.2389 402.456 17.3711 404.565 17.2978C406.659 17.225 408.719 17.9478 410.888 19.2571C414.115 21.2052 415.945 24.2549 416.412 28.0981C416.796 31.2575 416.262 34.9188 414.984 39.002H424.899C427.054 28.5437 426.247 20.8408 423.059 15.4924C419.877 10.1548 413.986 6.61254 404.727 5.25653C398.012 4.27296 393.559 5.83503 390.659 8.41723C387.692 11.059 385.992 15.0869 385.473 19.6479C384.955 24.2008 385.65 29.0388 387.205 32.9748C388.257 35.6384 389.613 37.6784 391.071 39.002ZM198.048 39.002H179.404C177.946 37.6784 176.591 35.6384 175.539 32.9748C173.984 29.0388 173.289 24.2008 173.806 19.6479C174.325 15.0869 176.025 11.059 178.992 8.41723C181.893 5.83503 186.345 4.27296 193.061 5.25653C202.319 6.61254 208.211 10.1548 211.393 15.4924C214.581 20.8408 215.387 28.5437 213.233 39.002H203.317C204.596 34.9188 205.13 31.2575 204.746 28.0981C204.279 24.2549 202.448 21.2052 199.222 19.2571C197.053 17.9478 194.993 17.225 192.898 17.2978C190.789 17.3711 189.023 18.2389 187.442 19.3541L190.323 23.4405C191.486 22.6206 192.31 22.3213 193.072 22.2948C193.849 22.2678 194.94 22.5125 196.637 23.5375C198.423 24.6159 199.483 26.2344 199.782 28.7012C200.087 31.2107 199.594 34.6053 198.048 39.002ZM243.175 39.002H218.331C220.052 30.0325 219.811 22.3416 217.287 16.1508C218.616 16.2525 220.043 16.6647 221.598 17.4274C225.115 19.1531 229.152 22.6296 233.687 28.1288C237.347 32.5674 240.523 36.2864 243.175 39.002ZM260.123 39.002H250.758C250.216 38.6679 249.478 38.1057 248.522 37.2315C245.826 34.7675 242.193 30.5852 237.544 24.9477C237.341 24.7009 237.137 24.4571 236.934 24.2164C240.627 23.9175 243.697 22.6028 245.78 19.9052C248.658 16.1792 248.963 10.6233 247.66 4H263.012C261.708 10.625 262.013 16.1824 264.892 19.9091C266.975 22.6061 270.044 23.9208 273.735 24.2201C273.533 24.4599 273.33 24.7028 273.128 24.9486C268.474 30.5919 264.838 34.8244 262.134 37.3402C261.307 38.1096 260.641 38.6461 260.123 39.002ZM205.989 4H242.554C244.039 10.7971 243.419 14.7824 241.823 16.8489C240.416 18.6703 237.571 19.7922 232.146 19.0649C229.309 16.3405 226.529 14.2773 223.8 12.9386C220.683 11.4094 217.586 10.8112 214.605 11.2821C212.411 8.23554 209.517 5.82111 205.989 4ZM175.668 4.68284C175.932 4.44732 176.204 4.21963 176.483 4H167.869C165.774 17.0506 160.874 28.7309 153.169 39.002H172.993C172.169 37.6967 171.467 36.2772 170.888 34.812C169.035 30.122 168.227 24.4596 168.838 19.0829C169.449 13.7145 171.511 8.38366 175.668 4.68284ZM39.1437 39.002H48.4565C48.9747 38.6461 49.6402 38.1096 50.4672 37.3402C53.1716 34.8244 56.8074 30.5919 61.461 24.9486C61.6637 24.7028 61.8662 24.4599 62.0684 24.2201C58.377 23.9208 55.3079 22.6061 53.2249 19.9091C50.3466 16.1824 50.0417 10.625 51.3455 4H36.2541C37.5571 10.6233 37.2517 16.1792 34.374 19.9052C32.2905 22.6028 29.2205 23.9175 25.5281 24.2164C25.7311 24.4571 25.9343 24.7009 26.1379 24.9477C30.7915 30.591 34.4272 34.8235 37.1317 37.3393C37.9594 38.1093 38.6253 38.6461 39.1437 39.002ZM31.1476 4H-5.41728C-1.88919 5.82111 1.00453 8.23554 3.1985 11.2821C6.18013 10.8112 9.27701 11.4094 12.3939 12.9386C15.1225 14.2773 17.9026 16.3405 20.7393 19.0649C26.1644 19.7922 29.01 18.6703 30.4168 16.8489C32.0128 14.7824 32.6328 10.7971 31.1476 4ZM-34.9237 4H-43.5358C-45.6306 17.0506 -50.5308 28.7309 -58.2354 39.002H-38.4137C-39.2372 37.6967 -39.939 36.2772 -40.5179 34.812C-42.3707 30.122 -43.1794 24.4596 -42.5679 19.0829C-41.9574 13.7145 -39.8954 8.38366 -35.7386 4.68284C-35.4741 4.44732 -35.2025 4.21963 -34.9237 4ZM-32.0019 39.002H-13.3575C-11.8121 34.6053 -11.3185 31.2107 -11.6235 28.7012C-11.9233 26.2344 -12.9824 24.6159 -14.7686 23.5375C-16.4662 22.5125 -17.5572 22.2678 -18.3338 22.2948C-19.0956 22.3213 -19.9201 22.6206 -21.083 23.4405L-23.9642 19.3541C-22.3825 18.2389 -20.6166 17.3711 -18.5075 17.2978C-16.4133 17.225 -14.3529 17.9478 -12.1843 19.2571C-8.95764 21.2052 -7.12701 24.2549 -6.66 28.0981C-6.27608 31.2575 -6.81015 34.9188 -8.08875 39.002H1.82642C3.98116 28.5437 3.17471 20.8408 -0.0136566 15.4924C-3.19562 10.1548 -9.08699 6.61254 -18.3456 5.25653C-25.0612 4.27296 -29.5135 5.83503 -32.4138 8.41723C-35.381 11.059 -37.0812 15.0869 -37.5999 19.6479C-38.1177 24.2008 -37.4226 29.0388 -35.8676 32.9748C-34.8154 35.6384 -33.4602 37.6784 -32.0019 39.002ZM6.92435 39.002H31.7065C29.0697 36.26 25.9135 32.5346 22.2803 28.1288C17.7455 22.6296 13.7087 19.1531 10.1916 17.4274C8.63687 16.6647 7.20927 16.2525 5.88104 16.1508C8.40462 22.3416 8.64575 30.0325 6.92435 39.002ZM292.271 39.002H267.56C270.197 36.26 273.352 32.535 276.985 28.1297C281.52 22.6305 285.557 19.154 289.074 17.4283C290.69 16.6353 292.169 16.2213 293.542 16.141C290.907 22.3117 290.592 30.0073 292.271 39.002ZM307.354 39.002H297.364C295.303 28.7311 296.128 21.1465 299.279 15.8611C302.461 10.5234 308.352 6.98121 317.611 5.6252C324.362 4.63648 328.832 6.11669 331.726 8.56647C334.672 11.0599 336.353 14.8691 336.867 19.1955C337.38 23.5204 336.691 28.135 335.145 31.9076C333.655 35.543 331.542 38.009 329.357 39.002H312.623C311.078 34.6057 310.584 31.2114 310.889 28.7021C311.189 26.2353 312.248 24.6168 314.034 23.5384C315.732 22.5134 316.823 22.2687 317.599 22.2957C318.361 22.3222 319.186 22.6215 320.349 23.4414L323.23 19.355C321.648 18.2398 319.882 17.372 317.773 17.2987C315.679 17.2259 313.618 17.9487 311.45 19.258C308.223 21.2061 306.393 24.2559 305.926 28.099C305.542 31.2582 306.076 34.9192 307.354 39.002ZM357.502 39.002H336.861C338.037 37.4447 339.009 35.6644 339.771 33.804C341.633 29.2631 342.448 23.794 341.832 18.6061C341.216 13.4196 339.135 8.28674 334.957 4.7501C334.649 4.48969 334.332 4.23954 334.005 4H342.803C344.898 17.0506 349.798 28.7309 357.502 39.002ZM268.119 4H305.422C301.688 5.79665 298.625 8.22348 296.307 11.3233C293.252 10.7807 290.072 11.3692 286.872 12.9395C284.142 14.2788 281.361 16.3432 278.523 19.0693C273.1 19.7956 270.255 18.6738 268.849 16.8528C267.252 14.7859 266.633 10.7995 268.119 4ZM55.8932 39.002H80.6043C78.9256 30.0073 79.2405 22.3117 81.8753 16.141C80.5025 16.2213 79.0236 16.6353 77.4073 17.4283C73.8901 19.154 69.8534 22.6305 65.3185 28.1297C61.6857 32.535 58.5299 36.26 55.8932 39.002ZM85.6971 39.002H95.6873C94.4089 34.9192 93.8749 31.2582 94.2588 28.099C94.7259 24.2558 96.5565 21.2061 99.7831 19.258C101.952 17.9487 104.012 17.2259 106.106 17.2987C108.215 17.372 109.981 18.2398 111.563 19.355L108.682 23.4414C107.519 22.6215 106.694 22.3222 105.933 22.2957C105.156 22.2687 104.065 22.5134 102.367 23.5384C100.581 24.6168 99.5221 26.2353 99.2223 28.7021C98.9174 31.2114 99.4109 34.6057 100.956 39.002H117.69C119.875 38.009 121.988 35.543 123.478 31.9076C125.024 28.135 125.713 23.5204 125.2 19.1955C124.686 14.8691 123.005 11.0599 120.059 8.56647C117.165 6.11669 112.695 4.63648 105.944 5.6252C96.6854 6.98121 90.7941 10.5234 87.6121 15.8611C84.4613 21.1465 83.6366 28.7311 85.6971 39.002ZM125.194 39.002H145.836C138.131 28.7309 133.231 17.0506 131.136 4H122.339C122.665 4.23954 122.982 4.48969 123.29 4.7501C127.468 8.28674 129.549 13.4196 130.165 18.6061C130.781 23.794 129.966 29.2631 128.104 33.804C127.342 35.6644 126.37 37.4447 125.194 39.002ZM93.7554 4H56.452C54.9658 10.7995 55.5857 14.7859 57.1821 16.8528C58.5885 18.6738 61.4331 19.7956 66.8559 19.0693C69.6938 16.3432 72.4752 14.2788 75.2049 12.9395C78.4055 11.3692 81.585 10.7807 84.6403 11.3233C86.9586 8.22348 90.021 5.79665 93.7554 4ZM-130.8 39.002H-155.574C-152.922 36.2865 -149.746 32.5678 -146.086 28.1297C-141.551 22.6305 -137.514 19.154 -133.997 17.4283C-132.381 16.6353 -130.902 16.2213 -129.529 16.141C-132.164 22.3117 -132.479 30.0073 -130.8 39.002ZM-115.717 39.002H-125.707C-127.768 28.7311 -126.943 21.1465 -123.792 15.8611C-120.61 10.5234 -114.719 6.98121 -105.461 5.6252C-98.7097 4.63648 -94.2392 6.11669 -91.3451 8.56647C-88.3993 11.0599 -86.7183 14.8691 -86.2048 19.1955C-85.6914 23.5204 -86.3801 28.135 -87.9265 31.9076C-89.4167 35.543 -91.5297 38.009 -93.7148 39.002H-110.449C-111.994 34.6057 -112.487 31.2114 -112.182 28.7021C-111.882 26.2353 -110.823 24.6168 -109.037 23.5384C-107.339 22.5134 -106.249 22.2687 -105.472 22.2957C-104.71 22.3222 -103.886 22.6215 -102.723 23.4414L-99.8415 19.355C-101.423 18.2398 -103.189 17.372 -105.298 17.2987C-107.392 17.2259 -109.453 17.9487 -111.621 19.258C-114.848 21.2061 -116.679 24.2558 -117.146 28.099C-117.53 31.2582 -116.996 34.9192 -115.717 39.002ZM347.871 4C349.876 15.7584 354.308 26.265 361.169 35.5544C368.03 26.265 372.463 15.7584 374.468 4H347.871ZM136.204 4H162.801C160.796 15.7583 156.363 26.2649 149.503 35.5541C142.642 26.2649 138.209 15.7583 136.204 4ZM-75.2009 4C-73.1957 15.7584 -68.7631 26.2651 -61.9023 35.5544C-55.0416 26.2651 -50.6089 15.7584 -48.6037 4H-75.2009Z" fill="url(#paint0_linear)"/>
</g>
<defs>
<linearGradient id="paint0_linear" x1="-16" y1="22" x2="316.281" y2="13.4763" gradientUnits="userSpaceOnUse">
<stop offset="0.074228" stop-color="#8A63F4" stop-opacity="0.1"/>
<stop offset="0.455595" stop-color="#894CF2"/>
<stop offset="0.831049" stop-color="#8735F0" stop-opacity="0.1"/>
</linearGradient>
<clipPath id="clip0">
<rect width="261" height="45" fill="white"/>
</clipPath>
</defs>
</svg>
